<svg width="796" height="907" viewBox="0 0 796 907" fill="none" xmlns="http://www.w3.org/2000/svg">
<path d="M38 370C38 363.373 43.3726 358 50 358H760C766.627 358 772 363.373 772 370V537C772 543.627 766.627 549 760 549H50C43.3726 549 38 543.627 38 537V370Z" fill="#9EFF00"/>
<circle cx="59.0001" cy="59.0001" r="59.0001" transform="matrix(-1 0 0 1 252 394)" fill="black"/>
<g filter="url(#filter0_d_1695_13048)">
<path d="M192.581 493.911C192.884 494.013 193.181 494.012 193.482 493.906C197.363 492.552 225.043 481.824 225.043 451.279V423.667C225.043 422.936 224.543 422.299 223.831 422.122L193.42 414.559C193.166 414.496 192.899 414.496 192.644 414.559C192.389 414.623 162.234 422.122 162.234 422.122C161.521 422.299 161.022 422.936 161.022 423.667V451.279C161.022 482.133 188.695 492.594 192.581 493.911Z" fill="white"/>
</g>
<path d="M173.867 433.466C176.317 430.78 179.303 428.638 182.633 427.181C185.963 425.723 189.563 424.982 193.198 425.004C196.833 425.027 200.423 425.814 203.734 427.313C207.046 428.813 210.005 430.991 212.42 433.708L193.035 450.944L173.867 433.466Z" fill="url(#paint0_radial_1695_13048)"/>
<path d="M382.931 431.297C382.931 432.276 382.843 433.208 382.666 434.094C382.488 434.969 382.233 435.781 381.9 436.531C381.546 437.281 381.108 437.969 380.587 438.594C380.067 439.219 379.473 439.74 378.806 440.156C378.202 440.521 377.535 440.802 376.806 441C376.087 441.208 375.311 441.312 374.478 441.312C373.593 441.312 372.775 441.198 372.025 440.969C371.275 440.74 370.593 440.417 369.978 440C369.374 439.562 368.832 439.036 368.353 438.422C367.874 437.797 367.473 437.094 367.15 436.312C366.858 435.594 366.634 434.812 366.478 433.969C366.332 433.125 366.259 432.234 366.259 431.297V427.984C366.259 426.984 366.343 426.036 366.509 425.141C366.686 424.245 366.942 423.417 367.275 422.656C367.598 421.938 367.988 421.286 368.447 420.703C368.916 420.12 369.452 419.62 370.056 419.203C370.65 418.797 371.317 418.484 372.056 418.266C372.796 418.047 373.598 417.938 374.462 417.938C375.337 417.938 376.155 418.052 376.916 418.281C377.686 418.5 378.379 418.818 378.994 419.234C379.608 419.63 380.145 420.109 380.603 420.672C381.072 421.234 381.473 421.854 381.806 422.531C382.171 423.302 382.447 424.146 382.634 425.062C382.832 425.979 382.931 426.953 382.931 427.984V431.297ZM378.478 427.953C378.478 427.37 378.447 426.818 378.384 426.297C378.332 425.766 378.244 425.276 378.119 424.828C377.962 424.266 377.754 423.766 377.494 423.328C377.233 422.88 376.926 422.516 376.572 422.234C376.291 422.026 375.973 421.865 375.619 421.75C375.275 421.635 374.889 421.578 374.462 421.578C374.056 421.578 373.686 421.63 373.353 421.734C373.03 421.839 372.738 421.99 372.478 422.188C372.124 422.479 371.822 422.844 371.572 423.281C371.332 423.719 371.145 424.229 371.009 424.812C370.905 425.26 370.827 425.75 370.775 426.281C370.733 426.812 370.712 427.37 370.712 427.953V431.297C370.712 431.849 370.733 432.38 370.775 432.891C370.817 433.401 370.889 433.875 370.994 434.312C371.108 434.865 371.275 435.37 371.494 435.828C371.723 436.276 371.988 436.641 372.291 436.922C372.572 437.172 372.889 437.365 373.244 437.5C373.608 437.635 374.02 437.703 374.478 437.703C374.916 437.703 375.317 437.641 375.681 437.516C376.046 437.391 376.369 437.208 376.65 436.969C377.004 436.677 377.301 436.312 377.541 435.875C377.791 435.427 377.988 434.922 378.134 434.359C378.249 433.922 378.332 433.443 378.384 432.922C378.447 432.401 378.478 431.859 378.478 431.297V427.953ZM400.667 441H396.292L389.964 426.328V441H385.542V418.25H389.964L396.245 432.859L396.261 418.25H400.667V441ZM418.278 431.031H408.934V437.453H419.856V441H404.528V418.25H419.809V421.828H408.934V427.562H418.278V431.031ZM452.687 436.25H445.859L444.515 441H439.89L447.343 418.25H451.327L458.64 441H454.015L452.687 436.25ZM446.937 432.516H451.655L449.327 424.141L446.937 432.516ZM464.782 432.656V441H460.391V418.25H468.172C469.412 418.25 470.532 418.432 471.532 418.797C472.532 419.151 473.386 419.646 474.094 420.281C474.792 420.927 475.329 421.698 475.704 422.594C476.089 423.49 476.282 424.484 476.282 425.578C476.282 426.599 476.089 427.542 475.704 428.406C475.329 429.271 474.792 430.016 474.094 430.641C473.386 431.276 472.532 431.771 471.532 432.125C470.532 432.479 469.412 432.656 468.172 432.656H464.782ZM464.782 429.094H468.172C468.797 429.094 469.339 429 469.797 428.812C470.256 428.625 470.641 428.37 470.954 428.047C471.256 427.724 471.48 427.354 471.626 426.938C471.782 426.51 471.86 426.068 471.86 425.609C471.86 425.078 471.782 424.583 471.626 424.125C471.48 423.667 471.256 423.266 470.954 422.922C470.641 422.578 470.256 422.307 469.797 422.109C469.339 421.911 468.797 421.812 468.172 421.812H464.782V429.094ZM479.689 418.25H492.846V421.797H488.408V437.469H492.846V441H479.689V437.469H484.018V421.797H479.689V418.25ZM521.333 418.25L523.489 426.797L525.942 418.25H531.395V441H527.364V434.266L527.552 423.625L524.567 433.5H522.395L519.723 424.047L519.911 434.266V441H515.88V418.25H521.333ZM549.709 418.25L549.725 433.328C549.725 434.599 549.548 435.729 549.194 436.719C548.85 437.708 548.35 438.542 547.694 439.219C547.027 439.906 546.214 440.427 545.256 440.781C544.308 441.135 543.225 441.312 542.006 441.312C540.86 441.312 539.824 441.135 538.897 440.781C537.98 440.427 537.194 439.911 536.537 439.234C535.881 438.557 535.371 437.724 535.006 436.734C534.652 435.734 534.475 434.599 534.475 433.328L534.49 418.25H538.881L538.897 433.328C538.907 434.089 538.98 434.755 539.115 435.328C539.261 435.901 539.475 436.375 539.756 436.75C540.016 437.094 540.334 437.354 540.709 437.531C541.084 437.698 541.516 437.781 542.006 437.781C542.537 437.781 543.006 437.693 543.412 437.516C543.829 437.328 544.173 437.052 544.444 436.688C544.735 436.312 544.954 435.844 545.1 435.281C545.246 434.719 545.324 434.068 545.334 433.328L545.35 418.25H549.709ZM557.867 437.453H568.523V441H553.461V418.25H557.867V437.453ZM588.493 421.828H581.478V441H577.071V421.828H570.149V418.25H588.493V421.828ZM591.354 418.25H604.51V421.797H600.073V437.469H604.51V441H591.354V437.469H595.682V421.797H591.354V418.25ZM613.668 432.656V441H609.277V418.25H617.058C618.298 418.25 619.418 418.432 620.418 418.797C621.418 419.151 622.272 419.646 622.98 420.281C623.678 420.927 624.215 421.698 624.59 422.594C624.975 423.49 625.168 424.484 625.168 425.578C625.168 426.599 624.975 427.542 624.59 428.406C624.215 429.271 623.678 430.016 622.98 430.641C622.272 431.276 621.418 431.771 620.418 432.125C619.418 432.479 618.298 432.656 617.058 432.656H613.668ZM613.668 429.094H617.058C617.683 429.094 618.225 429 618.683 428.812C619.142 428.625 619.527 428.37 619.84 428.047C620.142 427.724 620.366 427.354 620.512 426.938C620.668 426.51 620.746 426.068 620.746 425.609C620.746 425.078 620.668 424.583 620.512 424.125C620.366 423.667 620.142 423.266 619.84 422.922C619.527 422.578 619.142 422.307 618.683 422.109C618.225 421.911 617.683 421.812 617.058 421.812H613.668V429.094ZM632.31 437.453H642.966V441H627.904V418.25H632.31V437.453ZM660.217 431.031H650.874V437.453H661.796V441H646.467V418.25H661.749V421.828H650.874V427.562H660.217V431.031ZM322.411 484.25H315.583L314.24 489H309.615L317.068 466.25H321.052L328.365 489H323.74L322.411 484.25ZM316.661 480.516H321.38L319.052 472.141L316.661 480.516ZM334.507 480.656V489H330.116V466.25H337.897C339.137 466.25 340.257 466.432 341.257 466.797C342.257 467.151 343.111 467.646 343.819 468.281C344.517 468.927 345.053 469.698 345.428 470.594C345.814 471.49 346.007 472.484 346.007 473.578C346.007 474.599 345.814 475.542 345.428 476.406C345.053 477.271 344.517 478.016 343.819 478.641C343.111 479.276 342.257 479.771 341.257 480.125C340.257 480.479 339.137 480.656 337.897 480.656H334.507ZM334.507 477.094H337.897C338.522 477.094 339.064 477 339.522 476.812C339.98 476.625 340.366 476.37 340.678 476.047C340.98 475.724 341.204 475.354 341.35 474.938C341.507 474.51 341.585 474.068 341.585 473.609C341.585 473.078 341.507 472.583 341.35 472.125C341.204 471.667 340.98 471.266 340.678 470.922C340.366 470.578 339.98 470.307 339.522 470.109C339.064 469.911 338.522 469.812 337.897 469.812H334.507V477.094ZM353.117 480.656V489H348.727V466.25H356.508C357.747 466.25 358.867 466.432 359.867 466.797C360.867 467.151 361.721 467.646 362.43 468.281C363.128 468.927 363.664 469.698 364.039 470.594C364.425 471.49 364.617 472.484 364.617 473.578C364.617 474.599 364.425 475.542 364.039 476.406C363.664 477.271 363.128 478.016 362.43 478.641C361.721 479.276 360.867 479.771 359.867 480.125C358.867 480.479 357.747 480.656 356.508 480.656H353.117ZM353.117 477.094H356.508C357.133 477.094 357.675 477 358.133 476.812C358.591 476.625 358.977 476.37 359.289 476.047C359.591 475.724 359.815 475.354 359.961 474.938C360.117 474.51 360.195 474.068 360.195 473.609C360.195 473.078 360.117 472.583 359.961 472.125C359.815 471.667 359.591 471.266 359.289 470.922C358.977 470.578 358.591 470.307 358.133 470.109C357.675 469.911 357.133 469.812 356.508 469.812H353.117V477.094ZM371.759 485.453H382.416V489H367.353V466.25H371.759V485.453ZM386.636 466.25H399.792V469.797H395.354V485.469H399.792V489H386.636V485.469H390.964V469.797H386.636V466.25ZM420.075 481.875C420.002 483.021 419.752 484.052 419.325 484.969C418.908 485.885 418.345 486.667 417.637 487.312C416.929 487.958 416.085 488.458 415.106 488.812C414.127 489.156 413.043 489.328 411.856 489.328C410.918 489.328 410.048 489.208 409.246 488.969C408.455 488.719 407.741 488.365 407.106 487.906C406.522 487.479 406.002 486.964 405.543 486.359C405.095 485.755 404.715 485.089 404.403 484.359C404.101 483.63 403.866 482.828 403.7 481.953C403.543 481.078 403.465 480.151 403.465 479.172V476.109C403.465 475.193 403.538 474.323 403.684 473.5C403.83 472.667 404.048 471.896 404.34 471.188C404.673 470.323 405.111 469.552 405.653 468.875C406.194 468.198 406.809 467.625 407.496 467.156C408.111 466.76 408.783 466.458 409.512 466.25C410.252 466.031 411.043 465.922 411.887 465.922C413.137 465.922 414.246 466.099 415.215 466.453C416.194 466.807 417.028 467.312 417.715 467.969C418.403 468.625 418.944 469.427 419.34 470.375C419.736 471.323 419.986 472.391 420.09 473.578H415.715C415.673 472.901 415.569 472.307 415.403 471.797C415.246 471.286 415.017 470.859 414.715 470.516C414.403 470.182 414.012 469.932 413.543 469.766C413.085 469.589 412.533 469.5 411.887 469.5C411.543 469.5 411.22 469.536 410.918 469.609C410.627 469.682 410.356 469.792 410.106 469.938C409.679 470.188 409.314 470.547 409.012 471.016C408.72 471.474 408.486 472.01 408.309 472.625C408.173 473.104 408.075 473.635 408.012 474.219C407.95 474.792 407.918 475.411 407.918 476.078V479.172C407.918 480.078 407.965 480.891 408.059 481.609C408.163 482.318 408.319 482.938 408.528 483.469C408.673 483.833 408.845 484.156 409.043 484.438C409.252 484.719 409.486 484.953 409.746 485.141C410.028 485.349 410.34 485.505 410.684 485.609C411.038 485.703 411.429 485.75 411.856 485.75C412.429 485.75 412.944 485.677 413.403 485.531C413.861 485.385 414.252 485.156 414.575 484.844C414.897 484.531 415.153 484.13 415.34 483.641C415.528 483.151 415.642 482.562 415.684 481.875H420.075ZM434.076 484.25H427.248L425.904 489H421.279L428.732 466.25H432.717L440.029 489H435.404L434.076 484.25ZM428.326 480.516H433.045L430.717 472.141L428.326 480.516ZM458.218 469.828H451.202V489H446.796V469.828H439.874V466.25H458.218V469.828ZM461.079 466.25H474.235V469.797H469.797V485.469H474.235V489H461.079V485.469H465.407V469.797H461.079V466.25ZM494.596 479.297C494.596 480.276 494.507 481.208 494.33 482.094C494.153 482.969 493.898 483.781 493.564 484.531C493.21 485.281 492.773 485.969 492.252 486.594C491.731 487.219 491.137 487.74 490.471 488.156C489.866 488.521 489.2 488.802 488.471 489C487.752 489.208 486.976 489.312 486.143 489.312C485.257 489.312 484.439 489.198 483.689 488.969C482.939 488.74 482.257 488.417 481.643 488C481.038 487.562 480.497 487.036 480.018 486.422C479.538 485.797 479.137 485.094 478.814 484.312C478.523 483.594 478.299 482.812 478.143 481.969C477.997 481.125 477.924 480.234 477.924 479.297V475.984C477.924 474.984 478.007 474.036 478.174 473.141C478.351 472.245 478.606 471.417 478.939 470.656C479.262 469.938 479.653 469.286 480.111 468.703C480.58 468.12 481.116 467.62 481.721 467.203C482.314 466.797 482.981 466.484 483.721 466.266C484.46 466.047 485.262 465.938 486.127 465.938C487.002 465.938 487.82 466.052 488.58 466.281C489.351 466.5 490.044 466.818 490.658 467.234C491.273 467.63 491.809 468.109 492.268 468.672C492.736 469.234 493.137 469.854 493.471 470.531C493.835 471.302 494.111 472.146 494.299 473.062C494.497 473.979 494.596 474.953 494.596 475.984V479.297ZM490.143 475.953C490.143 475.37 490.111 474.818 490.049 474.297C489.997 473.766 489.908 473.276 489.783 472.828C489.627 472.266 489.419 471.766 489.158 471.328C488.898 470.88 488.59 470.516 488.236 470.234C487.955 470.026 487.637 469.865 487.283 469.75C486.939 469.635 486.554 469.578 486.127 469.578C485.721 469.578 485.351 469.63 485.018 469.734C484.695 469.839 484.403 469.99 484.143 470.188C483.788 470.479 483.486 470.844 483.236 471.281C482.997 471.719 482.809 472.229 482.674 472.812C482.57 473.26 482.491 473.75 482.439 474.281C482.398 474.812 482.377 475.37 482.377 475.953V479.297C482.377 479.849 482.398 480.38 482.439 480.891C482.481 481.401 482.554 481.875 482.658 482.312C482.773 482.865 482.939 483.37 483.158 483.828C483.387 484.276 483.653 484.641 483.955 484.922C484.236 485.172 484.554 485.365 484.908 485.5C485.273 485.635 485.684 485.703 486.143 485.703C486.58 485.703 486.981 485.641 487.346 485.516C487.71 485.391 488.033 485.208 488.314 484.969C488.669 484.677 488.965 484.312 489.205 483.875C489.455 483.427 489.653 482.922 489.799 482.359C489.913 481.922 489.997 481.443 490.049 480.922C490.111 480.401 490.143 479.859 490.143 479.297V475.953ZM512.331 489H507.956L501.628 474.328V489H497.206V466.25H501.628L507.91 480.859L507.925 466.25H512.331V489ZM527.755 483.062C527.755 482.656 527.682 482.276 527.536 481.922C527.4 481.568 527.166 481.234 526.833 480.922C526.489 480.62 526.041 480.344 525.489 480.094C524.947 479.833 524.27 479.594 523.458 479.375C522.197 479.031 521.088 478.615 520.13 478.125C519.182 477.635 518.406 477.099 517.802 476.516C517.197 475.932 516.739 475.286 516.427 474.578C516.124 473.87 515.973 473.099 515.973 472.266C515.973 471.307 516.177 470.438 516.583 469.656C516.989 468.875 517.552 468.208 518.27 467.656C518.989 467.104 519.838 466.682 520.817 466.391C521.796 466.089 522.859 465.938 524.005 465.938C525.192 465.938 526.275 466.109 527.255 466.453C528.244 466.797 529.093 467.276 529.802 467.891C530.51 468.516 531.062 469.255 531.458 470.109C531.854 470.964 532.052 471.901 532.052 472.922H527.77C527.749 472.411 527.656 471.943 527.489 471.516C527.333 471.089 527.098 470.719 526.786 470.406C526.463 470.104 526.062 469.87 525.583 469.703C525.114 469.526 524.562 469.438 523.927 469.438C523.343 469.438 522.822 469.51 522.364 469.656C521.916 469.792 521.536 469.984 521.223 470.234C520.911 470.495 520.671 470.802 520.505 471.156C520.348 471.5 520.27 471.875 520.27 472.281C520.27 472.708 520.374 473.094 520.583 473.438C520.802 473.781 521.114 474.089 521.52 474.359C521.927 474.641 522.416 474.896 522.989 475.125C523.572 475.354 524.229 475.568 524.958 475.766C525.739 475.984 526.484 476.25 527.192 476.562C527.9 476.875 528.552 477.234 529.145 477.641C530.041 478.307 530.755 479.083 531.286 479.969C531.817 480.854 532.083 481.875 532.083 483.031C532.083 484.031 531.88 484.922 531.473 485.703C531.078 486.474 530.525 487.125 529.817 487.656C529.109 488.198 528.265 488.609 527.286 488.891C526.307 489.161 525.239 489.297 524.083 489.297C522.947 489.297 521.822 489.13 520.708 488.797C519.604 488.453 518.64 487.953 517.817 487.297C517.036 486.651 516.416 485.891 515.958 485.016C515.51 484.141 515.286 483.115 515.286 481.938H519.598C519.619 482.625 519.739 483.214 519.958 483.703C520.177 484.193 520.484 484.594 520.88 484.906C521.265 485.219 521.729 485.448 522.27 485.594C522.822 485.74 523.427 485.812 524.083 485.812C524.666 485.812 525.182 485.745 525.63 485.609C526.088 485.474 526.473 485.286 526.786 485.047C527.098 484.807 527.338 484.521 527.505 484.188C527.671 483.844 527.755 483.469 527.755 483.062ZM553.632 486.766V482.547L562.586 479.547L563.539 479.234L562.601 478.922L553.632 475.969V471.766L567.695 477.484V481.031L553.632 486.766ZM601.573 484.25H594.745L593.401 489H588.776L596.229 466.25H600.213L607.526 489H602.901L601.573 484.25ZM595.823 480.516H600.541L598.213 472.141L595.823 480.516ZM624.152 466.25L624.168 481.328C624.168 482.599 623.991 483.729 623.637 484.719C623.293 485.708 622.793 486.542 622.137 487.219C621.47 487.906 620.657 488.427 619.699 488.781C618.751 489.135 617.668 489.312 616.449 489.312C615.303 489.312 614.267 489.135 613.34 488.781C612.423 488.427 611.637 487.911 610.98 487.234C610.324 486.557 609.814 485.724 609.449 484.734C609.095 483.734 608.918 482.599 608.918 481.328L608.933 466.25H613.324L613.34 481.328C613.35 482.089 613.423 482.755 613.558 483.328C613.704 483.901 613.918 484.375 614.199 484.75C614.459 485.094 614.777 485.354 615.152 485.531C615.527 485.698 615.959 485.781 616.449 485.781C616.98 485.781 617.449 485.693 617.855 485.516C618.272 485.328 618.616 485.052 618.887 484.688C619.178 484.312 619.397 483.844 619.543 483.281C619.689 482.719 619.767 482.068 619.777 481.328L619.793 466.25H624.152ZM644.325 469.828H637.31V489H632.904V469.828H625.982V466.25H644.325V469.828ZM661.233 489H656.889V479.141H650.452V489H646.092V466.25H650.452V475.578H656.889V466.25H661.233V489ZM672.531 474.406L676.578 466.25H681.734L675.328 477.531L681.891 489H676.766L672.594 480.719L668.438 489H663.25L669.813 477.531L663.422 466.25H668.547L672.531 474.406Z" fill="#1E1E1E"/>
<path d="M50 359H760V357H50V359ZM771 370V537H773V370H771ZM760 548H50V550H760V548ZM39 537V370H37V537H39ZM50 548C43.9249 548 39 543.075 39 537H37C37 544.18 42.8203 550 50 550V548ZM771 537C771 543.075 766.075 548 760 548V550C767.18 550 773 544.18 773 537H771ZM760 359C766.075 359 771 363.925 771 370H773C773 362.82 767.18 357 760 357V359ZM50 357C42.8203 357 37 362.82 37 370H39C39 363.925 43.9249 359 50 359V357Z" fill="#5F9900"/>
<path fill-rule="evenodd" clip-rule="evenodd" d="M491.317 15.4041C493.414 13.7468 493.771 10.7029 492.114 8.6054C490.456 6.50786 487.413 6.15095 485.315 7.80823C479.733 12.2183 475.188 17.9788 471.998 24.6059C468.809 31.2323 467.05 38.5681 466.838 46.0406C466.835 46.1314 466.835 46.2222 466.838 46.313C467.047 53.7965 468.813 61.143 472.016 67.7738C475.22 74.4055 479.786 80.1629 485.391 84.5582C487.494 86.2078 490.537 85.8398 492.186 83.7362C493.836 81.6326 493.468 78.5901 491.364 76.9405C486.98 73.5023 483.327 68.9328 480.733 63.5628C478.157 58.2316 476.708 52.2806 476.519 46.1787C476.71 40.0821 478.155 34.1357 480.721 28.8043C483.306 23.434 486.946 18.8576 491.317 15.4041ZM504.828 28.6622C507.038 27.1571 507.608 24.146 506.103 21.9367C504.598 19.7274 501.587 19.1565 499.378 20.6615C495.174 23.5256 491.7 27.304 489.241 31.7098C486.783 36.1163 485.411 41.0245 485.243 46.0468C485.24 46.1544 485.24 46.2621 485.243 46.3697C485.411 51.3855 486.784 56.2868 489.245 60.6848C491.705 65.0819 495.182 68.8497 499.387 71.7006C501.6 73.2007 504.61 72.6229 506.11 70.4102C507.61 68.1975 507.032 65.1877 504.819 63.6877C501.841 61.6689 499.406 59.0189 497.693 55.9578C496.007 52.9451 495.064 49.6102 494.925 46.2079C495.064 42.7954 496.008 39.4501 497.695 36.4267C499.409 33.3547 501.847 30.6933 504.828 28.6622ZM517.663 21.9367C519.168 19.7274 522.179 19.1565 524.388 20.6615C528.593 23.5256 532.067 27.304 534.525 31.7098C536.984 36.1163 538.356 41.0245 538.523 46.0468C538.527 46.1544 538.527 46.2621 538.523 46.3697C538.355 51.3855 536.982 56.2868 534.521 60.6848C532.061 65.0819 528.585 68.8497 524.379 71.7006C522.167 73.2007 519.157 72.6229 517.657 70.4102C516.157 68.1975 516.734 65.1877 518.947 63.6877C521.925 61.6689 524.361 59.0189 526.073 55.9578C527.759 52.9451 528.703 49.6102 528.842 46.2079C528.703 42.7954 527.758 39.4501 526.071 36.4267C524.357 33.3547 521.92 30.6933 518.938 28.6622C516.729 27.1571 516.158 24.146 517.663 21.9367ZM538.451 7.80823C536.353 6.15095 533.309 6.50786 531.652 8.6054C529.995 10.7029 530.352 13.7468 532.449 15.4041C536.82 18.8576 540.46 23.434 543.045 28.8043C545.611 34.1357 547.055 40.0821 547.247 46.1787C547.058 52.2806 545.608 58.2316 543.033 63.5628C540.439 68.9328 536.786 73.5023 532.401 76.9405C530.298 78.5901 529.93 81.6326 531.579 83.7362C533.229 85.8398 536.271 86.2078 538.375 84.5582C543.98 80.1629 548.546 74.4055 551.75 67.7738C554.953 61.143 556.719 53.7965 556.928 46.313C556.93 46.2222 556.93 46.1314 556.928 46.0406C556.716 38.5681 554.957 31.2323 551.768 24.6059C548.578 17.9788 544.032 12.2183 538.451 7.80823Z" fill="#9EFF00"/>
<path fill-rule="evenodd" clip-rule="evenodd" d="M511.884 38.1094C507.428 38.1094 503.816 41.7212 503.816 46.1766C503.816 50.632 507.428 54.2438 511.884 54.2438C516.339 54.2438 519.951 50.632 519.951 46.1766C519.951 41.7212 516.339 38.1094 511.884 38.1094Z" fill="#212121"/>
<path fill-rule="evenodd" clip-rule="evenodd" d="M281.003 3.8354C282.819 2.01993 285.281 1 287.849 1H307.21C309.777 1 312.24 2.01993 314.055 3.8354C315.871 5.65088 316.891 8.1132 316.891 10.6807V13.9076H278.168V10.6807C278.168 8.1132 279.188 5.65088 281.003 3.8354ZM278.168 78.4454V81.6723C278.168 84.2397 279.188 86.7021 281.003 88.5175C282.819 90.333 285.281 91.3529 287.849 91.3529H307.21C309.777 91.3529 312.24 90.333 314.055 88.5175C315.871 86.7021 316.891 84.2397 316.891 81.6723V78.4454H278.168Z" fill="#212121"/>
<path fill-rule="evenodd" clip-rule="evenodd" d="M274.942 13.9062C269.596 13.9062 265.262 18.2404 265.262 23.5869V68.7634C265.262 74.1099 269.596 78.4441 274.942 78.4441H320.119C325.465 78.4441 329.8 74.1099 329.8 68.7634V23.5869C329.8 18.2404 325.465 13.9062 320.119 13.9062H274.942Z" fill="#9EFF00"/>
<path fill-rule="evenodd" clip-rule="evenodd" d="M97.6971 59.0839C97.6971 54.6284 101.309 51.0166 105.764 51.0166C110.22 51.0166 113.832 54.6284 113.832 59.0839V62.3107H97.6971V59.0839ZM88.0165 62.514V59.0839C88.0165 49.282 95.9625 41.336 105.764 41.336C115.566 41.336 123.512 49.282 123.512 59.0839V62.5141C126.296 63.2306 128.352 65.7574 128.352 68.7645V84.899C128.352 88.4633 125.463 91.3528 121.899 91.3528H89.6298C86.0654 91.3528 83.176 88.4633 83.176 84.899V68.7645C83.176 65.7573 85.2328 63.2304 88.0165 62.514Z" fill="#212121"/>
<path fill-rule="evenodd" clip-rule="evenodd" d="M66.8523 1.59377C60.2406 1.59377 54.517 6.77692 54.517 13.6097V16.5925C54.517 23.4252 60.2406 28.6084 66.8523 28.6084C73.4641 28.6084 79.1877 23.4252 79.1877 16.5925V13.6097C79.1877 6.77691 73.4641 1.59377 66.8523 1.59377ZM64.1976 13.6097C64.1976 12.5165 65.1853 11.2744 66.8523 11.2744C68.5194 11.2744 69.507 12.5165 69.507 13.6097V16.5925C69.507 17.6856 68.5194 18.9277 66.8523 18.9277C65.1853 18.9277 64.1976 17.6856 64.1976 16.5925V13.6097ZM43.4499 1.59386C46.1231 1.59386 48.2902 3.76095 48.2902 6.43419V23.8774C48.2902 26.5506 46.1231 28.7177 43.4499 28.7177C40.7766 28.7177 38.6096 26.5506 38.6096 23.8774L38.6096 6.43419C38.6096 3.76095 40.7766 1.59386 43.4499 1.59386ZM43.4499 32.523C46.1231 32.523 48.2902 34.6901 48.2902 37.3633V54.8065C48.2902 57.4797 46.1231 59.6468 43.4499 59.6468C40.7766 59.6468 38.6096 57.4797 38.6096 54.8065L38.6096 37.3633C38.6096 34.6901 40.7766 32.523 43.4499 32.523ZM64.1976 37.3633C64.1976 34.6901 62.0305 32.523 59.3573 32.523C56.6841 32.523 54.517 34.6901 54.517 37.3633V54.8065C54.517 57.4797 56.6841 59.6468 59.3573 59.6468C62.0305 59.6468 64.1976 57.4797 64.1976 54.8065L64.1976 37.3633ZM43.4499 63.1965C46.1231 63.1965 48.2902 65.3636 48.2902 68.0368V85.48C48.2902 88.1532 46.1231 90.3203 43.4499 90.3203C40.7766 90.3203 38.6096 88.1532 38.6096 85.48L38.6096 68.0368C38.6096 65.3636 40.7766 63.1965 43.4499 63.1965ZM95.0947 6.43419C95.0947 3.76095 92.9276 1.59386 90.2544 1.59386C87.5811 1.59386 85.414 3.76095 85.414 6.43419V23.8773C85.414 26.5506 87.5811 28.7176 90.2544 28.7176C92.9276 28.7176 95.0947 26.5506 95.0947 23.8773V6.43419ZM105.912 1.59386C108.586 1.59386 110.753 3.76095 110.753 6.43419V23.8773C110.753 26.5506 108.586 28.7176 105.912 28.7176C103.239 28.7176 101.072 26.5506 101.072 23.8773V6.43419C101.072 3.76095 103.239 1.59386 105.912 1.59386ZM54.517 75.3217C54.517 68.4889 60.2406 63.3058 66.8523 63.3058C73.4641 63.3058 79.1877 68.4889 79.1877 75.3217V78.3045C79.1877 85.1372 73.4641 90.3204 66.8523 90.3204C60.2406 90.3204 54.517 85.1372 54.517 78.3045V75.3217ZM66.8523 72.9865C65.1853 72.9865 64.1976 74.2285 64.1976 75.3217V78.3045C64.1976 79.3976 65.1853 80.6397 66.8523 80.6397C68.5194 80.6397 69.507 79.3976 69.507 78.3045V75.3217C69.507 74.2285 68.5194 72.9865 66.8523 72.9865ZM82.7603 32.1918C75.9477 32.1918 70.4249 37.7145 70.4249 44.5272V47.6428C70.4249 50.3161 72.592 52.4832 75.2653 52.4832C77.9385 52.4832 80.1056 50.3161 80.1056 47.6428V44.5272C80.1056 43.061 81.2941 41.8725 82.7603 41.8725C85.4335 41.8725 87.6006 39.7054 87.6006 37.0321C87.6006 34.3589 85.4335 32.1918 82.7603 32.1918Z" fill="#9EFF00"/>
<path fill-rule="evenodd" clip-rule="evenodd" d="M502.703 884.261C503.162 882.977 504.378 882.121 505.741 882.121H517.29C518.653 882.121 519.869 882.977 520.329 884.261L524.76 896.642H530.877C533.551 896.642 535.718 898.809 535.718 901.482C535.718 904.156 533.551 906.323 530.877 906.323H492.155C489.481 906.323 487.314 904.156 487.314 901.482C487.314 898.809 489.481 896.642 492.155 896.642H498.272L502.703 884.261Z" fill="#212121"/>
<path fill-rule="evenodd" clip-rule="evenodd" d="M475.742 819.227C470.549 819.227 466.34 823.436 466.34 828.628V877.589C466.34 882.782 470.549 886.991 475.742 886.991H547.291C552.483 886.991 556.693 882.782 556.693 877.589V828.628C556.693 823.436 552.483 819.227 547.291 819.227H475.742Z" fill="#9EFF00"/>
<path fill-rule="evenodd" clip-rule="evenodd" d="M306.008 823.759C304.844 824.853 303.366 825.614 301.722 825.9C288.351 828.226 288.351 847.421 301.722 849.747C305.064 850.328 307.722 852.874 308.447 856.187L308.571 856.753C311.356 869.472 329.467 869.552 332.362 856.857L332.512 856.198C332.856 854.693 333.593 853.349 334.609 852.274C335.703 856.016 336.29 859.975 336.29 864.071C336.29 887.243 317.505 906.028 294.333 906.028C271.16 906.028 252.375 887.243 252.375 864.071C252.375 840.898 271.16 822.113 294.333 822.113C298.384 822.113 302.302 822.688 306.008 823.759Z" fill="#9EFF00"/>
<path fill-rule="evenodd" clip-rule="evenodd" d="M306.009 823.755C302.772 822.819 299.374 822.263 295.866 822.137C296.846 823.665 297.777 825.224 298.656 826.811C299.585 826.402 300.607 826.09 301.722 825.896C303.366 825.61 304.844 824.849 306.009 823.755ZM308.645 857.069C311.381 868.319 326.31 869.34 331.2 860.033H336.043C336.061 860.033 336.08 860.033 336.099 860.034C336.225 861.361 336.29 862.706 336.29 864.067C336.29 865.427 336.225 866.773 336.099 868.1C336.08 868.1 336.061 868.1 336.043 868.1H317.094C315.937 880.859 312.216 893.19 306.212 904.319C302.915 905.291 299.448 905.868 295.867 905.997C303.13 894.673 307.645 881.671 308.991 868.1H279.677C281.022 881.671 285.538 894.673 292.8 905.997C289.219 905.868 285.753 905.291 282.455 904.32C276.451 893.19 272.73 880.86 271.573 868.1H252.623C252.604 868.1 252.585 868.1 252.566 868.1C252.44 866.773 252.375 865.427 252.375 864.067C252.375 862.706 252.44 861.361 252.566 860.034C252.585 860.033 252.604 860.033 252.623 860.033H271.573C272.73 847.274 276.451 834.943 282.456 823.814C285.754 822.842 289.22 822.265 292.801 822.137C285.538 833.46 281.022 846.463 279.677 860.033H308.99C308.892 859.042 308.777 858.054 308.645 857.069Z" fill="#212121"/>
<path fill-rule="evenodd" clip-rule="evenodd" d="M325.522 820.346C324.293 814.959 316.607 814.993 315.426 820.391L315.379 820.604L315.379 820.604C315.348 820.747 315.319 820.881 315.288 821.02C313.933 827.087 309.054 831.743 302.925 832.809C297.306 833.786 297.306 841.853 302.925 842.831C309.076 843.901 313.967 848.585 315.302 854.683L315.426 855.249C316.607 860.646 324.293 860.68 325.522 855.293L325.672 854.634C327.058 848.558 331.956 843.908 338.096 842.84C343.725 841.86 343.725 833.779 338.096 832.799C331.988 831.737 327.11 827.131 325.694 821.102C325.655 820.935 325.619 820.775 325.579 820.601L325.579 820.601L325.522 820.346Z" fill="#212121"/>
<path fill-rule="evenodd" clip-rule="evenodd" d="M81.7421 848.441C82.7844 848.958 83.9544 849.344 85.2521 849.57C88.5485 850.144 91.1703 852.655 91.8858 855.923L92.008 856.481C94.6504 868.552 111.287 869.082 115.088 857.952C116.446 860.249 117.347 862.859 117.659 865.665L120.302 889.451C121.268 898.145 114.462 905.749 105.714 905.749C100.155 905.749 95.0722 902.608 92.5859 897.635L90.2752 893.014H71.1727L68.8619 897.635C66.3757 902.608 61.2933 905.749 55.7339 905.749C46.9858 905.749 40.18 898.145 41.146 889.451L43.7889 865.665C44.8784 855.859 53.1663 848.441 63.0318 848.441H81.7421Z" fill="#9EFF00"/>
<path fill-rule="evenodd" clip-rule="evenodd" d="M64.0091 860.328C66.2369 860.328 68.0428 862.134 68.0428 864.362V867.757H71.44C73.6677 867.757 75.4736 869.563 75.4736 871.791C75.4736 874.018 73.6677 875.824 71.44 875.824H68.0428V879.219C68.0428 881.447 66.2369 883.253 64.0091 883.253C61.7814 883.253 59.9755 881.447 59.9755 879.219V875.824H56.5824C54.3547 875.824 52.5488 874.018 52.5488 871.791C52.5488 869.563 54.3547 867.757 56.5824 867.757H59.9755V864.362C59.9755 862.134 61.7814 860.328 64.0091 860.328ZM99.1314 875.771C99.1314 877.969 97.3496 879.75 95.1517 879.75C92.9538 879.75 91.172 877.969 91.172 875.771C91.172 873.573 92.9538 871.791 95.1517 871.791C97.3496 871.791 99.1314 873.573 99.1314 875.771Z" fill="#212121"/>
<path fill-rule="evenodd" clip-rule="evenodd" d="M108.771 820.564C107.549 815.205 99.9026 815.238 98.7271 820.608L98.6812 820.818C98.6505 820.959 98.6217 821.091 98.5911 821.229C97.2585 827.196 92.4598 831.775 86.4318 832.824C80.8405 833.796 80.8406 841.823 86.4318 842.796C92.4809 843.848 97.292 848.455 98.605 854.453L98.7271 855.011C99.9026 860.381 107.549 860.414 108.771 855.055L108.919 854.405C110.282 848.429 115.1 843.855 121.139 842.805C126.74 841.83 126.74 833.789 121.139 832.814C115.132 831.769 110.333 827.239 108.941 821.309C108.903 821.145 108.867 820.987 108.828 820.817L108.828 820.816L108.771 820.564Z" fill="#212121"/>
<path fill-rule="evenodd" clip-rule="evenodd" d="M690.948 822.453C685.311 822.453 680.74 827.023 680.74 832.661V891.706C680.74 897.344 685.311 901.915 690.948 901.915H728.523C734.16 901.915 738.731 897.344 738.731 891.706V832.661C738.731 827.023 734.16 822.453 728.523 822.453H690.948Z" fill="#9EFF00"/>
<path fill-rule="evenodd" clip-rule="evenodd" d="M702.209 883.657C702.209 880.983 704.376 878.816 707.049 878.816H712.417C715.09 878.816 717.257 880.983 717.257 883.657C717.257 886.33 715.09 888.497 712.417 888.497H707.049C704.376 888.497 702.209 886.33 702.209 883.657Z" fill="#212121"/>
<path fill-rule="evenodd" clip-rule="evenodd" d="M756.34 846.996C763.657 855.331 763.657 869.035 756.34 877.371C754.87 879.045 755.036 881.593 756.71 883.063C758.384 884.533 760.933 884.367 762.402 882.693C772.393 871.313 772.393 853.053 762.402 841.673C760.933 839.999 758.384 839.834 756.71 841.303C755.036 842.773 754.87 845.321 756.34 846.996ZM744.167 853.115C745.777 855.449 746.699 858.718 746.699 862.183C746.699 865.648 745.777 868.917 744.167 871.251C742.902 873.084 743.363 875.596 745.197 876.861C747.031 878.126 749.543 877.665 750.807 875.831C753.524 871.892 754.766 866.94 754.766 862.183C754.766 857.426 753.524 852.473 750.807 848.534C749.543 846.7 747.031 846.239 745.197 847.504C743.363 848.769 742.902 851.281 744.167 853.115Z" fill="#212121"/>
<path fill-rule="evenodd" clip-rule="evenodd" d="M726.559 8.125C723.866 8.125 721.684 10.3076 721.684 13V26C721.684 28.6924 723.866 30.875 726.559 30.875C729.251 30.875 731.434 28.6924 731.434 26V13C731.434 10.3076 729.251 8.125 726.559 8.125Z" fill="#212121"/>
<path fill-rule="evenodd" clip-rule="evenodd" d="M712.14 22.751H738.052C740.147 22.6618 742.215 23.25 743.95 24.4297C745.71 25.6268 747.031 27.3674 747.709 29.3855C747.717 29.4095 747.725 29.4336 747.732 29.4577L751.703 42.251H762.308C764.894 42.251 767.374 43.2783 769.203 45.1067C771.031 46.9352 772.058 49.4152 772.058 52.001V65.001C772.058 67.5869 771.031 70.0668 769.203 71.8953C767.374 73.7238 764.894 74.751 762.308 74.751H694.058H690.808C688.223 74.751 685.743 73.7238 683.914 71.8953C682.086 70.0668 681.058 67.5869 681.058 65.001V52.001C681.058 49.4152 682.086 46.9352 683.914 45.1067C685.743 43.2783 688.223 42.251 690.808 42.251H698.213L702.479 29.3973L702.483 29.3855C703.161 27.3674 704.482 25.6268 706.242 24.4297C707.977 23.25 710.045 22.6618 712.14 22.751Z" fill="#9EFF00"/>
<path fill-rule="evenodd" clip-rule="evenodd" d="M694.045 76.3858C694.045 81.7744 698.413 86.1427 703.802 86.1427C709.19 86.1427 713.559 81.7744 713.559 76.3858C713.559 70.9972 709.19 66.6289 703.802 66.6289C698.413 66.6289 694.045 70.9972 694.045 76.3858ZM739.545 76.3858C739.545 81.7743 743.913 86.1426 749.302 86.1426C754.69 86.1426 759.059 81.7743 759.059 76.3858C759.059 70.9972 754.69 66.6289 749.302 66.6289C743.913 66.6289 739.545 70.9972 739.545 76.3858Z" fill="#212121"/>
<path d="M81.6758 812C81.6758 812.828 82.3474 813.5 83.1758 813.5C84.0042 813.5 84.6758 812.828 84.6758 812H81.6758ZM84.6758 752.945C84.6758 752.117 84.0042 751.445 83.1758 751.445C82.3474 751.445 81.6758 752.117 81.6758 752.945H84.6758ZM81.6758 700.945C81.6758 701.774 82.3474 702.445 83.1758 702.445C84.0042 702.445 84.6758 701.774 84.6758 700.945H81.6758ZM406.06 551.939C405.474 551.354 404.524 551.354 403.939 551.939L394.393 561.485C393.807 562.071 393.807 563.021 394.393 563.607C394.978 564.192 395.928 564.192 396.514 563.607L404.999 555.121L413.485 563.607C414.07 564.192 415.02 564.192 415.606 563.607C416.192 563.021 416.192 562.071 415.606 561.485L406.06 551.939ZM83.1758 700.945H84.6758H83.1758ZM84.6758 812V752.945H81.6758V812H84.6758ZM101.621 684H380.999V681H101.621V684ZM406.499 658.5V553H403.499V658.5H406.499ZM380.999 684C395.083 684 406.499 672.583 406.499 658.5H403.499C403.499 670.926 393.426 681 380.999 681V684ZM84.6758 700.945C84.6758 691.587 92.2625 684 101.621 684V681C90.6056 681 81.6758 689.93 81.6758 700.945H84.6758Z" fill="#1E1E1E"/>
<path d="M54.9741 724.005C54.8094 723.488 54.5878 723.025 54.3094 722.616C54.0366 722.201 53.7099 721.849 53.3293 721.559C52.9486 721.263 52.5139 721.039 52.0253 720.886C51.5423 720.732 51.0111 720.656 50.4315 720.656C49.4486 720.656 48.5622 720.908 47.7724 721.414C46.9827 721.92 46.3577 722.661 45.8974 723.638C45.4429 724.61 45.2156 725.8 45.2156 727.21C45.2156 728.624 45.4457 729.82 45.906 730.798C46.3662 731.775 46.9969 732.516 47.798 733.022C48.5991 733.528 49.5111 733.781 50.5338 733.781C51.4827 733.781 52.3094 733.587 53.0139 733.201C53.7241 732.815 54.2724 732.269 54.6588 731.565C55.0508 730.854 55.2469 730.019 55.2469 729.059L55.9287 729.187H50.9344V727.013H57.7952V728.999C57.7952 730.465 57.4827 731.738 56.8577 732.817C56.2383 733.891 55.3804 734.721 54.2838 735.306C53.1929 735.891 51.9429 736.184 50.5338 736.184C48.9543 736.184 47.5679 735.82 46.3747 735.093C45.1872 734.366 44.2611 733.335 43.5963 731.999C42.9315 730.658 42.5991 729.067 42.5991 727.227C42.5991 725.835 42.7923 724.585 43.1787 723.477C43.5651 722.369 44.1077 721.428 44.8065 720.656C45.5111 719.877 46.3378 719.283 47.2866 718.874C48.2412 718.46 49.2838 718.252 50.4145 718.252C51.3577 718.252 52.2355 718.391 53.048 718.67C53.8662 718.948 54.5935 719.343 55.2298 719.854C55.8719 720.366 56.4031 720.974 56.8236 721.678C57.244 722.377 57.5281 723.153 57.6758 724.005H54.9741ZM61.6176 735.945H58.8221L65.1034 718.491H68.146L74.4272 735.945H71.6318L66.6971 721.661H66.5608L61.6176 735.945ZM62.0863 729.11H71.1545V731.326H62.0863V729.11ZM76.4918 718.491H79.6879L85.2447 732.059H85.4492L91.006 718.491H94.2021V735.945H91.6964V723.315H91.5344L86.3867 735.92H84.3072L79.1594 723.306H78.9975V735.945H76.4918V718.491ZM97.5749 735.945V718.491H108.518V720.758H100.208V726.076H107.947V728.335H100.208V733.678H108.62V735.945H97.5749ZM121.1 723.076C121.009 722.269 120.634 721.644 119.975 721.201C119.316 720.752 118.486 720.528 117.486 720.528C116.77 720.528 116.151 720.641 115.628 720.869C115.105 721.09 114.699 721.397 114.409 721.789C114.125 722.175 113.983 722.616 113.983 723.11C113.983 723.525 114.08 723.883 114.273 724.184C114.472 724.485 114.73 724.738 115.049 724.942C115.372 725.141 115.719 725.309 116.088 725.445C116.458 725.576 116.813 725.684 117.154 725.769L118.858 726.212C119.415 726.349 119.986 726.533 120.571 726.766C121.157 726.999 121.699 727.306 122.199 727.687C122.699 728.067 123.103 728.539 123.409 729.102C123.722 729.664 123.878 730.337 123.878 731.121C123.878 732.11 123.622 732.988 123.111 733.755C122.605 734.522 121.87 735.127 120.904 735.57C119.943 736.013 118.782 736.235 117.418 736.235C116.111 736.235 114.98 736.028 114.026 735.613C113.071 735.198 112.324 734.61 111.784 733.849C111.245 733.082 110.946 732.173 110.889 731.121H113.532C113.583 731.752 113.787 732.278 114.145 732.698C114.509 733.113 114.972 733.423 115.534 733.627C116.103 733.826 116.725 733.925 117.401 733.925C118.145 733.925 118.807 733.809 119.387 733.576C119.972 733.337 120.432 733.008 120.767 732.587C121.103 732.161 121.27 731.664 121.27 731.096C121.27 730.579 121.122 730.156 120.827 729.826C120.537 729.496 120.142 729.224 119.642 729.008C119.148 728.792 118.588 728.602 117.963 728.437L115.901 727.874C114.503 727.494 113.395 726.934 112.577 726.195C111.764 725.457 111.358 724.479 111.358 723.263C111.358 722.258 111.631 721.38 112.176 720.63C112.722 719.88 113.461 719.298 114.392 718.883C115.324 718.462 116.375 718.252 117.546 718.252C118.728 718.252 119.77 718.46 120.674 718.874C121.583 719.289 122.299 719.86 122.821 720.587C123.344 721.309 123.617 722.138 123.639 723.076H121.1Z" fill="black" fill-opacity="0.8"/>
<path d="M295.846 812C295.846 812.828 296.517 813.5 297.346 813.5C298.174 813.5 298.846 812.828 298.846 812H295.846ZM298.846 752.945C298.846 752.117 298.174 751.445 297.346 751.445C296.517 751.445 295.846 752.117 295.846 752.945H298.846ZM295.846 700.945C295.846 701.774 296.517 702.445 297.346 702.445C298.174 702.445 298.846 701.774 298.846 700.945H295.846ZM406.06 547.939C405.474 547.354 404.524 547.354 403.939 547.939L394.393 557.485C393.807 558.071 393.807 559.021 394.393 559.607C394.978 560.192 395.928 560.192 396.514 559.607L404.999 551.121L413.485 559.607C414.07 560.192 415.02 560.192 415.606 559.607C416.192 559.021 416.192 558.071 415.606 557.485L406.06 547.939ZM297.346 700.945H298.846H297.346ZM298.846 812V752.945H295.846V812H298.846ZM315.791 684H380.999V681H315.791V684ZM406.499 658.5V549H403.499V658.5H406.499ZM380.999 684C395.083 684 406.499 672.583 406.499 658.5H403.499C403.499 670.926 393.426 681 380.999 681V684ZM298.846 700.945C298.846 691.587 306.432 684 315.791 684V681C304.776 681 295.846 689.93 295.846 700.945H298.846Z" fill="#1E1E1E"/>
<path d="M276.324 735.945L271.484 718.491H274.253L277.654 732.008H277.816L281.353 718.491H284.097L287.634 732.016H287.796L291.188 718.491H293.966L289.117 735.945H286.466L282.793 722.871H282.657L278.984 735.945H276.324ZM295.912 735.945V718.491H306.855V720.758H298.545V726.076H306.284V728.335H298.545V733.678H306.957V735.945H295.912ZM309.917 735.945V718.491H316.309C317.547 718.491 318.573 718.695 319.385 719.104C320.198 719.508 320.806 720.056 321.209 720.749C321.613 721.437 321.814 722.212 321.814 723.076C321.814 723.803 321.681 724.417 321.414 724.917C321.147 725.411 320.789 725.809 320.34 726.11C319.897 726.406 319.408 726.621 318.874 726.758V726.928C319.454 726.957 320.019 727.144 320.57 727.491C321.127 727.832 321.587 728.317 321.951 728.948C322.314 729.579 322.496 730.346 322.496 731.249C322.496 732.141 322.286 732.942 321.866 733.653C321.451 734.357 320.809 734.917 319.939 735.332C319.07 735.741 317.959 735.945 316.607 735.945H309.917ZM312.55 733.687H316.351C317.613 733.687 318.516 733.442 319.062 732.954C319.607 732.465 319.88 731.854 319.88 731.121C319.88 730.57 319.741 730.065 319.462 729.604C319.184 729.144 318.786 728.778 318.269 728.505C317.758 728.232 317.15 728.096 316.445 728.096H312.55V733.687ZM312.55 726.042H316.079C316.67 726.042 317.201 725.928 317.672 725.701C318.15 725.474 318.527 725.156 318.806 724.746C319.09 724.332 319.232 723.843 319.232 723.281C319.232 722.559 318.979 721.954 318.474 721.465C317.968 720.977 317.192 720.732 316.147 720.732H312.55V726.042Z" fill="black" fill-opacity="0.8"/>
<path d="M510.016 812C510.016 812.828 510.688 813.5 511.516 813.5C512.345 813.5 513.016 812.828 513.016 812H510.016ZM513.016 751.012C513.016 750.183 512.345 749.512 511.516 749.512C510.688 749.512 510.016 750.183 510.016 751.012H513.016ZM510.016 699.012C510.016 699.84 510.688 700.512 511.516 700.512C512.345 700.512 513.016 699.84 513.016 699.012H510.016ZM406.061 551.939C405.475 551.354 404.525 551.354 403.939 551.939L394.393 561.485C393.808 562.071 393.808 563.021 394.393 563.607C394.979 564.192 395.929 564.192 396.515 563.607L405 555.121L413.485 563.607C414.071 564.192 415.021 564.192 415.607 563.607C416.192 563.021 416.192 562.071 415.607 561.485L406.061 551.939ZM511.516 699.012H513.016H511.516ZM513.016 812V751.012H510.016V812H513.016ZM495.005 681H429V684H495.005V681ZM406.5 658.5V553H403.5V658.5H406.5ZM429 681C416.574 681 406.5 670.926 406.5 658.5H403.5C403.5 672.583 414.917 684 429 684V681ZM513.016 699.012C513.016 689.064 504.952 681 495.005 681V684C503.295 684 510.016 690.721 510.016 699.012H513.016Z" fill="#1E1E1E"/>
<path d="M496.582 718.824V716.557H510.09V718.824H504.644V734.012H502.019V718.824H496.582ZM514.145 716.557L519.003 730.773H519.199L524.057 716.557H526.903L520.622 734.012H517.58L511.298 716.557H514.145Z" fill="black" fill-opacity="0.8"/>
<path d="M724.186 812C724.186 812.828 724.858 813.5 725.686 813.5C726.515 813.5 727.186 812.828 727.186 812H724.186ZM727.186 752.945C727.186 752.117 726.515 751.445 725.686 751.445C724.858 751.445 724.186 752.117 724.186 752.945H727.186ZM724.186 700.945C724.186 701.774 724.858 702.445 725.686 702.445C726.515 702.445 727.186 701.774 727.186 700.945H724.186ZM406.061 551.939C405.475 551.354 404.525 551.354 403.939 551.939L394.393 561.485C393.808 562.071 393.808 563.021 394.393 563.607C394.979 564.192 395.929 564.192 396.515 563.607L405 555.121L413.485 563.607C414.071 564.192 415.021 564.192 415.607 563.607C416.192 563.021 416.192 562.071 415.607 561.485L406.061 551.939ZM725.686 700.945H727.186H725.686ZM727.186 812V752.945H724.186V812H727.186ZM707.241 681H429V684H707.241V681ZM406.5 658.5V553H403.5V658.5H406.5ZM429 681C416.574 681 406.5 670.926 406.5 658.5H403.5C403.5 672.583 414.917 684 429 684V681ZM727.186 700.945C727.186 689.93 718.256 681 707.241 681V684C716.6 684 724.186 691.587 724.186 700.945H727.186Z" fill="#1E1E1E"/>
<path d="M676.166 718.491H679.362L684.919 732.059H685.124L690.681 718.491H693.877V735.945H691.371V723.315H691.209L686.061 735.92H683.982L678.834 723.306H678.672V735.945H676.166V718.491ZM712.411 727.218C712.411 729.082 712.071 730.684 711.389 732.025C710.707 733.36 709.772 734.388 708.585 735.11C707.403 735.826 706.059 736.184 704.554 736.184C703.042 736.184 701.693 735.826 700.505 735.11C699.323 734.388 698.392 733.357 697.71 732.016C697.028 730.675 696.687 729.076 696.687 727.218C696.687 725.354 697.028 723.755 697.71 722.42C698.392 721.079 699.323 720.05 700.505 719.335C701.693 718.613 703.042 718.252 704.554 718.252C706.059 718.252 707.403 718.613 708.585 719.335C709.772 720.05 710.707 721.079 711.389 722.42C712.071 723.755 712.411 725.354 712.411 727.218ZM709.804 727.218C709.804 725.798 709.573 724.602 709.113 723.63C708.659 722.653 708.034 721.914 707.238 721.414C706.448 720.908 705.554 720.656 704.554 720.656C703.548 720.656 702.65 720.908 701.86 721.414C701.071 721.914 700.446 722.653 699.985 723.63C699.531 724.602 699.304 725.798 699.304 727.218C699.304 728.638 699.531 729.837 699.985 730.815C700.446 731.786 701.071 732.525 701.86 733.031C702.65 733.531 703.548 733.781 704.554 733.781C705.554 733.781 706.448 733.531 707.238 733.031C708.034 732.525 708.659 731.786 709.113 730.815C709.573 729.837 709.804 728.638 709.804 727.218ZM715.239 735.945V718.491H721.631C722.87 718.491 723.895 718.695 724.708 719.104C725.52 719.508 726.128 720.056 726.531 720.749C726.935 721.437 727.137 722.212 727.137 723.076C727.137 723.803 727.003 724.417 726.736 724.917C726.469 725.411 726.111 725.809 725.662 726.11C725.219 726.406 724.73 726.621 724.196 726.758V726.928C724.776 726.957 725.341 727.144 725.892 727.491C726.449 727.832 726.909 728.317 727.273 728.948C727.637 729.579 727.818 730.346 727.818 731.249C727.818 732.141 727.608 732.942 727.188 733.653C726.773 734.357 726.131 734.917 725.262 735.332C724.392 735.741 723.281 735.945 721.929 735.945H715.239ZM717.872 733.687H721.674C722.935 733.687 723.838 733.442 724.384 732.954C724.929 732.465 725.202 731.854 725.202 731.121C725.202 730.57 725.063 730.065 724.784 729.604C724.506 729.144 724.108 728.778 723.591 728.505C723.08 728.232 722.472 728.096 721.767 728.096H717.872V733.687ZM717.872 726.042H721.401C721.992 726.042 722.523 725.928 722.995 725.701C723.472 725.474 723.85 725.156 724.128 724.746C724.412 724.332 724.554 723.843 724.554 723.281C724.554 722.559 724.301 721.954 723.796 721.465C723.29 720.977 722.514 720.732 721.469 720.732H717.872V726.042ZM733.119 718.491V735.945H730.486V718.491H733.119ZM736.499 735.945V718.491H739.132V733.678H747.041V735.945H736.499ZM749.59 735.945V718.491H760.533V720.758H752.223V726.076H759.962V728.335H752.223V733.678H760.635V735.945H749.59ZM773.114 723.076C773.024 722.269 772.649 721.644 771.989 721.201C771.33 720.752 770.501 720.528 769.501 720.528C768.785 720.528 768.166 720.641 767.643 720.869C767.12 721.09 766.714 721.397 766.424 721.789C766.14 722.175 765.998 722.616 765.998 723.11C765.998 723.525 766.095 723.883 766.288 724.184C766.487 724.485 766.745 724.738 767.063 724.942C767.387 725.141 767.734 725.309 768.103 725.445C768.472 725.576 768.827 725.684 769.168 725.769L770.873 726.212C771.43 726.349 772.001 726.533 772.586 726.766C773.171 726.999 773.714 727.306 774.214 727.687C774.714 728.067 775.117 728.539 775.424 729.102C775.737 729.664 775.893 730.337 775.893 731.121C775.893 732.11 775.637 732.988 775.126 733.755C774.62 734.522 773.884 735.127 772.918 735.57C771.958 736.013 770.796 736.235 769.433 736.235C768.126 736.235 766.995 736.028 766.041 735.613C765.086 735.198 764.339 734.61 763.799 733.849C763.259 733.082 762.961 732.173 762.904 731.121H765.546C765.597 731.752 765.802 732.278 766.16 732.698C766.524 733.113 766.987 733.423 767.549 733.627C768.117 733.826 768.739 733.925 769.416 733.925C770.16 733.925 770.822 733.809 771.401 733.576C771.987 733.337 772.447 733.008 772.782 732.587C773.117 732.161 773.285 731.664 773.285 731.096C773.285 730.579 773.137 730.156 772.842 729.826C772.552 729.496 772.157 729.224 771.657 729.008C771.163 728.792 770.603 728.602 769.978 728.437L767.916 727.874C766.518 727.494 765.41 726.934 764.592 726.195C763.779 725.457 763.373 724.479 763.373 723.263C763.373 722.258 763.646 721.38 764.191 720.63C764.737 719.88 765.475 719.298 766.407 718.883C767.339 718.462 768.39 718.252 769.56 718.252C770.742 718.252 771.785 718.46 772.688 718.874C773.597 719.289 774.313 719.86 774.836 720.587C775.359 721.309 775.631 722.138 775.654 723.076H773.114Z" fill="black" fill-opacity="0.8"/>
<path d="M84.6758 95.3516C84.6758 94.5231 84.0042 93.8516 83.1758 93.8516C82.3474 93.8516 81.6758 94.5231 81.6758 95.3516H84.6758ZM81.6758 160.026C81.6758 160.854 82.3474 161.526 83.1758 161.526C84.0042 161.526 84.6758 160.854 84.6758 160.026H81.6758ZM84.6758 212.026C84.6758 211.198 84.0042 210.526 83.1758 210.526C82.3474 210.526 81.6758 211.198 81.6758 212.026H84.6758ZM398.339 338.999C397.511 338.999 396.925 340.013 397.339 340.731L403.999 352.267C404.414 352.984 405.585 352.984 405.999 352.267L412.66 340.731C413.074 340.013 412.488 338.999 411.66 338.999H398.339ZM83.1758 212.026H84.6758H83.1758ZM81.6758 95.3516V160.026H84.6758V95.3516H81.6758ZM95.8249 226.175H380.999V223.175H95.8249V226.175ZM403.499 248.675V340.499H406.499V248.675H403.499ZM380.999 226.175C393.426 226.175 403.499 236.249 403.499 248.675H406.499C406.499 234.592 395.083 223.175 380.999 223.175V226.175ZM81.6758 212.026C81.6758 219.84 88.0106 226.175 95.8249 226.175V223.175C89.6674 223.175 84.6758 218.183 84.6758 212.026H81.6758Z" fill="#1E1E1E"/>
<path d="M14.5712 195.027V177.573H25.5144V179.84H17.2047V185.158H24.9433V187.417H17.2047V192.76H25.6166V195.027H14.5712ZM42.6642 177.573V195.027H40.2437L31.3716 182.226H31.2096V195.027H28.5761V177.573H31.0136L39.8943 190.391H40.0562V177.573H42.6642ZM45.189 179.84V177.573H58.6975V179.84H53.2515V195.027H50.6265V179.84H45.189ZM61.2266 195.027V177.573H72.1698V179.84H63.8601V185.158H71.5988V187.417H63.8601V192.76H72.2721V195.027H61.2266ZM75.2316 195.027V177.573H81.4531C82.8054 177.573 83.9276 177.806 84.8196 178.272C85.7173 178.738 86.3878 179.382 86.831 180.206C87.2742 181.025 87.4958 181.971 87.4958 183.044C87.4958 184.113 87.2713 185.053 86.8225 185.865C86.3793 186.672 85.7088 187.3 84.8111 187.749C83.9191 188.198 82.7969 188.422 81.4446 188.422H76.7316V186.155H81.206C82.0583 186.155 82.7514 186.033 83.2855 185.789C83.8253 185.544 84.2202 185.189 84.4702 184.723C84.7202 184.257 84.8452 183.698 84.8452 183.044C84.8452 182.385 84.7173 181.814 84.4617 181.331C84.2117 180.848 83.8168 180.479 83.277 180.223C82.7429 179.962 82.0412 179.831 81.1719 179.831H77.8651V195.027H75.2316ZM83.848 187.152L88.1605 195.027H85.1605L80.9333 187.152H83.848ZM90.2443 195.027V177.573H96.4659C97.8238 177.573 98.9488 177.82 99.8409 178.314C100.733 178.809 101.401 179.485 101.844 180.343C102.287 181.195 102.509 182.155 102.509 183.223C102.509 184.297 102.284 185.263 101.835 186.121C101.392 186.973 100.722 187.65 99.8239 188.15C98.9318 188.644 97.8096 188.891 96.4574 188.891H92.179V186.658H96.2187C97.0767 186.658 97.7727 186.51 98.3068 186.215C98.8409 185.914 99.2329 185.505 99.4829 184.988C99.7329 184.471 99.8579 183.882 99.8579 183.223C99.8579 182.564 99.7329 181.979 99.4829 181.468C99.2329 180.956 98.8381 180.556 98.2983 180.266C97.7642 179.976 97.0596 179.831 96.1846 179.831H92.8778V195.027H90.2443ZM105.14 195.027V177.573H111.361C112.714 177.573 113.836 177.806 114.728 178.272C115.626 178.738 116.296 179.382 116.739 180.206C117.182 181.025 117.404 181.971 117.404 183.044C117.404 184.113 117.18 185.053 116.731 185.865C116.288 186.672 115.617 187.3 114.719 187.749C113.827 188.198 112.705 188.422 111.353 188.422H106.64V186.155H111.114C111.967 186.155 112.66 186.033 113.194 185.789C113.734 185.544 114.129 185.189 114.379 184.723C114.629 184.257 114.754 183.698 114.754 183.044C114.754 182.385 114.626 181.814 114.37 181.331C114.12 180.848 113.725 180.479 113.185 180.223C112.651 179.962 111.95 179.831 111.08 179.831H107.773V195.027H105.14ZM113.756 187.152L118.069 195.027H115.069L110.842 187.152H113.756ZM122.786 177.573V195.027H120.153V177.573H122.786ZM135.685 182.158C135.594 181.351 135.219 180.726 134.56 180.283C133.901 179.834 133.072 179.61 132.072 179.61C131.356 179.61 130.736 179.723 130.214 179.951C129.691 180.172 129.285 180.479 128.995 180.871C128.711 181.257 128.569 181.698 128.569 182.192C128.569 182.607 128.665 182.965 128.859 183.266C129.057 183.567 129.316 183.82 129.634 184.025C129.958 184.223 130.305 184.391 130.674 184.527C131.043 184.658 131.398 184.766 131.739 184.851L133.444 185.294C134.001 185.431 134.572 185.615 135.157 185.848C135.742 186.081 136.285 186.388 136.785 186.769C137.285 187.15 137.688 187.621 137.995 188.184C138.307 188.746 138.464 189.419 138.464 190.203C138.464 191.192 138.208 192.07 137.697 192.837C137.191 193.604 136.455 194.209 135.489 194.652C134.529 195.096 133.367 195.317 132.003 195.317C130.697 195.317 129.566 195.11 128.611 194.695C127.657 194.28 126.91 193.692 126.37 192.931C125.83 192.164 125.532 191.255 125.475 190.203H128.117C128.168 190.834 128.373 191.36 128.731 191.78C129.094 192.195 129.557 192.505 130.12 192.709C130.688 192.908 131.31 193.007 131.986 193.007C132.731 193.007 133.393 192.891 133.972 192.658C134.557 192.419 135.018 192.09 135.353 191.669C135.688 191.243 135.856 190.746 135.856 190.178C135.856 189.661 135.708 189.238 135.413 188.908C135.123 188.578 134.728 188.306 134.228 188.09C133.734 187.874 133.174 187.684 132.549 187.519L130.486 186.956C129.089 186.576 127.981 186.016 127.163 185.277C126.35 184.539 125.944 183.561 125.944 182.346C125.944 181.34 126.216 180.462 126.762 179.712C127.307 178.962 128.046 178.38 128.978 177.965C129.91 177.544 130.961 177.334 132.131 177.334C133.313 177.334 134.356 177.542 135.259 177.956C136.168 178.371 136.884 178.942 137.407 179.669C137.93 180.391 138.202 181.221 138.225 182.158H135.685ZM141.155 195.027V177.573H152.098V179.84H143.788V185.158H151.527V187.417H143.788V192.76H152.2V195.027H141.155Z" fill="black" fill-opacity="0.8"/>
<path d="M299.031 95.3516C299.031 94.5231 298.36 93.8516 297.531 93.8516C296.703 93.8516 296.031 94.5231 296.031 95.3516H299.031ZM296.031 156.163C296.031 156.991 296.703 157.663 297.531 157.663C298.36 157.663 299.031 156.991 299.031 156.163H296.031ZM299.031 208.163C299.031 207.334 298.36 206.663 297.531 206.663C296.703 206.663 296.031 207.334 296.031 208.163H299.031ZM398.341 338.999C397.513 338.999 396.927 340.013 397.341 340.731L404.001 352.267C404.415 352.984 405.587 352.984 406.001 352.267L412.662 340.731C413.076 340.013 412.49 338.999 411.662 338.999H398.341ZM297.531 208.163H299.031H297.531ZM296.031 95.3516V156.163H299.031V95.3516H296.031ZM314.044 226.175H381.001V223.175H314.044V226.175ZM403.501 248.675V340.499H406.501V248.675H403.501ZM381.001 226.175C393.428 226.175 403.501 236.249 403.501 248.675H406.501C406.501 234.592 395.085 223.175 381.001 223.175V226.175ZM296.031 208.163C296.031 218.111 304.096 226.175 314.044 226.175V223.175C305.753 223.175 299.031 216.454 299.031 208.163H296.031Z" fill="#1E1E1E"/>
<path d="M231.612 191.16L226.771 173.706H229.541L232.942 187.223H233.104L236.641 173.706H239.385L242.922 187.231H243.084L246.476 173.706H249.254L244.405 191.16H241.754L238.081 178.086H237.945L234.271 191.16H231.612ZM251.2 191.16V173.706H262.143V175.973H253.833V181.291H261.572V183.549H253.833V188.893H262.245V191.16H251.2ZM266.679 191.16H263.884L270.165 173.706H273.207L279.489 191.16H276.693L271.759 176.876H271.622L266.679 191.16ZM267.148 184.325H276.216V186.541H267.148V184.325ZM281.553 191.16V173.706H287.775C289.127 173.706 290.249 173.939 291.141 174.404C292.039 174.87 292.71 175.515 293.153 176.339C293.596 177.157 293.818 178.103 293.818 179.177C293.818 180.245 293.593 181.186 293.144 181.998C292.701 182.805 292.031 183.433 291.133 183.882C290.241 184.331 289.119 184.555 287.766 184.555H283.053V182.288H287.528C288.38 182.288 289.073 182.166 289.607 181.922C290.147 181.677 290.542 181.322 290.792 180.856C291.042 180.39 291.167 179.831 291.167 179.177C291.167 178.518 291.039 177.947 290.783 177.464C290.533 176.981 290.139 176.612 289.599 176.356C289.065 176.095 288.363 175.964 287.494 175.964H284.187V191.16H281.553ZM290.17 183.285L294.482 191.16H291.482L287.255 183.285H290.17ZM298.04 191.16H295.245L301.526 173.706H304.569L310.85 191.16H308.055L303.12 176.876H302.984L298.04 191.16ZM298.509 184.325H307.577V186.541H298.509V184.325ZM312.915 191.16V173.706H319.307C320.545 173.706 321.571 173.91 322.383 174.319C323.196 174.723 323.804 175.271 324.207 175.964C324.611 176.652 324.812 177.427 324.812 178.291C324.812 179.018 324.679 179.632 324.412 180.132C324.145 180.626 323.787 181.024 323.338 181.325C322.895 181.62 322.406 181.836 321.872 181.973V182.143C322.452 182.172 323.017 182.359 323.568 182.706C324.125 183.047 324.585 183.532 324.949 184.163C325.312 184.794 325.494 185.561 325.494 186.464C325.494 187.356 325.284 188.157 324.864 188.868C324.449 189.572 323.807 190.132 322.937 190.547C322.068 190.956 320.957 191.16 319.605 191.16H312.915ZM315.548 188.902H319.349C320.611 188.902 321.514 188.657 322.06 188.169C322.605 187.68 322.878 187.069 322.878 186.336C322.878 185.785 322.739 185.279 322.46 184.819C322.182 184.359 321.784 183.993 321.267 183.72C320.756 183.447 320.148 183.311 319.443 183.311H315.548V188.902ZM315.548 181.257H319.077C319.668 181.257 320.199 181.143 320.67 180.916C321.148 180.689 321.526 180.37 321.804 179.961C322.088 179.547 322.23 179.058 322.23 178.495C322.23 177.774 321.977 177.169 321.472 176.68C320.966 176.191 320.19 175.947 319.145 175.947H315.548V181.257ZM328.162 191.16V173.706H330.795V188.893H338.704V191.16H328.162ZM341.253 191.16V173.706H352.196V175.973H343.886V181.291H351.625V183.549H343.886V188.893H352.298V191.16H341.253ZM364.778 178.291C364.687 177.484 364.312 176.859 363.653 176.416C362.993 175.967 362.164 175.743 361.164 175.743C360.448 175.743 359.829 175.856 359.306 176.083C358.783 176.305 358.377 176.612 358.087 177.004C357.803 177.39 357.661 177.831 357.661 178.325C357.661 178.74 357.758 179.098 357.951 179.399C358.15 179.7 358.408 179.953 358.726 180.157C359.05 180.356 359.397 180.524 359.766 180.66C360.136 180.791 360.491 180.899 360.832 180.984L362.536 181.427C363.093 181.564 363.664 181.748 364.249 181.981C364.834 182.214 365.377 182.521 365.877 182.902C366.377 183.282 366.78 183.754 367.087 184.316C367.4 184.879 367.556 185.552 367.556 186.336C367.556 187.325 367.3 188.203 366.789 188.97C366.283 189.737 365.547 190.342 364.582 190.785C363.621 191.228 362.459 191.45 361.096 191.45C359.789 191.45 358.658 191.243 357.704 190.828C356.749 190.413 356.002 189.825 355.462 189.064C354.922 188.297 354.624 187.387 354.567 186.336H357.209C357.261 186.967 357.465 187.493 357.823 187.913C358.187 188.328 358.65 188.637 359.212 188.842C359.78 189.041 360.403 189.14 361.079 189.14C361.823 189.14 362.485 189.024 363.064 188.791C363.65 188.552 364.11 188.223 364.445 187.802C364.78 187.376 364.948 186.879 364.948 186.311C364.948 185.794 364.8 185.37 364.505 185.041C364.215 184.711 363.82 184.439 363.32 184.223C362.826 184.007 362.266 183.816 361.641 183.652L359.579 183.089C358.181 182.708 357.073 182.149 356.255 181.41C355.442 180.672 355.036 179.694 355.036 178.478C355.036 177.473 355.309 176.595 355.854 175.845C356.4 175.095 357.138 174.512 358.07 174.098C359.002 173.677 360.053 173.467 361.224 173.467C362.405 173.467 363.448 173.674 364.351 174.089C365.261 174.504 365.976 175.075 366.499 175.802C367.022 176.524 367.295 177.353 367.317 178.291H364.778Z" fill="black" fill-opacity="0.8"/>
<path d="M513.383 95.3516C513.383 94.5231 512.712 93.8516 511.883 93.8516C511.055 93.8516 510.383 94.5231 510.383 95.3516H513.383ZM510.383 156.163C510.383 156.991 511.055 157.663 511.883 157.663C512.712 157.663 513.383 156.991 513.383 156.163H510.383ZM513.383 208.163C513.383 207.334 512.712 206.663 511.883 206.663C511.055 206.663 510.383 207.334 510.383 208.163H513.383ZM398.34 338.999C397.511 338.999 396.926 340.013 397.34 340.731L404 352.267C404.414 352.984 405.586 352.984 406 352.267L412.66 340.731C413.074 340.013 412.489 338.999 411.66 338.999H398.34ZM511.883 208.163H513.383H511.883ZM510.383 95.3516V156.163H513.383V95.3516H510.383ZM495.371 223.175H429V226.175H495.371V223.175ZM403.5 248.675V340.499H406.5V248.675H403.5ZM429 223.175C414.917 223.175 403.5 234.592 403.5 248.675H406.5C406.5 236.249 416.574 226.175 429 226.175V223.175ZM510.383 208.163C510.383 216.454 503.662 223.175 495.371 223.175V226.175C505.319 226.175 513.383 218.111 513.383 208.163H510.383Z" fill="#1E1E1E"/>
<path d="M468.368 178.295C468.277 177.488 467.902 176.863 467.243 176.42C466.584 175.971 465.754 175.746 464.754 175.746C464.038 175.746 463.419 175.86 462.896 176.087C462.374 176.309 461.967 176.616 461.678 177.008C461.394 177.394 461.252 177.835 461.252 178.329C461.252 178.744 461.348 179.102 461.541 179.403C461.74 179.704 461.999 179.957 462.317 180.161C462.641 180.36 462.987 180.528 463.357 180.664C463.726 180.795 464.081 180.903 464.422 180.988L466.127 181.431C466.683 181.567 467.254 181.752 467.84 181.985C468.425 182.218 468.967 182.525 469.467 182.906C469.967 183.286 470.371 183.758 470.678 184.32C470.99 184.883 471.146 185.556 471.146 186.34C471.146 187.329 470.891 188.207 470.379 188.974C469.874 189.741 469.138 190.346 468.172 190.789C467.212 191.232 466.05 191.454 464.686 191.454C463.379 191.454 462.249 191.246 461.294 190.832C460.34 190.417 459.592 189.829 459.053 189.067C458.513 188.3 458.215 187.391 458.158 186.34H460.8C460.851 186.971 461.056 187.496 461.413 187.917C461.777 188.332 462.24 188.641 462.803 188.846C463.371 189.045 463.993 189.144 464.669 189.144C465.413 189.144 466.075 189.028 466.655 188.795C467.24 188.556 467.7 188.227 468.036 187.806C468.371 187.38 468.538 186.883 468.538 186.315C468.538 185.798 468.391 185.374 468.095 185.045C467.806 184.715 467.411 184.442 466.911 184.227C466.416 184.011 465.857 183.82 465.232 183.656L463.169 183.093C461.771 182.712 460.663 182.153 459.845 181.414C459.033 180.675 458.627 179.698 458.627 178.482C458.627 177.477 458.899 176.599 459.445 175.849C459.99 175.099 460.729 174.516 461.661 174.102C462.592 173.681 463.644 173.471 464.814 173.471C465.996 173.471 467.038 173.678 467.942 174.093C468.851 174.508 469.567 175.079 470.09 175.806C470.612 176.528 470.885 177.357 470.908 178.295H468.368ZM473.837 191.164V173.71H484.781V175.977H476.471V181.295H484.21V183.553H476.471V188.897H484.883V191.164H473.837ZM501.93 173.71V191.164H499.51L490.638 178.363H490.476V191.164H487.842V173.71H490.28L499.161 186.528H499.322V173.71H501.93ZM514.836 178.295C514.745 177.488 514.37 176.863 513.711 176.42C513.052 175.971 512.222 175.746 511.222 175.746C510.506 175.746 509.887 175.86 509.364 176.087C508.842 176.309 508.435 176.616 508.146 177.008C507.862 177.394 507.719 177.835 507.719 178.329C507.719 178.744 507.816 179.102 508.009 179.403C508.208 179.704 508.467 179.957 508.785 180.161C509.109 180.36 509.455 180.528 509.825 180.664C510.194 180.795 510.549 180.903 510.89 180.988L512.594 181.431C513.151 181.567 513.722 181.752 514.308 181.985C514.893 182.218 515.435 182.525 515.935 182.906C516.435 183.286 516.839 183.758 517.146 184.32C517.458 184.883 517.614 185.556 517.614 186.34C517.614 187.329 517.359 188.207 516.847 188.974C516.342 189.741 515.606 190.346 514.64 190.789C513.68 191.232 512.518 191.454 511.154 191.454C509.847 191.454 508.717 191.246 507.762 190.832C506.808 190.417 506.06 189.829 505.521 189.067C504.981 188.3 504.683 187.391 504.626 186.34H507.268C507.319 186.971 507.523 187.496 507.881 187.917C508.245 188.332 508.708 188.641 509.271 188.846C509.839 189.045 510.461 189.144 511.137 189.144C511.881 189.144 512.543 189.028 513.123 188.795C513.708 188.556 514.168 188.227 514.504 187.806C514.839 187.38 515.006 186.883 515.006 186.315C515.006 185.798 514.859 185.374 514.563 185.045C514.273 184.715 513.879 184.442 513.379 184.227C512.884 184.011 512.325 183.82 511.7 183.656L509.637 183.093C508.239 182.712 507.131 182.153 506.313 181.414C505.501 180.675 505.094 179.698 505.094 178.482C505.094 177.477 505.367 176.599 505.913 175.849C506.458 175.099 507.197 174.516 508.129 174.102C509.06 173.681 510.112 173.471 511.282 173.471C512.464 173.471 513.506 173.678 514.41 174.093C515.319 174.508 516.035 175.079 516.558 175.806C517.08 176.528 517.353 177.357 517.376 178.295H514.836ZM535.467 182.437C535.467 184.3 535.126 185.903 534.445 187.244C533.763 188.579 532.828 189.607 531.641 190.329C530.459 191.045 529.115 191.403 527.609 191.403C526.098 191.403 524.749 191.045 523.561 190.329C522.379 189.607 521.447 188.576 520.766 187.235C520.084 185.894 519.743 184.295 519.743 182.437C519.743 180.573 520.084 178.974 520.766 177.638C521.447 176.298 522.379 175.269 523.561 174.553C524.749 173.832 526.098 173.471 527.609 173.471C529.115 173.471 530.459 173.832 531.641 174.553C532.828 175.269 533.763 176.298 534.445 177.638C535.126 178.974 535.467 180.573 535.467 182.437ZM532.859 182.437C532.859 181.016 532.629 179.82 532.169 178.849C531.714 177.871 531.089 177.133 530.294 176.633C529.504 176.127 528.609 175.874 527.609 175.874C526.604 175.874 525.706 176.127 524.916 176.633C524.126 177.133 523.501 177.871 523.041 178.849C522.587 179.82 522.359 181.016 522.359 182.437C522.359 183.857 522.587 185.056 523.041 186.033C523.501 187.005 524.126 187.744 524.916 188.249C525.706 188.749 526.604 188.999 527.609 188.999C528.609 188.999 529.504 188.749 530.294 188.249C531.089 187.744 531.714 187.005 532.169 186.033C532.629 185.056 532.859 183.857 532.859 182.437ZM538.295 191.164V173.71H544.516C545.869 173.71 546.991 173.942 547.883 174.408C548.78 174.874 549.451 175.519 549.894 176.343C550.337 177.161 550.559 178.107 550.559 179.181C550.559 180.249 550.334 181.19 549.886 182.002C549.442 182.809 548.772 183.437 547.874 183.886C546.982 184.335 545.86 184.559 544.508 184.559H539.795V182.292H544.269C545.121 182.292 545.815 182.17 546.349 181.925C546.888 181.681 547.283 181.326 547.533 180.86C547.783 180.394 547.908 179.835 547.908 179.181C547.908 178.522 547.78 177.951 547.525 177.468C547.275 176.985 546.88 176.616 546.34 176.36C545.806 176.099 545.104 175.968 544.235 175.968H540.928V191.164H538.295ZM546.911 183.289L551.224 191.164H548.224L543.996 183.289H546.911ZM562.827 178.295C562.736 177.488 562.361 176.863 561.702 176.42C561.043 175.971 560.214 175.746 559.214 175.746C558.498 175.746 557.878 175.86 557.356 176.087C556.833 176.309 556.427 176.616 556.137 177.008C555.853 177.394 555.711 177.835 555.711 178.329C555.711 178.744 555.807 179.102 556.001 179.403C556.199 179.704 556.458 179.957 556.776 180.161C557.1 180.36 557.447 180.528 557.816 180.664C558.185 180.795 558.54 180.903 558.881 180.988L560.586 181.431C561.143 181.567 561.714 181.752 562.299 181.985C562.884 182.218 563.427 182.525 563.927 182.906C564.427 183.286 564.83 183.758 565.137 184.32C565.449 184.883 565.606 185.556 565.606 186.34C565.606 187.329 565.35 188.207 564.839 188.974C564.333 189.741 563.597 190.346 562.631 190.789C561.671 191.232 560.509 191.454 559.145 191.454C557.839 191.454 556.708 191.246 555.753 190.832C554.799 190.417 554.052 189.829 553.512 189.067C552.972 188.3 552.674 187.391 552.617 186.34H555.259C555.31 186.971 555.515 187.496 555.873 187.917C556.236 188.332 556.699 188.641 557.262 188.846C557.83 189.045 558.452 189.144 559.128 189.144C559.873 189.144 560.535 189.028 561.114 188.795C561.699 188.556 562.16 188.227 562.495 187.806C562.83 187.38 562.998 186.883 562.998 186.315C562.998 185.798 562.85 185.374 562.555 185.045C562.265 184.715 561.87 184.442 561.37 184.227C560.876 184.011 560.316 183.82 559.691 183.656L557.628 183.093C556.231 182.712 555.123 182.153 554.305 181.414C553.492 180.675 553.086 179.698 553.086 178.482C553.086 177.477 553.359 176.599 553.904 175.849C554.449 175.099 555.188 174.516 556.12 174.102C557.052 173.681 558.103 173.471 559.273 173.471C560.455 173.471 561.498 173.678 562.401 174.093C563.31 174.508 564.026 175.079 564.549 175.806C565.072 176.528 565.344 177.357 565.367 178.295H562.827Z" fill="black" fill-opacity="0.8"/>
<path d="M728.059 95C728.059 94.1716 727.387 93.5 726.559 93.5C725.73 93.5 725.059 94.1716 725.059 95H728.059ZM725.059 154.055C725.059 154.883 725.73 155.555 726.559 155.555C727.387 155.555 728.059 154.883 728.059 154.055H725.059ZM728.059 206.055C728.059 205.226 727.387 204.555 726.559 204.555C725.73 204.555 725.059 205.226 725.059 206.055H728.059ZM398.34 339C397.511 339 396.926 340.015 397.34 340.732L404 352.268C404.414 352.985 405.586 352.985 406 352.268L412.66 340.732C413.074 340.015 412.489 339 411.66 339H398.34ZM726.559 206.055H728.059H726.559ZM725.059 95V154.055H728.059V95H725.059ZM708.113 223H429V226H708.113V223ZM403.5 248.5V340.5H406.5V248.5H403.5ZM429 223C414.917 223 403.5 234.417 403.5 248.5H406.5C406.5 236.074 416.574 226 429 226V223ZM725.059 206.055C725.059 215.413 717.472 223 708.113 223V226C719.129 226 728.059 217.07 728.059 206.055H725.059Z" fill="#1E1E1E"/>
<path d="M673.274 171.6L678.132 185.816H678.328L683.185 171.6H686.032L679.751 189.055H676.708L670.427 171.6H673.274ZM688.097 189.055V171.6H699.04V173.867H690.73V179.185H698.469V181.444H690.73V186.788H699.142V189.055H688.097ZM702.102 189.055V171.6H704.735V179.185H713.437V171.6H716.079V189.055H713.437V181.444H704.735V189.055H702.102ZM722.092 171.6V189.055H719.458V171.6H722.092ZM739.968 177.276H737.309C737.207 176.708 737.016 176.208 736.738 175.776C736.459 175.344 736.119 174.978 735.715 174.677C735.312 174.376 734.86 174.148 734.36 173.995C733.866 173.842 733.34 173.765 732.783 173.765C731.778 173.765 730.877 174.018 730.082 174.523C729.292 175.029 728.667 175.771 728.207 176.748C727.752 177.725 727.525 178.918 727.525 180.327C727.525 181.748 727.752 182.947 728.207 183.924C728.667 184.901 729.295 185.64 730.09 186.14C730.886 186.64 731.781 186.89 732.775 186.89C733.326 186.89 733.849 186.816 734.343 186.668C734.843 186.515 735.295 186.29 735.698 185.995C736.102 185.7 736.442 185.339 736.721 184.913C737.005 184.481 737.201 183.987 737.309 183.43L739.968 183.438C739.826 184.296 739.55 185.086 739.141 185.808C738.738 186.523 738.218 187.143 737.582 187.665C736.951 188.183 736.229 188.583 735.417 188.867C734.604 189.151 733.718 189.293 732.758 189.293C731.246 189.293 729.9 188.935 728.718 188.219C727.536 187.498 726.604 186.467 725.923 185.126C725.246 183.785 724.908 182.185 724.908 180.327C724.908 178.464 725.249 176.864 725.931 175.529C726.613 174.188 727.545 173.16 728.727 172.444C729.908 171.722 731.252 171.362 732.758 171.362C733.684 171.362 734.548 171.495 735.349 171.762C736.156 172.023 736.88 172.41 737.522 172.921C738.164 173.427 738.695 174.046 739.116 174.779C739.536 175.506 739.82 176.339 739.968 177.276ZM742.663 189.055V171.6H745.297V186.788H753.206V189.055H742.663ZM755.754 189.055V171.6H766.697V173.867H758.388V179.185H766.126V181.444H758.388V186.788H766.8V189.055H755.754ZM779.279 176.185C779.188 175.379 778.813 174.754 778.154 174.31C777.495 173.862 776.665 173.637 775.665 173.637C774.949 173.637 774.33 173.751 773.807 173.978C773.285 174.2 772.878 174.506 772.589 174.898C772.305 175.285 772.163 175.725 772.163 176.219C772.163 176.634 772.259 176.992 772.452 177.293C772.651 177.594 772.91 177.847 773.228 178.052C773.552 178.251 773.898 178.418 774.268 178.555C774.637 178.685 774.992 178.793 775.333 178.879L777.038 179.322C777.594 179.458 778.165 179.643 778.751 179.876C779.336 180.109 779.878 180.415 780.378 180.796C780.878 181.177 781.282 181.648 781.589 182.211C781.901 182.773 782.057 183.447 782.057 184.231C782.057 185.219 781.802 186.097 781.29 186.864C780.785 187.631 780.049 188.237 779.083 188.68C778.123 189.123 776.961 189.344 775.597 189.344C774.29 189.344 773.16 189.137 772.205 188.722C771.251 188.308 770.503 187.719 769.964 186.958C769.424 186.191 769.126 185.282 769.069 184.231H771.711C771.762 184.862 771.966 185.387 772.324 185.808C772.688 186.222 773.151 186.532 773.714 186.737C774.282 186.935 774.904 187.035 775.58 187.035C776.324 187.035 776.986 186.918 777.566 186.685C778.151 186.447 778.611 186.117 778.947 185.697C779.282 185.271 779.449 184.773 779.449 184.205C779.449 183.688 779.302 183.265 779.006 182.935C778.716 182.606 778.322 182.333 777.822 182.117C777.327 181.901 776.768 181.711 776.143 181.546L774.08 180.984C772.682 180.603 771.574 180.043 770.756 179.305C769.944 178.566 769.538 177.589 769.538 176.373C769.538 175.367 769.81 174.489 770.356 173.739C770.901 172.989 771.64 172.407 772.572 171.992C773.503 171.572 774.555 171.362 775.725 171.362C776.907 171.362 777.949 171.569 778.853 171.984C779.762 172.398 780.478 172.969 781.001 173.697C781.523 174.418 781.796 175.248 781.819 176.185H779.279Z" fill="black" fill-opacity="0.8"/>
<defs>
<filter id="filter0_d_1695_13048" x="145.661" y="399.151" width="94.7429" height="110.198" filterUnits="userSpaceOnUse" color-interpolation-filters="sRGB">
<feFlood flood-opacity="0" result="BackgroundImageFix"/>
<feColorMatrix in="SourceAlpha" type="matrix" values="0 0 0 0 0 0 0 0 0 0 0 0 0 0 0 0 0 0 127 0" result="hardAlpha"/>
<feOffset/>
<feGaussianBlur stdDeviation="7.68035"/>
<feComposite in2="hardAlpha" operator="out"/>
<feColorMatrix type="matrix" values="0 0 0 0 1 0 0 0 0 1 0 0 0 0 1 0 0 0 1 0"/>
<feBlend mode="normal" in2="BackgroundImageFix" result="effect1_dropShadow_1695_13048"/>
<feBlend mode="normal" in="SourceGraphic" in2="effect1_dropShadow_1695_13048" result="shape"/>
</filter>
<radialGradient id="paint0_radial_1695_13048" cx="0" cy="0" r="1" gradientUnits="userSpaceOnUse" gradientTransform="translate(193.035 450.944) rotate(-90.0445) scale(57.2565)">
<stop offset="0.220303"/>
<stop offset="0.995966" stop-opacity="0"/>
</radialGradient>
</defs>
</svg>
