<svg width="1130" height="570" viewBox="0 0 1130 570" fill="none" xmlns="http://www.w3.org/2000/svg">
<circle cx="434.06" cy="132.669" r="40.6689" fill="#9EFF00"/>
<circle cx="434.06" cy="121.048" r="14.5246" fill="#212121"/>
<path d="M458.709 153.003C452.848 145.906 443.981 141.383 434.058 141.383C424.136 141.383 415.269 145.906 409.408 153.003C415.269 160.099 424.136 164.622 434.058 164.622C443.981 164.622 452.848 160.099 458.709 153.003Z" fill="#212121"/>
<path fill-rule="evenodd" clip-rule="evenodd" d="M55.3311 231.117C85.8896 231.117 110.662 255.89 110.662 286.448C110.662 317.007 85.8896 341.779 55.3311 341.779C24.7726 341.779 0 317.007 0 286.448C0 255.89 24.7726 231.117 55.3311 231.117Z" fill="#9EFF00"/>
<path fill-rule="evenodd" clip-rule="evenodd" d="M69.1711 340.033C64.7479 341.172 60.1105 341.778 55.3316 341.778C35.4716 341.778 18.0555 331.315 8.29492 315.6C14.9512 306.3 24.2387 299.786 36.1311 299.786C56.5779 299.786 67.3521 316.636 68.8964 335.131C69.0289 336.716 69.1352 338.384 69.1711 340.033ZM103.345 313.967C97.4018 324.313 88.2112 332.556 77.1639 337.304C77.3941 336.318 77.475 335.285 77.3875 334.236C76.5387 324.072 73.1197 313.73 66.4377 305.719C66.0795 305.29 65.7127 304.868 65.3375 304.455C69.4734 302.362 74.049 301.268 78.6961 301.268C83.772 301.268 88.7625 302.574 93.1879 305.06C95.102 306.135 96.8826 307.415 98.5008 308.873L103.345 313.967ZM55.1264 274.497C55.1264 264.696 47.1809 256.75 37.3795 256.75C27.5782 256.75 19.6326 264.696 19.6326 274.497C19.6326 284.298 27.5782 292.244 37.3795 292.244C47.1809 292.244 55.1264 284.298 55.1264 274.497ZM78.5553 264.946C86.6755 264.946 93.2581 271.529 93.2581 279.649C93.2581 287.769 86.6755 294.352 78.5553 294.352C70.4352 294.352 63.8525 287.769 63.8525 279.649C63.8525 271.529 70.4352 264.946 78.5553 264.946Z" fill="#212121"/>
<path d="M114.662 284.947C113.834 284.947 113.162 285.619 113.162 286.447C113.162 287.276 113.834 287.947 114.662 287.947V284.947ZM255.719 134.168C256.547 134.168 257.219 133.496 257.219 132.668C257.219 131.84 256.547 131.168 255.719 131.168V134.168ZM315.719 131.168C314.89 131.168 314.219 131.84 314.219 132.668C314.219 133.496 314.89 134.168 315.719 134.168V131.168ZM374.391 139.328C374.391 140.157 375.405 140.742 376.123 140.328L387.658 133.668C388.376 133.254 388.376 132.082 387.658 131.668L376.123 125.008C375.405 124.594 374.391 125.179 374.391 126.008V139.328ZM114.662 287.947H166.047V284.947H114.662V287.947ZM191.547 262.447V156.668H188.547V262.447H191.547ZM214.047 134.168H255.719V131.168H214.047V134.168ZM315.719 134.168H375.891V131.168H315.719V134.168ZM191.547 156.668C191.547 144.242 201.62 134.168 214.047 134.168V131.168C199.964 131.168 188.547 142.585 188.547 156.668H191.547ZM166.047 287.947C180.13 287.947 191.547 276.531 191.547 262.447H188.547C188.547 274.874 178.473 284.947 166.047 284.947V287.947Z" fill="#14AE5C"/>
<path d="M265.041 138.668V127.032H269.632C270.511 127.032 271.261 127.189 271.882 127.503C272.507 127.814 272.982 128.255 273.308 128.827C273.638 129.395 273.802 130.064 273.802 130.833C273.802 131.605 273.636 132.27 273.302 132.827C272.969 133.38 272.486 133.804 271.853 134.1C271.225 134.395 270.463 134.543 269.569 134.543H266.496V132.566H269.172C269.641 132.566 270.032 132.501 270.342 132.373C270.653 132.244 270.884 132.051 271.035 131.793C271.191 131.535 271.268 131.215 271.268 130.833C271.268 130.446 271.191 130.121 271.035 129.855C270.884 129.59 270.651 129.39 270.336 129.253C270.026 129.113 269.634 129.043 269.16 129.043H267.501V138.668H265.041ZM271.325 133.373L274.217 138.668H271.501L268.672 133.373H271.325ZM275.365 138.668V127.032H283.206V129.06H277.825V131.833H282.802V133.861H277.825V136.64H283.229V138.668H275.365ZM286.992 138.668H284.355L288.372 127.032H291.543L295.554 138.668H292.918L290.003 129.691H289.912L286.992 138.668ZM286.827 134.094H293.054V136.015H286.827V134.094ZM300.904 138.668H296.779V127.032H300.938C302.108 127.032 303.116 127.265 303.96 127.73C304.805 128.193 305.455 128.857 305.909 129.725C306.368 130.592 306.597 131.63 306.597 132.838C306.597 134.051 306.368 135.092 305.909 135.963C305.455 136.835 304.801 137.503 303.949 137.969C303.101 138.435 302.085 138.668 300.904 138.668ZM299.239 136.56H300.801C301.529 136.56 302.14 136.431 302.637 136.174C303.137 135.912 303.512 135.509 303.762 134.963C304.015 134.414 304.142 133.706 304.142 132.838C304.142 131.979 304.015 131.276 303.762 130.73C303.512 130.185 303.138 129.783 302.642 129.526C302.146 129.268 301.534 129.14 300.807 129.14H299.239V136.56Z" fill="black" fill-opacity="0.8"/>
<circle cx="434.331" cy="285.669" r="40.6689" fill="#9EFF00"/>
<circle cx="434.331" cy="274.048" r="14.5246" fill="#212121"/>
<path d="M458.98 306.003C453.119 298.906 444.253 294.383 434.33 294.383C424.407 294.383 415.541 298.906 409.68 306.003C415.541 313.099 424.407 317.622 434.33 317.622C444.253 317.622 453.119 313.099 458.98 306.003Z" fill="#212121"/>
<path d="M114.662 284.945C113.834 284.945 113.162 285.617 113.162 286.445C113.162 287.274 113.834 287.945 114.662 287.945V284.945ZM262.514 287.945C263.342 287.945 264.014 287.274 264.014 286.445C264.014 285.617 263.342 284.945 262.514 284.945V287.945ZM342.514 284.945C341.685 284.945 341.014 285.617 341.014 286.445C341.014 287.274 341.685 287.945 342.514 287.945V284.945ZM374.662 293.106C374.662 293.934 375.677 294.52 376.394 294.106L387.93 287.445C388.647 287.031 388.647 285.86 387.93 285.445L376.394 278.785C375.677 278.371 374.662 278.957 374.662 279.785V293.106ZM114.662 287.945H262.514V284.945H114.662V287.945ZM342.514 287.945H376.162V284.945H342.514V287.945Z" fill="#FFA629"/>
<path d="M279.129 280.809H281.589V288.366C281.589 289.214 281.387 289.957 280.981 290.593C280.58 291.229 280.017 291.726 279.294 292.082C278.57 292.434 277.728 292.61 276.765 292.61C275.8 292.61 274.955 292.434 274.231 292.082C273.508 291.726 272.945 291.229 272.544 290.593C272.142 289.957 271.942 289.214 271.942 288.366V280.809H274.402V288.156C274.402 288.599 274.498 288.993 274.692 289.337C274.889 289.682 275.165 289.953 275.521 290.15C275.877 290.347 276.292 290.445 276.765 290.445C277.243 290.445 277.658 290.347 278.01 290.15C278.366 289.953 278.64 289.682 278.834 289.337C279.031 288.993 279.129 288.599 279.129 288.156V280.809ZM283.437 292.445V280.809H288.028C288.911 280.809 289.663 280.978 290.284 281.315C290.905 281.648 291.379 282.112 291.705 282.707C292.034 283.298 292.199 283.979 292.199 284.752C292.199 285.525 292.032 286.207 291.699 286.798C291.366 287.388 290.883 287.849 290.25 288.178C289.621 288.508 288.86 288.673 287.966 288.673H285.04V286.701H287.568C288.042 286.701 288.432 286.62 288.739 286.457C289.049 286.29 289.28 286.061 289.432 285.769C289.587 285.474 289.665 285.135 289.665 284.752C289.665 284.366 289.587 284.029 289.432 283.741C289.28 283.449 289.049 283.224 288.739 283.065C288.428 282.902 288.034 282.82 287.557 282.82H285.898V292.445H283.437ZM297.746 292.445H293.621V280.809H297.78C298.95 280.809 299.958 281.042 300.803 281.508C301.647 281.97 302.297 282.635 302.752 283.502C303.21 284.37 303.439 285.407 303.439 286.616C303.439 287.828 303.21 288.87 302.752 289.741C302.297 290.612 301.644 291.281 300.791 291.746C299.943 292.212 298.928 292.445 297.746 292.445ZM296.081 290.337H297.644C298.371 290.337 298.983 290.209 299.479 289.951C299.979 289.69 300.354 289.286 300.604 288.741C300.858 288.192 300.984 287.483 300.984 286.616C300.984 285.756 300.858 285.053 300.604 284.508C300.354 283.962 299.981 283.561 299.484 283.303C298.988 283.046 298.377 282.917 297.649 282.917H296.081V290.337ZM306.435 292.445H303.799L307.816 280.809H310.986L314.997 292.445H312.361L309.446 283.468H309.355L306.435 292.445ZM306.27 287.871H312.497V289.792H306.27V287.871ZM314.357 282.837V280.809H323.914V282.837H320.351V292.445H317.919V282.837H314.357ZM325.312 292.445V280.809H333.153V282.837H327.772V285.61H332.749V287.638H327.772V290.417H333.175V292.445H325.312Z" fill="black" fill-opacity="0.8"/>
<circle cx="433.331" cy="436.669" r="40.6689" fill="#9EFF00"/>
<circle cx="433.331" cy="425.048" r="14.5246" fill="#212121"/>
<path d="M457.98 457.003C452.119 449.906 443.253 445.383 433.33 445.383C423.407 445.383 414.541 449.906 408.68 457.003C414.541 464.099 423.407 468.622 433.33 468.622C443.253 468.622 452.119 464.099 457.98 457.003Z" fill="#212121"/>
<path d="M114.662 284.945C113.834 284.945 113.162 285.617 113.162 286.445C113.162 287.274 113.834 287.945 114.662 287.945V284.945ZM254.517 438.166C255.346 438.166 256.017 437.494 256.017 436.666C256.017 435.837 255.346 435.166 254.517 435.166V438.166ZM330.517 435.166C329.689 435.166 329.017 435.837 329.017 436.666C329.017 437.494 329.689 438.166 330.517 438.166V435.166ZM373.662 443.326C373.662 444.155 374.677 444.74 375.394 444.326L386.93 437.666C387.647 437.252 387.647 436.08 386.93 435.666L375.394 429.006C374.677 428.591 373.662 429.177 373.662 430.006V443.326ZM114.662 287.945H166.662V284.945H114.662V287.945ZM189.162 310.445V412.666H192.162V310.445H189.162ZM214.662 438.166H254.517V435.166H214.662V438.166ZM330.517 438.166H375.162V435.166H330.517V438.166ZM189.162 412.666C189.162 426.749 200.579 438.166 214.662 438.166V435.166C202.236 435.166 192.162 425.092 192.162 412.666H189.162ZM166.662 287.945C179.088 287.945 189.162 298.019 189.162 310.445H192.162C192.162 296.362 180.745 284.945 166.662 284.945V287.945Z" fill="#F24822"/>
<path d="M267.696 442.664H263.571V431.028H267.73C268.9 431.028 269.908 431.261 270.752 431.727C271.597 432.189 272.247 432.853 272.701 433.721C273.16 434.588 273.389 435.626 273.389 436.835C273.389 438.047 273.16 439.088 272.701 439.96C272.247 440.831 271.593 441.499 270.741 441.965C269.892 442.431 268.877 442.664 267.696 442.664ZM266.031 440.556H267.593C268.321 440.556 268.932 440.427 269.428 440.17C269.928 439.908 270.303 439.505 270.553 438.96C270.807 438.41 270.934 437.702 270.934 436.835C270.934 435.975 270.807 435.272 270.553 434.727C270.303 434.181 269.93 433.78 269.434 433.522C268.938 433.264 268.326 433.136 267.599 433.136H266.031V440.556ZM275.035 442.664V431.028H282.876V433.056H277.495V435.829H282.473V437.857H277.495V440.636H282.899V442.664H275.035ZM284.656 442.664V431.028H287.116V440.636H292.105V442.664H284.656ZM293.558 442.664V431.028H301.399V433.056H296.018V435.829H300.996V437.857H296.018V440.636H301.422V442.664H293.558ZM302.736 433.056V431.028H312.293V433.056H308.73V442.664H306.298V433.056H302.736ZM313.691 442.664V431.028H321.531V433.056H316.151V435.829H321.128V437.857H316.151V440.636H321.554V442.664H313.691Z" fill="black" fill-opacity="0.8"/>
<circle cx="66.2453" cy="66.2453" r="66.2453" transform="matrix(-1 0 0 1 787.152 220)" fill="black"/>
<path d="M720.437 332.18C720.776 332.295 721.11 332.294 721.448 332.176C725.806 330.655 756.885 318.61 756.885 284.313V253.31C756.885 252.49 756.324 251.775 755.524 251.576L721.379 243.085C721.093 243.013 720.793 243.013 720.507 243.085C720.221 243.156 686.363 251.576 686.363 251.576C685.563 251.775 685.002 252.49 685.002 253.31V284.313C685.002 318.956 716.073 330.702 720.437 332.18Z" fill="white"/>
<path d="M699.424 264.314C702.174 261.298 705.527 258.893 709.266 257.257C713.005 255.62 717.047 254.787 721.128 254.813C725.21 254.839 729.24 255.722 732.958 257.405C736.676 259.089 739.999 261.535 742.711 264.585L720.945 283.938L699.424 264.314Z" fill="url(#paint0_radial_1697_13194)"/>
<path d="M478.729 131.168C477.9 131.168 477.229 131.84 477.229 132.668C477.229 133.496 477.9 134.168 478.729 134.168V131.168ZM635.662 292.905C635.662 293.733 636.677 294.319 637.394 293.905L648.93 287.244C649.647 286.83 649.647 285.659 648.93 285.244L637.394 278.584C636.677 278.17 635.662 278.756 635.662 279.584V292.905ZM478.729 134.168H540.695V131.168H478.729V134.168ZM563.195 156.668V262.244H566.195V156.668H563.195ZM588.695 287.744H637.162V284.744H588.695V287.744ZM563.195 262.244C563.195 276.328 574.612 287.744 588.695 287.744V284.744C576.269 284.744 566.195 274.671 566.195 262.244H563.195ZM540.695 134.168C553.122 134.168 563.195 144.242 563.195 156.668H566.195C566.195 142.585 554.779 131.168 540.695 131.168V134.168Z" fill="#1E1E1E"/>
<path d="M479 284.746C478.172 284.746 477.5 285.418 477.5 286.246C477.5 287.075 478.172 287.746 479 287.746V284.746ZM635.662 292.906C635.662 293.735 636.677 294.321 637.394 293.906L648.93 287.246C649.647 286.832 649.647 285.66 648.93 285.246L637.394 278.586C636.677 278.172 635.662 278.757 635.662 279.586V292.906ZM479 287.746H637.162V284.746H479V287.746Z" fill="#1E1E1E"/>
<path d="M478 435.17C477.172 435.17 476.5 435.841 476.5 436.67C476.5 437.498 477.172 438.17 478 438.17V435.17ZM635.662 292.906C635.662 293.735 636.677 294.321 637.394 293.906L648.93 287.246C649.647 286.832 649.647 285.66 648.93 285.246L637.394 278.586C636.677 278.172 635.662 278.757 635.662 279.586V292.906ZM478 438.17H540.331V435.17H478V438.17ZM565.831 412.67V310.246H562.831V412.67H565.831ZM588.331 287.746H637.162V284.746H588.331V287.746ZM565.831 310.246C565.831 297.82 575.905 287.746 588.331 287.746V284.746C574.248 284.746 562.831 296.163 562.831 310.246H565.831ZM540.331 438.17C554.414 438.17 565.831 426.753 565.831 412.67H562.831C562.831 425.096 552.757 435.17 540.331 435.17V438.17Z" fill="#1E1E1E"/>
<path d="M1036.18 27L1031.03 9.9375H1034.66L1037.55 21.082L1037.85 22.2305L1038.16 21.0703L1041.07 9.9375H1044.7L1039.53 27H1036.18ZM1046.88 9.9375H1056.75V12.5977H1053.42V24.3516H1056.75V27H1046.88V24.3516H1050.13V12.5977H1046.88V9.9375ZM1070.61 19.5234H1063.61V24.3398H1071.8V27H1060.3V9.9375H1071.76V12.6211H1063.61V16.9219H1070.61V19.5234ZM1075.18 27L1072.84 9.9375H1075.85L1076.99 19.4766L1077.07 20.1445L1077.18 19.4414L1078.52 9.9375H1080.88L1082.31 19.5117L1082.42 20.2148L1082.5 19.5L1083.66 9.9375H1086.68L1084.31 27H1081.34L1079.85 17.7891L1079.72 16.9219L1079.59 17.7891L1078.16 27H1075.18Z" fill="#1E1E1E"/>
<path d="M1035.07 63.5391V70.3828H1032.9V53.3203H1038.43C1039.2 53.3359 1039.92 53.457 1040.6 53.6836C1041.29 53.9102 1041.89 54.2383 1042.4 54.668C1042.92 55.0977 1043.33 55.6289 1043.62 56.2617C1043.93 56.8945 1044.08 57.6211 1044.08 58.4414C1044.08 59.2617 1043.93 59.9883 1043.62 60.6211C1043.33 61.2461 1042.92 61.7734 1042.4 62.2031C1041.89 62.6328 1041.29 62.9609 1040.6 63.1875C1039.92 63.4141 1039.2 63.5312 1038.43 63.5391H1035.07ZM1035.07 61.7578H1038.43C1038.93 61.75 1039.39 61.6719 1039.81 61.5234C1040.24 61.3672 1040.6 61.1484 1040.92 60.8672C1041.23 60.5859 1041.47 60.2461 1041.64 59.8477C1041.82 59.4414 1041.91 58.9805 1041.91 58.4648C1041.91 57.9492 1041.82 57.4844 1041.64 57.0703C1041.47 56.6562 1041.23 56.3047 1040.93 56.0156C1040.62 55.7266 1040.24 55.5039 1039.81 55.3477C1039.39 55.1914 1038.93 55.1094 1038.43 55.1016H1035.07V61.7578ZM1057.37 53.3203L1057.39 64.875C1057.39 65.6719 1057.25 66.418 1056.97 67.1133C1056.69 67.8086 1056.3 68.4141 1055.81 68.9297C1055.32 69.4531 1054.73 69.8672 1054.05 70.1719C1053.37 70.4688 1052.63 70.6172 1051.82 70.6172C1050.99 70.6172 1050.23 70.4688 1049.55 70.1719C1048.87 69.875 1048.29 69.4648 1047.81 68.9414C1047.32 68.4258 1046.94 67.8203 1046.67 67.125C1046.4 66.4219 1046.26 65.6719 1046.25 64.875L1046.27 53.3203H1048.34L1048.38 64.875C1048.39 65.3828 1048.47 65.8711 1048.62 66.3398C1048.77 66.8086 1049 67.2227 1049.28 67.582C1049.57 67.9414 1049.92 68.2305 1050.34 68.4492C1050.77 68.668 1051.26 68.7773 1051.82 68.7773C1052.37 68.7773 1052.86 68.6719 1053.28 68.4609C1053.7 68.2422 1054.06 67.9492 1054.35 67.582C1054.63 67.2227 1054.84 66.8086 1054.99 66.3398C1055.14 65.8711 1055.22 65.3828 1055.24 64.875L1055.27 53.3203H1057.37ZM1060.59 70.3828V53.3203H1065.67C1066.37 53.3281 1067.06 53.4219 1067.73 53.6016C1068.4 53.7734 1069 54.043 1069.52 54.4102C1070.05 54.7773 1070.46 55.2461 1070.78 55.8164C1071.09 56.3867 1071.24 57.0703 1071.23 57.8672C1071.23 58.3125 1071.15 58.7188 1071.01 59.0859C1070.88 59.4531 1070.7 59.7812 1070.46 60.0703C1070.22 60.3672 1069.95 60.6172 1069.65 60.8203C1069.36 61.0234 1069.01 61.2148 1068.6 61.3945V61.4297C1069.03 61.5312 1069.44 61.7148 1069.84 61.9805C1070.24 62.2461 1070.57 62.5391 1070.82 62.8594C1071.1 63.2109 1071.31 63.6055 1071.46 64.043C1071.61 64.4805 1071.69 64.9531 1071.69 65.4609C1071.7 66.2578 1071.55 66.9609 1071.23 67.5703C1070.92 68.1797 1070.5 68.6875 1069.98 69.0938C1069.46 69.5078 1068.85 69.8242 1068.16 70.043C1067.48 70.2617 1066.78 70.375 1066.05 70.3828H1060.59ZM1062.77 62.4023V68.543H1066.11C1066.57 68.5352 1067 68.4609 1067.4 68.3203C1067.81 68.1719 1068.17 67.9688 1068.48 67.7109C1068.79 67.4531 1069.04 67.1367 1069.22 66.7617C1069.41 66.3867 1069.5 65.9609 1069.5 65.4844C1069.51 65 1069.43 64.5703 1069.25 64.1953C1069.09 63.8203 1068.86 63.5 1068.56 63.2344C1068.27 62.9766 1067.92 62.7773 1067.52 62.6367C1067.12 62.4961 1066.69 62.418 1066.23 62.4023H1062.77ZM1062.77 60.5977H1065.8C1066.2 60.5898 1066.6 60.5273 1066.99 60.4102C1067.38 60.2852 1067.73 60.1055 1068.04 59.8711C1068.34 59.6445 1068.59 59.3633 1068.77 59.0273C1068.96 58.6914 1069.05 58.3008 1069.05 57.8555C1069.05 57.3789 1068.96 56.9727 1068.77 56.6367C1068.59 56.3008 1068.35 56.0234 1068.05 55.8047C1067.73 55.5938 1067.38 55.4375 1066.97 55.3359C1066.57 55.2344 1066.16 55.1797 1065.74 55.1719H1062.77V60.5977ZM1077.02 68.543H1085.37V70.3828H1074.86V53.3203H1077.02V68.543ZM1088.53 53.3203H1098.85V55.207H1094.76V68.5078H1098.85V70.3828H1088.53V68.5078H1092.53V55.207H1088.53V53.3203ZM1111.42 66.0703C1111.42 65.5469 1111.3 65.1055 1111.06 64.7461C1110.82 64.3867 1110.52 64.082 1110.14 63.832C1109.77 63.5898 1109.35 63.3867 1108.9 63.2227C1108.46 63.0586 1108.03 62.9102 1107.61 62.7773C1107.01 62.582 1106.4 62.3477 1105.77 62.0742C1105.16 61.793 1104.59 61.457 1104.09 61.0664C1103.57 60.668 1103.15 60.1992 1102.82 59.6602C1102.5 59.1133 1102.34 58.4727 1102.34 57.7383C1102.34 57.0039 1102.5 56.3477 1102.82 55.7695C1103.15 55.1914 1103.57 54.7031 1104.1 54.3047C1104.62 53.9062 1105.21 53.6055 1105.88 53.4023C1106.54 53.1914 1107.21 53.0859 1107.88 53.0859C1108.62 53.0859 1109.34 53.2109 1110.03 53.4609C1110.71 53.7031 1111.32 54.0469 1111.85 54.4922C1112.39 54.9375 1112.81 55.4766 1113.13 56.1094C1113.45 56.7422 1113.62 57.4492 1113.64 58.2305H1111.41C1111.35 57.7383 1111.23 57.293 1111.05 56.8945C1110.87 56.4883 1110.63 56.1406 1110.33 55.8516C1110.03 55.5625 1109.68 55.3398 1109.26 55.1836C1108.86 55.0195 1108.4 54.9375 1107.88 54.9375C1107.47 54.9375 1107.06 54.9961 1106.66 55.1133C1106.27 55.2305 1105.93 55.4062 1105.62 55.6406C1105.31 55.875 1105.06 56.1641 1104.87 56.5078C1104.69 56.8516 1104.6 57.25 1104.6 57.7031C1104.61 58.1953 1104.73 58.6133 1104.98 58.957C1105.22 59.293 1105.53 59.5781 1105.9 59.8125C1106.27 60.0469 1106.67 60.2422 1107.1 60.3984C1107.53 60.5547 1107.94 60.6914 1108.33 60.8086C1108.96 61.0039 1109.59 61.2422 1110.23 61.5234C1110.86 61.7969 1111.44 62.1484 1111.96 62.5781C1112.48 62.9766 1112.89 63.4648 1113.2 64.043C1113.52 64.6211 1113.68 65.2891 1113.68 66.0469C1113.68 66.8125 1113.51 67.4805 1113.17 68.0508C1112.83 68.6211 1112.39 69.0938 1111.85 69.4688C1111.32 69.8516 1110.71 70.1406 1110.03 70.3359C1109.35 70.5234 1108.67 70.6172 1107.99 70.6172C1107.18 70.6172 1106.37 70.4805 1105.59 70.207C1104.8 69.9336 1104.12 69.5391 1103.55 69.0234C1103.03 68.5781 1102.62 68.0586 1102.32 67.4648C1102.02 66.8633 1101.86 66.1953 1101.84 65.4609H1104.05C1104.12 65.9922 1104.26 66.4648 1104.48 66.8789C1104.7 67.2852 1104.98 67.6289 1105.33 67.9102C1105.67 68.1992 1106.07 68.418 1106.51 68.5664C1106.96 68.707 1107.46 68.7773 1107.99 68.7773C1108.41 68.7773 1108.82 68.7266 1109.23 68.625C1109.64 68.5156 1110.01 68.3477 1110.33 68.1211C1110.65 67.9023 1110.91 67.625 1111.12 67.2891C1111.32 66.9453 1111.42 66.5391 1111.42 66.0703ZM1127.15 70.3828H1125.1V62.4961H1118.1V70.3828H1116.06V53.3203H1118.1V60.6562H1125.1V53.3203H1127.15V70.3828Z" fill="#B3B3B3"/>
<path d="M1030.66 64.3828H1128.81V65.5781H1030.66V64.3828Z" fill="#B3B3B3"/>
<path d="M791.152 284.745C790.324 284.745 789.652 285.417 789.652 286.245C789.652 287.074 790.324 287.745 791.152 287.745V284.745ZM1011.66 68.0431C1011.66 68.8715 1012.68 69.4573 1013.39 69.0431L1024.93 62.3828C1025.65 61.9686 1025.65 60.797 1024.93 60.3828L1013.39 53.7226C1012.68 53.3083 1011.66 53.8941 1011.66 54.7226V68.0431ZM791.152 287.745H886.662V284.745H791.152V287.745ZM912.162 262.245V85.3828H909.162V262.245H912.162ZM934.662 62.8828H1013.16V59.8828H934.662V62.8828ZM912.162 85.3828C912.162 72.9564 922.236 62.8828 934.662 62.8828V59.8828C920.579 59.8828 909.162 71.2996 909.162 85.3828H912.162ZM886.662 287.745C900.745 287.745 912.162 276.329 912.162 262.245H909.162C909.162 274.672 899.089 284.745 886.662 284.745V287.745Z" fill="#F24822"/>
<path d="M1038.35 110.809H1034.94V117.77H1032.78V100.707H1037.79C1038.58 100.723 1039.33 100.836 1040.04 101.047C1040.74 101.258 1041.36 101.574 1041.89 101.996C1042.41 102.418 1042.82 102.949 1043.12 103.59C1043.42 104.223 1043.58 104.969 1043.58 105.828C1043.58 106.383 1043.49 106.891 1043.33 107.352C1043.17 107.812 1042.96 108.23 1042.67 108.605C1042.39 108.98 1042.06 109.312 1041.67 109.602C1041.28 109.891 1040.85 110.137 1040.38 110.34L1044 117.629L1043.99 117.77H1041.7L1038.35 110.809ZM1034.94 109.027H1037.85C1038.33 109.02 1038.79 108.945 1039.22 108.805C1039.65 108.656 1040.03 108.445 1040.35 108.172C1040.67 107.898 1040.93 107.566 1041.12 107.176C1041.3 106.777 1041.4 106.32 1041.4 105.805C1041.4 105.258 1041.31 104.781 1041.13 104.375C1040.95 103.961 1040.7 103.613 1040.38 103.332C1040.06 103.059 1039.67 102.852 1039.23 102.711C1038.79 102.57 1038.31 102.496 1037.79 102.488H1034.94V109.027ZM1056.05 109.883H1048.92V115.93H1057.23V117.77H1046.75V100.707H1057.12V102.559H1048.92V108.043H1056.05V109.883ZM1063 100.707L1065.77 109.238L1068.77 100.707H1071.47V117.77H1069.36V110.961L1069.54 103.836L1066.38 113.023H1065.14L1062.25 104.082L1062.42 110.961V117.77H1060.31V100.707H1063ZM1085.67 110.223C1085.67 110.832 1085.61 111.449 1085.51 112.074C1085.42 112.691 1085.27 113.289 1085.06 113.867C1084.86 114.445 1084.6 114.984 1084.28 115.484C1083.97 115.984 1083.59 116.422 1083.15 116.797C1082.72 117.172 1082.21 117.469 1081.64 117.688C1081.08 117.898 1080.45 118.004 1079.74 118.004C1079.04 118.004 1078.4 117.898 1077.83 117.688C1077.27 117.469 1076.77 117.172 1076.33 116.797C1075.9 116.422 1075.52 115.984 1075.2 115.484C1074.88 114.977 1074.61 114.434 1074.41 113.855C1074.2 113.277 1074.04 112.68 1073.94 112.062C1073.84 111.445 1073.79 110.832 1073.78 110.223V108.277C1073.79 107.668 1073.84 107.055 1073.93 106.438C1074.03 105.812 1074.19 105.211 1074.4 104.633C1074.6 104.055 1074.86 103.516 1075.17 103.016C1075.49 102.508 1075.87 102.062 1076.31 101.68C1076.75 101.305 1077.25 101.012 1077.81 100.801C1078.38 100.582 1079.02 100.473 1079.72 100.473C1080.42 100.473 1081.06 100.582 1081.63 100.801C1082.2 101.012 1082.7 101.305 1083.14 101.68C1083.58 102.055 1083.95 102.496 1084.27 103.004C1084.59 103.504 1084.85 104.043 1085.06 104.621C1085.27 105.199 1085.42 105.801 1085.51 106.426C1085.61 107.051 1085.67 107.668 1085.67 108.277V110.223ZM1083.53 108.254C1083.52 107.848 1083.49 107.426 1083.45 106.988C1083.4 106.543 1083.32 106.102 1083.21 105.664C1083.09 105.234 1082.94 104.824 1082.76 104.434C1082.57 104.035 1082.33 103.684 1082.05 103.379C1081.77 103.082 1081.44 102.848 1081.06 102.676C1080.67 102.496 1080.23 102.406 1079.72 102.406C1079.22 102.406 1078.78 102.496 1078.4 102.676C1078.01 102.855 1077.68 103.094 1077.4 103.391C1077.12 103.695 1076.88 104.047 1076.7 104.445C1076.51 104.836 1076.36 105.246 1076.25 105.676C1076.13 106.113 1076.05 106.555 1075.99 107C1075.95 107.438 1075.92 107.855 1075.91 108.254V110.223C1075.92 110.621 1075.95 111.043 1075.99 111.488C1076.05 111.934 1076.13 112.371 1076.25 112.801C1076.37 113.238 1076.52 113.656 1076.71 114.055C1076.9 114.453 1077.13 114.801 1077.41 115.098C1077.69 115.402 1078.02 115.645 1078.41 115.824C1078.79 116.004 1079.24 116.094 1079.74 116.094C1080.25 116.094 1080.7 116.004 1081.08 115.824C1081.47 115.645 1081.81 115.402 1082.09 115.098C1082.36 114.801 1082.59 114.457 1082.77 114.066C1082.95 113.668 1083.11 113.25 1083.22 112.812C1083.33 112.383 1083.41 111.945 1083.45 111.5C1083.49 111.055 1083.52 110.629 1083.53 110.223V108.254ZM1092.72 117.77L1087.33 100.707H1089.65L1093.4 113.445L1093.64 114.277L1093.9 113.422L1097.67 100.707H1099.98L1094.6 117.77H1092.72ZM1111.88 109.883H1104.75V115.93H1113.06V117.77H1102.59V100.707H1112.96V102.559H1104.75V108.043H1111.88V109.883Z" fill="#B3B3B3"/>
<path d="M1030.66 111.77H1114.85V112.965H1030.66V111.77Z" fill="#B3B3B3"/>
<path d="M791.152 284.745C790.324 284.745 789.652 285.417 789.652 286.245C789.652 287.074 790.324 287.745 791.152 287.745V284.745ZM1011.66 115.43C1011.66 116.258 1012.68 116.844 1013.39 116.43L1024.93 109.77C1025.65 109.355 1025.65 108.184 1024.93 107.77L1013.39 101.109C1012.68 100.695 1011.66 101.281 1011.66 102.109V115.43ZM791.152 287.745H886.662V284.745H791.152V287.745ZM912.162 262.245V132.77H909.162V262.245H912.162ZM934.662 110.27H1013.16V107.27H934.662V110.27ZM912.162 132.77C912.162 120.343 922.236 110.27 934.662 110.27V107.27C920.579 107.27 909.162 118.686 909.162 132.77H912.162ZM886.662 287.745C900.745 287.745 912.162 276.329 912.162 262.245H909.162C909.162 274.672 899.089 284.745 886.662 284.745V287.745Z" fill="#F24822"/>
<path d="M1028.88 246.68L1023.49 229.617H1025.81L1029.56 242.355L1029.81 243.188L1030.07 242.332L1033.84 229.617H1036.15L1030.77 246.68H1028.88ZM1038.66 229.617H1048.97V231.504H1044.88V244.805H1048.97V246.68H1038.66V244.805H1042.66V231.504H1038.66V229.617ZM1062 238.793H1054.88V244.84H1063.19V246.68H1052.71V229.617H1063.08V231.469H1054.88V236.953H1062V238.793ZM1067.47 246.68L1065.39 229.617H1067.45L1068.68 241.383L1068.76 242.062L1068.88 241.359L1070.95 229.617H1072.83L1074.91 241.371L1075.04 242.062L1075.11 241.359L1076.34 229.617H1078.39L1076.31 246.68H1074.1L1072.02 234.539L1071.91 233.824L1071.78 234.551L1069.69 246.68H1067.47Z" fill="#B3B3B3"/>
<path d="M1022.66 240.68H1078.94V241.875H1022.66V240.68Z" fill="#B3B3B3"/>
<path d="M791.152 284.745C790.324 284.745 789.652 285.417 789.652 286.245C789.652 287.074 790.324 287.745 791.152 287.745V284.745ZM1003.66 244.34C1003.66 245.168 1004.68 245.754 1005.39 245.34L1016.93 238.68C1017.65 238.265 1017.65 237.094 1016.93 236.68L1005.39 230.019C1004.68 229.605 1003.66 230.191 1003.66 231.019V244.34ZM791.152 287.745H886.662V284.745H791.152V287.745ZM912.162 262.245V261.68H909.162V262.245H912.162ZM934.662 239.18H1005.16V236.18H934.662V239.18ZM912.162 261.68C912.162 249.253 922.236 239.18 934.662 239.18V236.18C920.579 236.18 909.162 247.596 909.162 261.68H912.162ZM886.662 287.745C900.745 287.745 912.162 276.329 912.162 262.245H909.162C909.162 274.672 899.089 284.745 886.662 284.745V287.745Z" fill="#F24822"/>
<path d="M1027.7 289.125V295.383H1024.41V278.32H1030.24C1031.17 278.32 1032.01 278.457 1032.76 278.73C1033.51 278.996 1034.15 279.367 1034.69 279.844C1035.21 280.328 1035.61 280.906 1035.89 281.578C1036.18 282.25 1036.33 282.996 1036.33 283.816C1036.33 284.582 1036.18 285.289 1035.89 285.938C1035.61 286.586 1035.21 287.145 1034.69 287.613C1034.15 288.09 1033.51 288.461 1032.76 288.727C1032.01 288.992 1031.17 289.125 1030.24 289.125H1027.7ZM1027.7 286.453H1030.24C1030.71 286.453 1031.12 286.383 1031.46 286.242C1031.81 286.102 1032.1 285.91 1032.33 285.668C1032.56 285.426 1032.72 285.148 1032.83 284.836C1032.95 284.516 1033.01 284.184 1033.01 283.84C1033.01 283.441 1032.95 283.07 1032.83 282.727C1032.72 282.383 1032.56 282.082 1032.33 281.824C1032.1 281.566 1031.81 281.363 1031.46 281.215C1031.12 281.066 1030.71 280.992 1030.24 280.992H1027.7V286.453ZM1049.52 278.32L1049.53 289.629C1049.53 290.582 1049.4 291.43 1049.14 292.172C1048.88 292.914 1048.5 293.539 1048.01 294.047C1047.51 294.562 1046.9 294.953 1046.18 295.219C1045.47 295.484 1044.66 295.617 1043.75 295.617C1042.89 295.617 1042.11 295.484 1041.41 295.219C1040.73 294.953 1040.14 294.566 1039.64 294.059C1039.15 293.551 1038.77 292.926 1038.5 292.184C1038.23 291.434 1038.1 290.582 1038.1 289.629L1038.11 278.32H1041.4L1041.41 289.629C1041.42 290.199 1041.48 290.699 1041.58 291.129C1041.69 291.559 1041.85 291.914 1042.06 292.195C1042.25 292.453 1042.49 292.648 1042.77 292.781C1043.05 292.906 1043.38 292.969 1043.75 292.969C1044.14 292.969 1044.5 292.902 1044.8 292.77C1045.11 292.629 1045.37 292.422 1045.57 292.148C1045.79 291.867 1045.96 291.516 1046.07 291.094C1046.17 290.672 1046.23 290.184 1046.24 289.629L1046.25 278.32H1049.52ZM1052.09 295.383V278.32H1057.82C1058.75 278.32 1059.59 278.414 1060.35 278.602C1061.12 278.789 1061.77 279.074 1062.31 279.457C1062.85 279.84 1063.26 280.324 1063.55 280.91C1063.85 281.496 1064 282.188 1064 282.984C1063.99 283.5 1063.89 283.988 1063.71 284.449C1063.54 284.902 1063.29 285.301 1062.94 285.645C1062.75 285.832 1062.54 286.004 1062.3 286.16C1062.06 286.316 1061.8 286.449 1061.51 286.559V286.57C1062.07 286.727 1062.52 286.926 1062.85 287.168C1063.18 287.41 1063.46 287.691 1063.69 288.012C1063.93 288.355 1064.1 288.73 1064.21 289.137C1064.32 289.535 1064.38 289.949 1064.38 290.379C1064.38 291.199 1064.24 291.922 1063.96 292.547C1063.68 293.172 1063.28 293.695 1062.75 294.117C1062.23 294.539 1061.59 294.855 1060.84 295.066C1060.09 295.277 1059.25 295.383 1058.31 295.383H1052.09ZM1055.39 287.859V292.723H1058.32C1058.75 292.723 1059.14 292.668 1059.47 292.559C1059.82 292.449 1060.1 292.301 1060.33 292.113C1060.58 291.902 1060.77 291.648 1060.89 291.352C1061.02 291.055 1061.09 290.723 1061.09 290.355C1061.09 289.973 1061.04 289.629 1060.94 289.324C1060.84 289.02 1060.69 288.762 1060.48 288.551C1060.27 288.332 1060 288.164 1059.66 288.047C1059.32 287.93 1058.93 287.867 1058.46 287.859H1055.39ZM1055.39 285.48H1057.84C1058.34 285.473 1058.79 285.414 1059.17 285.305C1059.55 285.188 1059.86 285.016 1060.09 284.789C1060.29 284.609 1060.44 284.391 1060.54 284.133C1060.65 283.875 1060.7 283.582 1060.7 283.254C1060.7 282.91 1060.66 282.609 1060.56 282.352C1060.48 282.094 1060.34 281.879 1060.16 281.707C1059.93 281.465 1059.61 281.289 1059.21 281.18C1058.82 281.07 1058.36 281.012 1057.83 281.004H1055.39V285.48ZM1069.6 292.723H1077.59V295.383H1066.29V278.32H1069.6V292.723ZM1080.76 278.32H1090.62V280.98H1087.3V292.734H1090.62V295.383H1080.76V292.734H1084V280.98H1080.76V278.32ZM1102.85 290.93C1102.85 290.625 1102.79 290.34 1102.68 290.074C1102.58 289.809 1102.41 289.559 1102.16 289.324C1101.9 289.098 1101.56 288.891 1101.15 288.703C1100.74 288.508 1100.23 288.328 1099.62 288.164C1098.68 287.906 1097.85 287.594 1097.13 287.227C1096.42 286.859 1095.84 286.457 1095.38 286.02C1094.93 285.582 1094.59 285.098 1094.35 284.566C1094.12 284.035 1094.01 283.457 1094.01 282.832C1094.01 282.113 1094.16 281.461 1094.47 280.875C1094.77 280.289 1095.19 279.789 1095.73 279.375C1096.27 278.961 1096.91 278.645 1097.64 278.426C1098.38 278.199 1099.18 278.086 1100.03 278.086C1100.93 278.086 1101.74 278.215 1102.47 278.473C1103.21 278.73 1103.85 279.09 1104.38 279.551C1104.91 280.02 1105.33 280.574 1105.62 281.215C1105.92 281.855 1106.07 282.559 1106.07 283.324H1102.86C1102.84 282.941 1102.77 282.59 1102.65 282.27C1102.53 281.949 1102.35 281.672 1102.12 281.438C1101.88 281.211 1101.58 281.035 1101.22 280.91C1100.87 280.777 1100.45 280.711 1099.98 280.711C1099.54 280.711 1099.15 280.766 1098.8 280.875C1098.47 280.977 1098.18 281.121 1097.95 281.309C1097.71 281.504 1097.53 281.734 1097.41 282C1097.29 282.258 1097.23 282.539 1097.23 282.844C1097.23 283.164 1097.31 283.453 1097.47 283.711C1097.63 283.969 1097.87 284.199 1098.17 284.402C1098.48 284.613 1098.84 284.805 1099.27 284.977C1099.71 285.148 1100.2 285.309 1100.75 285.457C1101.34 285.621 1101.89 285.82 1102.43 286.055C1102.96 286.289 1103.44 286.559 1103.89 286.863C1104.56 287.363 1105.1 287.945 1105.5 288.609C1105.89 289.273 1106.09 290.039 1106.09 290.906C1106.09 291.656 1105.94 292.324 1105.64 292.91C1105.34 293.488 1104.93 293.977 1104.39 294.375C1103.86 294.781 1103.23 295.09 1102.5 295.301C1101.76 295.504 1100.96 295.605 1100.09 295.605C1099.24 295.605 1098.4 295.48 1097.56 295.23C1096.73 294.973 1096.01 294.598 1095.39 294.105C1094.81 293.621 1094.34 293.051 1094 292.395C1093.66 291.738 1093.5 290.969 1093.5 290.086H1096.73C1096.75 290.602 1096.84 291.043 1097 291.41C1097.16 291.777 1097.39 292.078 1097.69 292.312C1097.98 292.547 1098.33 292.719 1098.73 292.828C1099.15 292.938 1099.6 292.992 1100.09 292.992C1100.53 292.992 1100.92 292.941 1101.25 292.84C1101.6 292.738 1101.89 292.598 1102.12 292.418C1102.35 292.238 1102.53 292.023 1102.66 291.773C1102.78 291.516 1102.85 291.234 1102.85 290.93ZM1119.21 295.383H1115.95V287.988H1111.12V295.383H1107.85V278.32H1111.12V285.316H1115.95V278.32H1119.21V295.383Z" fill="#1E1E1E"/>
<path d="M791.152 284.746C790.324 284.746 789.652 285.418 789.652 286.246C789.652 287.075 790.324 287.746 791.152 287.746V284.746ZM1003.66 292.906C1003.66 293.735 1004.68 294.321 1005.39 293.906L1016.93 287.246C1017.65 286.832 1017.65 285.66 1016.93 285.246L1005.39 278.586C1004.68 278.172 1003.66 278.757 1003.66 279.586V292.906ZM791.152 287.746H1005.16V284.746H791.152V287.746Z" fill="#14AE5C"/>
<path d="M1030.35 335.809H1026.94V342.77H1024.78V325.707H1029.79C1030.58 325.723 1031.33 325.836 1032.04 326.047C1032.74 326.258 1033.36 326.574 1033.89 326.996C1034.41 327.418 1034.82 327.949 1035.12 328.59C1035.42 329.223 1035.58 329.969 1035.58 330.828C1035.58 331.383 1035.49 331.891 1035.33 332.352C1035.17 332.812 1034.96 333.23 1034.67 333.605C1034.39 333.98 1034.06 334.312 1033.67 334.602C1033.28 334.891 1032.85 335.137 1032.38 335.34L1036 342.629L1035.99 342.77H1033.7L1030.35 335.809ZM1026.94 334.027H1029.85C1030.33 334.02 1030.79 333.945 1031.22 333.805C1031.65 333.656 1032.03 333.445 1032.35 333.172C1032.67 332.898 1032.93 332.566 1033.12 332.176C1033.3 331.777 1033.4 331.32 1033.4 330.805C1033.4 330.258 1033.31 329.781 1033.13 329.375C1032.95 328.961 1032.7 328.613 1032.38 328.332C1032.06 328.059 1031.67 327.852 1031.23 327.711C1030.79 327.57 1030.31 327.496 1029.79 327.488H1026.94V334.027ZM1048.05 334.883H1040.92V340.93H1049.23V342.77H1038.75V325.707H1049.12V327.559H1040.92V333.043H1048.05V334.883ZM1055 325.707L1057.77 334.238L1060.77 325.707H1063.47V342.77H1061.36V335.961L1061.54 328.836L1058.38 338.023H1057.14L1054.25 329.082L1054.42 335.961V342.77H1052.31V325.707H1055ZM1077.67 335.223C1077.67 335.832 1077.61 336.449 1077.51 337.074C1077.42 337.691 1077.27 338.289 1077.06 338.867C1076.86 339.445 1076.6 339.984 1076.28 340.484C1075.97 340.984 1075.59 341.422 1075.15 341.797C1074.72 342.172 1074.21 342.469 1073.64 342.688C1073.08 342.898 1072.45 343.004 1071.74 343.004C1071.04 343.004 1070.4 342.898 1069.83 342.688C1069.27 342.469 1068.77 342.172 1068.33 341.797C1067.9 341.422 1067.52 340.984 1067.2 340.484C1066.88 339.977 1066.61 339.434 1066.41 338.855C1066.2 338.277 1066.04 337.68 1065.94 337.062C1065.84 336.445 1065.79 335.832 1065.78 335.223V333.277C1065.79 332.668 1065.84 332.055 1065.93 331.438C1066.03 330.812 1066.19 330.211 1066.4 329.633C1066.6 329.055 1066.86 328.516 1067.17 328.016C1067.49 327.508 1067.87 327.062 1068.31 326.68C1068.75 326.305 1069.25 326.012 1069.81 325.801C1070.38 325.582 1071.02 325.473 1071.72 325.473C1072.42 325.473 1073.06 325.582 1073.63 325.801C1074.2 326.012 1074.7 326.305 1075.14 326.68C1075.58 327.055 1075.95 327.496 1076.27 328.004C1076.59 328.504 1076.85 329.043 1077.06 329.621C1077.27 330.199 1077.42 330.801 1077.51 331.426C1077.61 332.051 1077.67 332.668 1077.67 333.277V335.223ZM1075.53 333.254C1075.52 332.848 1075.49 332.426 1075.45 331.988C1075.4 331.543 1075.32 331.102 1075.21 330.664C1075.09 330.234 1074.94 329.824 1074.76 329.434C1074.57 329.035 1074.33 328.684 1074.05 328.379C1073.77 328.082 1073.44 327.848 1073.06 327.676C1072.67 327.496 1072.23 327.406 1071.72 327.406C1071.22 327.406 1070.78 327.496 1070.4 327.676C1070.01 327.855 1069.68 328.094 1069.4 328.391C1069.12 328.695 1068.88 329.047 1068.7 329.445C1068.51 329.836 1068.36 330.246 1068.25 330.676C1068.13 331.113 1068.05 331.555 1067.99 332C1067.95 332.438 1067.92 332.855 1067.91 333.254V335.223C1067.92 335.621 1067.95 336.043 1067.99 336.488C1068.05 336.934 1068.13 337.371 1068.25 337.801C1068.37 338.238 1068.52 338.656 1068.71 339.055C1068.9 339.453 1069.13 339.801 1069.41 340.098C1069.69 340.402 1070.02 340.645 1070.41 340.824C1070.79 341.004 1071.24 341.094 1071.74 341.094C1072.25 341.094 1072.7 341.004 1073.08 340.824C1073.47 340.645 1073.81 340.402 1074.09 340.098C1074.36 339.801 1074.59 339.457 1074.77 339.066C1074.95 338.668 1075.11 338.25 1075.22 337.812C1075.33 337.383 1075.41 336.945 1075.45 336.5C1075.49 336.055 1075.52 335.629 1075.53 335.223V333.254ZM1084.72 342.77L1079.33 325.707H1081.65L1085.4 338.445L1085.64 339.277L1085.9 338.422L1089.67 325.707H1091.98L1086.6 342.77H1084.72ZM1103.88 334.883H1096.75V340.93H1105.06V342.77H1094.59V325.707H1104.96V327.559H1096.75V333.043H1103.88V334.883Z" fill="#B3B3B3"/>
<path d="M1022.66 336.77H1106.85V337.965H1022.66V336.77Z" fill="#B3B3B3"/>
<path d="M787.152 284.746C786.324 284.746 785.652 285.418 785.652 286.246C785.652 287.075 786.324 287.746 787.152 287.746L787.152 284.746ZM1003.66 340.431C1003.66 341.259 1004.68 341.845 1005.39 341.431L1016.93 334.77C1017.65 334.356 1017.65 333.185 1016.93 332.77L1005.39 326.11C1004.68 325.696 1003.66 326.282 1003.66 327.11V340.431ZM909.162 310.009C909.162 310.837 909.834 311.509 910.662 311.509C911.491 311.509 912.162 310.837 912.162 310.009H909.162ZM787.152 287.746L886.9 287.747L886.9 284.747L787.152 284.746L787.152 287.746ZM934.424 335.27H1005.16V332.27H934.424V335.27ZM909.162 310.009C909.162 323.96 920.472 335.27 934.424 335.27V332.27C922.129 332.27 912.162 322.303 912.162 310.009H909.162ZM886.9 287.747C899.195 287.747 909.162 297.714 909.162 310.009H912.162C912.162 296.057 900.852 284.747 886.9 284.747L886.9 287.747Z" fill="#F24822"/>
<path d="M1036.88 475L1031.49 457.938H1033.81L1037.56 470.676L1037.81 471.508L1038.07 470.652L1041.84 457.938H1044.15L1038.77 475H1036.88ZM1046.66 457.938H1056.97V459.824H1052.88V473.125H1056.97V475H1046.66V473.125H1050.66V459.824H1046.66V457.938ZM1070 467.113H1062.88V473.16H1071.19V475H1060.71V457.938H1071.08V459.789H1062.88V465.273H1070V467.113ZM1075.47 475L1073.39 457.938H1075.45L1076.68 469.703L1076.76 470.383L1076.88 469.68L1078.95 457.938H1080.83L1082.91 469.691L1083.04 470.383L1083.11 469.68L1084.34 457.938H1086.39L1084.31 475H1082.1L1080.02 462.859L1079.91 462.145L1079.78 462.871L1077.69 475H1075.47Z" fill="#B3B3B3"/>
<path d="M1030.66 469H1086.94V470.195H1030.66V469Z" fill="#B3B3B3"/>
<path d="M791.152 284.746C790.324 284.746 789.652 285.418 789.652 286.246C789.652 287.075 790.324 287.746 791.152 287.746V284.746ZM1011.66 472.661C1011.66 473.49 1012.68 474.075 1013.39 473.661L1024.93 467.001C1025.65 466.587 1025.65 465.415 1024.93 465.001L1013.39 458.341C1012.68 457.926 1011.66 458.512 1011.66 459.341V472.661ZM791.152 287.746H884.907V284.746H791.152V287.746ZM907.407 310.246V442.001H910.407V310.246H907.407ZM932.907 467.501H1013.16V464.501H932.907V467.501ZM907.407 442.001C907.407 456.084 918.824 467.501 932.907 467.501V464.501C920.481 464.501 910.407 454.427 910.407 442.001H907.407ZM884.907 287.746C897.334 287.746 907.407 297.82 907.407 310.246H910.407C910.407 296.163 898.99 284.746 884.907 284.746V287.746Z" fill="#F24822"/>
<path d="M1035.07 510.539V517.383H1032.9V500.32H1038.43C1039.2 500.336 1039.92 500.457 1040.6 500.684C1041.29 500.91 1041.89 501.238 1042.4 501.668C1042.92 502.098 1043.33 502.629 1043.62 503.262C1043.93 503.895 1044.08 504.621 1044.08 505.441C1044.08 506.262 1043.93 506.988 1043.62 507.621C1043.33 508.246 1042.92 508.773 1042.4 509.203C1041.89 509.633 1041.29 509.961 1040.6 510.188C1039.92 510.414 1039.2 510.531 1038.43 510.539H1035.07ZM1035.07 508.758H1038.43C1038.93 508.75 1039.39 508.672 1039.81 508.523C1040.24 508.367 1040.6 508.148 1040.92 507.867C1041.23 507.586 1041.47 507.246 1041.64 506.848C1041.82 506.441 1041.91 505.98 1041.91 505.465C1041.91 504.949 1041.82 504.484 1041.64 504.07C1041.47 503.656 1041.23 503.305 1040.93 503.016C1040.62 502.727 1040.24 502.504 1039.81 502.348C1039.39 502.191 1038.93 502.109 1038.43 502.102H1035.07V508.758ZM1057.37 500.32L1057.39 511.875C1057.39 512.672 1057.25 513.418 1056.97 514.113C1056.69 514.809 1056.3 515.414 1055.81 515.93C1055.32 516.453 1054.73 516.867 1054.05 517.172C1053.37 517.469 1052.63 517.617 1051.82 517.617C1050.99 517.617 1050.23 517.469 1049.55 517.172C1048.87 516.875 1048.29 516.465 1047.81 515.941C1047.32 515.426 1046.94 514.82 1046.67 514.125C1046.4 513.422 1046.26 512.672 1046.25 511.875L1046.27 500.32H1048.34L1048.38 511.875C1048.39 512.383 1048.47 512.871 1048.62 513.34C1048.77 513.809 1049 514.223 1049.28 514.582C1049.57 514.941 1049.92 515.23 1050.34 515.449C1050.77 515.668 1051.26 515.777 1051.82 515.777C1052.37 515.777 1052.86 515.672 1053.28 515.461C1053.7 515.242 1054.06 514.949 1054.35 514.582C1054.63 514.223 1054.84 513.809 1054.99 513.34C1055.14 512.871 1055.22 512.383 1055.24 511.875L1055.27 500.32H1057.37ZM1060.59 517.383V500.32H1065.67C1066.37 500.328 1067.06 500.422 1067.73 500.602C1068.4 500.773 1069 501.043 1069.52 501.41C1070.05 501.777 1070.46 502.246 1070.78 502.816C1071.09 503.387 1071.24 504.07 1071.23 504.867C1071.23 505.312 1071.15 505.719 1071.01 506.086C1070.88 506.453 1070.7 506.781 1070.46 507.07C1070.22 507.367 1069.95 507.617 1069.65 507.82C1069.36 508.023 1069.01 508.215 1068.6 508.395V508.43C1069.03 508.531 1069.44 508.715 1069.84 508.98C1070.24 509.246 1070.57 509.539 1070.82 509.859C1071.1 510.211 1071.31 510.605 1071.46 511.043C1071.61 511.48 1071.69 511.953 1071.69 512.461C1071.7 513.258 1071.55 513.961 1071.23 514.57C1070.92 515.18 1070.5 515.688 1069.98 516.094C1069.46 516.508 1068.85 516.824 1068.16 517.043C1067.48 517.262 1066.78 517.375 1066.05 517.383H1060.59ZM1062.77 509.402V515.543H1066.11C1066.57 515.535 1067 515.461 1067.4 515.32C1067.81 515.172 1068.17 514.969 1068.48 514.711C1068.79 514.453 1069.04 514.137 1069.22 513.762C1069.41 513.387 1069.5 512.961 1069.5 512.484C1069.51 512 1069.43 511.57 1069.25 511.195C1069.09 510.82 1068.86 510.5 1068.56 510.234C1068.27 509.977 1067.92 509.777 1067.52 509.637C1067.12 509.496 1066.69 509.418 1066.23 509.402H1062.77ZM1062.77 507.598H1065.8C1066.2 507.59 1066.6 507.527 1066.99 507.41C1067.38 507.285 1067.73 507.105 1068.04 506.871C1068.34 506.645 1068.59 506.363 1068.77 506.027C1068.96 505.691 1069.05 505.301 1069.05 504.855C1069.05 504.379 1068.96 503.973 1068.77 503.637C1068.59 503.301 1068.35 503.023 1068.05 502.805C1067.73 502.594 1067.38 502.438 1066.97 502.336C1066.57 502.234 1066.16 502.18 1065.74 502.172H1062.77V507.598ZM1077.02 515.543H1085.37V517.383H1074.86V500.32H1077.02V515.543ZM1088.53 500.32H1098.85V502.207H1094.76V515.508H1098.85V517.383H1088.53V515.508H1092.53V502.207H1088.53V500.32ZM1111.42 513.07C1111.42 512.547 1111.3 512.105 1111.06 511.746C1110.82 511.387 1110.52 511.082 1110.14 510.832C1109.77 510.59 1109.35 510.387 1108.9 510.223C1108.46 510.059 1108.03 509.91 1107.61 509.777C1107.01 509.582 1106.4 509.348 1105.77 509.074C1105.16 508.793 1104.59 508.457 1104.09 508.066C1103.57 507.668 1103.15 507.199 1102.82 506.66C1102.5 506.113 1102.34 505.473 1102.34 504.738C1102.34 504.004 1102.5 503.348 1102.82 502.77C1103.15 502.191 1103.57 501.703 1104.1 501.305C1104.62 500.906 1105.21 500.605 1105.88 500.402C1106.54 500.191 1107.21 500.086 1107.88 500.086C1108.62 500.086 1109.34 500.211 1110.03 500.461C1110.71 500.703 1111.32 501.047 1111.85 501.492C1112.39 501.938 1112.81 502.477 1113.13 503.109C1113.45 503.742 1113.62 504.449 1113.64 505.23H1111.41C1111.35 504.738 1111.23 504.293 1111.05 503.895C1110.87 503.488 1110.63 503.141 1110.33 502.852C1110.03 502.562 1109.68 502.34 1109.26 502.184C1108.86 502.02 1108.4 501.938 1107.88 501.938C1107.47 501.938 1107.06 501.996 1106.66 502.113C1106.27 502.23 1105.93 502.406 1105.62 502.641C1105.31 502.875 1105.06 503.164 1104.87 503.508C1104.69 503.852 1104.6 504.25 1104.6 504.703C1104.61 505.195 1104.73 505.613 1104.98 505.957C1105.22 506.293 1105.53 506.578 1105.9 506.812C1106.27 507.047 1106.67 507.242 1107.1 507.398C1107.53 507.555 1107.94 507.691 1108.33 507.809C1108.96 508.004 1109.59 508.242 1110.23 508.523C1110.86 508.797 1111.44 509.148 1111.96 509.578C1112.48 509.977 1112.89 510.465 1113.2 511.043C1113.52 511.621 1113.68 512.289 1113.68 513.047C1113.68 513.812 1113.51 514.48 1113.17 515.051C1112.83 515.621 1112.39 516.094 1111.85 516.469C1111.32 516.852 1110.71 517.141 1110.03 517.336C1109.35 517.523 1108.67 517.617 1107.99 517.617C1107.18 517.617 1106.37 517.48 1105.59 517.207C1104.8 516.934 1104.12 516.539 1103.55 516.023C1103.03 515.578 1102.62 515.059 1102.32 514.465C1102.02 513.863 1101.86 513.195 1101.84 512.461H1104.05C1104.12 512.992 1104.26 513.465 1104.48 513.879C1104.7 514.285 1104.98 514.629 1105.33 514.91C1105.67 515.199 1106.07 515.418 1106.51 515.566C1106.96 515.707 1107.46 515.777 1107.99 515.777C1108.41 515.777 1108.82 515.727 1109.23 515.625C1109.64 515.516 1110.01 515.348 1110.33 515.121C1110.65 514.902 1110.91 514.625 1111.12 514.289C1111.32 513.945 1111.42 513.539 1111.42 513.07ZM1127.15 517.383H1125.1V509.496H1118.1V517.383H1116.06V500.32H1118.1V507.656H1125.1V500.32H1127.15V517.383Z" fill="#B3B3B3"/>
<path d="M1030.66 511.383H1128.81V512.578H1030.66V511.383Z" fill="#B3B3B3"/>
<path d="M791.152 284.746C790.324 284.746 789.652 285.418 789.652 286.246C789.652 287.075 790.324 287.746 791.152 287.746V284.746ZM1011.66 515.044C1011.66 515.872 1012.68 516.458 1013.39 516.044L1024.93 509.384C1025.65 508.969 1025.65 507.798 1024.93 507.384L1013.39 500.723C1012.68 500.309 1011.66 500.895 1011.66 501.723V515.044ZM791.152 287.746H884.907V284.746H791.152V287.746ZM907.407 310.246V484.384H910.407V310.246H907.407ZM932.907 509.884H1013.16V506.884H932.907V509.884ZM907.407 484.384C907.407 498.467 918.824 509.884 932.907 509.884V506.884C920.481 506.884 910.407 496.81 910.407 484.384H907.407ZM884.907 287.746C897.334 287.746 907.407 297.82 907.407 310.246H910.407C910.407 296.163 898.99 284.746 884.907 284.746V287.746Z" fill="#F24822"/>
<path d="M1037.99 554.395H1035.49V560.77H1032.2V543.707H1037.92C1038.86 543.707 1039.72 543.82 1040.48 544.047C1041.25 544.266 1041.9 544.59 1042.45 545.02C1042.99 545.449 1043.4 545.984 1043.69 546.625C1043.99 547.266 1044.14 548.008 1044.14 548.852C1044.14 549.461 1044.06 550.012 1043.92 550.504C1043.78 550.988 1043.57 551.422 1043.31 551.805C1043.03 552.195 1042.71 552.535 1042.32 552.824C1041.95 553.113 1041.53 553.363 1041.06 553.574L1044.72 560.617V560.77H1041.2L1037.99 554.395ZM1035.49 551.723H1037.93C1038.44 551.723 1038.88 551.652 1039.26 551.512C1039.65 551.363 1039.97 551.152 1040.21 550.879C1040.42 550.66 1040.57 550.398 1040.67 550.094C1040.78 549.789 1040.83 549.449 1040.83 549.074C1040.83 548.621 1040.76 548.223 1040.62 547.879C1040.49 547.527 1040.29 547.238 1040.01 547.012C1039.77 546.809 1039.47 546.652 1039.12 546.543C1038.77 546.434 1038.37 546.379 1037.92 546.379H1035.49V551.723ZM1056.66 553.293H1049.65V558.109H1057.84V560.77H1046.34V543.707H1057.8V546.391H1049.65V550.691H1056.66V553.293ZM1064.16 543.707L1065.77 550.117L1067.61 543.707H1071.7V560.77H1068.68V555.719L1068.82 547.738L1066.58 555.145H1064.95L1062.95 548.055L1063.09 555.719V560.77H1060.07V543.707H1064.16ZM1085.98 553.492C1085.98 554.227 1085.91 554.926 1085.78 555.59C1085.65 556.246 1085.45 556.855 1085.2 557.418C1084.94 557.98 1084.61 558.496 1084.22 558.965C1083.83 559.434 1083.38 559.824 1082.88 560.137C1082.43 560.41 1081.93 560.621 1081.38 560.77C1080.84 560.926 1080.26 561.004 1079.64 561.004C1078.97 561.004 1078.36 560.918 1077.8 560.746C1077.24 560.574 1076.72 560.332 1076.26 560.02C1075.81 559.691 1075.4 559.297 1075.04 558.836C1074.68 558.367 1074.38 557.84 1074.14 557.254C1073.92 556.715 1073.76 556.129 1073.64 555.496C1073.53 554.863 1073.47 554.195 1073.47 553.492V551.008C1073.47 550.258 1073.54 549.547 1073.66 548.875C1073.79 548.203 1073.99 547.582 1074.24 547.012C1074.48 546.473 1074.77 545.984 1075.11 545.547C1075.47 545.109 1075.87 544.734 1076.32 544.422C1076.77 544.117 1077.27 543.883 1077.82 543.719C1078.38 543.555 1078.98 543.473 1079.63 543.473C1080.28 543.473 1080.9 543.559 1081.47 543.73C1082.04 543.895 1082.56 544.133 1083.02 544.445C1083.49 544.742 1083.89 545.102 1084.23 545.523C1084.58 545.945 1084.88 546.41 1085.13 546.918C1085.41 547.496 1085.61 548.129 1085.76 548.816C1085.9 549.504 1085.98 550.234 1085.98 551.008V553.492ZM1082.64 550.984C1082.64 550.547 1082.61 550.133 1082.57 549.742C1082.53 549.344 1082.46 548.977 1082.37 548.641C1082.25 548.219 1082.09 547.844 1081.9 547.516C1081.7 547.18 1081.47 546.906 1081.21 546.695C1081 546.539 1080.76 546.418 1080.49 546.332C1080.24 546.246 1079.95 546.203 1079.63 546.203C1079.32 546.203 1079.04 546.242 1078.79 546.32C1078.55 546.398 1078.33 546.512 1078.14 546.66C1077.87 546.879 1077.65 547.152 1077.46 547.48C1077.28 547.809 1077.14 548.191 1077.04 548.629C1076.96 548.965 1076.9 549.332 1076.86 549.73C1076.83 550.129 1076.81 550.547 1076.81 550.984V553.492C1076.81 553.906 1076.83 554.305 1076.86 554.688C1076.89 555.07 1076.95 555.426 1077.02 555.754C1077.11 556.168 1077.24 556.547 1077.4 556.891C1077.57 557.227 1077.77 557.5 1078 557.711C1078.21 557.898 1078.45 558.043 1078.71 558.145C1078.99 558.246 1079.29 558.297 1079.64 558.297C1079.97 558.297 1080.27 558.25 1080.54 558.156C1080.81 558.062 1081.06 557.926 1081.27 557.746C1081.53 557.527 1081.76 557.254 1081.93 556.926C1082.12 556.59 1082.27 556.211 1082.38 555.789C1082.47 555.461 1082.53 555.102 1082.57 554.711C1082.61 554.32 1082.64 553.914 1082.64 553.492V550.984ZM1092.01 560.77L1086.86 543.707H1090.49L1093.38 554.852L1093.68 556L1093.99 554.84L1096.9 543.707H1100.53L1095.37 560.77H1092.01ZM1112.49 553.293H1105.48V558.109H1113.67V560.77H1102.18V543.707H1113.64V546.391H1105.48V550.691H1112.49V553.293Z" fill="#1E1E1E"/>
<path d="M791.152 284.746C790.324 284.746 789.652 285.418 789.652 286.246C789.652 287.075 790.324 287.746 791.152 287.746V284.746ZM1011.66 558.431C1011.66 559.259 1012.68 559.845 1013.39 559.431L1024.93 552.77C1025.65 552.356 1025.65 551.185 1024.93 550.77L1013.39 544.11C1012.68 543.696 1011.66 544.282 1011.66 545.11V558.431ZM791.152 287.746H884.907V284.746H791.152V287.746ZM907.407 310.246V527.77H910.407V310.246H907.407ZM932.907 553.27H1013.16V550.27H932.907V553.27ZM907.407 527.77C907.407 541.854 918.824 553.27 932.907 553.27V550.27C920.481 550.27 910.407 540.197 910.407 527.77H907.407ZM884.907 287.746C897.334 287.746 907.407 297.82 907.407 310.246H910.407C910.407 296.163 898.99 284.746 884.907 284.746V287.746Z" fill="#14AE5C"/>
<path d="M791.152 284.745C790.324 284.745 789.652 285.417 789.652 286.245C789.652 287.074 790.324 287.745 791.152 287.745V284.745ZM1011.66 24.6603C1011.66 25.4887 1012.68 26.0745 1013.39 25.6603L1024.93 19C1025.65 18.5858 1025.65 17.4142 1024.93 17L1013.39 10.3397C1012.68 9.92553 1011.66 10.5113 1011.66 11.3397V24.6603ZM791.152 287.745H884.907V284.745H791.152V287.745ZM910.407 262.245V42H907.407V262.245H910.407ZM932.907 19.5H1013.16V16.5H932.907V19.5ZM910.407 42C910.407 29.5736 920.481 19.5 932.907 19.5V16.5C918.824 16.5 907.407 27.9167 907.407 42H910.407ZM884.907 287.745C898.99 287.745 910.407 276.329 910.407 262.245H907.407C907.407 274.672 897.334 284.745 884.907 284.745V287.745Z" fill="#14AE5C"/>
<defs>
<radialGradient id="paint0_radial_1697_13194" cx="0" cy="0" r="1" gradientUnits="userSpaceOnUse" gradientTransform="translate(720.945 283.938) rotate(-90.0445) scale(64.2876)">
<stop offset="0.220303"/>
<stop offset="0.995966" stop-opacity="0"/>
</radialGradient>
</defs>
</svg>
