<svg xmlns="http://www.w3.org/2000/svg" width="75" height="654" viewBox="0 0 75 654" fill="none">
  <g style="mix-blend-mode:difference">
    <path d="M37.3174 653.23L37.3174 534.063C37.3174 530.705 40.0397 527.983 43.3979 527.983H44.6461C47.315 527.983 49.4785 525.819 49.4785 523.15V523.15C49.4785 520.481 47.315 518.318 44.6461 518.318H37.3174H29.9887C27.3198 518.318 25.1563 516.154 25.1563 513.485V513.485C25.1563 510.816 27.3198 508.653 29.9887 508.653H37.3174H50.1232C52.7921 508.653 54.9556 506.489 54.9556 503.82V503.82C54.9556 501.151 52.7921 498.988 50.1232 498.988H37.3174H24.5116C21.8427 498.988 19.6791 496.824 19.6791 494.156V494.156C19.6791 491.487 21.8427 489.323 24.5116 489.323H37.3174H67.5758C70.2447 489.323 72.4083 487.16 72.4083 484.491V484.491C72.4083 481.822 70.2447 479.658 67.5758 479.658H37.3174H7.059C4.39012 479.658 2.22656 477.495 2.22656 474.826V474.826C2.22656 472.157 4.39012 469.993 7.05901 469.993H37.3174H59.7779C62.4468 469.993 64.6103 467.83 64.6103 465.161V465.161C64.6103 462.492 62.4468 460.328 59.7779 460.328H37.3174H14.857C12.1881 460.328 10.0245 458.165 10.0245 455.496V455.496C10.0245 452.827 12.1881 450.664 14.857 450.664H37.3174H55.3218C57.9907 450.664 60.1543 448.5 60.1543 445.831V445.831C60.1543 443.162 57.9907 440.999 55.3218 440.999H37.3174H19.3129C16.644 440.999 14.4805 438.835 14.4805 436.166V436.166C14.4805 433.497 16.644 431.334 19.3129 431.334H37.3174H54.9505C57.6194 431.334 59.783 429.17 59.783 426.501V426.501C59.783 423.833 57.6194 421.669 54.9505 421.669H37.3174H19.6842C17.0154 421.669 14.8518 419.505 14.8518 416.837V416.837C14.8518 414.168 17.0154 412.004 19.6842 412.004H37.3174H42.0467C44.7156 412.004 46.8792 409.841 46.8792 407.172V407.172C46.8792 404.503 44.7156 402.339 42.0467 402.339H37.3174H32.588C29.9192 402.339 27.7556 400.176 27.7556 397.507V397.507C27.7556 394.838 29.9192 392.674 32.588 392.674H37.3174H54.5792C57.2481 392.674 59.4116 390.511 59.4116 387.842V387.842C59.4116 385.173 57.2481 383.009 54.5792 383.009H37.3174H20.0556C17.3867 383.009 15.2231 380.846 15.2231 378.177V378.177C15.2231 375.508 17.3867 373.345 20.0556 373.345H37.3174H49.0092C51.6781 373.345 53.8417 371.181 53.8417 368.512V368.512C53.8417 365.843 51.6781 363.68 49.0092 363.68H37.3174H25.6256C22.9567 363.68 20.7931 361.516 20.7931 358.847V358.847C20.7931 356.178 22.9567 354.015 25.6256 354.015H37.3174H45.4816C48.1504 354.015 50.314 351.851 50.314 349.182V349.182C50.314 346.514 48.1504 344.35 45.4816 344.35H37.3174H29.1532C26.4843 344.35 24.3208 342.186 24.3208 339.518V339.518C24.3208 336.849 26.4843 334.685 29.1532 334.685H37.3174H52.8154C55.4843 334.685 57.6478 332.522 57.6478 329.853V329.853C57.6478 327.184 55.4843 325.02 52.8154 325.02H37.3174H21.8194C19.1505 325.02 16.987 322.857 16.987 320.188V320.188C16.987 317.519 19.1505 315.355 21.8194 315.355H37.3174H55.3219C57.9907 315.355 60.1543 313.192 60.1543 310.523V310.523C60.1543 307.854 57.9907 305.69 55.3219 305.69H37.3174H19.3129C16.644 305.69 14.4805 303.527 14.4805 300.858V300.858C14.4805 298.189 16.6441 296.026 19.3129 296.026H37.3174H44.3676C47.0365 296.026 49.2 293.862 49.2 291.193V291.193C49.2 288.524 47.0365 286.361 44.3676 286.361H37.3174H30.2672C27.5983 286.361 25.4348 284.197 25.4348 281.528V281.528C25.4348 278.859 27.5983 276.696 30.2672 276.696H37.3174H51.0515C53.7204 276.696 55.884 274.532 55.884 271.863V271.863C55.884 269.195 53.7204 267.031 51.0515 267.031H37.3174H23.5832C20.9143 267.031 18.7508 264.867 18.7508 262.199V262.199C18.7508 259.53 20.9143 257.366 23.5832 257.366H37.3174H52.444C55.1129 257.366 57.2765 255.203 57.2765 252.534V252.534C57.2765 249.865 55.1129 247.701 52.444 247.701H37.3174H22.1907C19.5219 247.701 17.3583 245.538 17.3583 242.869V242.869C17.3583 240.2 19.5219 238.036 22.1907 238.036H37.3174H53.3723C56.0412 238.036 58.2048 235.873 58.2048 233.204V233.204C58.2048 230.535 56.0412 228.371 53.3723 228.371H37.3174H21.2624C18.5935 228.371 16.43 226.208 16.43 223.539V223.539C16.43 220.87 18.5935 218.707 21.2624 218.707H37.3174H61.6345C64.3034 218.707 66.4669 216.543 66.4669 213.874V213.874C66.4669 211.205 64.3034 209.042 61.6345 209.042H37.3174H13.0003C10.3314 209.042 8.16784 206.878 8.16784 204.209V204.209C8.16784 201.54 10.3314 199.377 13.0003 199.377H37.3174H46.2243C48.8931 199.377 51.0567 197.213 51.0567 194.544V194.544C51.0567 191.876 48.8931 189.712 46.2243 189.712H37.3174H28.4106C25.7417 189.712 23.5781 187.548 23.5781 184.88V184.88C23.5781 182.211 25.7417 180.047 28.4106 180.047H37.3174H55.1362C57.8051 180.047 59.9686 177.884 59.9686 175.215V175.215C59.9686 172.546 57.8051 170.382 55.1362 170.382H37.3174H19.4986C16.8297 170.382 14.6662 168.219 14.6662 165.55V165.55C14.6662 162.881 16.8297 160.717 19.4986 160.717H37.3174H53.9294C56.5982 160.717 58.7618 158.554 58.7618 155.885V155.885C58.7618 153.216 56.5983 151.052 53.9294 151.052H37.3174H20.7054C18.0365 151.052 15.873 148.889 15.873 146.22V146.22C15.873 143.551 18.0365 141.388 20.7054 141.388H37.3174H60.9847C63.6536 141.388 65.8171 139.224 65.8171 136.555V136.555C65.8171 133.886 63.6536 131.723 60.9847 131.723H37.3174H13.6501C10.9812 131.723 8.81768 129.559 8.81768 126.89V126.89C8.81768 124.221 10.9812 122.058 13.6501 122.058H37.3174H45.2959C47.9648 122.058 50.1283 119.894 50.1283 117.225V117.225C50.1283 114.557 47.9648 112.393 45.2959 112.393H43.7228C40.1852 112.393 37.3174 109.525 37.3174 105.988L37.3174 0.595439" stroke="url(#paint0_linear_309_7640)" stroke-width="3.23227"/>
  </g>
  <defs>
    <linearGradient id="paint0_linear_309_7640" x1="72.8728" y1="653.23" x2="72.8726" y2="0.311287" gradientUnits="userSpaceOnUse">
      <stop stop-color="white" stop-opacity="0"/>
      <stop offset="0.177083" stop-color="#9EFF00"/>
      <stop offset="0.773192" stop-color="#9EFF00"/>
      <stop offset="0.95847" stop-opacity="0"/>
    </linearGradient>
  </defs>
</svg>