<svg xmlns="http://www.w3.org/2000/svg" width="69" height="735" viewBox="0 0 69 735" fill="none">
  <path d="M34.3634 733.072H27.4592C24.5316 733.072 22.1583 730.699 22.1583 727.771V727.771C22.1583 724.844 24.5316 722.47 27.4592 722.47H34.3634H40.0892C43.0168 722.47 45.3901 720.097 45.3901 717.17V717.17C45.3901 714.242 43.0168 711.869 40.0892 711.869H34.3634H28.6376C25.71 711.869 23.3367 709.495 23.3367 706.568V706.568C23.3367 703.64 25.71 701.267 28.6376 701.267H34.3634H45.0555C47.9831 701.267 50.3564 698.893 50.3564 695.966V695.966C50.3564 693.038 47.9831 690.665 45.0555 690.665H34.3634H23.6714C20.7438 690.665 18.3705 688.292 18.3705 685.364V685.364C18.3705 682.436 20.7438 680.063 23.6714 680.063H34.3634H60.8801C63.8077 680.063 66.181 677.69 66.181 674.762V674.762C66.181 671.835 63.8077 669.461 60.8801 669.461H34.3634H7.84678C4.91917 669.461 2.54587 667.088 2.54587 664.16V664.16C2.54587 661.233 4.91917 658.859 7.84678 658.859H34.3634H53.8095C56.7371 658.859 59.1104 656.486 59.1104 653.559V653.559C59.1104 650.631 56.7371 648.258 53.8095 648.258H34.3634H14.9173C11.9897 648.258 9.61644 645.884 9.61644 642.957V642.957C9.61644 640.029 11.9897 637.656 14.9173 637.656H34.3634H49.7692C52.6968 637.656 55.0701 635.283 55.0701 632.355V632.355C55.0701 629.427 52.6968 627.054 49.7692 627.054H34.3634H18.9577C16.0301 627.054 13.6568 624.681 13.6568 621.753V621.753C13.6568 618.825 16.0301 616.452 18.9577 616.452H34.3634H49.4325C52.3601 616.452 54.7334 614.079 54.7334 611.151V611.151C54.7334 608.224 52.3601 605.85 49.4325 605.85H34.3634H19.2944C16.3667 605.85 13.9935 603.477 13.9935 600.549V600.549C13.9935 597.622 16.3668 595.249 19.2944 595.249H34.3634H37.7324C40.66 595.249 43.0333 592.875 43.0333 589.948V589.948C43.0333 587.02 40.66 584.647 37.7324 584.647H34.3634H30.9945C28.0669 584.647 25.6936 582.273 25.6936 579.346V579.346C25.6936 576.418 28.0669 574.045 30.9945 574.045H34.3634H49.0958C52.0234 574.045 54.3967 571.672 54.3967 568.744V568.744C54.3967 565.816 52.0234 563.443 49.0958 563.443H34.3634H19.6311C16.7034 563.443 14.3301 561.07 14.3301 558.142V558.142C14.3301 555.215 16.7034 552.841 19.6311 552.841H34.3634H44.0454C46.973 552.841 49.3463 550.468 49.3463 547.54V547.54C49.3463 544.613 46.973 542.239 44.0454 542.239H34.3634H24.6815C21.7538 542.239 19.3806 539.866 19.3806 536.938V536.938C19.3806 534.011 21.7539 531.638 24.6815 531.638H34.3634H40.8468C43.7744 531.638 46.1477 529.264 46.1477 526.337V526.337C46.1477 523.409 43.7744 521.036 40.8468 521.036H34.3634H27.8801C24.9524 521.036 22.5791 518.662 22.5791 515.735V515.735C22.5791 512.807 24.9524 510.434 27.8801 510.434H34.3634H47.4965C50.4241 510.434 52.7974 508.061 52.7974 505.133V505.133C52.7974 502.205 50.4241 499.832 47.4965 499.832H34.3634H21.2304C18.3027 499.832 15.9294 497.459 15.9294 494.531V494.531C15.9294 491.604 18.3027 489.23 21.2304 489.23H34.3634H49.7692C52.6968 489.23 55.0701 486.857 55.0701 483.929V483.929C55.0701 481.002 52.6968 478.628 49.7692 478.628H34.3634H18.9577C16.0301 478.628 13.6568 476.255 13.6568 473.328V473.328C13.6568 470.4 16.0301 468.027 18.9577 468.027H34.3634H39.8367C42.7643 468.027 45.1376 465.653 45.1376 462.726V462.726C45.1376 459.798 42.7643 457.425 39.8367 457.425H34.3634H28.8901C25.9625 457.425 23.5892 455.051 23.5892 452.124V452.124C23.5892 449.196 25.9625 446.823 28.8901 446.823H34.3634H45.8972C48.8248 446.823 51.1981 444.45 51.1981 441.522V441.522C51.1981 438.594 48.8248 436.221 45.8972 436.221H34.3634H22.8296C19.902 436.221 17.5287 433.848 17.5287 430.92V430.92C17.5287 427.993 19.902 425.619 22.8296 425.619H34.3634H47.1598C50.0874 425.619 52.4607 423.246 52.4607 420.318V420.318C52.4607 417.391 50.0874 415.017 47.1598 415.017H34.3634H21.567C18.6394 415.017 16.2661 412.644 16.2661 409.717V409.717C16.2661 406.789 18.6394 404.416 21.567 404.416H34.3634H48.0015C50.9291 404.416 53.3024 402.042 53.3024 399.115V399.115C53.3024 396.187 50.9291 393.814 48.0015 393.814H34.3634H20.7253C17.7977 393.814 15.4244 391.441 15.4244 388.513V388.513C15.4244 385.585 17.7977 383.212 20.7253 383.212H34.3634H55.493C58.4206 383.212 60.7939 380.839 60.7939 377.911V377.911C60.7939 374.983 58.4206 372.61 55.493 372.61H34.3634H13.2339C10.3063 372.61 7.93297 370.237 7.93297 367.309V367.309C7.93297 364.382 10.3063 362.008 13.2339 362.008H34.3634H41.5202C44.4478 362.008 46.8211 359.635 46.8211 356.707V356.707C46.8211 353.78 44.4478 351.406 41.5202 351.406H34.3634H27.2067C24.279 351.406 21.9058 349.033 21.9058 346.106V346.106C21.9058 343.178 24.2791 340.805 27.2067 340.805H34.3634H49.6008C52.5284 340.805 54.9017 338.431 54.9017 335.504V335.504C54.9017 332.576 52.5284 330.203 49.6008 330.203H34.3634H19.126C16.1984 330.203 13.8251 327.83 13.8251 324.902V324.902C13.8251 321.974 16.1984 319.601 19.126 319.601H34.3634H48.5066C51.4342 319.601 53.8075 317.228 53.8075 314.3V314.3C53.8075 311.373 51.4342 308.999 48.5066 308.999H34.3634H20.2203C17.2927 308.999 14.9194 306.626 14.9194 303.698V303.698C14.9194 300.771 17.2927 298.397 20.2203 298.397H34.3634H54.9038C57.8314 298.397 60.2047 296.024 60.2047 293.096V293.096C60.2047 290.169 57.8314 287.796 54.9038 287.796H34.3634H13.8231C10.8955 287.796 8.52218 285.422 8.52218 282.495V282.495C8.52218 279.567 10.8955 277.194 13.8231 277.194H34.3634H40.6784C43.6061 277.194 45.9794 274.82 45.9794 271.893V271.893C45.9794 268.965 43.6061 266.592 40.6784 266.592H34.3634H28.0484C25.1208 266.592 22.7475 264.219 22.7475 261.291V261.291C22.7475 258.363 25.1208 255.99 28.0484 255.99H34.3634H44.4662C47.3939 255.99 49.7672 253.617 49.7672 250.689V250.689C49.7672 247.762 47.3939 245.388 44.4662 245.388H34.3634H24.2606C21.333 245.388 18.9597 243.015 18.9597 240.087V240.087C18.9597 237.16 21.333 234.786 24.2606 234.786H34.3634H61.2168C64.1444 234.786 66.5177 232.413 66.5177 229.486V229.486C66.5177 226.558 64.1444 224.185 61.2168 224.185H34.3634H7.5101C4.58248 224.185 2.20917 221.811 2.20917 218.884V218.884C2.20917 215.956 4.58247 213.583 7.51009 213.583H34.3634H49.0116C51.9392 213.583 54.3125 211.209 54.3125 208.282V208.282C54.3125 205.354 51.9392 202.981 49.0116 202.981H34.3634H19.7152C16.7876 202.981 14.4143 200.608 14.4143 197.68V197.68C14.4143 194.752 16.7876 192.379 19.7152 192.379H34.3634H61.3009C64.2285 192.379 66.6018 190.006 66.6018 187.078V187.078C66.6018 184.151 64.2286 181.777 61.3009 181.777H34.3634H7.42592C4.49831 181.777 2.125 179.404 2.125 176.476V176.476C2.125 173.549 4.4983 171.175 7.42592 171.175H34.3634H44.1295C47.0572 171.175 49.4305 168.802 49.4305 165.875V165.875C49.4305 162.947 47.0572 160.574 44.1295 160.574H34.3634H24.5973C21.6697 160.574 19.2964 158.2 19.2964 155.273V155.273C19.2964 152.345 21.6697 149.972 24.5973 149.972H34.3634H45.4763C48.4039 149.972 50.7772 147.599 50.7772 144.671V144.671C50.7772 141.743 48.4039 139.37 45.4763 139.37H34.3634H23.2505C20.3229 139.37 17.9496 136.997 17.9496 134.069V134.069C17.9496 131.141 20.3229 128.768 23.2505 128.768H34.3634H52.6311C55.5587 128.768 57.932 126.395 57.932 123.467V123.467C57.932 120.54 55.5587 118.166 52.6311 118.166H34.3634H16.0958C13.1682 118.166 10.7949 115.793 10.7949 112.865V112.865C10.7949 109.938 13.1682 107.564 16.0958 107.564H34.3634H52.7994C55.727 107.564 58.1003 105.191 58.1003 102.264V102.264C58.1003 99.336 55.727 96.9627 52.7994 96.9627H34.3634H15.9274C12.9998 96.9627 10.6265 94.5894 10.6265 91.6618V91.6618C10.6265 88.7341 12.9998 86.3608 15.9274 86.3608H34.3634H44.6346C47.5622 86.3608 49.9355 83.9875 49.9355 81.0599V81.0599C49.9355 78.1323 47.5622 75.759 44.6346 75.759H34.3634H24.0923C21.1646 75.759 18.7913 73.3857 18.7913 70.4581V70.4581C18.7913 67.5305 21.1646 65.1572 24.0923 65.1572H34.3634H47.244C50.1716 65.1572 52.5449 62.7839 52.5449 59.8563V59.8563C52.5449 56.9287 50.1716 54.5554 47.244 54.5554H34.3634H21.4829C18.5553 54.5554 16.182 52.1821 16.182 49.2545V49.2545C16.182 46.3268 18.5553 43.9536 21.4829 43.9536H34.3634H61.0484C63.976 43.9536 66.3493 41.5802 66.3493 38.6526V38.6526C66.3493 35.725 63.976 33.3517 61.0484 33.3517H34.3634H7.67844C4.75082 33.3517 2.37752 30.9784 2.37752 28.0508V28.0508C2.37752 25.1232 4.75082 22.7499 7.67844 22.7499H34.3634H57.934C60.8616 22.7499 63.2349 20.3766 63.2349 17.449V17.449C63.2349 14.5214 60.8616 12.1481 57.934 12.1481H34.3634H10.7929C7.86525 12.1481 5.49194 9.77476 5.49194 6.84714V6.84714C5.49194 3.91953 7.86524 1.54622 10.7929 1.54622H34.3634" stroke="url(#paint0_linear_309_7616)" stroke-width="2.99892"/>
  <defs>
    <linearGradient id="paint0_linear_309_7616" x1="35.113" y1="761.023" x2="35.1128" y2="-19.6575" gradientUnits="userSpaceOnUse">
      <stop stop-opacity="0"/>
      <stop offset="0.166204" stop-color="#EC6D54"/>
      <stop offset="0.786296" stop-color="#B008F5"/>
      <stop offset="1" stop-opacity="0"/>
    </linearGradient>
  </defs>
</svg>