<svg xmlns="http://www.w3.org/2000/svg" width="75" height="895" viewBox="0 0 75 895" fill="none">
  <path d="M37.3167 894.417L37.3167 775.249C37.3167 771.891 40.0391 769.169 43.3973 769.169H44.6454C47.3143 769.169 49.4779 767.005 49.4779 764.336V764.336C49.4779 761.667 47.3143 759.504 44.6454 759.504H37.3167H29.988C27.3192 759.504 25.1556 757.34 25.1556 754.671V754.671C25.1556 752.002 27.3192 749.839 29.988 749.839H37.3167H50.1225C52.7914 749.839 54.955 747.675 54.955 745.006V745.006C54.955 742.338 52.7914 740.174 50.1225 740.174H37.3167H24.5109C21.842 740.174 19.6785 738.01 19.6785 735.342V735.342C19.6785 732.673 21.842 730.509 24.5109 730.509H37.3167H67.5751C70.244 730.509 72.4076 728.346 72.4076 725.677V725.677C72.4076 723.008 70.244 720.844 67.5751 720.844H37.3167H7.05835C4.38946 720.844 2.2259 718.681 2.2259 716.012V716.012C2.2259 713.343 4.38946 711.179 7.05835 711.179H37.3167H59.7772C62.4461 711.179 64.6096 709.016 64.6096 706.347V706.347C64.6096 703.678 62.4461 701.515 59.7772 701.515H37.3167H14.8563C12.1874 701.515 10.0239 699.351 10.0239 696.682V696.682C10.0239 694.013 12.1874 691.85 14.8563 691.85H37.3167H55.3212C57.9901 691.85 60.1536 689.686 60.1536 687.017V687.017C60.1536 684.348 57.99 682.185 55.3212 682.185H37.3167H19.3122C16.6434 682.185 14.4798 680.021 14.4798 677.352V677.352C14.4798 674.683 16.6434 672.52 19.3123 672.52H37.3167H54.9499C57.6188 672.52 59.7823 670.356 59.7823 667.687V667.687C59.7823 665.019 57.6188 662.855 54.9499 662.855H37.3167H19.6836C17.0147 662.855 14.8511 660.691 14.8511 658.023V658.023C14.8511 655.354 17.0147 653.19 19.6836 653.19H37.3167H42.0461C44.7149 653.19 46.8785 651.027 46.8785 648.358V648.358C46.8785 645.689 44.7149 643.525 42.0461 643.525H37.3167H32.5874C29.9185 643.525 27.755 641.362 27.755 638.693V638.693C27.755 636.024 29.9185 633.86 32.5874 633.86H37.3167H54.5785C57.2474 633.86 59.411 631.697 59.411 629.028V629.028C59.411 626.359 57.2474 624.196 54.5785 624.196H37.3167H20.0549C17.386 624.196 15.2225 622.032 15.2225 619.363V619.363C15.2225 616.694 17.386 614.531 20.0549 614.531H37.3167H49.0086C51.6774 614.531 53.841 612.367 53.841 609.698V609.698C53.841 607.029 51.6774 604.866 49.0086 604.866H37.3167H25.6249C22.956 604.866 20.7925 602.702 20.7925 600.033V600.033C20.7925 597.364 22.956 595.201 25.6249 595.201H37.3167H45.4809C48.1498 595.201 50.3133 593.037 50.3133 590.368V590.368C50.3133 587.7 48.1498 585.536 45.4809 585.536H37.3167H29.1525C26.4837 585.536 24.3201 583.372 24.3201 580.704V580.704C24.3201 578.035 26.4837 575.871 29.1525 575.871H37.3167H52.8147C55.4836 575.871 57.6471 573.708 57.6471 571.039V571.039C57.6471 568.37 55.4836 566.206 52.8147 566.206H37.3167H21.8188C19.1499 566.206 16.9863 564.043 16.9863 561.374V561.374C16.9863 558.705 19.1499 556.541 21.8188 556.541H37.3167H55.3212C57.9901 556.541 60.1536 554.378 60.1536 551.709V551.709C60.1536 549.04 57.9901 546.877 55.3212 546.877H37.3167H19.3123C16.6434 546.877 14.4798 544.713 14.4798 542.044V542.044C14.4798 539.375 16.6434 537.212 19.3123 537.212H37.3167H44.3669C47.0358 537.212 49.1994 535.048 49.1994 532.379V532.379C49.1994 529.71 47.0358 527.547 44.3669 527.547H37.3167H30.2666C27.5977 527.547 25.4341 525.383 25.4341 522.714V522.714C25.4341 520.045 27.5977 517.882 30.2666 517.882H37.3167H51.0509C53.7198 517.882 55.8833 515.718 55.8833 513.049V513.049C55.8833 510.381 53.7198 508.217 51.0509 508.217H37.3167H23.5826C20.9137 508.217 18.7501 506.053 18.7501 503.385V503.385C18.7501 500.716 20.9137 498.552 23.5826 498.552H37.3167H52.4433C55.1122 498.552 57.2758 496.389 57.2758 493.72V493.72C57.2758 491.051 55.1122 488.887 52.4433 488.887H37.3167H22.1901C19.5212 488.887 17.3577 486.724 17.3577 484.055V484.055C17.3577 481.386 19.5212 479.222 22.1901 479.222H37.3167H53.3717C56.0406 479.222 58.2041 477.059 58.2041 474.39V474.39C58.2041 471.721 56.0406 469.557 53.3717 469.557H37.3167H21.2618C18.5929 469.557 16.4293 467.394 16.4293 464.725V464.725C16.4293 462.056 18.5929 459.893 21.2617 459.893H37.3167H61.6339C64.3027 459.893 66.4663 457.729 66.4663 455.06V455.06C66.4663 452.391 64.3027 450.228 61.6339 450.228H37.3167H12.9996C10.3307 450.228 8.16718 448.064 8.16718 445.395V445.395C8.16718 442.727 10.3307 440.563 12.9996 440.563H37.3167H46.2236C48.8925 440.563 51.056 438.399 51.056 435.731V435.731C51.056 433.062 48.8925 430.898 46.2236 430.898H37.3167H28.4099C25.741 430.898 23.5775 428.735 23.5775 426.066V426.066C23.5775 423.397 25.741 421.233 28.4099 421.233H37.3167H55.1356C57.8044 421.233 59.968 419.07 59.968 416.401V416.401C59.968 413.732 57.8044 411.568 55.1355 411.568H37.3167H19.498C16.8291 411.568 14.6655 409.405 14.6655 406.736V406.736C14.6655 404.067 16.8291 401.903 19.498 401.903H37.3167H53.9287C56.5976 401.903 58.7611 399.74 58.7611 397.071V397.071C58.7611 394.402 56.5976 392.239 53.9287 392.239H37.3167H20.7048C18.0359 392.239 15.8723 390.075 15.8723 387.406V387.406C15.8723 384.737 18.0359 382.574 20.7048 382.574H37.3167H60.984C63.6529 382.574 65.8164 380.41 65.8164 377.741V377.741C65.8164 375.072 63.6529 372.909 60.984 372.909H37.3167H13.6495C10.9806 372.909 8.81702 370.745 8.81702 368.076V368.076C8.81702 365.408 10.9806 363.244 13.6494 363.244H37.3167H45.2952C47.9641 363.244 50.1277 361.08 50.1277 358.412V358.412C50.1277 355.743 47.9641 353.579 45.2952 353.579H37.3167H29.3383C26.6694 353.579 24.5058 351.416 24.5058 348.747V348.747C24.5058 346.078 26.6694 343.914 29.3383 343.914H37.3167H49.4727C52.1416 343.914 54.3051 341.751 54.3051 339.082V339.082C54.3051 336.413 52.1416 334.249 49.4727 334.249H37.3167H25.1608C22.4919 334.249 20.3283 332.086 20.3283 329.417V329.417C20.3283 326.748 22.4919 324.584 25.1608 324.584H37.3167H67.9465C70.6154 324.584 72.7789 322.421 72.7789 319.752V319.752C72.7789 317.083 70.6154 314.92 67.9465 314.92H37.3167H6.68696C4.01808 314.92 1.85453 312.756 1.85453 310.087V310.087C1.85453 307.418 4.01808 305.255 6.68695 305.255H37.3167H54.4857C57.1546 305.255 59.3181 303.091 59.3181 300.422V300.422C59.3181 297.753 57.1546 295.59 54.4857 295.59H37.3167H20.1478C17.4789 295.59 15.3153 293.426 15.3153 290.757V290.757C15.3153 288.089 17.4789 285.925 20.1478 285.925H37.3167H68.0393C70.7082 285.925 72.8717 283.761 72.8717 281.092V281.092C72.8717 278.424 70.7082 276.26 68.0392 276.26H37.3167H6.59411C3.92525 276.26 1.76172 274.096 1.76172 271.428V271.428C1.76172 268.759 3.92526 266.595 6.59412 266.595H37.3167H49.1014C51.7702 266.595 53.9338 264.432 53.9338 261.763V261.763C53.9338 259.094 51.7703 256.93 49.1014 256.93H37.3167H25.5321C22.8632 256.93 20.6996 254.767 20.6996 252.098V252.098C20.6996 249.429 22.8632 247.266 25.5321 247.266H37.3167H50.5867C53.2556 247.266 55.4192 245.102 55.4192 242.433V242.433C55.4192 239.764 53.2556 237.601 50.5867 237.601H37.3167H24.0467C21.3778 237.601 19.2143 235.437 19.2143 232.768V232.768C19.2143 230.099 21.3778 227.936 24.0467 227.936H37.3167H58.4775C61.1464 227.936 63.31 225.772 63.31 223.103V223.103C63.31 220.434 61.1464 218.271 58.4775 218.271H37.3167H16.156C13.4871 218.271 11.3235 216.107 11.3235 213.438V213.438C11.3235 210.769 13.4871 208.606 16.156 208.606H37.3167H58.6632C61.3321 208.606 63.4956 206.442 63.4956 203.773V203.773C63.4956 201.105 61.3321 198.941 58.6632 198.941H37.3167H15.9703C13.3014 198.941 11.1378 196.778 11.1378 194.109V194.109C11.1378 191.44 13.3014 189.276 15.9703 189.276H37.3167H49.6584C52.3272 189.276 54.4908 187.113 54.4908 184.444V184.444C54.4908 181.775 52.3272 179.611 49.6584 179.611H37.3167H24.9751C22.3062 179.611 20.1427 177.448 20.1427 174.779V174.779C20.1427 172.11 22.3062 169.947 24.9751 169.947H37.3167H52.5362C55.2051 169.947 57.3686 167.783 57.3686 165.114V165.114C57.3686 162.445 55.2051 160.282 52.5362 160.282H37.3167H22.0972C19.4284 160.282 17.2648 158.118 17.2648 155.449V155.449C17.2648 152.78 19.4284 150.617 22.0972 150.617H37.3167H67.7608C70.4297 150.617 72.5932 148.453 72.5932 145.784V145.784C72.5932 143.115 70.4297 140.952 67.7608 140.952H37.3167H6.87265C4.20377 140.952 2.04022 138.788 2.04022 136.119V136.119C2.04022 133.451 4.20377 131.287 6.87264 131.287H37.3167H64.326C66.9949 131.287 69.1584 129.123 69.1584 126.455V126.455C69.1584 123.786 66.9949 121.622 64.326 121.622H53.2376C44.4447 121.622 37.3167 114.494 37.3167 105.701L37.3167 0.692993" stroke="url(#paint0_linear_309_7598)" stroke-width="3.23227"/>
  <defs>
    <linearGradient id="paint0_linear_309_7598" x1="72.872" y1="894.417" x2="72.8716" y2="-26.7813" gradientUnits="userSpaceOnUse">
      <stop offset="0.0657807" stop-color="white" stop-opacity="0"/>
      <stop offset="0.203743" stop-color="#B007F7"/>
      <stop offset="0.773192" stop-color="#EC6D54"/>
      <stop offset="1" stop-color="white" stop-opacity="0"/>
    </linearGradient>
  </defs>
</svg>