<svg xmlns="http://www.w3.org/2000/svg" width="75" height="895" viewBox="0 0 75 895" fill="none">
  <path d="M37.3206 894.494L37.3206 775.327C37.3206 771.969 40.043 769.246 43.4012 769.246H44.6493C47.3182 769.246 49.4818 767.083 49.4818 764.414V764.414C49.4818 761.745 47.3182 759.581 44.6493 759.581H37.3206H29.992C27.3231 759.581 25.1595 757.418 25.1595 754.749V754.749C25.1595 752.08 27.3231 749.917 29.992 749.917H37.3206H50.1264C52.7953 749.917 54.9589 747.753 54.9589 745.084V745.084C54.9589 742.415 52.7953 740.252 50.1264 740.252H37.3206H24.5148C21.8459 740.252 19.6824 738.088 19.6824 735.419V735.419C19.6824 732.75 21.8459 730.587 24.5148 730.587H37.3206H67.579C70.2479 730.587 72.4115 728.423 72.4115 725.754V725.754C72.4115 723.085 70.2479 720.922 67.579 720.922H37.3206H7.06225C4.39337 720.922 2.22981 718.758 2.22981 716.089V716.089C2.22981 713.421 4.39337 711.257 7.06225 711.257H37.3206H59.7811C62.45 711.257 64.6135 709.093 64.6135 706.425V706.425C64.6135 703.756 62.45 701.592 59.7811 701.592H37.3206H14.8602C12.1913 701.592 10.0278 699.429 10.0278 696.76V696.76C10.0278 694.091 12.1913 691.927 14.8602 691.927H37.3206H55.3251C57.994 691.927 60.1575 689.764 60.1575 687.095V687.095C60.1575 684.426 57.994 682.262 55.3251 682.262H37.3206H19.3162C16.6473 682.262 14.4837 680.099 14.4837 677.43V677.43C14.4837 674.761 16.6473 672.598 19.3162 672.598H37.3206H54.9538C57.6227 672.598 59.7862 670.434 59.7862 667.765V667.765C59.7862 665.096 57.6227 662.933 54.9538 662.933H37.3206H19.6875C17.0186 662.933 14.8551 660.769 14.8551 658.1V658.1C14.8551 655.431 17.0186 653.268 19.6875 653.268H37.3206H42.05C44.7189 653.268 46.8824 651.104 46.8824 648.435V648.435C46.8824 645.766 44.7189 643.603 42.05 643.603H37.3206H32.5913C29.9224 643.603 27.7589 641.439 27.7589 638.77V638.77C27.7589 636.102 29.9224 633.938 32.5913 633.938H37.3206H54.5824C57.2513 633.938 59.4149 631.774 59.4149 629.106V629.106C59.4149 626.437 57.2513 624.273 54.5824 624.273H37.3206H20.0588C17.39 624.273 15.2264 622.11 15.2264 619.441V619.441C15.2264 616.772 17.3899 614.608 20.0588 614.608H37.3206H49.0125C51.6814 614.608 53.8449 612.445 53.8449 609.776V609.776C53.8449 607.107 51.6814 604.943 49.0125 604.943H37.3206H25.6288C22.9599 604.943 20.7964 602.78 20.7964 600.111V600.111C20.7964 597.442 22.9599 595.279 25.6288 595.279H37.3206H45.4848C48.1537 595.279 50.3173 593.115 50.3173 590.446V590.446C50.3173 587.777 48.1537 585.614 45.4848 585.614H37.3206H29.1564C26.4876 585.614 24.324 583.45 24.324 580.781V580.781C24.324 578.112 26.4876 575.949 29.1564 575.949H37.3206H52.8186C55.4875 575.949 57.651 573.785 57.651 571.116V571.116C57.651 568.448 55.4875 566.284 52.8186 566.284H37.3206H21.8227C19.1538 566.284 16.9902 564.12 16.9902 561.451V561.451C16.9902 558.783 19.1538 556.619 21.8227 556.619H37.3206H55.3251C57.994 556.619 60.1575 554.455 60.1575 551.787V551.787C60.1575 549.118 57.994 546.954 55.3251 546.954H37.3206H19.3162C16.6473 546.954 14.4837 544.791 14.4837 542.122V542.122C14.4837 539.453 16.6473 537.289 19.3162 537.289H37.3206H44.3708C47.0397 537.289 49.2033 535.126 49.2033 532.457V532.457C49.2033 529.788 47.0397 527.624 44.3708 527.624H37.3206H30.2705C27.6016 527.624 25.438 525.461 25.438 522.792V522.792C25.438 520.123 27.6016 517.96 30.2705 517.96H37.3206H51.0548C53.7237 517.96 55.8872 515.796 55.8872 513.127V513.127C55.8872 510.458 53.7237 508.295 51.0548 508.295H37.3206H23.5865C20.9176 508.295 18.754 506.131 18.754 503.462V503.462C18.754 500.793 20.9176 498.63 23.5865 498.63H37.3206H52.4472C55.1161 498.63 57.2797 496.466 57.2797 493.797V493.797C57.2797 491.128 55.1161 488.965 52.4473 488.965H37.3206H22.194C19.5251 488.965 17.3616 486.801 17.3616 484.132V484.132C17.3616 481.464 19.5251 479.3 22.194 479.3H37.3206H53.3756C56.0445 479.3 58.208 477.136 58.208 474.468V474.468C58.208 471.799 56.0445 469.635 53.3756 469.635H37.3206H21.2657C18.5968 469.635 16.4332 467.472 16.4332 464.803V464.803C16.4332 462.134 18.5968 459.97 21.2657 459.97H37.3206H61.6378C64.3066 459.97 66.4702 457.807 66.4702 455.138V455.138C66.4702 452.469 64.3066 450.305 61.6378 450.305H37.3206H13.0035C10.3346 450.305 8.17109 448.142 8.17109 445.473V445.473C8.17109 442.804 10.3346 440.641 13.0035 440.641H37.3206H46.2275C48.8964 440.641 51.0599 438.477 51.0599 435.808V435.808C51.0599 433.139 48.8964 430.976 46.2275 430.976H37.3206H28.4139C25.7449 430.976 23.5814 428.812 23.5814 426.143V426.143C23.5814 423.474 25.7449 421.311 28.4138 421.311H37.3206H55.1395C57.8083 421.311 59.9719 419.147 59.9719 416.478V416.478C59.9719 413.81 57.8083 411.646 55.1395 411.646H37.3206H19.5019C16.833 411.646 14.6694 409.482 14.6694 406.813V406.813C14.6694 404.145 16.833 401.981 19.5019 401.981H37.3206H53.9326C56.6015 401.981 58.765 399.817 58.765 397.149V397.149C58.765 394.48 56.6015 392.316 53.9326 392.316H37.3206H20.7087C18.0398 392.316 15.8762 390.153 15.8762 387.484V387.484C15.8762 384.815 18.0398 382.651 20.7087 382.651H37.3206H60.9879C63.6568 382.651 65.8203 380.488 65.8203 377.819V377.819C65.8203 375.15 63.6568 372.987 60.9879 372.987H37.3206H13.6534C10.9845 372.987 8.82093 370.823 8.82093 368.154V368.154C8.82093 365.485 10.9845 363.322 13.6534 363.322H37.3206H45.2991C47.968 363.322 50.1316 361.158 50.1316 358.489V358.489C50.1316 355.82 47.968 353.657 45.2991 353.657H37.3206H29.3422C26.6733 353.657 24.5097 351.493 24.5097 348.824V348.824C24.5097 346.155 26.6733 343.992 29.3422 343.992H37.3206H49.4766C52.1455 343.992 54.309 341.828 54.309 339.159V339.159C54.309 336.491 52.1455 334.327 49.4766 334.327H37.3206H25.1647C22.4958 334.327 20.3322 332.163 20.3322 329.494V329.494C20.3322 326.826 22.4958 324.662 25.1647 324.662H37.3206H67.9504C70.6193 324.662 72.7828 322.498 72.7828 319.83V319.83C72.7828 317.161 70.6193 314.997 67.9504 314.997H37.3206H6.69085C4.02198 314.997 1.85843 312.834 1.85843 310.165V310.165C1.85843 307.496 4.02198 305.332 6.69084 305.332H37.3206H54.4896C57.1585 305.332 59.322 303.169 59.322 300.5V300.5C59.322 297.831 57.1585 295.668 54.4896 295.668H37.3206H20.1517C17.4828 295.668 15.3192 293.504 15.3192 290.835V290.835C15.3192 288.166 17.4828 286.003 20.1517 286.003H37.3206H68.0432C70.7121 286.003 72.8756 283.839 72.8756 281.17V281.17C72.8756 278.501 70.7121 276.338 68.0432 276.338H37.3206H6.59803C3.92916 276.338 1.76563 274.174 1.76563 271.505V271.505C1.76563 268.836 3.92917 266.673 6.59803 266.673H37.3206H49.1053C51.7742 266.673 53.9377 264.509 53.9377 261.84V261.84C53.9377 259.172 51.7742 257.008 49.1053 257.008H37.3206H25.536C22.8671 257.008 20.7036 254.844 20.7036 252.176V252.176C20.7036 249.507 22.8671 247.343 25.536 247.343H37.3206H50.5906C53.2595 247.343 55.4231 245.18 55.4231 242.511V242.511C55.4231 239.842 53.2595 237.678 50.5906 237.678H37.3206H24.0506C21.3817 237.678 19.2182 235.515 19.2182 232.846V232.846C19.2182 230.177 21.3817 228.013 24.0506 228.013H37.3206H58.4814C61.1503 228.013 63.3139 225.85 63.3139 223.181V223.181C63.3139 220.512 61.1503 218.348 58.4814 218.348H37.3206H16.1599C13.491 218.348 11.3274 216.185 11.3274 213.516V213.516C11.3274 210.847 13.491 208.684 16.1599 208.684H37.3206H58.6671C61.336 208.684 63.4995 206.52 63.4995 203.851V203.851C63.4995 201.182 61.336 199.019 58.6671 199.019H37.3206H15.9742C13.3053 199.019 11.1417 196.855 11.1417 194.186V194.186C11.1417 191.517 13.3053 189.354 15.9742 189.354H37.3206H49.6623C52.3312 189.354 54.4947 187.19 54.4947 184.521V184.521C54.4947 181.853 52.3312 179.689 49.6623 179.689H37.3206H24.979C22.3101 179.689 20.1466 177.526 20.1466 174.857V174.857C20.1466 172.188 22.3101 170.024 24.979 170.024H37.3206H52.5401C55.209 170.024 57.3726 167.861 57.3726 165.192V165.192C57.3726 162.523 55.209 160.359 52.5401 160.359H37.3206H22.1011C19.4323 160.359 17.2687 158.196 17.2687 155.527V155.527C17.2687 152.858 19.4323 150.694 22.1011 150.694H37.3206H67.7647C70.4336 150.694 72.5971 148.531 72.5971 145.862V145.862C72.5971 143.193 70.4336 141.029 67.7647 141.029H37.3206H6.87653C4.20767 141.029 2.04412 138.866 2.04412 136.197V136.197C2.04412 133.528 4.20766 131.365 6.87653 131.365H37.3206H64.3299C66.9988 131.365 69.1623 129.201 69.1623 126.532V126.532C69.1623 123.863 66.9988 121.7 64.3299 121.7H53.2415C44.4486 121.7 37.3206 114.572 37.3206 105.779L37.3206 0.770628" stroke="url(#paint0_linear_309_7635)" stroke-width="3.23227"/>
  <defs>
    <linearGradient id="paint0_linear_309_7635" x1="72.8759" y1="894.494" x2="72.8755" y2="-26.7037" gradientUnits="userSpaceOnUse">
      <stop stop-opacity="0"/>
      <stop offset="0.161621" stop-color="#9EFF00"/>
      <stop offset="0.773192" stop-color="#9EFF00"/>
      <stop offset="1" stop-opacity="0"/>
    </linearGradient>
  </defs>
</svg>