<svg width="30" height="35" viewBox="0 0 30 35" fill="none" xmlns="http://www.w3.org/2000/svg">
<path d="M5.62185 13.3773V10.5491C5.62185 5.04615 9.66704 0.448242 15.3187 0.448242C20.9703 0.448242 25.0155 5.04615 25.0155 10.5491V13.3773H25.8236C26.8951 13.3773 27.9228 13.803 28.6805 14.5607C29.4382 15.3184 29.8639 16.3461 29.8639 17.4177V30.3468C29.8639 31.4183 29.4382 32.446 28.6805 33.2037C27.9228 33.9614 26.8951 34.3871 25.8236 34.3871H4.81378C3.74221 34.3871 2.71454 33.9614 1.95683 33.2037C1.19912 32.446 0.773438 31.4183 0.773438 30.3468V17.4177C0.773438 16.3461 1.19912 15.3184 1.95683 14.5607C2.71454 13.803 3.74221 13.3773 4.81378 13.3773H5.62185ZM3.19764 17.4177V30.3468C3.19764 30.7754 3.36791 31.1865 3.671 31.4896C3.97408 31.7926 4.38515 31.9629 4.81378 31.9629H25.8236C26.2522 31.9629 26.6633 31.7926 26.9663 31.4896C27.2694 31.1865 27.4397 30.7754 27.4397 30.3468V17.4177C27.4397 16.9891 27.2694 16.578 26.9663 16.2749C26.6633 15.9718 26.2522 15.8015 25.8236 15.8015H4.81378C4.38515 15.8015 3.97408 15.9718 3.671 16.2749C3.36791 16.578 3.19764 16.9891 3.19764 17.4177ZM8.04605 10.5491V13.3773H22.5913V10.5491C22.5913 6.23401 19.4851 2.87245 15.3187 2.87245C11.1523 2.87245 8.04605 6.23401 8.04605 10.5491Z" fill="white"/>
</svg>
