<svg xmlns="http://www.w3.org/2000/svg" width="75" height="654" viewBox="0 0 75 654" fill="none">
  <path d="M37.3174 653.064L37.3174 533.897C37.3174 530.539 40.0397 527.817 43.3979 527.817H44.6461C47.315 527.817 49.4785 525.653 49.4785 522.984V522.984C49.4785 520.315 47.315 518.152 44.6461 518.152H37.3174H29.9887C27.3198 518.152 25.1563 515.988 25.1563 513.319V513.319C25.1563 510.65 27.3198 508.487 29.9887 508.487H37.3174H50.1232C52.7921 508.487 54.9556 506.323 54.9556 503.654V503.654C54.9556 500.985 52.7921 498.822 50.1232 498.822H37.3174H24.5116C21.8427 498.822 19.6791 496.658 19.6791 493.99V493.99C19.6791 491.321 21.8427 489.157 24.5116 489.157H37.3174H67.5758C70.2447 489.157 72.4083 486.994 72.4083 484.325V484.325C72.4083 481.656 70.2447 479.492 67.5758 479.492H37.3174H7.059C4.39012 479.492 2.22656 477.329 2.22656 474.66V474.66C2.22656 471.991 4.39012 469.827 7.05901 469.827H37.3174H59.7779C62.4468 469.827 64.6103 467.664 64.6103 464.995V464.995C64.6103 462.326 62.4468 460.162 59.7779 460.162H37.3174H14.857C12.1881 460.162 10.0245 457.999 10.0245 455.33V455.33C10.0245 452.661 12.1881 450.498 14.857 450.498H37.3174H55.3218C57.9907 450.498 60.1543 448.334 60.1543 445.665V445.665C60.1543 442.996 57.9907 440.833 55.3218 440.833H37.3174H19.3129C16.644 440.833 14.4805 438.669 14.4805 436V436C14.4805 433.331 16.644 431.168 19.3129 431.168H37.3174H54.9505C57.6194 431.168 59.783 429.004 59.783 426.335V426.335C59.783 423.666 57.6194 421.503 54.9505 421.503H37.3174H19.6842C17.0154 421.503 14.8518 419.339 14.8518 416.671V416.671C14.8518 414.002 17.0154 411.838 19.6842 411.838H37.3174H42.0467C44.7156 411.838 46.8792 409.675 46.8792 407.006V407.006C46.8792 404.337 44.7156 402.173 42.0467 402.173H37.3174H32.588C29.9192 402.173 27.7556 400.01 27.7556 397.341V397.341C27.7556 394.672 29.9192 392.508 32.588 392.508H37.3174H54.5792C57.2481 392.508 59.4116 390.345 59.4116 387.676V387.676C59.4116 385.007 57.2481 382.843 54.5792 382.843H37.3174H20.0556C17.3867 382.843 15.2231 380.68 15.2231 378.011V378.011C15.2231 375.342 17.3867 373.179 20.0556 373.179H37.3174H49.0092C51.6781 373.179 53.8417 371.015 53.8417 368.346V368.346C53.8417 365.677 51.6781 363.514 49.0092 363.514H37.3174H25.6256C22.9567 363.514 20.7931 361.35 20.7931 358.681V358.681C20.7931 356.012 22.9567 353.849 25.6256 353.849H37.3174H45.4816C48.1504 353.849 50.314 351.685 50.314 349.016V349.016C50.314 346.348 48.1504 344.184 45.4816 344.184H37.3174H29.1532C26.4843 344.184 24.3208 342.02 24.3208 339.352V339.352C24.3208 336.683 26.4843 334.519 29.1532 334.519H37.3174H52.8154C55.4843 334.519 57.6478 332.356 57.6478 329.687V329.687C57.6478 327.018 55.4843 324.854 52.8154 324.854H37.3174H21.8194C19.1505 324.854 16.987 322.691 16.987 320.022V320.022C16.987 317.353 19.1505 315.189 21.8194 315.189H37.3174H55.3219C57.9907 315.189 60.1543 313.026 60.1543 310.357V310.357C60.1543 307.688 57.9907 305.524 55.3219 305.524H37.3174H19.3129C16.644 305.524 14.4805 303.361 14.4805 300.692V300.692C14.4805 298.023 16.6441 295.86 19.3129 295.86H37.3174H44.3676C47.0365 295.86 49.2 293.696 49.2 291.027V291.027C49.2 288.358 47.0365 286.195 44.3676 286.195H37.3174H30.2672C27.5983 286.195 25.4348 284.031 25.4348 281.362V281.362C25.4348 278.693 27.5983 276.53 30.2672 276.53H37.3174H51.0515C53.7204 276.53 55.884 274.366 55.884 271.697V271.697C55.884 269.029 53.7204 266.865 51.0515 266.865H37.3174H23.5832C20.9143 266.865 18.7508 264.701 18.7508 262.033V262.033C18.7508 259.364 20.9143 257.2 23.5832 257.2H37.3174H52.444C55.1129 257.2 57.2765 255.037 57.2765 252.368V252.368C57.2765 249.699 55.1129 247.535 52.444 247.535H37.3174H22.1907C19.5219 247.535 17.3583 245.372 17.3583 242.703V242.703C17.3583 240.034 19.5219 237.87 22.1907 237.87H37.3174H53.3723C56.0412 237.87 58.2048 235.707 58.2048 233.038V233.038C58.2048 230.369 56.0412 228.205 53.3723 228.205H37.3174H21.2624C18.5935 228.205 16.43 226.042 16.43 223.373V223.373C16.43 220.704 18.5935 218.541 21.2624 218.541H37.3174H61.6345C64.3034 218.541 66.4669 216.377 66.4669 213.708V213.708C66.4669 211.039 64.3034 208.876 61.6345 208.876H37.3174H13.0003C10.3314 208.876 8.16784 206.712 8.16784 204.043V204.043C8.16784 201.374 10.3314 199.211 13.0003 199.211H37.3174H46.2243C48.8931 199.211 51.0567 197.047 51.0567 194.378V194.378C51.0567 191.71 48.8931 189.546 46.2243 189.546H37.3174H28.4106C25.7417 189.546 23.5781 187.382 23.5781 184.714V184.714C23.5781 182.045 25.7417 179.881 28.4106 179.881H37.3174H55.1362C57.8051 179.881 59.9686 177.718 59.9686 175.049V175.049C59.9686 172.38 57.8051 170.216 55.1362 170.216H37.3174H19.4986C16.8297 170.216 14.6662 168.053 14.6662 165.384V165.384C14.6662 162.715 16.8297 160.551 19.4986 160.551H37.3174H53.9294C56.5982 160.551 58.7618 158.388 58.7618 155.719V155.719C58.7618 153.05 56.5983 150.886 53.9294 150.886H37.3174H20.7054C18.0365 150.886 15.873 148.723 15.873 146.054V146.054C15.873 143.385 18.0365 141.222 20.7054 141.222H37.3174H60.9847C63.6536 141.222 65.8171 139.058 65.8171 136.389V136.389C65.8171 133.72 63.6536 131.557 60.9847 131.557H37.3174H13.6501C10.9812 131.557 8.81768 129.393 8.81768 126.724V126.724C8.81768 124.055 10.9812 121.892 13.6501 121.892H37.3174H45.2959C47.9648 121.892 50.1283 119.728 50.1283 117.059V117.059C50.1283 114.391 47.9648 112.227 45.2959 112.227H43.7228C40.1852 112.227 37.3174 109.359 37.3174 105.822L37.3174 0.429424" stroke="url(#paint0_linear_309_7632)" stroke-width="3.23227"/>
  <defs>
    <linearGradient id="paint0_linear_309_7632" x1="72.8728" y1="653.064" x2="72.8726" y2="0.145271" gradientUnits="userSpaceOnUse">
      <stop stop-color="white" stop-opacity="0"/>
      <stop offset="0.130208" stop-color="#9EFF00"/>
      <stop offset="0.773192" stop-color="#549AEC"/>
      <stop offset="1" stop-color="white" stop-opacity="0"/>
    </linearGradient>
  </defs>
</svg>