<svg xmlns="http://www.w3.org/2000/svg" width="69" height="735" viewBox="0 0 69 735" fill="none">
  <path d="M34.3634 733.288H27.4592C24.5316 733.288 22.1583 730.915 22.1583 727.987V727.987C22.1583 725.06 24.5316 722.687 27.4592 722.687H34.3634H40.0892C43.0168 722.687 45.3901 720.313 45.3901 717.386V717.386C45.3901 714.458 43.0168 712.085 40.0892 712.085H34.3634H28.6376C25.71 712.085 23.3367 709.711 23.3367 706.784V706.784C23.3367 703.856 25.71 701.483 28.6376 701.483H34.3634H45.0555C47.9831 701.483 50.3564 699.11 50.3564 696.182V696.182C50.3564 693.254 47.9831 690.881 45.0555 690.881H34.3634H23.6714C20.7438 690.881 18.3705 688.508 18.3705 685.58V685.58C18.3705 682.652 20.7438 680.279 23.6714 680.279H34.3634H60.8801C63.8077 680.279 66.181 677.906 66.181 674.978V674.978C66.181 672.051 63.8077 669.677 60.8801 669.677H34.3634H7.84678C4.91917 669.677 2.54587 667.304 2.54587 664.376V664.376C2.54587 661.449 4.91917 659.076 7.84678 659.076H34.3634H53.8095C56.7371 659.076 59.1104 656.702 59.1104 653.775V653.775C59.1104 650.847 56.7371 648.474 53.8095 648.474H34.3634H14.9173C11.9897 648.474 9.61644 646.1 9.61644 643.173V643.173C9.61644 640.245 11.9897 637.872 14.9173 637.872H34.3634H49.7692C52.6968 637.872 55.0701 635.499 55.0701 632.571V632.571C55.0701 629.643 52.6968 627.27 49.7692 627.27H34.3634H18.9577C16.0301 627.27 13.6568 624.897 13.6568 621.969V621.969C13.6568 619.042 16.0301 616.668 18.9577 616.668H34.3634H49.4325C52.3601 616.668 54.7334 614.295 54.7334 611.367V611.367C54.7334 608.44 52.3601 606.066 49.4325 606.066H34.3634H19.2944C16.3667 606.066 13.9935 603.693 13.9935 600.766V600.766C13.9935 597.838 16.3668 595.465 19.2944 595.465H34.3634H37.7324C40.66 595.465 43.0333 593.091 43.0333 590.164V590.164C43.0333 587.236 40.66 584.863 37.7324 584.863H34.3634H30.9945C28.0669 584.863 25.6936 582.489 25.6936 579.562V579.562C25.6936 576.634 28.0669 574.261 30.9945 574.261H34.3634H49.0958C52.0234 574.261 54.3967 571.888 54.3967 568.96V568.96C54.3967 566.032 52.0234 563.659 49.0958 563.659H34.3634H19.6311C16.7034 563.659 14.3301 561.286 14.3301 558.358V558.358C14.3301 555.431 16.7034 553.057 19.6311 553.057H34.3634H44.0454C46.973 553.057 49.3463 550.684 49.3463 547.756V547.756C49.3463 544.829 46.973 542.455 44.0454 542.455H34.3634H24.6815C21.7538 542.455 19.3806 540.082 19.3806 537.155V537.155C19.3806 534.227 21.7539 531.854 24.6815 531.854H34.3634H40.8468C43.7744 531.854 46.1477 529.48 46.1477 526.553V526.553C46.1477 523.625 43.7744 521.252 40.8468 521.252H34.3634H27.8801C24.9524 521.252 22.5791 518.879 22.5791 515.951V515.951C22.5791 513.023 24.9524 510.65 27.8801 510.65H34.3634H47.4965C50.4241 510.65 52.7974 508.277 52.7974 505.349V505.349C52.7974 502.421 50.4241 500.048 47.4965 500.048H34.3634H21.2304C18.3027 500.048 15.9294 497.675 15.9294 494.747V494.747C15.9294 491.82 18.3027 489.446 21.2304 489.446H34.3634H49.7692C52.6968 489.446 55.0701 487.073 55.0701 484.145V484.145C55.0701 481.218 52.6968 478.844 49.7692 478.844H34.3634H18.9577C16.0301 478.844 13.6568 476.471 13.6568 473.544V473.544C13.6568 470.616 16.0301 468.243 18.9577 468.243H34.3634H39.8367C42.7643 468.243 45.1376 465.869 45.1376 462.942V462.942C45.1376 460.014 42.7643 457.641 39.8367 457.641H34.3634H28.8901C25.9625 457.641 23.5892 455.268 23.5892 452.34V452.34C23.5892 449.412 25.9625 447.039 28.8901 447.039H34.3634H45.8972C48.8248 447.039 51.1981 444.666 51.1981 441.738V441.738C51.1981 438.81 48.8248 436.437 45.8972 436.437H34.3634H22.8296C19.902 436.437 17.5287 434.064 17.5287 431.136V431.136C17.5287 428.209 19.902 425.835 22.8296 425.835H34.3634H47.1598C50.0874 425.835 52.4607 423.462 52.4607 420.534V420.534C52.4607 417.607 50.0874 415.234 47.1598 415.234H34.3634H21.567C18.6394 415.234 16.2661 412.86 16.2661 409.933V409.933C16.2661 407.005 18.6394 404.632 21.567 404.632H34.3634H48.0015C50.9291 404.632 53.3024 402.258 53.3024 399.331V399.331C53.3024 396.403 50.9291 394.03 48.0015 394.03H34.3634H20.7253C17.7977 394.03 15.4244 391.657 15.4244 388.729V388.729C15.4244 385.801 17.7977 383.428 20.7253 383.428H34.3634H55.493C58.4206 383.428 60.7939 381.055 60.7939 378.127V378.127C60.7939 375.2 58.4206 372.826 55.493 372.826H34.3634H13.2339C10.3063 372.826 7.93297 370.453 7.93297 367.525V367.525C7.93297 364.598 10.3063 362.224 13.2339 362.224H34.3634H41.5202C44.4478 362.224 46.8211 359.851 46.8211 356.923V356.923C46.8211 353.996 44.4478 351.623 41.5202 351.623H34.3634H27.2067C24.279 351.623 21.9058 349.249 21.9058 346.322V346.322C21.9058 343.394 24.2791 341.021 27.2067 341.021H34.3634H49.6008C52.5284 341.021 54.9017 338.647 54.9017 335.72V335.72C54.9017 332.792 52.5284 330.419 49.6008 330.419H34.3634H19.126C16.1984 330.419 13.8251 328.046 13.8251 325.118V325.118C13.8251 322.19 16.1984 319.817 19.126 319.817H34.3634H48.5066C51.4342 319.817 53.8075 317.444 53.8075 314.516V314.516C53.8075 311.589 51.4342 309.215 48.5066 309.215H34.3634H20.2203C17.2927 309.215 14.9194 306.842 14.9194 303.914V303.914C14.9194 300.987 17.2927 298.613 20.2203 298.613H34.3634H54.9038C57.8314 298.613 60.2047 296.24 60.2047 293.313V293.313C60.2047 290.385 57.8314 288.012 54.9038 288.012H34.3634H13.8231C10.8955 288.012 8.52218 285.638 8.52218 282.711V282.711C8.52218 279.783 10.8955 277.41 13.8231 277.41H34.3634H40.6784C43.6061 277.41 45.9794 275.036 45.9794 272.109V272.109C45.9794 269.181 43.6061 266.808 40.6784 266.808H34.3634H28.0484C25.1208 266.808 22.7475 264.435 22.7475 261.507V261.507C22.7475 258.579 25.1208 256.206 28.0484 256.206H34.3634H44.4662C47.3939 256.206 49.7672 253.833 49.7672 250.905V250.905C49.7672 247.978 47.3939 245.604 44.4662 245.604H34.3634H24.2606C21.333 245.604 18.9597 243.231 18.9597 240.303V240.303C18.9597 237.376 21.333 235.003 24.2606 235.003H34.3634H61.2168C64.1444 235.003 66.5177 232.629 66.5177 229.702V229.702C66.5177 226.774 64.1444 224.401 61.2168 224.401H34.3634H7.5101C4.58248 224.401 2.20917 222.027 2.20917 219.1V219.1C2.20917 216.172 4.58247 213.799 7.51009 213.799H34.3634H49.0116C51.9392 213.799 54.3125 211.426 54.3125 208.498V208.498C54.3125 205.57 51.9392 203.197 49.0116 203.197H34.3634H19.7152C16.7876 203.197 14.4143 200.824 14.4143 197.896V197.896C14.4143 194.968 16.7876 192.595 19.7152 192.595H34.3634H61.3009C64.2285 192.595 66.6018 190.222 66.6018 187.294V187.294C66.6018 184.367 64.2286 181.993 61.3009 181.993H34.3634H7.42592C4.49831 181.993 2.125 179.62 2.125 176.692V176.692C2.125 173.765 4.4983 171.392 7.42592 171.392H34.3634H44.1295C47.0572 171.392 49.4305 169.018 49.4305 166.091V166.091C49.4305 163.163 47.0572 160.79 44.1295 160.79H34.3634H24.5973C21.6697 160.79 19.2964 158.416 19.2964 155.489V155.489C19.2964 152.561 21.6697 150.188 24.5973 150.188H34.3634H45.4763C48.4039 150.188 50.7772 147.815 50.7772 144.887V144.887C50.7772 141.959 48.4039 139.586 45.4763 139.586H34.3634H23.2505C20.3229 139.586 17.9496 137.213 17.9496 134.285V134.285C17.9496 131.358 20.3229 128.984 23.2505 128.984H34.3634H52.6311C55.5587 128.984 57.932 126.611 57.932 123.683V123.683C57.932 120.756 55.5587 118.382 52.6311 118.382H34.3634H16.0958C13.1682 118.382 10.7949 116.009 10.7949 113.081V113.081C10.7949 110.154 13.1682 107.781 16.0958 107.781H34.3634H52.7994C55.727 107.781 58.1003 105.407 58.1003 102.48V102.48C58.1003 99.552 55.727 97.1787 52.7994 97.1787H34.3634H15.9274C12.9998 97.1787 10.6265 94.8054 10.6265 91.8778V91.8778C10.6265 88.9502 12.9998 86.5769 15.9274 86.5769H34.3634H44.6346C47.5622 86.5769 49.9355 84.2036 49.9355 81.276V81.276C49.9355 78.3484 47.5622 75.9751 44.6346 75.9751H34.3634H24.0923C21.1646 75.9751 18.7913 73.6018 18.7913 70.6742V70.6742C18.7913 67.7466 21.1646 65.3733 24.0923 65.3733H34.3634H47.244C50.1716 65.3733 52.5449 63 52.5449 60.0723V60.0723C52.5449 57.1447 50.1716 54.7714 47.244 54.7714H34.3634H21.4829C18.5553 54.7714 16.182 52.3981 16.182 49.4705V49.4705C16.182 46.5429 18.5553 44.1696 21.4829 44.1696H34.3634H61.0484C63.976 44.1696 66.3493 41.7963 66.3493 38.8687V38.8687C66.3493 35.9411 63.976 33.5678 61.0484 33.5678H34.3634H7.67844C4.75082 33.5678 2.37752 31.1945 2.37752 28.2669V28.2669C2.37752 25.3392 4.75082 22.9659 7.67844 22.9659H34.3634H57.934C60.8616 22.9659 63.2349 20.5926 63.2349 17.665V17.665C63.2349 14.7374 60.8616 12.3641 57.934 12.3641H34.3634H10.7929C7.86525 12.3641 5.49194 9.99082 5.49194 7.06321V7.06321C5.49194 4.13559 7.86524 1.76228 10.7929 1.76228H34.3634" stroke="url(#paint0_linear_309_7705)" stroke-width="2.99892"/>
  <defs>
    <linearGradient id="paint0_linear_309_7705" x1="35.113" y1="761.239" x2="35.1128" y2="-19.4414" gradientUnits="userSpaceOnUse">
      <stop stop-color="white" stop-opacity="0"/>
      <stop offset="0.166204" stop-color="#247CFF"/>
      <stop offset="0.786296" stop-color="#EC6D54"/>
      <stop offset="1" stop-color="white" stop-opacity="0"/>
    </linearGradient>
  </defs>
</svg>