<svg xmlns="http://www.w3.org/2000/svg" width="234" height="234" viewBox="0 0 234 234" fill="none">
  <g filter="url(#filter0_f_309_7690)">
    <circle cx="117.318" cy="117.018" r="36.8185" fill="#FF2A00"/>
  </g>
  <path d="M124.249 106.73C124.546 105.224 124.419 103.665 123.883 102.226C123.347 100.788 122.422 99.5264 121.211 98.5823C120.001 97.6382 118.552 97.0486 117.026 96.8789C115.501 96.7093 113.958 96.9663 112.569 97.6214C111.181 98.2765 110.002 99.304 109.162 100.59C108.323 101.875 107.857 103.368 107.816 104.903C107.775 106.437 108.161 107.953 108.93 109.282C109.614 110.463 110.577 111.454 111.731 112.171C111.97 112.32 112.061 112.629 111.924 112.874L105.551 124.231" stroke="black" stroke-width="2.37538" stroke-linecap="round"/>
  <path d="M122.007 130.345C123.159 131.36 124.569 132.036 126.082 132.298C127.595 132.559 129.15 132.396 130.576 131.825C132.001 131.255 133.24 130.301 134.155 129.068C135.071 127.836 135.626 126.373 135.759 124.844C135.893 123.315 135.599 121.778 134.912 120.406C134.224 119.033 133.169 117.879 131.864 117.07C130.559 116.262 129.055 115.831 127.52 115.826C126.156 115.822 124.814 116.155 123.613 116.79C123.365 116.922 123.052 116.845 122.909 116.603L116.309 105.376" stroke="black" stroke-width="2.37538" stroke-linecap="round"/>
  <path d="M103.552 116.312C102.084 116.763 100.771 117.612 99.7577 118.766C98.7445 119.919 98.071 121.331 97.8124 122.844C97.5538 124.357 97.7201 125.912 98.2928 127.337C98.8656 128.761 99.8223 129.998 101.056 130.911C102.291 131.824 103.754 132.377 105.284 132.508C106.813 132.638 108.349 132.342 109.72 131.652C111.092 130.962 112.244 129.904 113.05 128.598C113.767 127.437 114.185 126.119 114.27 124.763C114.288 124.482 114.517 124.256 114.798 124.261L127.819 124.499" stroke="black" stroke-width="2.37538" stroke-linecap="round"/>
  <defs>
    <filter id="filter0_f_309_7690" x="0.924614" y="0.624565" width="232.787" height="232.788" filterUnits="userSpaceOnUse" color-interpolation-filters="sRGB">
      <feFlood flood-opacity="0" result="BackgroundImageFix"/>
      <feBlend mode="normal" in="SourceGraphic" in2="BackgroundImageFix" result="shape"/>
      <feGaussianBlur stdDeviation="39.7877" result="effect1_foregroundBlur_309_7690"/>
    </filter>
  </defs>
</svg>