<svg xmlns="http://www.w3.org/2000/svg" width="75" height="895" viewBox="0 0 75 895" fill="none">
  <path d="M37.3206 894.631L37.3206 775.464C37.3206 772.106 40.043 769.383 43.4012 769.383H44.6493C47.3182 769.383 49.4818 767.22 49.4818 764.551V764.551C49.4818 761.882 47.3182 759.719 44.6493 759.719H37.3206H29.992C27.3231 759.719 25.1595 757.555 25.1595 754.886V754.886C25.1595 752.217 27.3231 750.054 29.992 750.054H37.3206H50.1264C52.7953 750.054 54.9589 747.89 54.9589 745.221V745.221C54.9589 742.552 52.7953 740.389 50.1264 740.389H37.3206H24.5148C21.8459 740.389 19.6824 738.225 19.6824 735.556V735.556C19.6824 732.888 21.8459 730.724 24.5148 730.724H37.3206H67.579C70.2479 730.724 72.4115 728.56 72.4115 725.892V725.892C72.4115 723.223 70.2479 721.059 67.579 721.059H37.3206H7.06225C4.39337 721.059 2.22981 718.896 2.22981 716.227V716.227C2.22981 713.558 4.39337 711.394 7.06225 711.394H37.3206H59.7811C62.45 711.394 64.6135 709.231 64.6135 706.562V706.562C64.6135 703.893 62.45 701.729 59.7811 701.729H37.3206H14.8602C12.1913 701.729 10.0278 699.566 10.0278 696.897V696.897C10.0278 694.228 12.1913 692.064 14.8602 692.064H37.3206H55.3251C57.994 692.064 60.1575 689.901 60.1575 687.232V687.232C60.1575 684.563 57.994 682.4 55.3251 682.4H37.3206H19.3162C16.6473 682.4 14.4837 680.236 14.4837 677.567V677.567C14.4837 674.898 16.6473 672.735 19.3162 672.735H37.3206H54.9538C57.6227 672.735 59.7862 670.571 59.7862 667.902V667.902C59.7862 665.233 57.6227 663.07 54.9538 663.07H37.3206H19.6875C17.0186 663.07 14.8551 660.906 14.8551 658.237V658.237C14.8551 655.569 17.0186 653.405 19.6875 653.405H37.3206H42.05C44.7189 653.405 46.8824 651.241 46.8824 648.573V648.573C46.8824 645.904 44.7189 643.74 42.05 643.74H37.3206H32.5913C29.9224 643.74 27.7589 641.577 27.7589 638.908V638.908C27.7589 636.239 29.9224 634.075 32.5913 634.075H37.3206H54.5824C57.2513 634.075 59.4149 631.912 59.4149 629.243V629.243C59.4149 626.574 57.2513 624.41 54.5824 624.41H37.3206H20.0588C17.39 624.41 15.2264 622.247 15.2264 619.578V619.578C15.2264 616.909 17.3899 614.745 20.0588 614.745H37.3206H49.0125C51.6814 614.745 53.8449 612.582 53.8449 609.913V609.913C53.8449 607.244 51.6814 605.081 49.0125 605.081H37.3206H25.6288C22.9599 605.081 20.7964 602.917 20.7964 600.248V600.248C20.7964 597.579 22.9599 595.416 25.6288 595.416H37.3206H45.4848C48.1537 595.416 50.3173 593.252 50.3173 590.583V590.583C50.3173 587.914 48.1537 585.751 45.4848 585.751H37.3206H29.1564C26.4876 585.751 24.324 583.587 24.324 580.918V580.918C24.324 578.25 26.4876 576.086 29.1564 576.086H37.3206H52.8186C55.4875 576.086 57.651 573.922 57.651 571.254V571.254C57.651 568.585 55.4875 566.421 52.8186 566.421H37.3206H21.8227C19.1538 566.421 16.9902 564.258 16.9902 561.589V561.589C16.9902 558.92 19.1538 556.756 21.8227 556.756H37.3206H55.3251C57.994 556.756 60.1575 554.593 60.1575 551.924V551.924C60.1575 549.255 57.994 547.091 55.3251 547.091H37.3206H19.3162C16.6473 547.091 14.4837 544.928 14.4837 542.259V542.259C14.4837 539.59 16.6473 537.427 19.3162 537.427H37.3206H44.3708C47.0397 537.427 49.2033 535.263 49.2033 532.594V532.594C49.2033 529.925 47.0397 527.762 44.3708 527.762H37.3206H30.2705C27.6016 527.762 25.438 525.598 25.438 522.929V522.929C25.438 520.26 27.6016 518.097 30.2705 518.097H37.3206H51.0548C53.7237 518.097 55.8872 515.933 55.8872 513.264V513.264C55.8872 510.595 53.7237 508.432 51.0548 508.432H37.3206H23.5865C20.9176 508.432 18.754 506.268 18.754 503.599V503.599C18.754 500.931 20.9176 498.767 23.5865 498.767H37.3206H52.4472C55.1161 498.767 57.2797 496.603 57.2797 493.935V493.935C57.2797 491.266 55.1161 489.102 52.4473 489.102H37.3206H22.194C19.5251 489.102 17.3616 486.939 17.3616 484.27V484.27C17.3616 481.601 19.5251 479.437 22.194 479.437H37.3206H53.3756C56.0445 479.437 58.208 477.274 58.208 474.605V474.605C58.208 471.936 56.0445 469.772 53.3756 469.772H37.3206H21.2657C18.5968 469.772 16.4332 467.609 16.4332 464.94V464.94C16.4332 462.271 18.5968 460.107 21.2657 460.107H37.3206H61.6378C64.3066 460.107 66.4702 457.944 66.4702 455.275V455.275C66.4702 452.606 64.3066 450.443 61.6378 450.443H37.3206H13.0035C10.3346 450.443 8.17109 448.279 8.17109 445.61V445.61C8.17109 442.941 10.3346 440.778 13.0035 440.778H37.3206H46.2275C48.8964 440.778 51.0599 438.614 51.0599 435.945V435.945C51.0599 433.277 48.8964 431.113 46.2275 431.113H37.3206H28.4139C25.7449 431.113 23.5814 428.949 23.5814 426.28V426.28C23.5814 423.612 25.7449 421.448 28.4138 421.448H37.3206H55.1395C57.8083 421.448 59.9719 419.284 59.9719 416.616V416.616C59.9719 413.947 57.8083 411.783 55.1395 411.783H37.3206H19.5019C16.833 411.783 14.6694 409.62 14.6694 406.951V406.951C14.6694 404.282 16.833 402.118 19.5019 402.118H37.3206H53.9326C56.6015 402.118 58.765 399.955 58.765 397.286V397.286C58.765 394.617 56.6015 392.453 53.9326 392.453H37.3206H20.7087C18.0398 392.453 15.8762 390.29 15.8762 387.621V387.621C15.8762 384.952 18.0398 382.789 20.7087 382.789H37.3206H60.9879C63.6568 382.789 65.8203 380.625 65.8203 377.956V377.956C65.8203 375.287 63.6568 373.124 60.9879 373.124H37.3206H13.6534C10.9845 373.124 8.82093 370.96 8.82093 368.291V368.291C8.82093 365.622 10.9845 363.459 13.6534 363.459H37.3206H45.2991C47.968 363.459 50.1316 361.295 50.1316 358.626V358.626C50.1316 355.957 47.968 353.794 45.2991 353.794H37.3206H29.3422C26.6733 353.794 24.5097 351.63 24.5097 348.961V348.961C24.5097 346.293 26.6733 344.129 29.3422 344.129H37.3206H49.4766C52.1455 344.129 54.309 341.965 54.309 339.297V339.297C54.309 336.628 52.1455 334.464 49.4766 334.464H37.3206H25.1647C22.4958 334.464 20.3322 332.301 20.3322 329.632V329.632C20.3322 326.963 22.4958 324.799 25.1647 324.799H37.3206H67.9504C70.6193 324.799 72.7828 322.636 72.7828 319.967V319.967C72.7828 317.298 70.6193 315.134 67.9504 315.134H37.3206H6.69085C4.02198 315.134 1.85843 312.971 1.85843 310.302V310.302C1.85843 307.633 4.02198 305.47 6.69084 305.47H37.3206H54.4896C57.1585 305.47 59.322 303.306 59.322 300.637V300.637C59.322 297.968 57.1585 295.805 54.4896 295.805H37.3206H20.1517C17.4828 295.805 15.3192 293.641 15.3192 290.972V290.972C15.3192 288.303 17.4828 286.14 20.1517 286.14H37.3206H68.0432C70.7121 286.14 72.8756 283.976 72.8756 281.307V281.307C72.8756 278.638 70.7121 276.475 68.0432 276.475H37.3206H6.59803C3.92916 276.475 1.76563 274.311 1.76563 271.642V271.642C1.76563 268.974 3.92917 266.81 6.59803 266.81H37.3206H49.1053C51.7742 266.81 53.9377 264.646 53.9377 261.978V261.978C53.9377 259.309 51.7742 257.145 49.1053 257.145H37.3206H25.536C22.8671 257.145 20.7036 254.982 20.7036 252.313V252.313C20.7036 249.644 22.8671 247.48 25.536 247.48H37.3206H50.5906C53.2595 247.48 55.4231 245.317 55.4231 242.648V242.648C55.4231 239.979 53.2595 237.816 50.5906 237.816H37.3206H24.0506C21.3817 237.816 19.2182 235.652 19.2182 232.983V232.983C19.2182 230.314 21.3817 228.151 24.0506 228.151H37.3206H58.4814C61.1503 228.151 63.3139 225.987 63.3139 223.318V223.318C63.3139 220.649 61.1503 218.486 58.4814 218.486H37.3206H16.1599C13.491 218.486 11.3274 216.322 11.3274 213.653V213.653C11.3274 210.984 13.491 208.821 16.1599 208.821H37.3206H58.6671C61.336 208.821 63.4995 206.657 63.4995 203.988V203.988C63.4995 201.319 61.336 199.156 58.6671 199.156H37.3206H15.9742C13.3053 199.156 11.1417 196.992 11.1417 194.323V194.323C11.1417 191.655 13.3053 189.491 15.9742 189.491H37.3206H49.6623C52.3312 189.491 54.4947 187.328 54.4947 184.659V184.659C54.4947 181.99 52.3312 179.826 49.6623 179.826H37.3206H24.979C22.3101 179.826 20.1466 177.663 20.1466 174.994V174.994C20.1466 172.325 22.3101 170.161 24.979 170.161H37.3206H52.5401C55.209 170.161 57.3726 167.998 57.3726 165.329V165.329C57.3726 162.66 55.209 160.496 52.5401 160.496H37.3206H22.1011C19.4323 160.496 17.2687 158.333 17.2687 155.664V155.664C17.2687 152.995 19.4323 150.832 22.1011 150.832H37.3206H67.7647C70.4336 150.832 72.5971 148.668 72.5971 145.999V145.999C72.5971 143.33 70.4336 141.167 67.7647 141.167H37.3206H6.87653C4.20767 141.167 2.04412 139.003 2.04412 136.334V136.334C2.04412 133.665 4.20766 131.502 6.87653 131.502H37.3206H64.3299C66.9988 131.502 69.1623 129.338 69.1623 126.669V126.669C69.1623 124.001 66.9988 121.837 64.3299 121.837H53.2415C44.4486 121.837 37.3206 114.709 37.3206 105.916L37.3206 0.907835" stroke="url(#paint0_linear_309_7696)" stroke-width="3.23227"/>
  <defs>
    <linearGradient id="paint0_linear_309_7696" x1="72.8759" y1="894.631" x2="72.8755" y2="-26.5665" gradientUnits="userSpaceOnUse">
      <stop stop-color="white" stop-opacity="0"/>
      <stop offset="0.203743" stop-color="#EC6D54"/>
      <stop offset="0.773192" stop-color="#FF2E00"/>
      <stop offset="1" stop-color="white" stop-opacity="0"/>
    </linearGradient>
  </defs>
</svg>