<svg xmlns="http://www.w3.org/2000/svg" width="75" height="654" viewBox="0 0 75 654" fill="none">
  <path d="M37.3174 653.129L37.3174 533.962C37.3174 530.603 40.0397 527.881 43.3979 527.881H44.6461C47.315 527.881 49.4785 525.717 49.4785 523.049V523.049C49.4785 520.38 47.315 518.216 44.6461 518.216H37.3174H29.9887C27.3198 518.216 25.1563 516.053 25.1563 513.384V513.384C25.1563 510.715 27.3198 508.551 29.9887 508.551H37.3174H50.1232C52.7921 508.551 54.9556 506.388 54.9556 503.719V503.719C54.9556 501.05 52.7921 498.886 50.1232 498.886H37.3174H24.5116C21.8427 498.886 19.6791 496.723 19.6791 494.054V494.054C19.6791 491.385 21.8427 489.222 24.5116 489.222H37.3174H67.5758C70.2447 489.222 72.4083 487.058 72.4083 484.389V484.389C72.4083 481.72 70.2447 479.557 67.5758 479.557H37.3174H7.059C4.39012 479.557 2.22656 477.393 2.22656 474.724V474.724C2.22656 472.055 4.39012 469.892 7.05901 469.892H37.3174H59.7779C62.4468 469.892 64.6103 467.728 64.6103 465.059V465.059C64.6103 462.39 62.4468 460.227 59.7779 460.227H37.3174H14.857C12.1881 460.227 10.0245 458.063 10.0245 455.394V455.394C10.0245 452.726 12.1881 450.562 14.857 450.562H37.3174H55.3218C57.9907 450.562 60.1543 448.398 60.1543 445.73V445.73C60.1543 443.061 57.9907 440.897 55.3218 440.897H37.3174H19.3129C16.644 440.897 14.4805 438.734 14.4805 436.065V436.065C14.4805 433.396 16.644 431.232 19.3129 431.232H37.3174H54.9505C57.6194 431.232 59.783 429.069 59.783 426.4V426.4C59.783 423.731 57.6194 421.567 54.9505 421.567H37.3174H19.6842C17.0154 421.567 14.8518 419.404 14.8518 416.735V416.735C14.8518 414.066 17.0154 411.903 19.6842 411.903H37.3174H42.0467C44.7156 411.903 46.8792 409.739 46.8792 407.07V407.07C46.8792 404.401 44.7156 402.238 42.0467 402.238H37.3174H32.588C29.9192 402.238 27.7556 400.074 27.7556 397.405V397.405C27.7556 394.736 29.9192 392.573 32.588 392.573H37.3174H54.5792C57.2481 392.573 59.4116 390.409 59.4116 387.74V387.74C59.4116 385.071 57.2481 382.908 54.5792 382.908H37.3174H20.0556C17.3867 382.908 15.2231 380.744 15.2231 378.075V378.075C15.2231 375.407 17.3867 373.243 20.0556 373.243H37.3174H49.0092C51.6781 373.243 53.8417 371.079 53.8417 368.411V368.411C53.8417 365.742 51.6781 363.578 49.0092 363.578H37.3174H25.6256C22.9567 363.578 20.7931 361.415 20.7931 358.746V358.746C20.7931 356.077 22.9567 353.913 25.6256 353.913H37.3174H45.4816C48.1504 353.913 50.314 351.75 50.314 349.081V349.081C50.314 346.412 48.1504 344.248 45.4816 344.248H37.3174H29.1532C26.4843 344.248 24.3208 342.085 24.3208 339.416V339.416C24.3208 336.747 26.4843 334.584 29.1532 334.584H37.3174H52.8154C55.4843 334.584 57.6478 332.42 57.6478 329.751V329.751C57.6478 327.082 55.4843 324.919 52.8154 324.919H37.3174H21.8194C19.1505 324.919 16.987 322.755 16.987 320.086V320.086C16.987 317.417 19.1505 315.254 21.8194 315.254H37.3174H55.3219C57.9907 315.254 60.1543 313.09 60.1543 310.421V310.421C60.1543 307.752 57.9907 305.589 55.3219 305.589H37.3174H19.3129C16.644 305.589 14.4805 303.425 14.4805 300.756V300.756C14.4805 298.088 16.6441 295.924 19.3129 295.924H37.3174H44.3676C47.0365 295.924 49.2 293.761 49.2 291.092V291.092C49.2 288.423 47.0365 286.259 44.3676 286.259H37.3174H30.2672C27.5983 286.259 25.4348 284.096 25.4348 281.427V281.427C25.4348 278.758 27.5983 276.594 30.2672 276.594H37.3174H51.0515C53.7204 276.594 55.884 274.431 55.884 271.762V271.762C55.884 269.093 53.7204 266.929 51.0515 266.929H37.3174H23.5832C20.9143 266.929 18.7508 264.766 18.7508 262.097V262.097C18.7508 259.428 20.9143 257.265 23.5832 257.265H37.3174H52.444C55.1129 257.265 57.2765 255.101 57.2765 252.432V252.432C57.2765 249.763 55.1129 247.6 52.444 247.6H37.3174H22.1907C19.5219 247.6 17.3583 245.436 17.3583 242.767V242.767C17.3583 240.098 19.5219 237.935 22.1907 237.935H37.3174H53.3723C56.0412 237.935 58.2048 235.771 58.2048 233.102V233.102C58.2048 230.433 56.0412 228.27 53.3723 228.27H37.3174H21.2624C18.5935 228.27 16.43 226.106 16.43 223.437V223.437C16.43 220.769 18.5935 218.605 21.2624 218.605H37.3174H61.6345C64.3034 218.605 66.4669 216.441 66.4669 213.773V213.773C66.4669 211.104 64.3034 208.94 61.6345 208.94H37.3174H13.0003C10.3314 208.94 8.16784 206.777 8.16784 204.108V204.108C8.16784 201.439 10.3314 199.275 13.0003 199.275H37.3174H46.2243C48.8931 199.275 51.0567 197.112 51.0567 194.443V194.443C51.0567 191.774 48.8931 189.61 46.2243 189.61H37.3174H28.4106C25.7417 189.61 23.5781 187.447 23.5781 184.778V184.778C23.5781 182.109 25.7417 179.946 28.4106 179.946H37.3174H55.1362C57.8051 179.946 59.9686 177.782 59.9686 175.113V175.113C59.9686 172.444 57.8051 170.281 55.1362 170.281H37.3174H19.4986C16.8297 170.281 14.6662 168.117 14.6662 165.448V165.448C14.6662 162.779 16.8297 160.616 19.4986 160.616H37.3174H53.9294C56.5982 160.616 58.7618 158.452 58.7618 155.783V155.783C58.7618 153.114 56.5983 150.951 53.9294 150.951H37.3174H20.7054C18.0365 150.951 15.873 148.787 15.873 146.119V146.119C15.873 143.45 18.0365 141.286 20.7054 141.286H37.3174H60.9847C63.6536 141.286 65.8171 139.123 65.8171 136.454V136.454C65.8171 133.785 63.6536 131.621 60.9847 131.621H37.3174H13.6501C10.9812 131.621 8.81768 129.458 8.81768 126.789V126.789C8.81768 124.12 10.9812 121.956 13.6501 121.956H37.3174H45.2959C47.9648 121.956 50.1283 119.793 50.1283 117.124V117.124C50.1283 114.455 47.9648 112.291 45.2959 112.291H43.7228C40.1852 112.291 37.3174 109.424 37.3174 105.886L37.3174 0.493877" stroke="url(#paint0_linear_309_7689)" stroke-width="3.23227"/>
  <defs>
    <linearGradient id="paint0_linear_309_7689" x1="72.8728" y1="653.129" x2="72.8726" y2="0.209724" gradientUnits="userSpaceOnUse">
      <stop offset="0.046875" stop-color="#1E1E1E" stop-opacity="0"/>
      <stop offset="0.229167" stop-color="#FF2E00"/>
      <stop offset="0.786458" stop-color="#F15C3D"/>
      <stop offset="1" stop-color="white" stop-opacity="0"/>
    </linearGradient>
  </defs>
</svg>