<svg xmlns="http://www.w3.org/2000/svg" width="75" height="895" viewBox="0 0 75 895" fill="none">
  <path d="M37.3206 894.096L37.3206 774.928C37.3206 771.57 40.043 768.848 43.4012 768.848H44.6493C47.3182 768.848 49.4818 766.684 49.4818 764.015V764.015C49.4818 761.347 47.3182 759.183 44.6493 759.183H37.3206H29.9919C27.3231 759.183 25.1595 757.019 25.1595 754.351V754.351C25.1595 751.682 27.3231 749.518 29.992 749.518H37.3206H50.1264C52.7953 749.518 54.9589 747.355 54.9589 744.686V744.686C54.9589 742.017 52.7953 739.853 50.1264 739.853H37.3206H24.5148C21.8459 739.853 19.6824 737.69 19.6824 735.021V735.021C19.6824 732.352 21.8459 730.188 24.5148 730.188H37.3206H67.579C70.2479 730.188 72.4115 728.025 72.4115 725.356V725.356C72.4115 722.687 70.2479 720.523 67.579 720.523H37.3206H7.06225C4.39337 720.523 2.22981 718.36 2.22981 715.691V715.691C2.22981 713.022 4.39337 710.859 7.06225 710.859H37.3206H59.7811C62.45 710.859 64.6135 708.695 64.6135 706.026V706.026C64.6135 703.357 62.45 701.194 59.7811 701.194H37.3206H14.8602C12.1913 701.194 10.0278 699.03 10.0278 696.361V696.361C10.0278 693.692 12.1913 691.529 14.8602 691.529H37.3206H55.3251C57.994 691.529 60.1575 689.365 60.1575 686.696V686.696C60.1575 684.027 57.994 681.864 55.3251 681.864H37.3206H19.3162C16.6473 681.864 14.4837 679.7 14.4837 677.032V677.032C14.4837 674.363 16.6473 672.199 19.3162 672.199H37.3206H54.9538C57.6227 672.199 59.7862 670.036 59.7862 667.367V667.367C59.7862 664.698 57.6227 662.534 54.9538 662.534H37.3206H19.6875C17.0186 662.534 14.8551 660.371 14.8551 657.702V657.702C14.8551 655.033 17.0186 652.869 19.6875 652.869H37.3206H42.05C44.7188 652.869 46.8824 650.706 46.8824 648.037V648.037C46.8824 645.368 44.7189 643.204 42.05 643.204H37.3206H32.5913C29.9224 643.204 27.7589 641.041 27.7589 638.372V638.372C27.7589 635.703 29.9224 633.54 32.5913 633.54H37.3206H54.5824C57.2513 633.54 59.4149 631.376 59.4149 628.707V628.707C59.4149 626.038 57.2513 623.875 54.5824 623.875H37.3206H20.0588C17.39 623.875 15.2264 621.711 15.2264 619.042V619.042C15.2264 616.373 17.3899 614.21 20.0588 614.21H37.3206H49.0125C51.6814 614.21 53.8449 612.046 53.8449 609.377V609.377C53.8449 606.709 51.6814 604.545 49.0125 604.545H37.3206H25.6288C22.9599 604.545 20.7964 602.381 20.7964 599.713V599.713C20.7964 597.044 22.9599 594.88 25.6288 594.88H37.3206H45.4848C48.1537 594.88 50.3172 592.717 50.3172 590.048V590.048C50.3172 587.379 48.1537 585.215 45.4848 585.215H37.3206H29.1564C26.4876 585.215 24.324 583.052 24.324 580.383V580.383C24.324 577.714 26.4876 575.55 29.1564 575.55H37.3206H52.8186C55.4875 575.55 57.651 573.387 57.651 570.718V570.718C57.651 568.049 55.4875 565.886 52.8186 565.886H37.3206H21.8227C19.1538 565.886 16.9902 563.722 16.9902 561.053V561.053C16.9902 558.384 19.1538 556.221 21.8227 556.221H37.3206H55.3251C57.994 556.221 60.1575 554.057 60.1575 551.388V551.388C60.1575 548.719 57.994 546.556 55.3251 546.556H37.3206H19.3162C16.6473 546.556 14.4837 544.392 14.4837 541.723V541.723C14.4837 539.054 16.6473 536.891 19.3162 536.891H37.3206H44.3708C47.0397 536.891 49.2033 534.727 49.2033 532.058V532.058C49.2033 529.39 47.0397 527.226 44.3708 527.226H37.3206H30.2705C27.6016 527.226 25.438 525.062 25.438 522.394V522.394C25.438 519.725 27.6016 517.561 30.2705 517.561H37.3206H51.0548C53.7237 517.561 55.8872 515.398 55.8872 512.729V512.729C55.8872 510.06 53.7237 507.896 51.0548 507.896H37.3206H23.5865C20.9176 507.896 18.754 505.733 18.754 503.064V503.064C18.754 500.395 20.9176 498.231 23.5865 498.231H37.3206H52.4473C55.1161 498.231 57.2797 496.068 57.2797 493.399V493.399C57.2797 490.73 55.1161 488.566 52.4473 488.566H37.3206H22.194C19.5251 488.566 17.3616 486.403 17.3616 483.734V483.734C17.3616 481.065 19.5251 478.902 22.194 478.902H37.3206H53.3756C56.0445 478.902 58.208 476.738 58.208 474.069V474.069C58.208 471.4 56.0445 469.237 53.3756 469.237H37.3206H21.2657C18.5968 469.237 16.4332 467.073 16.4332 464.404V464.404C16.4332 461.735 18.5968 459.572 21.2657 459.572H37.3206H61.6378C64.3066 459.572 66.4702 457.408 66.4702 454.739V454.739C66.4702 452.071 64.3066 449.907 61.6378 449.907H37.3206H13.0035C10.3346 449.907 8.17109 447.743 8.17109 445.075V445.075C8.17109 442.406 10.3346 440.242 13.0035 440.242H37.3206H46.2275C48.8964 440.242 51.0599 438.079 51.0599 435.41V435.41C51.0599 432.741 48.8964 430.577 46.2275 430.577H37.3206H28.4138C25.7449 430.577 23.5814 428.414 23.5814 425.745V425.745C23.5814 423.076 25.7449 420.912 28.4138 420.912H37.3206H55.1395C57.8083 420.912 59.9719 418.749 59.9719 416.08V416.08C59.9719 413.411 57.8083 411.248 55.1395 411.248H37.3206H19.5019C16.833 411.248 14.6694 409.084 14.6694 406.415V406.415C14.6694 403.746 16.833 401.583 19.5019 401.583H37.3206H53.9326C56.6015 401.583 58.765 399.419 58.765 396.75V396.75C58.765 394.081 56.6015 391.918 53.9326 391.918H37.3206H20.7087C18.0398 391.918 15.8762 389.754 15.8762 387.085V387.085C15.8762 384.416 18.0398 382.253 20.7087 382.253H37.3206H60.9879C63.6568 382.253 65.8203 380.089 65.8203 377.42V377.42C65.8203 374.752 63.6568 372.588 60.9879 372.588H37.3206H13.6534C10.9845 372.588 8.82093 370.425 8.82093 367.756V367.756C8.82093 365.087 10.9845 362.923 13.6534 362.923H37.3206H45.2991C47.968 362.923 50.1316 360.76 50.1316 358.091V358.091C50.1316 355.422 47.968 353.258 45.2991 353.258H37.3206H29.3422C26.6733 353.258 24.5097 351.095 24.5097 348.426V348.426C24.5097 345.757 26.6733 343.593 29.3422 343.593H37.3206H49.4766C52.1455 343.593 54.309 341.43 54.309 338.761V338.761C54.309 336.092 52.1455 333.929 49.4766 333.929H37.3206H25.1647C22.4958 333.929 20.3322 331.765 20.3322 329.096V329.096C20.3322 326.427 22.4958 324.264 25.1647 324.264H37.3206H67.9504C70.6193 324.264 72.7828 322.1 72.7828 319.431V319.431C72.7828 316.762 70.6193 314.599 67.9504 314.599H37.3206H6.69087C4.02199 314.599 1.85843 312.435 1.85843 309.766V309.766C1.85843 307.098 4.02198 304.934 6.69086 304.934H37.3206H54.4896C57.1585 304.934 59.322 302.77 59.322 300.102V300.102C59.322 297.433 57.1585 295.269 54.4896 295.269H37.3206H20.1517C17.4828 295.269 15.3192 293.106 15.3192 290.437V290.437C15.3192 287.768 17.4828 285.604 20.1517 285.604H37.3206H68.0432C70.7121 285.604 72.8756 283.441 72.8756 280.772V280.772C72.8756 278.103 70.7121 275.939 68.0432 275.939H37.3206H6.59802C3.92916 275.939 1.76563 273.776 1.76563 271.107V271.107C1.76563 268.438 3.92916 266.274 6.59802 266.274H37.3206H49.1053C51.7742 266.274 53.9377 264.111 53.9377 261.442V261.442C53.9377 258.773 51.7742 256.61 49.1053 256.61H37.3206H25.536C22.8671 256.61 20.7036 254.446 20.7036 251.777V251.777C20.7036 249.108 22.8671 246.945 25.536 246.945H37.3206H50.5906C53.2595 246.945 55.4231 244.781 55.4231 242.112V242.112C55.4231 239.443 53.2595 237.28 50.5906 237.28H37.3206H24.0506C21.3817 237.28 19.2182 235.116 19.2182 232.447V232.447C19.2182 229.779 21.3817 227.615 24.0506 227.615H37.3206H58.4814C61.1503 227.615 63.3139 225.451 63.3139 222.783V222.783C63.3139 220.114 61.1503 217.95 58.4814 217.95H37.3206H16.1599C13.491 217.95 11.3274 215.786 11.3274 213.118V213.118C11.3274 210.449 13.491 208.285 16.1599 208.285H37.3206H58.6671C61.336 208.285 63.4995 206.122 63.4995 203.453V203.453C63.4995 200.784 61.336 198.62 58.6671 198.62H37.3206H15.9742C13.3053 198.62 11.1417 196.457 11.1417 193.788V193.788C11.1417 191.119 13.3053 188.955 15.9742 188.955H37.3206H49.6623C52.3312 188.955 54.4947 186.792 54.4947 184.123V184.123C54.4947 181.454 52.3312 179.291 49.6623 179.291H37.3206H24.979C22.3101 179.291 20.1466 177.127 20.1466 174.458V174.458C20.1466 171.789 22.3101 169.626 24.979 169.626H37.3206H52.5401C55.209 169.626 57.3726 167.462 57.3726 164.793V164.793C57.3726 162.124 55.209 159.961 52.5401 159.961H37.3206H22.1011C19.4323 159.961 17.2687 157.797 17.2687 155.128V155.128C17.2687 152.46 19.4323 150.296 22.1011 150.296H37.3206H67.7647C70.4336 150.296 72.5972 148.132 72.5972 145.464V145.464C72.5972 142.795 70.4336 140.631 67.7647 140.631H37.3206H6.87655C4.20768 140.631 2.04412 138.467 2.04412 135.799V135.799C2.04412 133.13 4.20767 130.966 6.87655 130.966H37.3206H64.3299C66.9988 130.966 69.1623 128.803 69.1623 126.134V126.134C69.1623 123.465 66.9988 121.301 64.3299 121.301H53.2415C44.4487 121.301 37.3206 114.173 37.3206 105.38L37.3206 0.372192" stroke="url(#paint0_linear_309_7647)" stroke-width="3.23227"/>
  <defs>
    <linearGradient id="paint0_linear_309_7647" x1="72.8759" y1="894.096" x2="72.8755" y2="-27.1021" gradientUnits="userSpaceOnUse">
      <stop offset="0.138776" stop-color="white" stop-opacity="0"/>
      <stop offset="0.294686"/>
      <stop offset="0.773192" stop-color="#6100FF"/>
      <stop offset="1" stop-color="white" stop-opacity="0"/>
    </linearGradient>
  </defs>
</svg>