<svg width="538" height="370" viewBox="0 0 538 370" fill="none" xmlns="http://www.w3.org/2000/svg">
<path d="M0.148438 16.2133C0.148438 7.31558 7.36147 0.102539 16.2592 0.102539H521.063C529.961 0.102539 537.174 7.31558 537.174 16.2133V369.308H0.148438V16.2133Z" fill="#2B2B2B"/>
<g clip-path="url(#clip0_469_6349)">
<mask id="mask0_469_6349" style="mask-type:luminance" maskUnits="userSpaceOnUse" x="-30" y="0" width="568" height="370">
<path d="M-29.3867 0.0983887H537.175V369.303H-29.3867V0.0983887Z" fill="white"/>
</mask>
<g mask="url(#mask0_469_6349)">
<path d="M0 14.7598C0 6.60804 6.6449 -0.000244141 14.8417 -0.000244141H522.158C530.355 -0.000244141 537 6.60804 537 14.7598V369H0V14.7598Z" fill="#111111"/>
<path d="M46.1243 139.315C46.003 139.356 45.8841 139.355 45.7632 139.313C44.208 138.771 33.1172 134.472 33.1172 122.233V111.169C33.1172 110.876 33.3175 110.621 33.603 110.55L45.788 107.52C45.8901 107.494 45.9969 107.494 46.0991 107.52C46.2012 107.545 58.2841 110.55 58.2841 110.55C58.5696 110.621 58.7698 110.876 58.7698 111.169V122.233C58.7698 134.595 47.6814 138.787 46.1243 139.315Z" fill="white"/>
<path d="M53.6326 115.096C52.6512 114.02 51.4545 113.162 50.1202 112.578C48.7858 111.994 47.3436 111.697 45.8871 111.706C44.4306 111.715 42.9922 112.03 41.6653 112.631C40.3384 113.232 39.1526 114.105 38.1848 115.193L45.9523 122.1L53.6326 115.096Z" fill="url(#paint0_radial_469_6349)"/>
<path d="M75.3542 122.994H73.6133V134.342H75.459V125.312C75.5011 125.2 75.5534 125.095 75.6164 124.997C75.6863 124.899 75.7668 124.812 75.8576 124.735C75.9765 124.637 76.1197 124.564 76.2875 124.515C76.4623 124.459 76.6651 124.431 76.8958 124.431C77.1056 124.431 77.2873 124.459 77.4412 124.515C77.602 124.564 77.7348 124.644 77.8397 124.756C77.9515 124.875 78.0319 125.025 78.0809 125.207C78.1368 125.389 78.1648 125.599 78.1648 125.836V134.342H80.0106V125.847C80.0106 125.805 80.0106 125.77 80.0106 125.742C80.0106 125.707 80.0106 125.672 80.0106 125.637C80.0315 125.462 80.0734 125.305 80.1364 125.165C80.1994 125.018 80.2868 124.889 80.3986 124.777C80.5104 124.672 80.6503 124.588 80.818 124.525C80.9858 124.463 81.1851 124.431 81.4159 124.431C81.6326 124.431 81.8213 124.459 81.9822 124.515C82.15 124.571 82.2897 124.655 82.4017 124.767C82.5066 124.885 82.587 125.036 82.6428 125.218C82.6988 125.399 82.7267 125.609 82.7267 125.847V134.342H84.5725V125.868C84.5725 125.322 84.5097 124.851 84.3837 124.452C84.2579 124.047 84.0762 123.718 83.8384 123.466C83.6217 123.242 83.356 123.075 83.0414 122.963C82.7267 122.844 82.3737 122.784 81.9822 122.784C81.6955 122.792 81.4298 122.83 81.1851 122.9C80.9474 122.97 80.7308 123.064 80.5349 123.183C80.3811 123.288 80.2378 123.41 80.105 123.55C79.9721 123.69 79.8567 123.84 79.7589 124.001C79.6819 123.826 79.5876 123.669 79.4757 123.529C79.3709 123.389 79.2519 123.271 79.1191 123.173C78.9374 123.047 78.7242 122.952 78.4794 122.889C78.2418 122.82 77.9726 122.784 77.6719 122.784C77.1406 122.792 76.6861 122.907 76.3086 123.131C75.9379 123.354 75.6373 123.665 75.4067 124.064L75.3542 122.994ZM94.8187 134.342H96.8427V134.174C96.7168 133.859 96.6189 133.492 96.549 133.073C96.4792 132.646 96.4441 132.244 96.4441 131.867V126.591C96.4441 125.955 96.3288 125.399 96.098 124.924C95.8674 124.449 95.5528 124.05 95.1542 123.728C94.7487 123.414 94.2698 123.18 93.7175 123.026C93.1652 122.865 92.5673 122.784 91.9241 122.784C91.2179 122.784 90.5853 122.883 90.026 123.078C89.4737 123.274 89.0051 123.529 88.6206 123.844C88.2291 124.165 87.9285 124.525 87.7187 124.924C87.5159 125.322 87.4111 125.728 87.4041 126.141H89.3547C89.3547 125.903 89.4107 125.676 89.5225 125.459C89.6414 125.235 89.8057 125.043 90.0154 124.882C90.2252 124.721 90.4803 124.592 90.781 124.494C91.0886 124.396 91.4347 124.347 91.8193 124.347C92.2317 124.347 92.6024 124.4 92.9309 124.504C93.2665 124.609 93.5497 124.756 93.7803 124.945C94.0111 125.141 94.1894 125.375 94.3152 125.648C94.441 125.92 94.504 126.228 94.504 126.571V127.462H92.3856C91.5956 127.462 90.8789 127.539 90.2357 127.693C89.5995 127.846 89.0541 128.077 88.5997 128.385C88.1452 128.699 87.7921 129.091 87.5405 129.559C87.2958 130.028 87.1734 130.573 87.1734 131.195C87.1734 131.671 87.2643 132.115 87.446 132.527C87.6349 132.933 87.9004 133.282 88.2431 133.576C88.5787 133.877 88.9877 134.114 89.47 134.289C89.9595 134.464 90.5049 134.551 91.1061 134.551C91.4766 134.551 91.8262 134.512 92.1549 134.436C92.4834 134.359 92.7946 134.254 93.0883 134.121C93.3749 133.988 93.6371 133.835 93.8747 133.66C94.1195 133.485 94.3396 133.3 94.5355 133.104C94.5565 133.342 94.5879 133.573 94.6299 133.796C94.6788 134.013 94.7417 134.195 94.8187 134.342ZM91.3892 132.863C91.0117 132.863 90.6797 132.814 90.3931 132.716C90.1063 132.618 89.8686 132.482 89.6799 132.307C89.4911 132.139 89.3477 131.936 89.2499 131.699C89.159 131.461 89.1136 131.202 89.1136 130.923C89.1136 130.629 89.166 130.367 89.2708 130.136C89.3828 129.905 89.5435 129.706 89.7533 129.538C90.0469 129.301 90.4419 129.126 90.9383 129.014C91.4417 128.895 92.029 128.836 92.7002 128.836H94.504V131.132C94.3921 131.356 94.2383 131.573 94.0425 131.783C93.8468 131.985 93.6161 132.167 93.3504 132.328C93.0778 132.489 92.777 132.618 92.4485 132.716C92.1199 132.814 91.7668 132.863 91.3892 132.863ZM100.566 122.994V124.683H104.425V132.664H100.566V134.342H110.067V132.664H106.366V122.994H100.566ZM104.173 120.016C104.173 120.331 104.268 120.593 104.456 120.802C104.652 121.012 104.945 121.117 105.337 121.117C105.723 121.117 106.013 121.012 106.207 120.802C106.403 120.593 106.501 120.331 106.501 120.016C106.501 119.841 106.473 119.68 106.418 119.533C106.362 119.387 106.278 119.264 106.166 119.166C106.074 119.076 105.96 119.006 105.819 118.957C105.68 118.901 105.519 118.873 105.337 118.873C105.156 118.873 104.991 118.901 104.844 118.957C104.705 119.006 104.589 119.076 104.498 119.166C104.387 119.271 104.303 119.397 104.247 119.544C104.198 119.691 104.173 119.848 104.173 120.016ZM113.16 134.342H115.1V126.203C115.233 125.959 115.388 125.735 115.562 125.532C115.745 125.329 115.939 125.151 116.15 124.997C116.408 124.823 116.691 124.686 116.999 124.588C117.306 124.484 117.639 124.431 117.995 124.431C118.408 124.431 118.771 124.48 119.086 124.578C119.407 124.676 119.68 124.833 119.904 125.05C120.122 125.266 120.285 125.55 120.397 125.899C120.51 126.249 120.565 126.675 120.565 127.179V134.342H122.505V127.137C122.505 126.382 122.411 125.731 122.221 125.186C122.04 124.634 121.778 124.179 121.436 123.823C121.092 123.466 120.677 123.204 120.187 123.036C119.705 122.868 119.167 122.784 118.572 122.784C118.132 122.792 117.713 122.858 117.314 122.984C116.922 123.103 116.558 123.274 116.223 123.498C116 123.645 115.786 123.819 115.584 124.022C115.388 124.218 115.206 124.434 115.039 124.672L114.902 122.994H113.16V134.342Z" fill="#A18BF5"/>
<path d="M405.473 131.653H412.863V130.394H407.418V130.303L410.049 127.488C412.063 125.332 412.658 124.325 412.658 123.026C412.658 121.219 411.193 119.777 409.134 119.777C407.081 119.777 405.518 121.173 405.518 123.232H406.869C406.869 121.9 407.732 121.013 409.088 121.013C410.358 121.013 411.33 121.791 411.33 123.026C411.33 124.108 410.695 124.908 409.341 126.39L405.473 130.623V131.653ZM423.098 131.836C424.791 131.836 425.363 130.783 425.661 130.303H425.821V131.653H427.124V119.938H425.775V124.262H425.661C425.363 123.804 424.836 122.752 423.121 122.752C420.901 122.752 419.368 124.514 419.368 127.282C419.368 130.074 420.901 131.836 423.098 131.836ZM423.28 130.623C421.587 130.623 420.717 129.136 420.717 127.259C420.717 125.406 421.565 123.965 423.28 123.965C424.928 123.965 425.798 125.292 425.798 127.259C425.798 129.25 424.905 130.623 423.28 130.623ZM432.37 131.859C433.903 131.859 434.704 131.035 434.978 130.463H435.047V131.653H436.397V125.864C436.397 123.072 434.269 122.752 433.148 122.752C431.82 122.752 430.31 123.209 429.624 124.811L430.906 125.269C431.203 124.628 431.906 123.942 433.194 123.942C434.436 123.942 435.047 124.6 435.047 125.727V125.772C435.047 126.424 434.383 126.367 432.782 126.573C431.152 126.785 429.373 127.145 429.373 129.159C429.373 130.875 430.699 131.859 432.37 131.859ZM432.576 130.646C431.501 130.646 430.722 130.165 430.722 129.227C430.722 128.198 431.661 127.877 432.713 127.74C433.285 127.671 434.818 127.511 435.047 127.237V128.472C435.047 129.571 434.178 130.646 432.576 130.646ZM439.417 134.948C440.634 134.948 441.492 134.301 442.001 132.934L445.731 122.866H444.267L441.841 129.868H441.75L439.324 122.866H437.861L441.11 131.699L440.857 132.385C440.366 133.723 439.759 133.849 438.775 133.598L438.433 134.788C438.57 134.856 438.959 134.948 439.417 134.948ZM453.736 124.834C453.314 123.587 452.364 122.752 450.626 122.752C448.772 122.752 447.398 123.804 447.398 125.292C447.398 126.504 448.119 127.317 449.733 127.694L451.198 128.037C452.084 128.243 452.501 128.667 452.501 129.273C452.501 130.028 451.701 130.646 450.442 130.646C449.338 130.646 448.645 130.171 448.405 129.227L447.124 129.548C447.438 131.041 448.668 131.836 450.465 131.836C452.507 131.836 453.898 130.72 453.898 129.204C453.898 127.98 453.131 127.208 451.563 126.825L450.259 126.504C449.217 126.247 448.749 125.898 448.749 125.223C448.749 124.468 449.549 123.919 450.626 123.919C451.803 123.919 452.289 124.571 452.524 125.177L453.736 124.834ZM463.046 131.859C464.579 131.859 465.379 131.035 465.654 130.463H465.723V131.653H467.072V125.864C467.072 123.072 464.944 122.752 463.823 122.752C462.497 122.752 460.986 123.209 460.3 124.811L461.581 125.269C461.878 124.628 462.583 123.942 463.869 123.942C465.111 123.942 465.723 124.6 465.723 125.727V125.772C465.723 126.424 465.058 126.367 463.457 126.573C461.827 126.785 460.048 127.145 460.048 129.159C460.048 130.875 461.376 131.859 463.046 131.859ZM463.251 130.646C462.176 130.646 461.398 130.165 461.398 129.227C461.398 128.198 462.336 127.877 463.388 127.74C463.96 127.671 465.493 127.511 465.723 127.237V128.472C465.723 129.571 464.853 130.646 463.251 130.646ZM473.083 135.13C475.188 135.13 476.881 134.17 476.881 131.904V122.866H475.577V124.262H475.44C475.142 123.804 474.593 122.752 472.877 122.752C470.658 122.752 469.125 124.514 469.125 127.214C469.125 129.959 470.727 131.515 472.855 131.515C474.57 131.515 475.119 130.509 475.418 130.028H475.532V131.813C475.532 133.277 474.502 133.941 473.083 133.941C471.488 133.941 470.927 133.1 470.567 132.614L469.491 133.369C470.041 134.29 471.121 135.13 473.083 135.13ZM473.037 130.303C471.344 130.303 470.474 129.021 470.474 127.191C470.474 125.406 471.321 123.965 473.037 123.965C474.684 123.965 475.554 125.292 475.554 127.191C475.554 129.136 474.662 130.303 473.037 130.303ZM482.922 131.836C485.301 131.836 486.903 130.028 486.903 127.305C486.903 124.56 485.301 122.752 482.922 122.752C480.542 122.752 478.94 124.56 478.94 127.305C478.94 130.028 480.542 131.836 482.922 131.836ZM482.922 130.623C481.114 130.623 480.291 129.067 480.291 127.305C480.291 125.543 481.114 123.965 482.922 123.965C484.73 123.965 485.554 125.543 485.554 127.305C485.554 129.067 484.73 130.623 482.922 130.623Z" fill="#616161"/>
<path d="M67.9412 188.701H65.2565C64.5151 188.701 63.9141 189.303 63.9141 190.044V192.729C63.9141 193.47 64.5151 194.071 65.2565 194.071H67.9412C68.6826 194.071 69.2835 193.47 69.2835 192.729V190.044C69.2835 189.303 68.6826 188.701 67.9412 188.701Z" stroke="#616161" stroke-width="1.34237"/>
<path d="M63.2439 192.061C59.5743 192.061 53.8471 192.061 53.8471 192.061C49.399 192.061 45.793 188.455 45.793 184.007V142.393" stroke="#414141" stroke-width="1.34237"/>
<path d="M409.134 197.595C411.366 197.595 413.001 195.947 413.001 193.705C413.001 191.434 411.422 189.769 409.271 189.769C408.482 189.769 407.715 190.05 407.236 190.434H407.166L407.578 186.978H412.475V185.72H406.389L405.68 191.486L407.006 191.646C407.492 191.297 408.322 191.046 409.043 191.051C410.536 191.062 411.629 192.195 411.629 193.728C411.629 195.232 410.576 196.337 409.134 196.337C407.933 196.337 406.978 195.565 406.87 194.506H405.496C405.582 196.291 407.121 197.595 409.134 197.595ZM419.828 197.435H421.177V191.944C421.177 190.656 422.116 189.746 423.168 189.746C424.193 189.746 424.907 190.416 424.907 191.418V197.435H426.28V191.714C426.28 190.581 426.989 189.746 428.224 189.746C429.186 189.746 430.01 190.256 430.01 191.555V197.435H431.359V191.555C431.359 189.49 430.25 188.534 428.682 188.534C427.424 188.534 426.503 189.111 426.051 190.021H425.959C425.524 189.083 424.758 188.534 423.603 188.534C422.459 188.534 421.612 189.083 421.246 190.021H421.132V188.648H419.828V197.435ZM433.828 197.435H435.177V188.648H433.828V197.435ZM434.514 187.185C435.041 187.185 435.476 186.772 435.476 186.269C435.476 185.765 435.041 185.353 434.514 185.353C433.988 185.353 433.553 185.765 433.553 186.269C433.553 186.772 433.988 187.185 434.514 187.185ZM439.001 192.149C439.001 190.616 439.95 189.746 441.243 189.746C442.496 189.746 443.257 190.565 443.257 191.944V197.435H444.606V191.851C444.606 189.609 443.411 188.534 441.633 188.534C440.305 188.534 439.48 189.129 439.07 190.021H438.955V188.648H437.65V197.435H439.001V192.149ZM452.611 193.842C452.611 195.49 451.353 196.246 450.346 196.246C449.225 196.246 448.423 195.421 448.423 194.14V188.648H447.074V194.232C447.074 196.474 448.263 197.549 449.911 197.549C451.237 197.549 452.107 196.84 452.519 195.947H452.611V197.435H453.961V188.648H452.611V193.842ZM460.254 188.648H458.378V186.543H457.028V188.648H455.701V189.793H457.028V195.284C457.028 196.817 458.264 197.549 459.408 197.549C459.912 197.549 460.231 197.458 460.415 197.389L460.14 196.177C460.026 196.2 459.843 196.246 459.545 196.246C458.95 196.246 458.378 196.062 458.378 194.918V189.793H460.254V188.648ZM465.875 197.618C467.659 197.618 468.963 196.726 469.375 195.398L468.072 195.032C467.728 195.947 466.933 196.405 465.875 196.405C464.29 196.405 463.198 195.381 463.135 193.499H469.512V192.927C469.512 189.655 467.568 188.534 465.737 188.534C463.358 188.534 461.779 190.411 461.779 193.111C461.779 195.811 463.335 197.618 465.875 197.618ZM463.135 192.332C463.226 190.965 464.193 189.746 465.737 189.746C467.202 189.746 468.14 190.844 468.14 192.332H463.135ZM477.79 190.616C477.368 189.369 476.417 188.534 474.678 188.534C472.824 188.534 471.452 189.586 471.452 191.074C471.452 192.286 472.173 193.099 473.786 193.476L475.25 193.819C476.136 194.025 476.554 194.449 476.554 195.055C476.554 195.81 475.754 196.428 474.496 196.428C473.391 196.428 472.699 195.953 472.459 195.009L471.177 195.33C471.493 196.823 472.722 197.618 474.519 197.618C476.561 197.618 477.95 196.502 477.95 194.986C477.95 193.762 477.184 192.99 475.617 192.607L474.312 192.286C473.271 192.029 472.801 191.681 472.801 191.005C472.801 190.25 473.603 189.701 474.678 189.701C475.857 189.701 476.343 190.353 476.578 190.96L477.79 190.616ZM487.098 197.64C488.632 197.64 489.433 196.817 489.707 196.246H489.776V197.435H491.126V191.646C491.126 188.855 488.998 188.534 487.877 188.534C486.549 188.534 485.039 188.992 484.353 190.593L485.634 191.051C485.932 190.411 486.635 189.723 487.923 189.723C489.163 189.723 489.776 190.381 489.776 191.509V191.555C489.776 192.207 489.112 192.149 487.511 192.355C485.881 192.567 484.1 192.927 484.1 194.941C484.1 196.656 485.428 197.64 487.098 197.64ZM487.305 196.428C486.228 196.428 485.451 195.947 485.451 195.009C485.451 193.979 486.39 193.66 487.442 193.523C488.014 193.453 489.547 193.293 489.776 193.019V194.254C489.776 195.353 488.907 196.428 487.305 196.428ZM497.137 200.912C499.242 200.912 500.935 199.952 500.935 197.686V188.648H499.63V190.044H499.493C499.196 189.586 498.647 188.534 496.93 188.534C494.711 188.534 493.178 190.295 493.178 192.996C493.178 195.742 494.779 197.298 496.907 197.298C498.623 197.298 499.173 196.291 499.47 195.811H499.584V197.595C499.584 199.06 498.555 199.723 497.137 199.723C495.541 199.723 494.979 198.882 494.62 198.396L493.544 199.151C494.093 200.072 495.174 200.912 497.137 200.912ZM497.091 196.084C495.397 196.084 494.528 194.804 494.528 192.972C494.528 191.188 495.374 189.746 497.091 189.746C498.738 189.746 499.607 191.074 499.607 192.972C499.607 194.918 498.716 196.084 497.091 196.084ZM506.975 197.618C509.355 197.618 510.957 195.811 510.957 193.088C510.957 190.342 509.355 188.534 506.975 188.534C504.596 188.534 502.994 190.342 502.994 193.088C502.994 195.811 504.596 197.618 506.975 197.618ZM506.975 196.405C505.168 196.405 504.344 194.849 504.344 193.088C504.344 191.325 505.168 189.746 506.975 189.746C508.784 189.746 509.607 191.325 509.607 193.088C509.607 194.849 508.784 196.405 506.975 196.405Z" fill="#616161"/>
<path d="M409.593 251.526H408.174L405.246 253.472V254.912L408.106 253.014H408.174V263.241H409.593V251.526ZM420.833 263.424C422.528 263.424 423.1 262.371 423.396 261.891H423.557V263.241H424.861V251.526H423.51V255.851H423.396C423.1 255.393 422.573 254.34 420.856 254.34C418.637 254.34 417.104 256.103 417.104 258.871C417.104 261.662 418.637 263.424 420.833 263.424ZM421.017 262.212C419.324 262.212 418.454 260.724 418.454 258.848C418.454 256.994 419.301 255.554 421.017 255.554C422.665 255.554 423.533 256.88 423.533 258.848C423.533 260.838 422.642 262.212 421.017 262.212ZM430.106 263.447C431.64 263.447 432.441 262.624 432.715 262.052H432.783V263.241H434.134V257.452C434.134 254.661 432.006 254.34 430.885 254.34C429.557 254.34 428.047 254.798 427.361 256.4L428.642 256.857C428.94 256.217 429.643 255.53 430.931 255.53C432.171 255.53 432.783 256.187 432.783 257.315V257.361C432.783 258.013 432.12 257.956 430.519 258.161C428.889 258.373 427.108 258.734 427.108 260.747C427.108 262.464 428.436 263.447 430.106 263.447ZM430.312 262.234C429.236 262.234 428.459 261.754 428.459 260.815C428.459 259.787 429.397 259.466 430.45 259.329C431.022 259.261 432.555 259.1 432.783 258.826V260.061C432.783 261.159 431.915 262.234 430.312 262.234ZM437.152 266.536C438.371 266.536 439.229 265.89 439.738 264.522L443.468 254.454H442.003L439.578 261.457H439.487L437.061 254.454H435.596L438.845 263.287L438.594 263.973C438.103 265.312 437.496 265.438 436.512 265.187L436.168 266.376C436.306 266.445 436.694 266.536 437.152 266.536ZM452.366 263.447C453.899 263.447 454.699 262.624 454.975 262.052H455.043V263.241H456.392V257.452C456.392 254.661 454.264 254.34 453.143 254.34C451.817 254.34 450.307 254.798 449.621 256.4L450.901 256.857C451.199 256.217 451.903 255.53 453.189 255.53C454.431 255.53 455.043 256.187 455.043 257.315V257.361C455.043 258.013 454.38 257.956 452.778 258.161C451.147 258.373 449.368 258.734 449.368 260.747C449.368 262.464 450.696 263.447 452.366 263.447ZM452.571 262.234C451.496 262.234 450.719 261.754 450.719 260.815C450.719 259.787 451.656 259.466 452.708 259.329C453.282 259.261 454.814 259.1 455.043 258.826V260.061C455.043 261.159 454.173 262.234 452.571 262.234ZM462.403 266.72C464.508 266.72 466.202 265.759 466.202 263.492V254.454H464.898V255.851H464.761C464.463 255.393 463.913 254.34 462.198 254.34C459.978 254.34 458.445 256.103 458.445 258.803C458.445 261.548 460.047 263.104 462.175 263.104C463.891 263.104 464.44 262.097 464.738 261.617H464.852V263.401C464.852 264.866 463.822 265.529 462.403 265.529C460.808 265.529 460.247 264.689 459.887 264.203L458.812 264.957C459.361 265.878 460.442 266.72 462.403 266.72ZM462.357 261.891C460.664 261.891 459.794 260.61 459.794 258.78C459.794 256.994 460.642 255.554 462.357 255.554C464.005 255.554 464.875 256.88 464.875 258.78C464.875 260.724 463.982 261.891 462.357 261.891ZM472.243 263.424C474.622 263.424 476.223 261.617 476.223 258.894C476.223 256.149 474.622 254.34 472.243 254.34C469.862 254.34 468.261 256.149 468.261 258.894C468.261 261.617 469.862 263.424 472.243 263.424ZM472.243 262.212C470.434 262.212 469.611 260.656 469.611 258.894C469.611 257.133 470.434 255.554 472.243 255.554C474.05 255.554 474.874 257.133 474.874 258.894C474.874 260.656 474.05 262.212 472.243 262.212Z" fill="#616161"/>
<path d="M409.593 317.312H408.174L405.246 319.258V320.698L408.106 318.8H408.174V329.027H409.593V317.312ZM420.833 329.21C422.528 329.21 423.1 328.157 423.396 327.677H423.557V329.027H424.861V317.312H423.51V321.637H423.396C423.1 321.179 422.573 320.126 420.856 320.126C418.637 320.126 417.104 321.889 417.104 324.657C417.104 327.449 418.637 329.21 420.833 329.21ZM421.017 327.998C419.324 327.998 418.454 326.51 418.454 324.635C418.454 322.781 419.301 321.34 421.017 321.34C422.665 321.34 423.533 322.666 423.533 324.635C423.533 326.624 422.642 327.998 421.017 327.998ZM430.106 329.233C431.64 329.233 432.441 328.41 432.715 327.838H432.783V329.027H434.134V323.238C434.134 320.447 432.006 320.126 430.885 320.126C429.557 320.126 428.047 320.584 427.361 322.186L428.642 322.644C428.94 322.003 429.643 321.316 430.931 321.316C432.171 321.316 432.783 321.974 432.783 323.101V323.147C432.783 323.8 432.12 323.742 430.519 323.947C428.889 324.159 427.108 324.52 427.108 326.533C427.108 328.25 428.436 329.233 430.106 329.233ZM430.312 328.021C429.236 328.021 428.459 327.54 428.459 326.601C428.459 325.573 429.397 325.252 430.45 325.115C431.022 325.047 432.555 324.886 432.783 324.612V325.847C432.783 326.945 431.915 328.021 430.312 328.021ZM437.152 332.322C438.371 332.322 439.229 331.676 439.738 330.308L443.468 320.24H442.003L439.578 327.243H439.487L437.061 320.24H435.596L438.845 329.073L438.594 329.759C438.103 331.098 437.496 331.224 436.512 330.973L436.168 332.162C436.306 332.231 436.694 332.322 437.152 332.322ZM452.366 329.233C453.899 329.233 454.699 328.41 454.975 327.838H455.043V329.027H456.392V323.238C456.392 320.447 454.264 320.126 453.143 320.126C451.817 320.126 450.307 320.584 449.621 322.186L450.901 322.644C451.199 322.003 451.903 321.316 453.189 321.316C454.431 321.316 455.043 321.974 455.043 323.101V323.147C455.043 323.8 454.38 323.742 452.778 323.947C451.147 324.159 449.368 324.52 449.368 326.533C449.368 328.25 450.696 329.233 452.366 329.233ZM452.571 328.021C451.496 328.021 450.719 327.54 450.719 326.601C450.719 325.573 451.656 325.252 452.708 325.115C453.282 325.047 454.814 324.886 455.043 324.612V325.847C455.043 326.945 454.173 328.021 452.571 328.021ZM462.403 332.506C464.508 332.506 466.202 331.545 466.202 329.279V320.24H464.898V321.637H464.761C464.463 321.179 463.913 320.126 462.198 320.126C459.978 320.126 458.445 321.889 458.445 324.589C458.445 327.334 460.047 328.891 462.175 328.891C463.891 328.891 464.44 327.884 464.738 327.403H464.852V329.187C464.852 330.652 463.822 331.315 462.403 331.315C460.808 331.315 460.247 330.475 459.887 329.989L458.812 330.743C459.361 331.664 460.442 332.506 462.403 332.506ZM462.357 327.677C460.664 327.677 459.794 326.396 459.794 324.566C459.794 322.781 460.642 321.34 462.357 321.34C464.005 321.34 464.875 322.666 464.875 324.566C464.875 326.51 463.982 327.677 462.357 327.677ZM472.243 329.21C474.622 329.21 476.223 327.403 476.223 324.68C476.223 321.935 474.622 320.126 472.243 320.126C469.862 320.126 468.261 321.935 468.261 324.68C468.261 327.403 469.862 329.21 472.243 329.21ZM472.243 327.998C470.434 327.998 469.611 326.442 469.611 324.68C469.611 322.919 470.434 321.34 472.243 321.34C474.05 321.34 474.874 322.919 474.874 324.68C474.874 326.442 474.05 327.998 472.243 327.998Z" fill="#616161"/>
<path d="M67.9412 254.484H65.2565C64.5151 254.484 63.9141 255.084 63.9141 255.825V258.51C63.9141 259.251 64.5151 259.853 65.2565 259.853H67.9412C68.6826 259.853 69.2835 259.251 69.2835 258.51V255.825C69.2835 255.084 68.6826 254.484 67.9412 254.484Z" stroke="#616161" stroke-width="1.34237"/>
<path d="M63.2439 257.839C59.5743 257.839 53.8471 257.839 53.8471 257.839C49.399 257.839 45.793 254.233 45.793 249.785V181.324" stroke="#414141" stroke-width="1.34237"/>
<path d="M67.9412 320.27H65.2565C64.5151 320.27 63.9141 320.87 63.9141 321.611V324.296C63.9141 325.037 64.5151 325.639 65.2565 325.639H67.9412C68.6826 325.639 69.2835 325.037 69.2835 324.296V321.611C69.2835 320.87 68.6826 320.27 67.9412 320.27Z" stroke="#616161" stroke-width="1.34237"/>
<path d="M63.2439 323.626C59.5743 323.626 53.8471 323.626 53.8471 323.626C49.399 323.626 45.793 320.019 45.793 315.571V247.11" stroke="#414141" stroke-width="1.34237"/>
<path d="M2.83984 75.2793H546.578V83.3347H2.83984V75.2793Z" fill="black"/>
<mask id="mask1_469_6349" style="mask-type:luminance" maskUnits="userSpaceOnUse" x="-30" y="30" width="568" height="47">
<path d="M-29.3867 39.0254C-29.3867 34.5772 -25.7807 30.9712 -21.3325 30.9712H537.175V76.6184H-21.3325C-25.7807 76.6184 -29.3867 73.0124 -29.3867 68.5642L-29.3867 39.0254Z" fill="white"/>
</mask>
<g mask="url(#mask1_469_6349)">
<path d="M-29.3867 39.0254C-29.3867 34.5772 -25.7807 30.9712 -21.3325 30.9712H537.175V76.6184H-21.3325C-25.7807 76.6184 -29.3867 73.0124 -29.3867 68.5642L-29.3867 39.0254Z" fill="url(#paint1_linear_469_6349)"/>
<path d="M292.38 50.1126C292.338 49.6861 292.157 49.3548 291.836 49.1187C291.515 48.8825 291.08 48.7645 290.53 48.7645C290.156 48.7645 289.841 48.8173 289.584 48.9231C289.326 49.0253 289.129 49.168 288.992 49.3513C288.858 49.5346 288.791 49.7425 288.791 49.9752C288.784 50.169 288.824 50.3382 288.912 50.4827C289.004 50.6272 289.129 50.7523 289.288 50.8581C289.446 50.9603 289.63 51.0502 289.837 51.1277C290.045 51.2017 290.267 51.2652 290.504 51.318L291.476 51.5507C291.949 51.6564 292.382 51.7974 292.777 51.9736C293.172 52.1498 293.514 52.3666 293.803 52.6239C294.092 52.8812 294.315 53.1843 294.474 53.5332C294.636 53.8822 294.719 54.2822 294.723 54.7334C294.719 55.396 294.55 55.9705 294.215 56.4569C293.884 56.9397 293.404 57.3151 292.777 57.583C292.153 57.8473 291.401 57.9795 290.519 57.9795C289.645 57.9795 288.884 57.8456 288.236 57.5777C287.591 57.3098 287.087 56.9133 286.724 56.3881C286.364 55.8595 286.175 55.2056 286.158 54.4267H288.373C288.398 54.7897 288.502 55.0929 288.685 55.3361C288.872 55.5757 289.12 55.7572 289.43 55.8806C289.744 56.0004 290.098 56.0604 290.493 56.0604C290.881 56.0604 291.217 56.004 291.503 55.8912C291.792 55.7784 292.016 55.6215 292.174 55.4206C292.333 55.2197 292.412 54.9889 292.412 54.7281C292.412 54.4849 292.34 54.2804 292.195 54.1148C292.054 53.9491 291.846 53.8081 291.572 53.6918C291.3 53.5755 290.967 53.4698 290.572 53.3746L289.393 53.0786C288.481 52.8565 287.76 52.5093 287.231 52.037C286.702 51.5648 286.44 50.9286 286.443 50.1285C286.44 49.4729 286.614 48.9002 286.967 48.4102C287.323 47.9203 287.811 47.5379 288.431 47.263C289.052 46.9881 289.756 46.8506 290.546 46.8506C291.35 46.8506 292.051 46.9881 292.65 47.263C293.253 47.5379 293.722 47.9203 294.056 48.4102C294.391 48.9002 294.564 49.4676 294.575 50.1126H292.38ZM300.427 49.7055V51.3973H295.536V49.7055H300.427ZM296.647 47.76H298.899V55.3308C298.899 55.5387 298.93 55.7008 298.994 55.8172C299.057 55.9299 299.145 56.0092 299.258 56.0551C299.375 56.1009 299.509 56.1238 299.66 56.1238C299.766 56.1238 299.872 56.115 299.977 56.0974C300.083 56.0762 300.164 56.0604 300.22 56.0498L300.575 57.7257C300.462 57.761 300.303 57.8015 300.099 57.8473C299.894 57.8967 299.646 57.9266 299.353 57.9372C298.811 57.9583 298.335 57.8861 297.926 57.7204C297.521 57.5548 297.205 57.2975 296.98 56.9486C296.754 56.5996 296.643 56.159 296.647 55.6268V47.76ZM304.097 57.9795C303.579 57.9795 303.117 57.8896 302.711 57.7099C302.306 57.5266 301.985 57.257 301.749 56.901C301.517 56.5415 301.4 56.0938 301.4 55.5581C301.4 55.107 301.483 54.7281 301.649 54.4214C301.814 54.1148 302.04 53.8681 302.326 53.6813C302.611 53.4945 302.935 53.3535 303.298 53.2583C303.665 53.1631 304.049 53.0962 304.451 53.0574C304.923 53.0081 305.304 52.9622 305.593 52.92C305.882 52.8741 306.092 52.8072 306.222 52.7191C306.352 52.6309 306.418 52.5005 306.418 52.3278V52.2961C306.418 51.9613 306.312 51.7022 306.1 51.5189C305.892 51.3357 305.596 51.244 305.212 51.244C304.807 51.244 304.484 51.3339 304.245 51.5136C304.005 51.6899 303.846 51.9119 303.769 52.1798L301.686 52.0106C301.792 51.5172 302 51.0907 302.31 50.7312C302.62 50.3682 303.02 50.0897 303.51 49.8959C304.003 49.6985 304.574 49.5998 305.223 49.5998C305.674 49.5998 306.106 49.6527 306.518 49.7584C306.934 49.8641 307.302 50.028 307.623 50.2501C307.947 50.4721 308.203 50.7576 308.39 51.1066C308.576 51.452 308.67 51.8661 308.67 52.349V57.8262H306.534V56.7001H306.47C306.34 56.9538 306.166 57.1776 305.947 57.3715C305.729 57.5618 305.466 57.7116 305.159 57.8209C304.853 57.9266 304.498 57.9795 304.097 57.9795ZM304.742 56.4252C305.073 56.4252 305.366 56.3599 305.619 56.2295C305.873 56.0956 306.072 55.9158 306.217 55.6903C306.361 55.4647 306.433 55.2092 306.433 54.9237V54.0619C306.363 54.1077 306.266 54.15 306.143 54.1888C306.023 54.224 305.887 54.2575 305.736 54.2893C305.584 54.3174 305.432 54.3439 305.281 54.3686C305.129 54.3897 304.992 54.4091 304.869 54.4267C304.604 54.4655 304.373 54.5272 304.176 54.6118C303.979 54.6963 303.825 54.8109 303.716 54.9554C303.607 55.0964 303.552 55.2726 303.552 55.4841C303.552 55.7907 303.663 56.0251 303.885 56.1872C304.111 56.3458 304.396 56.4252 304.742 56.4252ZM314.624 49.7055V51.3973H309.733V49.7055H314.624ZM310.844 47.76H313.096V55.3308C313.096 55.5387 313.128 55.7008 313.191 55.8172C313.254 55.9299 313.343 56.0092 313.455 56.0551C313.572 56.1009 313.706 56.1238 313.857 56.1238C313.963 56.1238 314.069 56.115 314.174 56.0974C314.28 56.0762 314.361 56.0604 314.418 56.0498L314.772 57.7257C314.659 57.761 314.5 57.8015 314.296 57.8473C314.091 57.8967 313.843 57.9266 313.55 57.9372C313.008 57.9583 312.532 57.8861 312.123 57.7204C311.718 57.5548 311.402 57.2975 311.177 56.9486C310.951 56.5996 310.84 56.159 310.844 55.6268V47.76ZM321.186 54.3686V49.7055H323.438V57.8262H321.275V56.3511H321.191C321.008 56.827 320.703 57.2094 320.276 57.4984C319.853 57.7874 319.337 57.9319 318.727 57.9319C318.184 57.9319 317.707 57.8085 317.294 57.5618C316.882 57.3151 316.56 56.9644 316.327 56.5097C316.098 56.0551 315.982 55.5105 315.978 54.8761V49.7055H318.23V54.4743C318.234 54.9536 318.362 55.3325 318.616 55.611C318.87 55.8894 319.21 56.0286 319.637 56.0286C319.908 56.0286 320.162 55.967 320.398 55.8436C320.634 55.7167 320.824 55.5299 320.969 55.2832C321.117 55.0365 321.189 54.7316 321.186 54.3686ZM331.883 52.0212L329.821 52.1481C329.786 51.9718 329.71 51.8132 329.594 51.6723C329.478 51.5277 329.324 51.4132 329.134 51.3286C328.947 51.2405 328.723 51.1964 328.463 51.1964C328.114 51.1964 327.819 51.2704 327.58 51.4185C327.34 51.563 327.22 51.7568 327.22 52C327.22 52.1939 327.298 52.3578 327.453 52.4917C327.608 52.6257 327.874 52.7331 328.251 52.8142L329.721 53.1103C330.51 53.2724 331.099 53.5332 331.487 53.8927C331.874 54.2522 332.068 54.7245 332.068 55.3096C332.068 55.8418 331.911 56.3088 331.598 56.7106C331.288 57.1124 330.861 57.4261 330.318 57.6517C329.779 57.8738 329.157 57.9848 328.452 57.9848C327.377 57.9848 326.521 57.761 325.883 57.3133C325.248 56.8622 324.876 56.2489 324.767 55.4735L326.982 55.3572C327.049 55.685 327.211 55.9352 327.469 56.1079C327.726 56.2771 328.055 56.3617 328.457 56.3617C328.852 56.3617 329.169 56.2859 329.409 56.1344C329.652 55.9793 329.775 55.7802 329.779 55.537C329.775 55.3325 329.689 55.1651 329.52 55.0347C329.351 54.9008 329.09 54.7986 328.737 54.7281L327.331 54.4479C326.538 54.2893 325.948 54.0143 325.56 53.6231C325.176 53.2319 324.984 52.7331 324.984 52.1269C324.984 51.6053 325.125 51.1559 325.407 50.7788C325.692 50.4016 326.092 50.1109 326.607 49.9064C327.125 49.702 327.731 49.5998 328.426 49.5998C329.451 49.5998 330.258 49.8166 330.847 50.2501C331.439 50.6836 331.784 51.274 331.883 52.0212Z" fill="white"/>
<path d="M409.81 46.9987L412.427 55.225H412.528L415.15 46.9987H417.688L413.955 57.8262H411.005L407.267 46.9987H409.81ZM420.25 57.9795C419.732 57.9795 419.27 57.8896 418.865 57.7099C418.46 57.5266 418.139 57.257 417.903 56.901C417.67 56.5415 417.554 56.0938 417.554 55.5581C417.554 55.107 417.637 54.7281 417.802 54.4214C417.968 54.1148 418.193 53.8681 418.479 53.6813C418.764 53.4945 419.089 53.3535 419.452 53.2583C419.818 53.1631 420.202 53.0962 420.604 53.0574C421.077 53.0081 421.457 52.9622 421.746 52.92C422.035 52.8741 422.245 52.8072 422.375 52.7191C422.506 52.6309 422.571 52.5005 422.571 52.3278V52.2961C422.571 51.9613 422.465 51.7022 422.254 51.5189C422.046 51.3357 421.75 51.244 421.366 51.244C420.96 51.244 420.638 51.3339 420.398 51.5136C420.158 51.6899 420 51.9119 419.922 52.1798L417.839 52.0106C417.945 51.5172 418.153 51.0907 418.463 50.7312C418.773 50.3682 419.173 50.0897 419.663 49.8959C420.157 49.6985 420.728 49.5998 421.376 49.5998C421.827 49.5998 422.259 49.6527 422.671 49.7584C423.087 49.8641 423.456 50.028 423.776 50.2501C424.101 50.4721 424.356 50.7576 424.543 51.1066C424.73 51.452 424.823 51.8661 424.823 52.349V57.8262H422.687V56.7001H422.624C422.493 56.9538 422.319 57.1776 422.1 57.3715C421.882 57.5618 421.619 57.7116 421.313 57.8209C421.006 57.9266 420.652 57.9795 420.25 57.9795ZM420.895 56.4252C421.226 56.4252 421.519 56.3599 421.773 56.2295C422.026 56.0956 422.226 55.9158 422.37 55.6903C422.515 55.4647 422.587 55.2092 422.587 54.9237V54.0619C422.516 54.1077 422.419 54.15 422.296 54.1888C422.176 54.224 422.041 54.2575 421.889 54.2893C421.737 54.3174 421.586 54.3439 421.434 54.3686C421.283 54.3897 421.145 54.4091 421.022 54.4267C420.758 54.4655 420.527 54.5272 420.329 54.6118C420.132 54.6963 419.979 54.8109 419.869 54.9554C419.76 55.0964 419.706 55.2726 419.706 55.4841C419.706 55.7907 419.817 56.0251 420.039 56.1872C420.264 56.3458 420.55 56.4252 420.895 56.4252ZM428.71 46.9987V57.8262H426.458V46.9987H428.71ZM430.401 57.8262V49.7055H432.654V57.8262H430.401ZM431.533 48.6587C431.198 48.6587 430.911 48.5477 430.671 48.3257C430.435 48.1001 430.317 47.8305 430.317 47.5168C430.317 47.2066 430.435 46.9405 430.671 46.7184C430.911 46.4929 431.198 46.3801 431.533 46.3801C431.868 46.3801 432.153 46.4929 432.389 46.7184C432.629 46.9405 432.749 47.2066 432.749 47.5168C432.749 47.8305 432.629 48.1001 432.389 48.3257C432.153 48.5477 431.868 48.6587 431.533 48.6587ZM437.337 57.9583C436.72 57.9583 436.162 57.7997 435.661 57.4825C435.164 57.1618 434.77 56.6913 434.477 56.0709C434.188 55.4471 434.044 54.6822 434.044 53.7764C434.044 52.8459 434.193 52.0723 434.493 51.4555C434.793 50.8352 435.191 50.3717 435.688 50.065C436.188 49.7549 436.736 49.5998 437.332 49.5998C437.787 49.5998 438.166 49.6773 438.469 49.8324C438.775 49.984 439.022 50.1743 439.209 50.4034C439.399 50.629 439.544 50.851 439.642 51.0695H439.711V46.9987H441.958V57.8262H439.738V56.5256H439.642C439.537 56.7512 439.387 56.975 439.193 57.197C439.003 57.4156 438.754 57.5971 438.448 57.7416C438.144 57.8861 437.774 57.9583 437.337 57.9583ZM438.051 56.1661C438.414 56.1661 438.721 56.0674 438.971 55.87C439.225 55.6691 439.419 55.3889 439.552 55.0294C439.69 54.6699 439.759 54.2487 439.759 53.7659C439.759 53.283 439.692 52.8636 439.558 52.5076C439.424 52.1516 439.23 51.8767 438.976 51.6828C438.722 51.489 438.414 51.392 438.051 51.392C437.681 51.392 437.369 51.4925 437.115 51.6934C436.861 51.8943 436.669 52.1727 436.539 52.5287C436.409 52.8847 436.343 53.2971 436.343 53.7659C436.343 54.2381 436.409 54.6558 436.539 55.0188C436.673 55.3783 436.865 55.6603 437.115 55.8647C437.369 56.0656 437.681 56.1661 438.051 56.1661ZM446.013 57.9795C445.495 57.9795 445.033 57.8896 444.627 57.7099C444.222 57.5266 443.901 57.257 443.665 56.901C443.433 56.5415 443.316 56.0938 443.316 55.5581C443.316 55.107 443.399 54.7281 443.565 54.4214C443.73 54.1148 443.956 53.8681 444.242 53.6813C444.527 53.4945 444.851 53.3535 445.214 53.2583C445.581 53.1631 445.965 53.0962 446.367 53.0574C446.839 53.0081 447.22 52.9622 447.509 52.92C447.798 52.8741 448.008 52.8072 448.138 52.7191C448.268 52.6309 448.334 52.5005 448.334 52.3278V52.2961C448.334 51.9613 448.228 51.7022 448.016 51.5189C447.808 51.3357 447.512 51.244 447.128 51.244C446.723 51.244 446.4 51.3339 446.161 51.5136C445.921 51.6899 445.762 51.9119 445.685 52.1798L443.602 52.0106C443.708 51.5172 443.915 51.0907 444.226 50.7312C444.536 50.3682 444.936 50.0897 445.426 49.8959C445.919 49.6985 446.49 49.5998 447.139 49.5998C447.59 49.5998 448.022 49.6527 448.434 49.7584C448.85 49.8641 449.218 50.028 449.539 50.2501C449.863 50.4721 450.119 50.7576 450.306 51.1066C450.492 51.452 450.586 51.8661 450.586 52.349V57.8262H448.45V56.7001H448.386C448.256 56.9538 448.082 57.1776 447.863 57.3715C447.644 57.5618 447.382 57.7116 447.075 57.8209C446.769 57.9266 446.414 57.9795 446.013 57.9795ZM446.658 56.4252C446.989 56.4252 447.281 56.3599 447.535 56.2295C447.789 56.0956 447.988 55.9158 448.133 55.6903C448.277 55.4647 448.349 55.2092 448.349 54.9237V54.0619C448.279 54.1077 448.182 54.15 448.059 54.1888C447.939 54.224 447.803 54.2575 447.652 54.2893C447.5 54.3174 447.348 54.3439 447.197 54.3686C447.045 54.3897 446.908 54.4091 446.784 54.4267C446.52 54.4655 446.289 54.5272 446.092 54.6118C445.895 54.6963 445.741 54.8109 445.632 54.9554C445.523 55.0964 445.468 55.2726 445.468 55.4841C445.468 55.7907 445.579 56.0251 445.801 56.1872C446.027 56.3458 446.312 56.4252 446.658 56.4252ZM456.54 49.7055V51.3973H451.649V49.7055H456.54ZM452.76 47.76H455.012V55.3308C455.012 55.5387 455.043 55.7008 455.107 55.8172C455.17 55.9299 455.258 56.0092 455.371 56.0551C455.488 56.1009 455.622 56.1238 455.773 56.1238C455.879 56.1238 455.985 56.115 456.09 56.0974C456.196 56.0762 456.277 56.0604 456.333 56.0498L456.688 57.7257C456.575 57.761 456.416 57.8015 456.212 57.8473C456.007 57.8967 455.759 57.9266 455.466 57.9372C454.924 57.9583 454.448 57.8861 454.039 57.7204C453.634 57.5548 453.318 57.2975 453.093 56.9486C452.867 56.5996 452.756 56.159 452.76 55.6268V47.76ZM457.894 57.8262V49.7055H460.146V57.8262H457.894ZM459.025 48.6587C458.691 48.6587 458.403 48.5477 458.164 48.3257C457.927 48.1001 457.809 47.8305 457.809 47.5168C457.809 47.2066 457.927 46.9405 458.164 46.7184C458.403 46.4929 458.691 46.3801 459.025 46.3801C459.36 46.3801 459.646 46.4929 459.882 46.7184C460.122 46.9405 460.241 47.2066 460.241 47.5168C460.241 47.8305 460.122 48.1001 459.882 48.3257C459.646 48.5477 459.36 48.6587 459.025 48.6587ZM465.507 57.9848C464.685 57.9848 463.975 57.8103 463.376 57.4614C462.78 57.1089 462.32 56.619 461.996 55.9916C461.672 55.3607 461.51 54.6294 461.51 53.7976C461.51 52.9587 461.672 52.2256 461.996 51.5982C462.32 50.9673 462.78 50.4774 463.376 50.1285C463.975 49.776 464.685 49.5998 465.507 49.5998C466.328 49.5998 467.036 49.776 467.632 50.1285C468.231 50.4774 468.693 50.9673 469.017 51.5982C469.341 52.2256 469.504 52.9587 469.504 53.7976C469.504 54.6294 469.341 55.3607 469.017 55.9916C468.693 56.619 468.231 57.1089 467.632 57.4614C467.036 57.8103 466.328 57.9848 465.507 57.9848ZM465.517 56.2401C465.891 56.2401 466.203 56.1344 466.453 55.9229C466.703 55.7079 466.892 55.4154 467.019 55.0453C467.149 54.6752 467.214 54.254 467.214 53.7817C467.214 53.3094 467.149 52.8882 467.019 52.5182C466.892 52.1481 466.703 51.8555 466.453 51.6405C466.203 51.4255 465.891 51.318 465.517 51.318C465.14 51.318 464.823 51.4255 464.566 51.6405C464.312 51.8555 464.12 52.1481 463.989 52.5182C463.862 52.8882 463.799 53.3094 463.799 53.7817C463.799 54.254 463.862 54.6752 463.989 55.0453C464.12 55.4154 464.312 55.7079 464.566 55.9229C464.823 56.1344 465.14 56.2401 465.517 56.2401ZM473.107 53.1314V57.8262H470.855V49.7055H473.002V51.1383H473.097C473.277 50.666 473.578 50.2924 474.001 50.0175C474.424 49.739 474.937 49.5998 475.539 49.5998C476.103 49.5998 476.595 49.7232 477.014 49.9699C477.434 50.2166 477.76 50.5691 477.993 51.0273C478.225 51.4819 478.341 52.0247 478.341 52.6556V57.8262H476.089V53.0574C476.093 52.5604 475.966 52.1727 475.709 51.8943C475.451 51.6123 475.097 51.4713 474.646 51.4713C474.343 51.4713 474.075 51.5366 473.842 51.667C473.613 51.7974 473.433 51.9877 473.303 52.2379C473.176 52.4847 473.111 52.7825 473.107 53.1314Z" fill="white"/>
</g>
<path d="M-30.7305 39.0269C-30.7305 33.8372 -26.5234 29.6301 -21.3337 29.6301H537.174V32.3153H-21.3337C-25.0404 32.3153 -28.0453 35.3202 -28.0453 39.0269H-30.7305ZM537.174 77.9624H-21.3337C-26.5234 77.9624 -30.7305 73.7554 -30.7305 68.5657H-28.0453C-28.0453 72.2724 -25.0404 75.2773 -21.3337 75.2773H537.174V77.9624ZM-21.3337 77.9624C-26.5234 77.9624 -30.7305 73.7554 -30.7305 68.5657V39.0269C-30.7305 33.8372 -26.5234 29.6301 -21.3337 29.6301V32.3153C-25.0404 32.3153 -28.0453 35.3202 -28.0453 39.0269V68.5657C-28.0453 72.2724 -25.0404 75.2773 -21.3337 75.2773V77.9624Z" fill="#2B2B2B"/>
</g>
<path d="M86.5782 184.571H88.844L92.7835 194.19H92.9285L96.868 184.571H99.1338V196.945H97.3574V187.99H97.2426L93.5932 196.927H92.1189L88.4694 187.984H88.3546V196.945H86.5782V184.571ZM102.732 200.425C102.463 200.425 102.217 200.403 101.995 200.359C101.774 200.318 101.609 200.274 101.5 200.226L101.935 198.745C102.265 198.834 102.559 198.872 102.817 198.86C103.075 198.848 103.302 198.751 103.5 198.57C103.701 198.389 103.878 198.093 104.031 197.682L104.255 197.066L100.859 187.664H102.793L105.143 194.866H105.24L107.59 187.664H109.53L105.705 198.183C105.528 198.667 105.302 199.076 105.028 199.41C104.755 199.748 104.428 200.002 104.05 200.171C103.671 200.341 103.232 200.425 102.732 200.425ZM122.009 190.758C122.009 192.079 121.767 193.215 121.284 194.165C120.8 195.112 120.138 195.841 119.296 196.353C118.458 196.86 117.505 197.114 116.438 197.114C115.367 197.114 114.41 196.86 113.568 196.353C112.73 195.841 112.07 195.11 111.586 194.159C111.103 193.209 110.861 192.075 110.861 190.758C110.861 189.436 111.103 188.303 111.586 187.356C112.07 186.405 112.73 185.676 113.568 185.169C114.41 184.657 115.367 184.401 116.438 184.401C117.505 184.401 118.458 184.657 119.296 185.169C120.138 185.676 120.8 186.405 121.284 187.356C121.767 188.303 122.009 189.436 122.009 190.758ZM120.16 190.758C120.16 189.751 119.997 188.903 119.671 188.214C119.348 187.521 118.905 186.997 118.341 186.643C117.781 186.284 117.147 186.105 116.438 186.105C115.725 186.105 115.089 186.284 114.529 186.643C113.969 186.997 113.526 187.521 113.199 188.214C112.877 188.903 112.716 189.751 112.716 190.758C112.716 191.765 112.877 192.615 113.199 193.307C113.526 193.996 113.969 194.52 114.529 194.878C115.089 195.233 115.725 195.41 116.438 195.41C117.147 195.41 117.781 195.233 118.341 194.878C118.905 194.52 119.348 193.996 119.671 193.307C119.997 192.615 120.16 191.765 120.16 190.758ZM124.079 196.945V187.664H125.825V189.138H125.922C126.091 188.639 126.389 188.246 126.816 187.96C127.247 187.67 127.734 187.525 128.278 187.525C128.391 187.525 128.524 187.529 128.677 187.537C128.834 187.545 128.957 187.555 129.045 187.567V189.295C128.973 189.275 128.844 189.253 128.659 189.229C128.473 189.201 128.288 189.187 128.103 189.187C127.676 189.187 127.295 189.277 126.961 189.459C126.631 189.636 126.369 189.884 126.175 190.202C125.982 190.516 125.885 190.874 125.885 191.277V196.945H124.079ZM134.055 200.618C133.318 200.618 132.683 200.522 132.152 200.328C131.624 200.135 131.193 199.879 130.859 199.561C130.524 199.243 130.275 198.894 130.109 198.516L131.662 197.875C131.771 198.053 131.916 198.24 132.097 198.437C132.283 198.639 132.532 198.81 132.846 198.951C133.165 199.092 133.574 199.162 134.073 199.162C134.758 199.162 135.324 198.995 135.771 198.661C136.218 198.33 136.442 197.803 136.442 197.078V195.253H136.327C136.218 195.45 136.061 195.67 135.855 195.912C135.654 196.153 135.376 196.363 135.022 196.54C134.667 196.717 134.206 196.806 133.638 196.806C132.905 196.806 132.244 196.635 131.656 196.292C131.072 195.946 130.609 195.436 130.266 194.764C129.928 194.087 129.759 193.255 129.759 192.268C129.759 191.281 129.926 190.435 130.26 189.731C130.599 189.026 131.062 188.486 131.65 188.111C132.238 187.733 132.905 187.543 133.65 187.543C134.226 187.543 134.691 187.64 135.046 187.833C135.4 188.023 135.676 188.244 135.874 188.498C136.075 188.752 136.23 188.975 136.339 189.169H136.472V187.664H138.242V197.15C138.242 197.948 138.057 198.602 137.686 199.114C137.316 199.626 136.814 200.004 136.182 200.25C135.553 200.496 134.844 200.618 134.055 200.618ZM134.037 195.307C134.556 195.307 134.995 195.187 135.354 194.945C135.716 194.699 135.99 194.349 136.176 193.894C136.365 193.434 136.46 192.885 136.46 192.244C136.46 191.62 136.367 191.07 136.182 190.595C135.996 190.119 135.725 189.749 135.366 189.483C135.008 189.213 134.564 189.078 134.037 189.078C133.493 189.078 133.04 189.219 132.677 189.501C132.315 189.779 132.041 190.157 131.856 190.637C131.674 191.116 131.584 191.652 131.584 192.244C131.584 192.852 131.676 193.386 131.862 193.845C132.047 194.304 132.321 194.663 132.683 194.921C133.05 195.179 133.501 195.307 134.037 195.307ZM146.02 190.933V192.498H140.534V190.933H146.02ZM152.986 184.571V196.945H151.113V186.444H151.04L148.08 188.377V186.589L151.167 184.571H152.986Z" fill="#B095FF"/>
<path d="M86.5782 250.502H88.844L92.7835 260.121H92.9285L96.868 250.502H99.1338V262.876H97.3574V253.922H97.2426L93.5932 262.858H92.1189L88.4694 253.915H88.3546V262.876H86.5782V250.502ZM102.732 266.356C102.463 266.356 102.217 266.334 101.995 266.29C101.774 266.25 101.609 266.205 101.5 266.157L101.935 264.677C102.265 264.765 102.559 264.803 102.817 264.791C103.075 264.779 103.302 264.683 103.5 264.501C103.701 264.32 103.878 264.024 104.031 263.613L104.255 262.997L100.859 253.595H102.793L105.143 260.797H105.24L107.59 253.595H109.53L105.705 264.115C105.528 264.598 105.302 265.007 105.028 265.341C104.755 265.68 104.428 265.933 104.05 266.102C103.671 266.272 103.232 266.356 102.732 266.356ZM122.009 256.689C122.009 258.01 121.767 259.146 121.284 260.097C120.8 261.043 120.138 261.772 119.296 262.284C118.458 262.791 117.505 263.045 116.438 263.045C115.367 263.045 114.41 262.791 113.568 262.284C112.73 261.772 112.07 261.041 111.586 260.091C111.103 259.14 110.861 258.006 110.861 256.689C110.861 255.368 111.103 254.234 111.586 253.287C112.07 252.336 112.73 251.607 113.568 251.1C114.41 250.588 115.367 250.332 116.438 250.332C117.505 250.332 118.458 250.588 119.296 251.1C120.138 251.607 120.8 252.336 121.284 253.287C121.767 254.234 122.009 255.368 122.009 256.689ZM120.16 256.689C120.16 255.682 119.997 254.834 119.671 254.145C119.348 253.452 118.905 252.929 118.341 252.574C117.781 252.216 117.147 252.036 116.438 252.036C115.725 252.036 115.089 252.216 114.529 252.574C113.969 252.929 113.526 253.452 113.199 254.145C112.877 254.834 112.716 255.682 112.716 256.689C112.716 257.696 112.877 258.546 113.199 259.239C113.526 259.927 113.969 260.451 114.529 260.81C115.089 261.164 115.725 261.341 116.438 261.341C117.147 261.341 117.781 261.164 118.341 260.81C118.905 260.451 119.348 259.927 119.671 259.239C119.997 258.546 120.16 257.696 120.16 256.689ZM124.079 262.876V253.595H125.825V255.07H125.922C126.091 254.57 126.389 254.177 126.816 253.891C127.247 253.601 127.734 253.456 128.278 253.456C128.391 253.456 128.524 253.46 128.677 253.468C128.834 253.476 128.957 253.486 129.045 253.499V255.227C128.973 255.206 128.844 255.184 128.659 255.16C128.473 255.132 128.288 255.118 128.103 255.118C127.676 255.118 127.295 255.208 126.961 255.39C126.631 255.567 126.369 255.815 126.175 256.133C125.982 256.447 125.885 256.806 125.885 257.208V262.876H124.079ZM134.055 266.55C133.318 266.55 132.683 266.453 132.152 266.26C131.624 266.066 131.193 265.81 130.859 265.492C130.524 265.174 130.275 264.826 130.109 264.447L131.662 263.806C131.771 263.984 131.916 264.171 132.097 264.368C132.283 264.57 132.532 264.741 132.846 264.882C133.165 265.023 133.574 265.093 134.073 265.093C134.758 265.093 135.324 264.926 135.771 264.592C136.218 264.262 136.442 263.734 136.442 263.009V261.184H136.327C136.218 261.382 136.061 261.601 135.855 261.843C135.654 262.084 135.376 262.294 135.022 262.471C134.667 262.648 134.206 262.737 133.638 262.737C132.905 262.737 132.244 262.566 131.656 262.223C131.072 261.877 130.609 261.367 130.266 260.695C129.928 260.018 129.759 259.186 129.759 258.199C129.759 257.212 129.926 256.367 130.26 255.662C130.599 254.957 131.062 254.417 131.65 254.042C132.238 253.664 132.905 253.474 133.65 253.474C134.226 253.474 134.691 253.571 135.046 253.764C135.4 253.954 135.676 254.175 135.874 254.429C136.075 254.683 136.23 254.906 136.339 255.1H136.472V253.595H138.242V263.081C138.242 263.879 138.057 264.534 137.686 265.045C137.316 265.557 136.814 265.935 136.182 266.181C135.553 266.427 134.844 266.55 134.055 266.55ZM134.037 261.239C134.556 261.239 134.995 261.118 135.354 260.876C135.716 260.63 135.99 260.28 136.176 259.825C136.365 259.365 136.46 258.816 136.46 258.175C136.46 257.551 136.367 257.001 136.182 256.526C135.996 256.05 135.725 255.68 135.366 255.414C135.008 255.144 134.564 255.009 134.037 255.009C133.493 255.009 133.04 255.15 132.677 255.432C132.315 255.71 132.041 256.089 131.856 256.568C131.674 257.047 131.584 257.583 131.584 258.175C131.584 258.783 131.676 259.317 131.862 259.776C132.047 260.236 132.321 260.594 132.683 260.852C133.05 261.11 133.501 261.239 134.037 261.239ZM146.02 256.864V258.429H140.534V256.864H146.02ZM147.793 262.876V261.523L151.98 257.184C152.427 256.713 152.796 256.3 153.086 255.946C153.38 255.587 153.599 255.247 153.744 254.925C153.889 254.602 153.962 254.26 153.962 253.897C153.962 253.486 153.865 253.132 153.672 252.834C153.478 252.532 153.215 252.3 152.88 252.139C152.546 251.974 152.169 251.891 151.75 251.891C151.307 251.891 150.921 251.982 150.59 252.163C150.26 252.345 150.006 252.6 149.829 252.931C149.652 253.261 149.563 253.648 149.563 254.091H147.781C147.781 253.337 147.954 252.679 148.3 252.115C148.647 251.551 149.122 251.114 149.726 250.804C150.33 250.49 151.017 250.332 151.787 250.332C152.564 250.332 153.249 250.488 153.841 250.798C154.437 251.104 154.902 251.523 155.237 252.055C155.571 252.582 155.738 253.178 155.738 253.843C155.738 254.302 155.652 254.751 155.478 255.19C155.309 255.629 155.013 256.119 154.59 256.659C154.167 257.194 153.579 257.845 152.826 258.61L150.367 261.184V261.275H155.938V262.876H147.793Z" fill="#B095FF"/>
<path d="M86.5782 316.434H88.844L92.7835 326.053H92.9285L96.868 316.434H99.1338V328.808H97.3574V319.854H97.2426L93.5932 328.79H92.1189L88.4694 319.848H88.3546V328.808H86.5782V316.434ZM102.732 332.289C102.463 332.289 102.217 332.266 101.995 332.222C101.774 332.182 101.609 332.138 101.5 332.089L101.935 330.609C102.265 330.698 102.559 330.736 102.817 330.724C103.075 330.712 103.302 330.615 103.5 330.434C103.701 330.252 103.878 329.956 104.031 329.545L104.255 328.929L100.859 319.528H102.793L105.143 326.73H105.24L107.59 319.528H109.53L105.705 330.047C105.528 330.53 105.302 330.939 105.028 331.274C104.755 331.612 104.428 331.866 104.05 332.035C103.671 332.204 103.232 332.289 102.732 332.289ZM122.009 322.621C122.009 323.942 121.767 325.078 121.284 326.029C120.8 326.976 120.138 327.705 119.296 328.216C118.458 328.724 117.505 328.978 116.438 328.978C115.367 328.978 114.41 328.724 113.568 328.216C112.73 327.705 112.07 326.974 111.586 326.023C111.103 325.072 110.861 323.938 110.861 322.621C110.861 321.3 111.103 320.166 111.586 319.219C112.07 318.269 112.73 317.54 113.568 317.032C114.41 316.521 115.367 316.265 116.438 316.265C117.505 316.265 118.458 316.521 119.296 317.032C120.138 317.54 120.8 318.269 121.284 319.219C121.767 320.166 122.009 321.3 122.009 322.621ZM120.16 322.621C120.16 321.614 119.997 320.766 119.671 320.077C119.348 319.385 118.905 318.861 118.341 318.506C117.781 318.148 117.147 317.969 116.438 317.969C115.725 317.969 115.089 318.148 114.529 318.506C113.969 318.861 113.526 319.385 113.199 320.077C112.877 320.766 112.716 321.614 112.716 322.621C112.716 323.628 112.877 324.478 113.199 325.171C113.526 325.86 113.969 326.383 114.529 326.742C115.089 327.096 115.725 327.274 116.438 327.274C117.147 327.274 117.781 327.096 118.341 326.742C118.905 326.383 119.348 325.86 119.671 325.171C119.997 324.478 120.16 323.628 120.16 322.621ZM124.079 328.808V319.528H125.825V321.002H125.922C126.091 320.502 126.389 320.11 126.816 319.824C127.247 319.534 127.734 319.389 128.278 319.389C128.391 319.389 128.524 319.393 128.677 319.401C128.834 319.409 128.957 319.419 129.045 319.431V321.159C128.973 321.139 128.844 321.117 128.659 321.093C128.473 321.064 128.288 321.05 128.103 321.05C127.676 321.05 127.295 321.141 126.961 321.322C126.631 321.499 126.369 321.747 126.175 322.065C125.982 322.38 125.885 322.738 125.885 323.141V328.808H124.079ZM134.055 332.482C133.318 332.482 132.683 332.385 132.152 332.192C131.624 331.999 131.193 331.743 130.859 331.425C130.524 331.106 130.275 330.758 130.109 330.379L131.662 329.739C131.771 329.916 131.916 330.103 132.097 330.301C132.283 330.502 132.532 330.673 132.846 330.814C133.165 330.955 133.574 331.026 134.073 331.026C134.758 331.026 135.324 330.859 135.771 330.524C136.218 330.194 136.442 329.666 136.442 328.941V327.117H136.327C136.218 327.314 136.061 327.533 135.855 327.775C135.654 328.017 135.376 328.226 135.022 328.404C134.667 328.581 134.206 328.669 133.638 328.669C132.905 328.669 132.244 328.498 131.656 328.156C131.072 327.809 130.609 327.3 130.266 326.627C129.928 325.95 129.759 325.119 129.759 324.132C129.759 323.145 129.926 322.299 130.26 321.594C130.599 320.889 131.062 320.349 131.65 319.975C132.238 319.596 132.905 319.407 133.65 319.407C134.226 319.407 134.691 319.503 135.046 319.697C135.4 319.886 135.676 320.108 135.874 320.361C136.075 320.615 136.23 320.839 136.339 321.032H136.472V319.528H138.242V329.014C138.242 329.811 138.057 330.466 137.686 330.977C137.316 331.489 136.814 331.868 136.182 332.113C135.553 332.359 134.844 332.482 134.055 332.482ZM134.037 327.171C134.556 327.171 134.995 327.05 135.354 326.808C135.716 326.563 135.99 326.212 136.176 325.757C136.365 325.298 136.46 324.748 136.46 324.108C136.46 323.483 136.367 322.933 136.182 322.458C135.996 321.983 135.725 321.612 135.366 321.346C135.008 321.076 134.564 320.941 134.037 320.941C133.493 320.941 133.04 321.082 132.677 321.364C132.315 321.642 132.041 322.021 131.856 322.5C131.674 322.98 131.584 323.515 131.584 324.108C131.584 324.716 131.676 325.25 131.862 325.709C132.047 326.168 132.321 326.526 132.683 326.784C133.05 327.042 133.501 327.171 134.037 327.171ZM146.02 322.796V324.361H140.534V322.796H146.02ZM152.433 328.978C151.603 328.978 150.862 328.835 150.21 328.549C149.561 328.263 149.047 327.866 148.669 327.358C148.294 326.847 148.093 326.255 148.065 325.582H149.962C149.986 325.948 150.109 326.267 150.33 326.537C150.556 326.802 150.85 327.008 151.213 327.153C151.575 327.298 151.978 327.37 152.421 327.37C152.908 327.37 153.339 327.286 153.714 327.117C154.093 326.947 154.389 326.712 154.602 326.41C154.816 326.103 154.922 325.751 154.922 325.352C154.922 324.937 154.816 324.573 154.602 324.259C154.393 323.94 154.085 323.691 153.678 323.509C153.275 323.328 152.788 323.237 152.216 323.237H151.17V321.715H152.216C152.675 321.715 153.078 321.632 153.424 321.467C153.774 321.302 154.048 321.072 154.246 320.778C154.443 320.48 154.542 320.132 154.542 319.733C154.542 319.35 154.455 319.018 154.282 318.736C154.113 318.45 153.871 318.227 153.557 318.065C153.247 317.904 152.88 317.824 152.457 317.824C152.054 317.824 151.678 317.898 151.327 318.047C150.981 318.192 150.699 318.402 150.481 318.676C150.264 318.946 150.147 319.27 150.131 319.648H148.324C148.345 318.98 148.542 318.392 148.917 317.884C149.295 317.377 149.795 316.98 150.415 316.694C151.035 316.408 151.724 316.265 152.481 316.265C153.275 316.265 153.96 316.42 154.536 316.73C155.116 317.036 155.563 317.445 155.877 317.957C156.195 318.468 156.352 319.028 156.348 319.636C156.352 320.329 156.159 320.917 155.768 321.401C155.382 321.884 154.866 322.208 154.222 322.373V322.47C155.043 322.595 155.68 322.921 156.131 323.449C156.586 323.977 156.812 324.631 156.808 325.413C156.812 326.093 156.622 326.704 156.24 327.243C155.861 327.783 155.343 328.208 154.687 328.518C154.03 328.824 153.279 328.978 152.433 328.978Z" fill="#B095FF"/>
</g>
<defs>
<radialGradient id="paint0_radial_469_6349" cx="0" cy="0" r="1" gradientUnits="userSpaceOnUse" gradientTransform="translate(45.9523 122.1) rotate(-89.9555) scale(22.9421)">
<stop offset="0.220303"/>
<stop offset="0.995966" stop-opacity="0"/>
</radialGradient>
<linearGradient id="paint1_linear_469_6349" x1="-29.3867" y1="30.9712" x2="254.68" y2="71.0477" gradientUnits="userSpaceOnUse">
<stop stop-color="#1A1A1A"/>
<stop offset="1" stop-color="#1A1A1A" stop-opacity="0"/>
</linearGradient>
<clipPath id="clip0_469_6349">
<rect width="569.247" height="369.205" fill="white" transform="translate(-30.7305 0.101318)"/>
</clipPath>
</defs>
</svg>
