<svg width="200" height="39" viewBox="0 0 200 39" fill="none" xmlns="http://www.w3.org/2000/svg">
<path d="M0.895556 25.6056C0.441311 25.6056 0.262004 25.2111 0.357634 24.4221L0.895556 21.3739C0.967279 21.0631 1.05096 20.6806 1.14659 20.2264C1.26612 19.7482 1.38566 19.1983 1.5052 18.5767C1.55302 18.0269 1.63669 17.3216 1.75623 16.4609C1.87577 15.5763 2.01922 14.5124 2.18657 13.2692L2.76035 9.86239C2.87989 9.45596 3.02334 8.92999 3.19069 8.28448C3.35804 7.61507 3.54931 6.83807 3.76447 5.95349C3.90792 5.23626 4.1709 4.98523 4.55343 5.2004L4.37412 3.83766C4.25458 3.40732 4.15895 3.01285 4.08723 2.65423C4.0155 2.27171 3.95573 1.92505 3.90792 1.61425C3.88401 1.54253 3.87206 1.41104 3.87206 1.21978C3.87206 0.645991 4.06332 0.359099 4.44584 0.359099C4.6371 0.359099 4.78055 0.514498 4.87618 0.825298C4.97181 1.1361 5.06744 1.49471 5.16307 1.90114C5.2587 2.28367 5.35433 2.714 5.44996 3.19215C5.59341 3.86157 5.70099 4.66248 5.77272 5.59487C5.82053 6.14475 5.85639 6.599 5.8803 6.95761C5.92812 7.31622 5.96398 7.59116 5.98789 7.78242C6.10742 8.61919 6.21501 9.32447 6.31064 9.89825C6.40627 10.4481 6.5019 10.8785 6.59753 11.1893C6.90833 12.3368 7.45821 13.341 8.24716 14.2016L8.78508 14.883C9.93265 13.592 10.7933 12.5879 11.3671 11.8706C11.6301 11.5598 11.9409 11.1654 12.2995 10.6872C12.682 10.1851 13.1363 9.58745 13.6622 8.89413C13.9491 8.43988 14.5349 7.30427 15.4195 5.48729L15.4553 5.45143C15.5031 5.45143 15.6107 5.23626 15.7781 4.80592C15.9693 4.25605 16.1606 3.88548 16.3519 3.69422L16.2443 3.65835C16.5072 3.46709 16.7224 3.37146 16.8898 3.37146C17.1767 3.37146 17.4994 3.81376 17.858 4.69834C18.0254 5.05695 18.1091 5.48729 18.1091 5.98935C18.1091 6.1567 18.0852 6.35992 18.0373 6.599C18.0134 6.83807 17.9776 7.10106 17.9298 7.38795C17.8819 7.67484 17.8341 7.91392 17.7863 8.10518C17.7624 8.29644 17.7504 8.43988 17.7504 8.53551V8.57138C17.7504 8.90608 17.7265 9.45596 17.6787 10.221C17.6309 10.986 17.5592 11.9663 17.4636 13.1616C17.4157 13.3768 17.356 13.9028 17.2842 14.7395C17.2125 15.5763 17.1408 16.7239 17.0691 18.1823C17.0452 18.6365 17.0213 19.0549 16.9974 19.4374C16.9974 19.796 16.9974 20.1307 16.9974 20.4415C16.9974 20.7523 16.9974 21.0153 16.9974 21.2305C17.0213 21.4456 17.0452 21.625 17.0691 21.7684L17.3201 23.2746C17.344 23.3463 17.356 23.4419 17.356 23.5615C17.356 24.0396 17.093 24.2787 16.567 24.2787C16.3758 24.2787 16.2562 24.207 16.2084 24.0635C16.1606 23.8723 16.1128 23.6332 16.065 23.3463C16.0171 23.0594 15.9693 22.7127 15.9215 22.3063C15.8498 20.824 15.8139 19.6884 15.8139 18.8995C15.8139 18.517 15.8498 17.8356 15.9215 16.8554C15.9932 15.8752 16.1247 14.5961 16.316 13.0182C16.3399 12.5879 16.3638 12.0141 16.3877 11.2968C16.4355 10.5557 16.4953 9.67113 16.567 8.6431L16.8539 5.6666C16.83 5.61878 16.8061 5.58292 16.7822 5.55901C16.7583 5.53511 16.7344 5.5112 16.7105 5.48729C16.6626 5.48729 16.5551 5.822 16.3877 6.49141H16.3519C16.0411 7.0891 15.7183 7.68679 15.3836 8.28448C15.0728 8.85827 14.75 9.43205 14.4153 10.0058C13.8655 10.9382 13.0645 12.0021 12.0126 13.1975L10.363 15.2416C9.59794 16.1501 9.07197 16.6043 8.78508 16.6043C8.49819 16.6043 8.2352 16.4848 7.99613 16.2457L7.52993 15.7795L7.38648 15.6002C6.64535 14.6917 6.05961 13.6757 5.62927 12.552C5.53364 12.2651 5.43801 11.9543 5.34238 11.6196C5.27066 11.261 5.21089 10.8904 5.16307 10.5079C5.06744 9.79067 4.97181 9.07344 4.87618 8.35621C4.78055 7.61507 4.73273 7.18473 4.73273 7.06519C4.6371 7.37599 4.52952 7.79438 4.40998 8.32035C4.31435 8.84631 4.18286 9.46791 4.0155 10.1851C3.94378 10.6155 3.8362 11.1654 3.69275 11.8348C3.62103 12.1456 3.56126 12.4444 3.51344 12.7313C3.46563 12.9943 3.41781 13.2214 3.37 13.4127H3.29827C3.25046 13.9626 3.16678 14.6917 3.04724 15.6002C2.95161 16.5087 2.82012 17.5965 2.65277 18.8636C2.58105 19.1744 2.48541 19.5689 2.36588 20.047C2.27025 20.5252 2.16266 21.099 2.04312 21.7684C1.94749 22.3661 1.76819 23.3702 1.5052 24.7808H1.46934C1.39762 25.3306 1.20636 25.6056 0.895556 25.6056ZM26.014 24.9959C25.2489 24.9959 24.6034 24.6971 24.0774 24.0994C23.5993 23.5495 23.3602 22.9279 23.3602 22.2346C23.3602 20.9436 23.9459 19.5689 25.1174 18.1105C25.5956 17.4889 26.1096 16.9391 26.6595 16.4609C27.2093 15.9827 27.7831 15.5524 28.3808 15.1699C28.5003 15.0982 28.6677 15.0623 28.8829 15.0623C29.5762 15.0623 29.9229 15.2297 29.9229 15.5644C29.9229 15.66 29.8511 15.7676 29.7077 15.8871V15.923C30.0663 16.425 30.4249 16.951 30.7835 17.5009C31.1421 18.0508 31.3215 18.6963 31.3215 19.4374C31.3215 20.059 31.1541 20.6926 30.8194 21.3381C30.5086 21.9836 30.0783 22.5932 29.5284 23.167C29.0024 23.7169 28.4286 24.1592 27.807 24.4939C27.1854 24.8286 26.5877 24.9959 26.014 24.9959ZM26.0498 23.8842C26.6475 23.8603 27.2811 23.6212 27.9505 23.167C28.6199 22.6888 29.1937 22.1151 29.6718 21.4456C30.1739 20.7762 30.4369 20.1427 30.4608 19.545C30.5086 18.6126 30.0304 17.5607 29.0263 16.3892C27.9983 17.1303 27.0898 18.0029 26.3008 19.0071C25.3684 20.2264 24.9022 21.3261 24.9022 22.3063C24.9022 23.3583 25.2848 23.8842 26.0498 23.8842ZM39.8455 24.9959C39.0805 24.9959 38.435 24.6971 37.909 24.0994C37.4308 23.5495 37.1918 22.9279 37.1918 22.2346C37.1918 20.9436 37.7775 19.5689 38.949 18.1105C39.4271 17.4889 39.9411 16.9391 40.491 16.4609C41.0409 15.9827 41.6147 15.5524 42.2124 15.1699C42.3319 15.0982 42.4993 15.0623 42.7144 15.0623C43.4077 15.0623 43.7544 15.2297 43.7544 15.5644C43.7544 15.66 43.6827 15.7676 43.5392 15.8871V15.923C43.8979 16.425 44.2565 16.951 44.6151 17.5009C44.9737 18.0508 45.153 18.6963 45.153 19.4374C45.153 20.059 44.9857 20.6926 44.6509 21.3381C44.3401 21.9836 43.9098 22.5932 43.3599 23.167C42.834 23.7169 42.2602 24.1592 41.6386 24.4939C41.017 24.8286 40.4193 24.9959 39.8455 24.9959ZM39.8814 23.8842C40.4791 23.8603 41.1126 23.6212 41.782 23.167C42.4514 22.6888 43.0252 22.1151 43.5034 21.4456C44.0054 20.7762 44.2684 20.1427 44.2923 19.545C44.3401 18.6126 43.862 17.5607 42.8579 16.3892C41.8298 17.1303 40.9214 18.0029 40.1324 19.0071C39.2 20.2264 38.7338 21.3261 38.7338 22.3063C38.7338 23.3583 39.1163 23.8842 39.8814 23.8842ZM51.7047 24.207C51.3461 24.207 51.2146 23.8842 51.3102 23.2387C51.3819 22.402 51.5015 21.3739 51.6688 20.1546C51.8601 18.9114 52.0872 17.477 52.3502 15.8513C52.4697 15.4926 52.661 15.3133 52.924 15.3133C53.2587 15.3133 53.426 15.4687 53.426 15.7795C53.426 15.8034 53.426 15.8513 53.426 15.923C53.426 15.9708 53.4141 16.0306 53.3902 16.1023C53.3424 16.3175 53.2945 16.5565 53.2467 16.8195C53.2228 17.0586 53.2109 17.3216 53.2109 17.6085C53.2109 17.9432 53.2228 18.3018 53.2467 18.6843C53.2945 19.0668 53.3663 19.4733 53.4619 19.9036C53.6053 19.9036 54.1911 19.3896 55.2191 18.3616C56.2471 17.3813 57.0839 16.7956 57.7294 16.6043V16.5685C57.8011 16.5446 57.8729 16.5326 57.9446 16.5326C58.0163 16.5326 58.0761 16.5326 58.1239 16.5326C58.5781 16.5326 58.877 16.7478 59.0204 17.1781L59.5225 20.5132C59.7377 21.9716 60.1321 22.7008 60.7059 22.7008C60.945 22.7008 61.1841 22.6171 61.4231 22.4498C61.7579 22.2107 62.0806 21.9597 62.3914 21.6967C62.7022 21.4098 62.9771 21.1109 63.2162 20.8001C63.3597 20.7523 63.4553 20.7284 63.5031 20.7284C63.6705 20.7284 63.7541 20.836 63.7541 21.0512C63.7541 21.1946 63.6585 21.3859 63.4672 21.625C63.1564 22.0075 62.8337 22.402 62.499 22.8084C62.1643 23.1909 61.8296 23.4897 61.4949 23.7049C61.0406 23.9679 60.6581 24.0994 60.3473 24.0994C59.7018 24.0994 59.2117 23.5734 58.877 22.5215L58.2673 19.6167C58.0522 18.6365 57.7772 18.1942 57.4425 18.2898C57.4186 18.2898 57.3828 18.2898 57.3349 18.2898C57.311 18.2659 57.2752 18.254 57.2274 18.254C57.1317 18.254 57.0122 18.2779 56.8687 18.3257C56.7492 18.3735 56.6297 18.4572 56.5101 18.5767L55.6494 19.4733C54.9083 20.2383 54.2867 20.9794 53.7847 21.6967C53.2826 22.4139 52.8762 23.0833 52.5654 23.7049C52.3741 24.0396 52.0872 24.207 51.7047 24.207ZM70.3061 26.8966C69.4932 26.9205 68.8477 26.3348 68.3696 25.1394C67.9153 23.944 67.6882 22.1509 67.6882 19.7602C67.6882 18.3974 67.7958 16.8793 68.011 15.2057C68.25 13.5083 68.5967 11.6435 69.051 9.61136C70.2224 4.20823 71.633 1.50667 73.2826 1.50667C73.9281 1.50667 74.3943 2.0924 74.6812 3.26388C74.8964 4.14846 74.9681 4.94937 74.8964 5.6666C74.6573 7.98564 73.2826 11.1654 70.7723 15.2057C70.6049 15.397 70.4017 15.648 70.1627 15.9588C69.9475 16.2696 69.6845 16.6402 69.3737 17.0705C69.3259 17.6204 69.2781 18.1583 69.2303 18.6843C69.2064 19.2103 69.1944 19.7123 69.1944 20.1905C69.1944 21.0512 69.2661 21.9358 69.4096 22.8442C69.6725 24.2548 70.067 24.9601 70.593 24.9601C71.0951 24.9601 71.5971 24.6373 72.0992 23.9918L73.1392 22.3063C73.2587 22.1151 73.4141 22.0194 73.6054 22.0194C73.8444 22.0194 73.964 22.139 73.964 22.378C73.964 22.4259 73.952 22.4737 73.9281 22.5215C73.9281 22.5693 73.9162 22.6171 73.8922 22.6649C73.6293 23.2626 73.3902 23.7766 73.175 24.207C72.9838 24.6134 72.8045 24.9362 72.6371 25.1752C71.896 26.3228 71.119 26.8966 70.3061 26.8966ZM73.2467 3.29974C71.5971 4.01697 70.3659 7.96173 69.553 15.134C69.6247 15.0623 69.7323 14.9189 69.8758 14.7037C72.5295 10.9263 73.8564 7.91392 73.8564 5.6666C73.8564 5.49924 73.8444 5.31994 73.8205 5.12867C73.7966 4.91351 73.7608 4.67443 73.7129 4.41145C73.5695 3.76594 73.4141 3.39537 73.2467 3.29974ZM80.7672 12.5879C80.4086 12.5879 80.2413 12.3727 80.2652 11.9424L80.6238 10.5796C80.6955 10.3166 80.8629 10.1851 81.1259 10.1851C81.6757 10.1851 81.9029 10.4123 81.8072 10.8665C81.7833 11.2012 81.6996 11.5718 81.5562 11.9782C81.4127 12.3846 81.1498 12.5879 80.7672 12.5879ZM79.5121 23.8842C79.2969 23.8842 79.1535 23.7886 79.0818 23.5973C78.9861 23.3343 78.9264 23.0116 78.9024 22.6291C78.8785 22.2466 78.8785 21.8162 78.9024 21.3381C78.9503 20.7882 79.0818 20.0949 79.2969 19.2581C79.536 18.4213 79.8588 17.4531 80.2652 16.3533C80.3608 16.1142 80.5282 15.9947 80.7672 15.9947C81.2215 15.9947 81.3769 16.1979 81.2334 16.6043C81.1378 16.9151 81.0541 17.2259 80.9824 17.5367C80.9107 17.8475 80.839 18.1583 80.7672 18.4691C80.6477 19.019 80.5521 19.5091 80.4804 19.9395C80.4086 20.3698 80.3728 20.7523 80.3728 21.087C80.3728 22.2585 80.3847 22.8681 80.4086 22.916C80.4804 23.155 80.4086 23.3822 80.1935 23.5973C79.9783 23.7886 79.7512 23.8842 79.5121 23.8842ZM87.8611 38.5516C86.331 38.5516 85.5659 37.4518 85.5659 35.2523C85.5659 33.8896 86.0441 32.4073 87.0004 30.8055C87.4068 30.1361 87.8491 29.4906 88.3273 28.869C88.8054 28.2474 89.3433 27.6616 89.941 27.1118L93.8141 23.3822C93.838 22.8801 93.8499 22.4737 93.8499 22.1629C93.8738 21.8282 93.8858 21.5771 93.8858 21.4098C93.5989 21.7445 93.0371 22.1151 92.2003 22.5215C91.2679 22.9757 90.4192 23.2029 89.6541 23.2029C89.1282 23.2029 88.7098 23.0116 88.399 22.6291C88.1121 22.2226 87.9686 21.7445 87.9686 21.1946C87.9686 20.3818 88.1719 19.5569 88.5783 18.7202C89.0086 17.8834 89.6063 17.0227 90.3714 16.1381C91.8775 14.369 93.3837 13.4844 94.8899 13.4844C95.2485 13.4844 95.4278 13.6757 95.4278 14.0582C95.4278 14.4407 95.2485 14.632 94.8899 14.632C93.6706 14.632 92.523 15.1818 91.4472 16.2816C90.4909 17.2618 89.7498 18.4811 89.2238 19.9395C89.1282 20.1546 89.0803 20.3937 89.0803 20.6567C89.0803 21.5413 89.439 21.9836 90.1562 21.9836C90.3474 21.9836 90.5268 21.9477 90.6941 21.876C93.0132 21.1588 94.4476 19.27 94.9975 16.2099C95.0692 15.8752 95.2724 15.7078 95.6071 15.7078C95.9179 15.7078 96.0733 15.8393 96.0733 16.1023C96.0733 16.1501 96.0614 16.2099 96.0375 16.2816C96.0375 16.3294 96.0255 16.3892 96.0016 16.4609C95.9299 16.7 95.8462 17.0586 95.7506 17.5367C95.6789 18.0149 95.6071 18.517 95.5354 19.0429C95.4637 19.5689 95.4039 20.047 95.3561 20.4774C95.3083 20.8838 95.2844 21.1588 95.2844 21.3022C95.2844 21.5891 95.4039 21.7325 95.643 21.7325C95.7864 21.7325 95.906 21.6847 96.0016 21.5891C96.2168 21.4696 96.5634 21.2424 97.0416 20.9077C97.2807 20.7404 97.4839 20.6567 97.6512 20.6567C97.8425 20.6567 97.9381 20.8001 97.9381 21.087C97.9381 21.35 97.8186 21.5293 97.5795 21.625C97.2448 21.7923 96.8623 22.0314 96.4319 22.3422C96.0255 22.6291 95.5832 22.9757 95.1051 23.3822C94.9855 24.6254 94.866 25.7012 94.7465 26.6097C94.6508 27.5182 94.5432 28.2832 94.4237 28.9048C93.9934 31.3673 93.312 33.4353 92.3796 35.1089C91.1364 37.404 89.6302 38.5516 87.8611 38.5516ZM87.5742 37.404C90.73 37.404 92.7143 33.6983 93.5272 26.2869C93.5272 26.2152 93.5272 26.1435 93.5272 26.0718C93.5511 26.0001 93.563 25.9403 93.563 25.8925C93.563 25.4382 93.4554 25.2111 93.2403 25.2111C93.0729 25.2111 92.8458 25.3545 92.5589 25.6414C92.3198 25.8805 92.0688 26.1076 91.8058 26.3228C91.5667 26.538 91.244 26.8368 90.8376 27.2193C89.6661 28.3191 88.662 29.5742 87.8252 30.9848C86.7972 32.6105 86.2831 34.045 86.2831 35.2882C86.2831 36.6987 86.7135 37.404 87.5742 37.404ZM103.826 24.7449C103.228 24.7449 102.893 24.47 102.822 23.9201C102.774 23.5854 102.738 23.2268 102.714 22.8442C102.69 22.4378 102.678 22.0075 102.678 21.5532C102.678 19.8558 102.798 18.0029 103.037 15.9947C103.3 13.9626 103.67 11.775 104.149 9.43205C104.459 8.0215 104.698 6.88589 104.866 6.02521C105.057 5.16454 105.189 4.60271 105.26 4.33972C105.738 2.57056 106.312 1.36322 106.982 0.717713C107.269 0.430822 107.603 0.287377 107.986 0.287377C108.56 0.287377 109.074 0.598176 109.528 1.21978C109.982 1.84137 110.209 2.64228 110.209 3.62249C110.209 4.268 110.102 4.93741 109.886 5.63074C109.719 6.1328 109.42 6.7544 108.99 7.49553C108.583 8.21276 108.034 9.06148 107.34 10.0417C105.93 12.0021 105.153 13.2453 105.009 13.7713L104.507 15.8871C104.412 16.3175 104.34 16.7358 104.292 17.1423C104.268 17.5487 104.256 17.9432 104.256 18.3257C104.256 18.493 104.256 18.6604 104.256 18.8278C104.256 18.9712 104.268 19.1266 104.292 19.294C104.364 19.9395 104.555 20.2622 104.866 20.2622C105.057 20.2622 105.248 20.1785 105.44 20.0112L107.304 18.4691C108.285 17.6802 108.918 17.2857 109.205 17.2857C109.707 17.2857 109.958 17.7758 109.958 18.756C109.958 21.0512 110.365 22.2466 111.177 22.3422C111.273 22.3661 111.369 22.378 111.464 22.378C111.56 22.378 111.656 22.378 111.751 22.378C112.994 22.378 113.915 21.9836 114.513 21.1946C114.656 21.0273 114.787 20.9436 114.907 20.9436C115.05 20.9436 115.122 21.0631 115.122 21.3022C115.122 21.4696 115.05 21.6489 114.907 21.8401C114.62 22.1748 114.058 22.6052 113.222 23.1311C112.265 23.7049 111.488 23.9918 110.891 23.9918C110.675 23.9918 110.496 23.9559 110.353 23.8842H110.281C109.803 23.5973 109.42 22.8323 109.133 21.5891C108.894 20.4893 108.548 19.9753 108.093 20.047C107.161 20.4296 106.444 21.0034 105.942 21.7684C105.703 22.1031 105.344 22.8442 104.866 23.9918C104.651 24.4939 104.304 24.7449 103.826 24.7449ZM106.049 5.52315L105.547 10.6872C106.073 10.2808 106.527 9.83848 106.91 9.36033C107.316 8.85827 107.675 8.34425 107.986 7.81829C108.153 7.50749 108.332 7.11301 108.524 6.63486C108.739 6.1567 108.966 5.58292 109.205 4.91351C109.348 4.55489 109.42 4.17237 109.42 3.76594C109.42 3.09653 109.241 2.52274 108.882 2.04459C108.524 1.56644 108.153 1.38713 107.771 1.50667C107.029 1.74574 106.456 3.08457 106.049 5.52315ZM121.367 26.6097C120.769 26.6097 120.47 26.2511 120.47 25.5339C120.47 21.9716 120.721 18.1823 121.223 14.1658C120.984 14.118 120.733 14.0821 120.47 14.0582C120.231 14.0104 119.992 13.9626 119.753 13.9147C119.083 13.8191 118.749 13.6278 118.749 13.341C118.749 13.0541 118.892 12.8748 119.179 12.803H119.143C118.928 12.803 118.964 12.7911 119.251 12.7672C119.538 12.7194 119.908 12.6715 120.362 12.6237C120.817 12.5759 121.175 12.552 121.438 12.552C121.582 11.7152 121.869 10.7231 122.299 9.5755C122.538 8.88218 122.729 8.28448 122.873 7.78242C123.04 7.25646 123.172 6.83807 123.267 6.52727C123.387 6.04912 123.698 5.81004 124.2 5.81004C124.415 5.81004 124.498 5.91763 124.451 6.1328C124.259 6.80221 124.02 7.67484 123.733 8.75068C123.446 9.80262 123.136 11.0578 122.801 12.5161C123.016 12.5161 123.279 12.5161 123.59 12.5161C123.925 12.5161 124.307 12.5281 124.737 12.552C125.168 12.5759 125.538 12.5998 125.849 12.6237C126.184 12.6237 126.447 12.6237 126.638 12.6237C126.853 12.6237 126.961 12.7074 126.961 12.8748C126.961 13.0182 126.865 13.1736 126.674 13.341C126.507 13.5083 126.315 13.592 126.1 13.592C125.813 13.592 125.383 13.6398 124.809 13.7354C124.235 13.8072 123.506 13.9267 122.622 14.094C122.263 17.0347 122.084 21.0273 122.084 26.0718C122.084 26.4304 121.845 26.6097 121.367 26.6097ZM142.716 25.3545C142.501 25.3545 142.369 25.2231 142.321 24.9601L140.994 21.2305C140.851 20.9197 140.672 20.4893 140.457 19.9395C140.241 19.3896 139.978 18.7202 139.668 17.9312C139.548 17.5965 139.428 17.214 139.309 16.7837C139.189 16.3533 139.082 15.8752 138.986 15.3492C138.867 14.7993 138.747 14.3929 138.628 14.1299C138.532 13.843 138.448 13.592 138.377 13.3768C138.305 13.1616 138.185 12.7791 138.018 12.2292C137.851 11.6794 137.659 11.0697 137.444 10.4003C137.229 9.70699 137.014 9.06148 136.799 8.46379C136.607 7.84219 136.452 7.37599 136.332 7.06519L135.436 4.77006C135.34 5.17649 135.269 5.57097 135.221 5.95349C135.173 6.3121 135.125 6.64681 135.077 6.95761C135.053 7.34013 135.006 7.83024 134.934 8.42793C134.862 9.00171 134.778 9.69504 134.683 10.5079C134.683 10.5079 134.659 10.7589 134.611 11.261C134.563 11.7391 134.504 12.3129 134.432 12.9823C134.384 13.6278 134.336 14.2255 134.288 14.7754C134.241 15.3014 134.205 15.6361 134.181 15.7795C134.133 16.1142 134.073 16.5087 134.001 16.963C133.954 17.3933 133.894 17.9551 133.822 18.6484C133.774 19.3418 133.703 20.2622 133.607 21.4098L133.177 23.9559C133.153 24.6015 132.938 24.9242 132.531 24.9242C132.077 24.9242 131.898 24.5656 131.993 23.8484C132.041 23.5854 132.101 23.2507 132.173 22.8442C132.244 22.4139 132.304 21.9238 132.352 21.3739C132.495 19.9156 132.615 18.7441 132.71 17.8595C132.806 16.9749 132.878 16.2457 132.926 15.6719C132.997 15.0982 133.057 14.5483 133.105 14.0223L133.464 10.472C133.511 10.0895 133.571 9.5994 133.643 9.00171C133.738 8.40402 133.846 7.69875 133.966 6.88589C134.085 6.24038 134.229 5.23626 134.396 3.87352L134.575 2.36734C134.647 1.81746 134.874 1.54253 135.257 1.54253C135.472 1.54253 135.639 1.67402 135.759 1.937L136.332 3.29974C136.356 3.32365 136.452 3.57468 136.619 4.05283C136.811 4.53098 137.062 5.22431 137.372 6.1328L138.699 9.96997C138.819 10.3047 138.926 10.6274 139.022 10.9382C139.118 11.2251 139.249 11.6435 139.417 12.1934C139.632 12.8628 139.823 13.5561 139.99 14.2734C140.182 14.9667 140.409 15.8393 140.672 16.8912C140.815 17.2259 140.994 17.6802 141.21 18.254C141.449 18.8278 141.724 19.5211 142.034 20.3339C142.082 20.4535 142.154 20.6328 142.25 20.8719C142.345 21.1109 142.453 21.4098 142.572 21.7684C142.859 20.1427 143.003 19.1386 143.003 18.756C143.122 18.2062 143.266 17.5009 143.433 16.6402C143.6 15.7556 143.744 14.7037 143.863 13.4844L144.258 9.7548C144.353 9.27665 144.449 8.66701 144.545 7.92587C144.664 7.18473 144.808 6.30015 144.975 5.27212C145.023 4.93741 145.071 4.56685 145.119 4.16041C145.166 3.75399 145.202 3.44319 145.226 3.22802C145.274 2.60642 145.501 2.29562 145.907 2.29562C146.314 2.29562 146.505 2.63033 146.481 3.29974C146.457 3.46709 146.421 3.69422 146.374 3.98111C146.35 4.268 146.302 4.62661 146.23 5.05695C146.135 5.77418 146.087 6.1328 146.087 6.1328C145.991 6.4675 145.884 6.95761 145.764 7.60312C145.668 8.22471 145.561 8.98976 145.441 9.89825L145.011 13.5203C144.987 13.8072 144.927 14.2255 144.832 14.7754C144.736 15.3014 144.64 15.8632 144.545 16.4609C144.473 17.0586 144.401 17.5846 144.33 18.0388C144.258 18.493 144.222 18.7799 144.222 18.8995C144.222 19.2103 144.15 19.7123 144.007 20.4057C143.863 21.0751 143.744 21.7086 143.648 22.3063C143.624 22.5454 143.588 22.8562 143.541 23.2387C143.493 23.5973 143.445 24.0277 143.397 24.5297C143.349 25.0796 143.122 25.3545 142.716 25.3545ZM156.55 25.2111C155.498 25.2111 154.638 24.8883 153.968 24.2428C153.323 23.5973 153 22.7247 153 21.625C153 21.3859 153.012 21.1468 153.036 20.9077C153.084 20.6686 153.131 20.4296 153.179 20.1905C153.442 19.1625 154.171 18.0627 155.367 16.8912C156.706 15.6241 157.865 14.9906 158.845 14.9906C159.658 14.9906 160.041 15.4448 159.993 16.3533C159.969 17.5248 159.323 18.6724 158.056 19.796C157.506 20.2503 156.933 20.6686 156.335 21.0512C155.761 21.4337 155.152 21.625 154.506 21.625H154.47C154.542 23.1789 155.343 23.9559 156.873 23.9559C157.375 23.9559 157.937 23.8364 158.558 23.5973C158.606 23.5734 158.678 23.5615 158.774 23.5615C159.084 23.5615 159.24 23.7169 159.24 24.0277C159.24 24.2428 159.132 24.4102 158.917 24.5297C158.248 24.984 157.459 25.2111 156.55 25.2111ZM155.438 19.9395C156.18 19.7721 156.813 19.4613 157.339 19.0071C158.272 18.2181 158.738 17.465 158.738 16.7478V16.6761C158.738 16.5087 158.678 16.3772 158.558 16.2816C158.439 16.186 158.355 16.1621 158.307 16.2099C157.566 16.2099 156.777 16.7478 155.941 17.8236C155.821 17.991 155.678 18.2181 155.51 18.505C155.343 18.768 155.164 19.0907 154.972 19.4733C154.948 19.5211 154.936 19.5689 154.936 19.6167C154.936 19.8319 155.104 19.9395 155.438 19.9395ZM165.741 23.8125C165.549 23.8125 165.454 23.693 165.454 23.4539C165.454 23.1909 165.573 22.9399 165.812 22.7008C166.147 22.2705 166.53 21.7923 166.96 21.2663C167.39 20.7165 167.869 20.1068 168.394 19.4374C168.466 19.3896 168.55 19.3298 168.646 19.2581C168.741 19.1864 168.837 19.1266 168.932 19.0788C168.885 18.9832 168.765 18.8278 168.574 18.6126C168.383 18.3974 168.132 18.1225 167.821 17.7878C167.438 17.5009 166.9 17.1423 166.207 16.7119C166.04 16.5685 165.956 16.4011 165.956 16.2099C165.956 15.7795 166.135 15.5644 166.494 15.5644C166.542 15.5644 166.613 15.5883 166.709 15.6361L168.43 16.8912C169.052 17.4172 169.482 17.8834 169.721 18.2898C169.841 18.2181 169.96 18.1344 170.08 18.0388C170.2 17.9193 170.319 17.7758 170.439 17.6085C170.773 17.2977 171.096 16.9391 171.407 16.5326C171.742 16.1262 172.076 15.6719 172.411 15.1699C172.602 14.9069 172.782 14.7754 172.949 14.7754C173.331 14.7754 173.523 15.0862 173.523 15.7078C173.523 15.923 173.475 16.0784 173.379 16.174C172.805 16.5565 171.993 17.2857 170.941 18.3616C170.917 18.3855 170.857 18.4691 170.761 18.6126C170.69 18.7321 170.558 18.8875 170.367 19.0788C170.439 19.2461 170.534 19.4494 170.654 19.6884C170.797 19.9036 170.953 20.1785 171.12 20.5132C171.287 20.7762 171.455 21.0153 171.622 21.2305C171.813 21.4456 171.993 21.6489 172.16 21.8401L172.949 22.6291C173.021 22.7008 173.056 22.8084 173.056 22.9518C173.056 23.1192 172.973 23.2865 172.805 23.4539C172.662 23.6212 172.507 23.7049 172.339 23.7049C172.22 23.7049 172.124 23.6691 172.052 23.5973L170.51 21.625C170.391 21.4098 170.235 21.1588 170.044 20.8719C169.877 20.5611 169.674 20.2144 169.434 19.8319C169.315 19.9036 169.076 20.1427 168.717 20.5491C168.359 20.9316 167.976 21.362 167.57 21.8401C167.163 22.3183 166.805 22.7367 166.494 23.0953C166.207 23.4539 166.063 23.6571 166.063 23.7049C165.968 23.7766 165.86 23.8125 165.741 23.8125ZM186.685 24.458C186.16 24.4819 185.753 24.1711 185.466 23.5256C185.418 23.4061 185.359 23.2029 185.287 22.916C185.215 22.6291 185.12 22.2585 185 21.8043C184.904 21.2066 184.749 20.9675 184.534 21.087C184.151 21.6847 183.601 22.3422 182.884 23.0594C181.976 23.9679 181.294 24.4221 180.84 24.4221C180.338 24.4221 179.908 24.0396 179.549 23.2746C179.238 22.6769 179.083 22.1031 179.083 21.5532C179.083 19.7123 179.322 18.0986 179.8 16.7119C179.92 16.425 180.099 16.2816 180.338 16.2816C180.553 16.2816 180.756 16.3892 180.948 16.6043C181.139 16.8195 181.235 17.0586 181.235 17.3216C181.235 17.465 181.139 17.7519 180.948 18.1823C180.493 19.0668 180.266 20.059 180.266 21.1588C180.266 22.3541 180.493 22.9518 180.948 22.9518C181.163 22.9518 181.689 22.6052 182.526 21.9118C184.008 20.6447 185.072 18.9951 185.717 16.963C185.837 16.6761 186.028 16.5326 186.291 16.5326C186.721 16.5326 186.937 16.7119 186.937 17.0705C186.937 17.3096 186.901 17.5726 186.829 17.8595C186.781 18.1464 186.697 18.4691 186.578 18.8278C186.482 19.1864 186.411 19.5091 186.363 19.796C186.315 20.0829 186.291 20.3459 186.291 20.585C186.291 20.7523 186.303 20.9555 186.327 21.1946C186.351 21.4098 186.387 21.6489 186.434 21.9118C186.554 22.6291 186.685 23.0475 186.829 23.167C186.829 23.167 186.948 23.1072 187.188 22.9877C187.451 22.8442 187.737 22.7008 188.048 22.5573C188.383 22.39 188.658 22.2466 188.873 22.127C189.112 21.9836 189.232 21.9118 189.232 21.9118C189.471 21.9118 189.59 22.0075 189.59 22.1987C189.59 22.39 189.387 22.6649 188.981 23.0235C188.598 23.3822 188.18 23.7049 187.725 23.9918C187.271 24.2787 186.925 24.4341 186.685 24.458ZM195.071 25.247C194.473 25.247 193.959 25.1394 193.529 24.9242C193.122 24.709 192.919 24.4102 192.919 24.0277C192.919 23.7647 193.039 23.6332 193.278 23.6332C193.254 23.6332 193.445 23.7169 193.852 23.8842C194.258 24.0277 194.688 24.0994 195.143 24.0994C196.529 24.0994 197.402 23.4539 197.76 22.1629C197.904 21.613 197.402 20.7045 196.254 19.4374C195.441 18.5528 195.035 17.5487 195.035 16.425C195.035 16.0425 195.202 15.6002 195.537 15.0982C195.872 14.5722 196.278 14.118 196.756 13.7354C197.235 13.329 197.689 13.1258 198.119 13.1258C198.884 13.1258 199.314 13.317 199.41 13.6996C199.434 13.7713 199.446 13.843 199.446 13.9147C199.47 13.9865 199.482 14.0582 199.482 14.1299C199.482 14.5124 199.338 14.7037 199.051 14.7037C198.884 14.7037 198.753 14.6439 198.657 14.5244C198.537 14.4048 198.37 14.3451 198.155 14.3451C198.107 14.3451 198.047 14.3451 197.976 14.3451C197.904 14.3451 197.844 14.369 197.796 14.4168C196.936 14.8471 196.446 15.4448 196.326 16.2099C196.23 16.8793 196.744 17.8117 197.868 19.0071C198.872 20.0829 199.374 21.087 199.374 22.0194C199.374 23.0475 198.848 23.8723 197.796 24.4939C196.983 24.9959 196.075 25.247 195.071 25.247Z" fill="white"/>
</svg>
