<svg width="153" height="154" viewBox="0 0 153 154" fill="none" xmlns="http://www.w3.org/2000/svg">
<g filter="url(#filter0_dd_246_3670)">
<g clip-path="url(#clip0_246_3670)">
<rect x="13.9922" y="3" width="124.755" height="124.755" rx="32.3438" fill="#FF455D" fill-opacity="0.1" shape-rendering="crispEdges"/>
<g filter="url(#filter1_dd_246_3670)">
<g clip-path="url(#clip1_246_3670)">
<rect x="20.9219" y="9.93082" width="110.893" height="110.893" rx="25.413" fill="url(#paint0_linear_246_3670)"/>
<g filter="url(#filter2_d_246_3670)">
<rect x="25.543" y="14.5519" width="101.652" height="101.652" rx="21.9476" fill="white" fill-opacity="0.01" shape-rendering="crispEdges"/>
<g filter="url(#filter3_i_246_3670)">
<rect x="25.543" y="14.5519" width="101.652" height="101.652" rx="21.9476" fill="white" fill-opacity="0.01"/>
<g filter="url(#filter4_i_246_3670)">
<rect width="74.8528" height="74.8528" transform="translate(38.9414 27.9515)" fill="white" fill-opacity="0.01"/>
<g filter="url(#filter5_d_246_3670)">
<rect x="38.9414" y="27.9515" width="74.8528" height="74.8528" fill="white" fill-opacity="0.01" shape-rendering="crispEdges"/>
</g>
</g>
<g filter="url(#filter6_i_246_3670)">
<rect x="50.4961" y="39.5031" width="51.7501" height="51.7501" rx="11.5514" fill="white" fill-opacity="0.01"/>
<g filter="url(#filter7_d_246_3670)">
<rect x="50.4961" y="39.5031" width="51.7501" height="51.7501" rx="11.5514" fill="white" fill-opacity="0.01" shape-rendering="crispEdges"/>
</g>
</g>
</g>
</g>
<g clip-path="url(#clip2_246_3670)">
<path fill-rule="evenodd" clip-rule="evenodd" d="M20.9213 47.6026C18.0398 49.6698 16.3008 53.0135 16.3008 56.606C16.3008 62.7262 21.2622 67.6876 27.3825 67.6876H45.7568V63.0671H27.3825C23.8141 63.0671 20.9213 60.1743 20.9213 56.606C20.9213 56.4485 20.9271 56.2919 20.9384 56.1363H20.9213V47.6026Z" fill="url(#paint1_linear_246_3670)"/>
<path fill-rule="evenodd" clip-rule="evenodd" d="M20.9213 47.6033C18.0398 49.6705 16.3008 53.0142 16.3008 56.6067C16.3008 62.7269 21.2622 67.6883 27.3825 67.6883H45.7568V63.0678H27.3825C23.8141 63.0678 20.9213 60.175 20.9213 56.6067C20.9213 56.4492 20.9271 56.2926 20.9384 56.137H20.9213V47.6033Z" fill="url(#paint2_linear_246_3670)"/>
</g>
<g clip-path="url(#clip3_246_3670)">
<path fill-rule="evenodd" clip-rule="evenodd" d="M131.816 83.153C134.698 81.0857 136.436 77.7421 136.436 74.1496C136.436 68.0293 131.475 63.0679 125.355 63.0679H106.98V67.6884H125.355C128.923 67.6884 131.816 70.5812 131.816 74.1496C131.816 74.307 131.81 74.4637 131.799 74.6193H131.816V83.153Z" fill="url(#paint3_linear_246_3670)"/>
<path d="M131.816 83.153C134.698 81.0857 136.436 77.7421 136.436 74.1496C136.436 68.0293 131.475 63.0679 125.355 63.0679H106.98V67.6884H125.355C128.923 67.6884 131.816 70.5812 131.816 74.1496C131.816 74.307 131.81 74.4637 131.799 74.6193H131.816V83.153Z" fill="url(#paint4_linear_246_3670)"/>
</g>
<g clip-path="url(#clip4_246_3670)">
<path d="M65.9727 54.982H75.2137C76.4897 54.982 77.524 56.0163 77.524 57.2922C77.524 58.5682 76.4897 59.6025 75.2137 59.6025H65.9727V54.982Z" fill="url(#paint5_linear_246_3670)"/>
<path d="M65.9727 71.154H75.2137C76.4897 71.154 77.524 72.1883 77.524 73.4643C77.524 74.7403 76.4897 75.7746 75.2137 75.7746H65.9727V71.154Z" fill="url(#paint6_linear_246_3670)"/>
<path fill-rule="evenodd" clip-rule="evenodd" d="M65.9727 58.4472V59.6023H75.2137C76.0689 59.6023 76.8155 59.1377 77.2149 58.4472H65.9727Z" fill="#F2B600"/>
<path fill-rule="evenodd" clip-rule="evenodd" d="M65.9727 74.6192V75.7744H75.2137C76.0689 75.7744 76.8155 75.3098 77.2149 74.6192H65.9727Z" fill="#F2B600"/>
<path d="M34.7891 64.2236C34.7891 55.2921 42.0295 48.0517 50.961 48.0517H62.5123V82.7058H50.961C42.0295 82.7058 34.7891 75.4654 34.7891 66.5338V64.2236Z" fill="url(#paint7_linear_246_3670)"/>
<path d="M50.9532 48.0505C42.0217 48.0505 34.7812 55.2909 34.7812 64.2224V65.3776C34.7812 56.4461 42.0217 49.2057 50.9532 49.2057H62.5045V48.0505H50.9532Z" fill="white"/>
<path d="M40.1133 78.5309C43.0726 81.8035 47.352 83.8597 52.1116 83.8597H63.663V49.2056H62.5078V82.7046H50.9565C46.7846 82.7046 42.9817 81.1249 40.1133 78.5309Z" fill="#C1C1C1"/>
<path d="M62.5078 48.0507C62.5078 46.7747 63.5421 45.7404 64.8181 45.7404H66.7923C66.978 45.7404 67.1284 45.8908 67.1284 46.0764V84.679C67.1284 84.8646 66.978 85.015 66.7923 85.015H64.8181C63.5421 85.015 62.5078 83.9807 62.5078 82.7047V65.3777V48.0507Z" fill="url(#paint8_linear_246_3670)"/>
<path d="M32.4727 61.9126C32.4727 59.9987 34.0242 58.4472 35.9381 58.4472V72.3088C34.0242 72.3088 32.4727 70.7574 32.4727 68.8434V61.9126Z" fill="url(#paint9_linear_246_3670)"/>
<g opacity="0.5">
<path d="M44.0273 60.1803C44.0273 59.8614 44.286 59.6028 44.6049 59.6028C44.9238 59.6028 45.1825 59.8614 45.1825 60.1803V70.5765C45.1825 70.8955 44.9238 71.1541 44.6049 71.1541C44.286 71.1541 44.0273 70.8955 44.0273 70.5765V60.1803Z" fill="url(#paint10_linear_246_3670)"/>
<path d="M46.3398 59.0252C46.3398 58.7063 46.5985 58.4477 46.9174 58.4477C47.2363 58.4477 47.495 58.7063 47.495 59.0252V71.7317C47.495 72.0507 47.2363 72.3093 46.9174 72.3093C46.5985 72.3093 46.3398 72.0507 46.3398 71.7317V59.0252Z" fill="url(#paint11_linear_246_3670)"/>
<path d="M49.8036 57.8702C49.8036 57.5512 49.545 57.2926 49.226 57.2926C48.907 57.2926 48.6484 57.5512 48.6484 57.8702V72.8869C48.6484 73.2059 48.907 73.4645 49.226 73.4645C49.545 73.4645 49.8036 73.2059 49.8036 72.8869V57.8702Z" fill="url(#paint12_linear_246_3670)"/>
<path d="M52.1161 57.8702C52.1161 57.5512 51.8575 57.2926 51.5385 57.2926C51.2195 57.2926 50.9609 57.5512 50.9609 57.8702V72.8869C50.9609 73.2059 51.2195 73.4645 51.5385 73.4645C51.8575 73.4645 52.1161 73.2059 52.1161 72.8869V57.8702Z" fill="url(#paint13_linear_246_3670)"/>
</g>
<path d="M66.5508 45.7404H67.1283V85.015H66.5508V45.7404Z" fill="#D9D9D9"/>
</g>
<g clip-path="url(#clip5_246_3670)">
<path d="M117.954 64.2236C117.954 55.2921 110.713 48.0517 101.782 48.0517H90.2305V82.7058H101.782C110.713 82.7058 117.954 75.4654 117.954 66.5338V64.2236Z" fill="url(#paint14_linear_246_3670)"/>
<path d="M101.782 48.0505C110.713 48.0505 117.954 55.2909 117.954 64.2224V65.3776C117.954 56.4461 110.713 49.2057 101.782 49.2057H90.2305V48.0505H101.782Z" fill="white"/>
<path d="M112.624 78.5309C109.665 81.8035 105.385 83.8597 100.626 83.8597H89.0742V49.2056H90.2294V82.7046H101.781C105.953 82.7046 109.755 81.1249 112.624 78.5309Z" fill="#C1C1C1"/>
<path d="M90.2299 48.0507C90.2299 46.7747 89.1956 45.7404 87.9196 45.7404H85.9454C85.7598 45.7404 85.6094 45.8908 85.6094 46.0764V84.679C85.6094 84.8646 85.7598 85.015 85.9454 85.015H87.9196C89.1956 85.015 90.2299 83.9807 90.2299 82.7047V65.3777V48.0507Z" fill="url(#paint15_linear_246_3670)"/>
<path d="M120.262 61.9126C120.262 59.9987 118.711 58.4472 116.797 58.4472V72.3088C118.711 72.3088 120.262 70.7574 120.262 68.8434V61.9126Z" fill="url(#paint16_linear_246_3670)"/>
<g opacity="0.5">
<path d="M108.718 60.1803C108.718 59.8614 108.459 59.6028 108.14 59.6028C107.821 59.6028 107.562 59.8614 107.562 60.1803V70.5765C107.562 70.8955 107.821 71.1541 108.14 71.1541C108.459 71.1541 108.718 70.8955 108.718 70.5765V60.1803Z" fill="url(#paint17_linear_246_3670)"/>
<path d="M106.405 59.0252C106.405 58.7063 106.147 58.4477 105.828 58.4477C105.509 58.4477 105.25 58.7063 105.25 59.0252V71.7317C105.25 72.0507 105.509 72.3093 105.828 72.3093C106.147 72.3093 106.405 72.0507 106.405 71.7317V59.0252Z" fill="url(#paint18_linear_246_3670)"/>
<path d="M102.943 57.8702C102.943 57.5512 103.201 57.2926 103.52 57.2926C103.839 57.2926 104.098 57.5512 104.098 57.8702V72.8869C104.098 73.2059 103.839 73.4645 103.52 73.4645C103.201 73.4645 102.943 73.2059 102.943 72.8869V57.8702Z" fill="url(#paint19_linear_246_3670)"/>
<path d="M100.63 57.8702C100.63 57.5512 100.889 57.2926 101.208 57.2926C101.527 57.2926 101.785 57.5512 101.785 57.8702V72.8869C101.785 73.2059 101.527 73.4645 101.208 73.4645C100.889 73.4645 100.63 73.2059 100.63 72.8869V57.8702Z" fill="url(#paint20_linear_246_3670)"/>
</g>
<path d="M85.6094 45.7404H86.1869V85.015H85.6094V45.7404Z" fill="url(#paint21_linear_246_3670)"/>
</g>
</g>
</g>
</g>
</g>
<defs>
<filter id="filter0_dd_246_3670" x="0.130554" y="0.689729" width="152.477" height="152.478" filterUnits="userSpaceOnUse" color-interpolation-filters="sRGB">
<feFlood flood-opacity="0" result="BackgroundImageFix"/>
<feColorMatrix in="SourceAlpha" type="matrix" values="0 0 0 0 0 0 0 0 0 0 0 0 0 0 0 0 0 0 127 0" result="hardAlpha"/>
<feMorphology radius="4.62054" operator="erode" in="SourceAlpha" result="effect1_dropShadow_246_3670"/>
<feOffset dy="4.62054"/>
<feGaussianBlur stdDeviation="3.46541"/>
<feComposite in2="hardAlpha" operator="out"/>
<feColorMatrix type="matrix" values="0 0 0 0 1 0 0 0 0 0.270588 0 0 0 0 0.364706 0 0 0 0.6 0"/>
<feBlend mode="normal" in2="BackgroundImageFix" result="effect1_dropShadow_246_3670"/>
<feColorMatrix in="SourceAlpha" type="matrix" values="0 0 0 0 0 0 0 0 0 0 0 0 0 0 0 0 0 0 127 0" result="hardAlpha"/>
<feMorphology radius="3.46541" operator="erode" in="SourceAlpha" result="effect2_dropShadow_246_3670"/>
<feOffset dy="11.5514"/>
<feGaussianBlur stdDeviation="8.66352"/>
<feComposite in2="hardAlpha" operator="out"/>
<feColorMatrix type="matrix" values="0 0 0 0 1 0 0 0 0 0.270588 0 0 0 0 0.364706 0 0 0 0.6 0"/>
<feBlend mode="normal" in2="effect1_dropShadow_246_3670" result="effect2_dropShadow_246_3670"/>
<feBlend mode="normal" in="SourceGraphic" in2="effect2_dropShadow_246_3670" result="shape"/>
</filter>
<filter id="filter1_dd_246_3670" x="-2.18085" y="9.93082" width="157.1" height="157.099" filterUnits="userSpaceOnUse" color-interpolation-filters="sRGB">
<feFlood flood-opacity="0" result="BackgroundImageFix"/>
<feColorMatrix in="SourceAlpha" type="matrix" values="0 0 0 0 0 0 0 0 0 0 0 0 0 0 0 0 0 0 127 0" result="hardAlpha"/>
<feMorphology radius="6.93082" operator="erode" in="SourceAlpha" result="effect1_dropShadow_246_3670"/>
<feOffset dy="9.24109"/>
<feGaussianBlur stdDeviation="5.77568"/>
<feComposite in2="hardAlpha" operator="out"/>
<feColorMatrix type="matrix" values="0 0 0 0 0.560784 0 0 0 0 0.027451 0 0 0 0 0.0941176 0 0 0 0.05 0"/>
<feBlend mode="normal" in2="BackgroundImageFix" result="effect1_dropShadow_246_3670"/>
<feColorMatrix in="SourceAlpha" type="matrix" values="0 0 0 0 0 0 0 0 0 0 0 0 0 0 0 0 0 0 127 0" result="hardAlpha"/>
<feMorphology radius="5.77568" operator="erode" in="SourceAlpha" result="effect2_dropShadow_246_3670"/>
<feOffset dy="23.1027"/>
<feGaussianBlur stdDeviation="14.4392"/>
<feComposite in2="hardAlpha" operator="out"/>
<feColorMatrix type="matrix" values="0 0 0 0 0.560784 0 0 0 0 0.027451 0 0 0 0 0.0941176 0 0 0 0.05 0"/>
<feBlend mode="normal" in2="effect1_dropShadow_246_3670" result="effect2_dropShadow_246_3670"/>
<feBlend mode="normal" in="SourceGraphic" in2="effect2_dropShadow_246_3670" result="shape"/>
</filter>
<filter id="filter2_d_246_3670" x="23.2327" y="13.3968" width="106.273" height="106.273" filterUnits="userSpaceOnUse" color-interpolation-filters="sRGB">
<feFlood flood-opacity="0" result="BackgroundImageFix"/>
<feColorMatrix in="SourceAlpha" type="matrix" values="0 0 0 0 0 0 0 0 0 0 0 0 0 0 0 0 0 0 127 0" result="hardAlpha"/>
<feOffset dy="1.15514"/>
<feGaussianBlur stdDeviation="1.15514"/>
<feComposite in2="hardAlpha" operator="out"/>
<feColorMatrix type="matrix" values="0 0 0 0 1 0 0 0 0 1 0 0 0 0 1 0 0 0 0.4 0"/>
<feBlend mode="normal" in2="BackgroundImageFix" result="effect1_dropShadow_246_3670"/>
<feBlend mode="normal" in="SourceGraphic" in2="effect1_dropShadow_246_3670" result="shape"/>
</filter>
<filter id="filter3_i_246_3670" x="25.543" y="14.5519" width="101.652" height="103.962" filterUnits="userSpaceOnUse" color-interpolation-filters="sRGB">
<feFlood flood-opacity="0" result="BackgroundImageFix"/>
<feBlend mode="normal" in="SourceGraphic" in2="BackgroundImageFix" result="shape"/>
<feColorMatrix in="SourceAlpha" type="matrix" values="0 0 0 0 0 0 0 0 0 0 0 0 0 0 0 0 0 0 127 0" result="hardAlpha"/>
<feOffset dy="2.31027"/>
<feGaussianBlur stdDeviation="2.31027"/>
<feComposite in2="hardAlpha" operator="arithmetic" k2="-1" k3="1"/>
<feColorMatrix type="matrix" values="0 0 0 0 0.560784 0 0 0 0 0.027451 0 0 0 0 0.0941176 0 0 0 0.5 0"/>
<feBlend mode="normal" in2="shape" result="effect1_innerShadow_246_3670"/>
</filter>
<filter id="filter4_i_246_3670" x="38.9414" y="27.9515" width="74.8516" height="77.1631" filterUnits="userSpaceOnUse" color-interpolation-filters="sRGB">
<feFlood flood-opacity="0" result="BackgroundImageFix"/>
<feBlend mode="normal" in="SourceGraphic" in2="BackgroundImageFix" result="shape"/>
<feColorMatrix in="SourceAlpha" type="matrix" values="0 0 0 0 0 0 0 0 0 0 0 0 0 0 0 0 0 0 127 0" result="hardAlpha"/>
<feOffset dy="2.31027"/>
<feGaussianBlur stdDeviation="2.31027"/>
<feComposite in2="hardAlpha" operator="arithmetic" k2="-1" k3="1"/>
<feColorMatrix type="matrix" values="0 0 0 0 0.560784 0 0 0 0 0.027451 0 0 0 0 0.0941176 0 0 0 0.4 0"/>
<feBlend mode="normal" in2="shape" result="effect1_innerShadow_246_3670"/>
</filter>
<filter id="filter5_d_246_3670" x="36.6311" y="26.7963" width="79.4721" height="79.4734" filterUnits="userSpaceOnUse" color-interpolation-filters="sRGB">
<feFlood flood-opacity="0" result="BackgroundImageFix"/>
<feColorMatrix in="SourceAlpha" type="matrix" values="0 0 0 0 0 0 0 0 0 0 0 0 0 0 0 0 0 0 127 0" result="hardAlpha"/>
<feOffset dy="1.15514"/>
<feGaussianBlur stdDeviation="1.15514"/>
<feComposite in2="hardAlpha" operator="out"/>
<feColorMatrix type="matrix" values="0 0 0 0 1 0 0 0 0 1 0 0 0 0 1 0 0 0 0.3 0"/>
<feBlend mode="normal" in2="BackgroundImageFix" result="effect1_dropShadow_246_3670"/>
<feBlend mode="normal" in="SourceGraphic" in2="effect1_dropShadow_246_3670" result="shape"/>
</filter>
<filter id="filter6_i_246_3670" x="50.4961" y="39.5031" width="51.75" height="54.0604" filterUnits="userSpaceOnUse" color-interpolation-filters="sRGB">
<feFlood flood-opacity="0" result="BackgroundImageFix"/>
<feBlend mode="normal" in="SourceGraphic" in2="BackgroundImageFix" result="shape"/>
<feColorMatrix in="SourceAlpha" type="matrix" values="0 0 0 0 0 0 0 0 0 0 0 0 0 0 0 0 0 0 127 0" result="hardAlpha"/>
<feOffset dy="2.31027"/>
<feGaussianBlur stdDeviation="2.31027"/>
<feComposite in2="hardAlpha" operator="arithmetic" k2="-1" k3="1"/>
<feColorMatrix type="matrix" values="0 0 0 0 0.560784 0 0 0 0 0.027451 0 0 0 0 0.0941176 0 0 0 0.3 0"/>
<feBlend mode="normal" in2="shape" result="effect1_innerShadow_246_3670"/>
</filter>
<filter id="filter7_d_246_3670" x="48.1858" y="38.3479" width="56.3705" height="56.3706" filterUnits="userSpaceOnUse" color-interpolation-filters="sRGB">
<feFlood flood-opacity="0" result="BackgroundImageFix"/>
<feColorMatrix in="SourceAlpha" type="matrix" values="0 0 0 0 0 0 0 0 0 0 0 0 0 0 0 0 0 0 127 0" result="hardAlpha"/>
<feOffset dy="1.15514"/>
<feGaussianBlur stdDeviation="1.15514"/>
<feComposite in2="hardAlpha" operator="out"/>
<feColorMatrix type="matrix" values="0 0 0 0 1 0 0 0 0 1 0 0 0 0 1 0 0 0 0.2 0"/>
<feBlend mode="normal" in2="BackgroundImageFix" result="effect1_dropShadow_246_3670"/>
<feBlend mode="normal" in="SourceGraphic" in2="effect1_dropShadow_246_3670" result="shape"/>
</filter>
<linearGradient id="paint0_linear_246_3670" x1="76.3684" y1="9.93082" x2="76.3684" y2="120.824" gradientUnits="userSpaceOnUse">
<stop stop-color="#FF909F"/>
<stop offset="1" stop-color="#FF455D"/>
</linearGradient>
<linearGradient id="paint1_linear_246_3670" x1="30.4512" y1="46.8953" x2="30.4512" y2="65.3775" gradientUnits="userSpaceOnUse">
<stop stop-color="#E1E1E1"/>
<stop offset="1" stop-color="white"/>
</linearGradient>
<linearGradient id="paint2_linear_246_3670" x1="25.5419" y1="49.2063" x2="29.0073" y2="63.6455" gradientUnits="userSpaceOnUse">
<stop stop-color="#C1C1C1"/>
<stop offset="1" stop-color="white" stop-opacity="0"/>
</linearGradient>
<linearGradient id="paint3_linear_246_3670" x1="124.019" y1="83.8604" x2="124.019" y2="65.3782" gradientUnits="userSpaceOnUse">
<stop stop-color="#E1E1E1"/>
<stop offset="1" stop-color="white"/>
</linearGradient>
<linearGradient id="paint4_linear_246_3670" x1="129.506" y1="82.7052" x2="122.575" y2="61.3352" gradientUnits="userSpaceOnUse">
<stop stop-color="#818181"/>
<stop offset="1" stop-color="white" stop-opacity="0"/>
</linearGradient>
<linearGradient id="paint5_linear_246_3670" x1="71.7483" y1="54.982" x2="71.7483" y2="59.0249" gradientUnits="userSpaceOnUse">
<stop stop-color="#FFF1A8"/>
<stop offset="1" stop-color="#FED54A"/>
</linearGradient>
<linearGradient id="paint6_linear_246_3670" x1="71.7483" y1="71.154" x2="71.7483" y2="75.197" gradientUnits="userSpaceOnUse">
<stop stop-color="#FFF1A8"/>
<stop offset="1" stop-color="#FED54A"/>
</linearGradient>
<linearGradient id="paint7_linear_246_3670" x1="48.6507" y1="48.0517" x2="48.6507" y2="82.7058" gradientUnits="userSpaceOnUse">
<stop stop-color="white"/>
<stop offset="1" stop-color="#E1E1E1"/>
</linearGradient>
<linearGradient id="paint8_linear_246_3670" x1="64.8181" y1="45.7404" x2="64.8181" y2="87.3253" gradientUnits="userSpaceOnUse">
<stop offset="0.25" stop-color="white"/>
<stop offset="1" stop-color="#C1C1C1"/>
</linearGradient>
<linearGradient id="paint9_linear_246_3670" x1="34.2054" y1="60.7575" x2="34.2054" y2="72.3088" gradientUnits="userSpaceOnUse">
<stop stop-color="white"/>
<stop offset="1" stop-color="#C1C1C1"/>
</linearGradient>
<linearGradient id="paint10_linear_246_3670" x1="44.6049" y1="57.2925" x2="44.6049" y2="73.4644" gradientUnits="userSpaceOnUse">
<stop stop-color="#EBEBEB"/>
<stop offset="1" stop-color="#D9D9D9"/>
</linearGradient>
<linearGradient id="paint11_linear_246_3670" x1="46.9174" y1="57.2925" x2="46.9174" y2="73.4644" gradientUnits="userSpaceOnUse">
<stop stop-color="#EBEBEB"/>
<stop offset="1" stop-color="#D9D9D9"/>
</linearGradient>
<linearGradient id="paint12_linear_246_3670" x1="49.226" y1="57.2926" x2="49.226" y2="73.4645" gradientUnits="userSpaceOnUse">
<stop stop-color="#EBEBEB"/>
<stop offset="1" stop-color="#D9D9D9"/>
</linearGradient>
<linearGradient id="paint13_linear_246_3670" x1="51.5385" y1="57.2926" x2="51.5385" y2="73.4645" gradientUnits="userSpaceOnUse">
<stop stop-color="#EBEBEB"/>
<stop offset="1" stop-color="#D9D9D9"/>
</linearGradient>
<linearGradient id="paint14_linear_246_3670" x1="104.092" y1="48.0517" x2="104.092" y2="82.7058" gradientUnits="userSpaceOnUse">
<stop stop-color="white"/>
<stop offset="1" stop-color="#E1E1E1"/>
</linearGradient>
<linearGradient id="paint15_linear_246_3670" x1="87.9196" y1="45.7404" x2="87.9196" y2="87.3253" gradientUnits="userSpaceOnUse">
<stop offset="0.25" stop-color="white"/>
<stop offset="1" stop-color="#C1C1C1"/>
</linearGradient>
<linearGradient id="paint16_linear_246_3670" x1="118.53" y1="60.7575" x2="118.53" y2="72.3088" gradientUnits="userSpaceOnUse">
<stop stop-color="white"/>
<stop offset="1" stop-color="#C1C1C1"/>
</linearGradient>
<linearGradient id="paint17_linear_246_3670" x1="108.14" y1="57.2925" x2="108.14" y2="73.4644" gradientUnits="userSpaceOnUse">
<stop stop-color="#EBEBEB"/>
<stop offset="1" stop-color="#D9D9D9"/>
</linearGradient>
<linearGradient id="paint18_linear_246_3670" x1="105.828" y1="57.2925" x2="105.828" y2="73.4644" gradientUnits="userSpaceOnUse">
<stop stop-color="#EBEBEB"/>
<stop offset="1" stop-color="#D9D9D9"/>
</linearGradient>
<linearGradient id="paint19_linear_246_3670" x1="103.52" y1="57.2926" x2="103.52" y2="73.4645" gradientUnits="userSpaceOnUse">
<stop stop-color="#EBEBEB"/>
<stop offset="1" stop-color="#D9D9D9"/>
</linearGradient>
<linearGradient id="paint20_linear_246_3670" x1="101.208" y1="57.2926" x2="101.208" y2="73.4645" gradientUnits="userSpaceOnUse">
<stop stop-color="#EBEBEB"/>
<stop offset="1" stop-color="#D9D9D9"/>
</linearGradient>
<linearGradient id="paint21_linear_246_3670" x1="85.8982" y1="45.7404" x2="85.8982" y2="85.015" gradientUnits="userSpaceOnUse">
<stop stop-color="white"/>
<stop offset="1" stop-color="#C1C1C1"/>
</linearGradient>
<clipPath id="clip0_246_3670">
<rect x="13.9922" y="3" width="124.755" height="124.755" rx="32.3438" fill="white"/>
</clipPath>
<clipPath id="clip1_246_3670">
<rect x="20.9219" y="9.93082" width="110.893" height="110.893" rx="25.413" fill="white"/>
</clipPath>
<clipPath id="clip2_246_3670">
<rect width="30.0335" height="20.7925" fill="white" transform="translate(16.3008 46.895)"/>
</clipPath>
<clipPath id="clip3_246_3670">
<rect width="30.0335" height="20.7925" fill="white" transform="translate(106.402 63.067)"/>
</clipPath>
<clipPath id="clip4_246_3670">
<rect width="45.0503" height="39.2746" fill="white" transform="translate(32.4727 45.7399)"/>
</clipPath>
<clipPath id="clip5_246_3670">
<rect width="34.6541" height="39.2746" fill="white" transform="translate(85.6094 45.7399)"/>
</clipPath>
</defs>
</svg>
