<svg width="971" height="495" viewBox="0 0 971 495" fill="none" xmlns="http://www.w3.org/2000/svg">
<g filter="url(#filter0_dd_217_6608)">
<g clip-path="url(#clip0_217_6608)">
<rect x="23.6172" y="0.201172" width="923.531" height="448.193" rx="13.8616" fill="url(#paint0_linear_217_6608)"/>
<g clip-path="url(#clip1_217_6608)">
<path d="M297.676 224.299H388.932" stroke="white" stroke-width="1.15514" stroke-dasharray="4.62 4.62"/>
<path d="M533.32 224.299H624.835" stroke="white" stroke-width="1.15514" stroke-dasharray="4.62 4.62"/>
<path d="M671.934 46.4062H484.802C472.042 46.4062 461.699 56.7497 461.699 69.509V151.524" stroke="white" stroke-width="1.15514" stroke-dasharray="4.62 4.62"/>
<path d="M577.213 402.189H484.802C472.042 402.189 461.699 391.845 461.699 379.086V295.916" stroke="white" stroke-width="1.15514" stroke-dasharray="4.62 4.62"/>
<g filter="url(#filter1_i_217_6608)">
<path d="M744.711 115.716C782.988 115.716 814.019 84.6856 814.019 46.4078C814.019 8.12994 782.988 -22.9004 744.711 -22.9004C706.433 -22.9004 675.402 8.12994 675.402 46.4078C675.402 84.6856 706.433 115.716 744.711 115.716Z" fill="#9EFF00" fill-opacity="0.6"/>
</g>
<path d="M813.519 46.4078C813.519 84.4095 782.712 115.216 744.711 115.216C706.709 115.216 675.902 84.4095 675.902 46.4078C675.902 8.40608 706.709 -22.4004 744.711 -22.4004C782.712 -22.4004 813.519 8.40608 813.519 46.4078Z" stroke="white"/>
<path d="M745.285 70.8202L780.66 79.3328V13.2852L745.285 21.7979V70.8202Z" fill="#E1E1E1"/>
<path d="M780.648 13.2852L787.451 16.6679V75.9641L780.648 79.347V13.2852Z" fill="white"/>
<path d="M745.29 70.8202L709.93 79.3328V13.2852L745.29 21.7979V70.8202Z" fill="white"/>
<path d="M709.928 13.2852L703.125 16.6679V75.9641L709.928 79.347V13.2852Z" fill="#E1E1E1"/>
<path d="M754.341 92.6121L767.777 85.9442V6.88283L754.341 0.201172L750.125 44.1489L754.341 92.6121Z" fill="white"/>
<path d="M736.233 92.6121L722.797 85.9442V6.88283L736.233 0.201172L740.45 43.9953L736.233 92.6121Z" fill="#E1E1E1"/>
<path d="M754.354 0.201172H736.238V92.6121H754.354V0.201172Z" fill="#EBEBEB"/>
<g filter="url(#filter2_i_217_6608)">
<path d="M461.684 292.368C499.617 292.368 530.368 261.617 530.368 223.684C530.368 185.751 499.617 155 461.684 155C423.751 155 393 185.751 393 223.684C393 261.617 423.751 292.368 461.684 292.368Z" fill="#86FF68" fill-opacity="0.6"/>
</g>
<path d="M461.684 292.368C499.617 292.368 530.368 261.617 530.368 223.684C530.368 185.751 499.617 155 461.684 155C423.751 155 393 185.751 393 223.684C393 261.617 423.751 292.368 461.684 292.368Z" stroke="#FFE5E9" stroke-width="1.24849"/>
<path d="M460.539 271.151C460.888 271.269 461.23 271.268 461.578 271.146C466.051 269.586 497.953 257.221 497.953 222.016V190.192C497.953 189.35 497.377 188.616 496.556 188.412L461.507 179.695C461.213 179.622 460.906 179.622 460.612 179.695C460.318 179.768 425.563 188.412 425.563 188.412C424.742 188.616 424.166 189.35 424.166 190.192V222.016C424.166 257.576 456.061 269.633 460.539 271.151Z" fill="white"/>
<path d="M438.961 201.487C441.784 198.391 445.226 195.923 449.064 194.243C452.902 192.563 457.051 191.709 461.24 191.735C465.43 191.761 469.567 192.668 473.384 194.396C477.201 196.124 480.611 198.635 483.395 201.766L461.053 221.631L438.961 201.487Z" fill="url(#paint1_radial_217_6608)"/>
<path d="M489.5 250L461 221L483 202L497.5 215.5C497.857 230.574 496.221 238.39 489.5 250Z" fill="#E1E1E1" stroke="#E1E1E1"/>
</g>
<g filter="url(#filter3_i_217_6608)">
<path d="M647.684 470.368C685.617 470.368 716.368 439.617 716.368 401.684C716.368 363.751 685.617 333 647.684 333C609.751 333 579 363.751 579 401.684C579 439.617 609.751 470.368 647.684 470.368Z" fill="#86FF68" fill-opacity="0.6"/>
</g>
<path d="M647.684 470.368C685.617 470.368 716.368 439.617 716.368 401.684C716.368 363.751 685.617 333 647.684 333C609.751 333 579 363.751 579 401.684C579 439.617 609.751 470.368 647.684 470.368Z" stroke="#FFE5E9" stroke-width="1.24849"/>
<path d="M635.063 374.452L610.612 381.667L622.37 383.537L635.063 380.331V374.452Z" fill="#9E9E9E"/>
<path d="M610.612 381.667V421.484L622.37 420.148V383.537L610.612 381.667Z" fill="#C4C4C4"/>
<path d="M610.612 421.484L635.063 429.234V423.355L622.37 420.148L610.612 421.484Z" fill="#E7E7E7"/>
<path d="M684.902 381.667L660.317 374.452V380.331L673.144 383.537L684.902 381.667Z" fill="#9E9E9E"/>
<path d="M684.902 421.484V381.667L673.144 383.537V420.148L684.902 421.484Z" fill="#C4C4C4"/>
<path d="M660.317 429.234L684.902 421.484L673.144 420.148L660.317 423.355V429.234Z" fill="#E7E7E7"/>
<path fill-rule="evenodd" clip-rule="evenodd" d="M647.49 350V453.418L690.514 431.906V371.378L647.49 350ZM660.317 374.452L684.902 381.667V421.484L660.317 429.234V423.355V380.331V374.452Z" fill="white"/>
<path fill-rule="evenodd" clip-rule="evenodd" d="M605 371.378V431.906L647.49 453.418V350L605 371.378ZM610.612 381.667L635.063 374.452V380.331V423.355V429.234L610.612 421.484V381.667Z" fill="#D2D2D2"/>
</g>
</g>
<g filter="url(#filter4_i_217_6608)">
<path d="M723.269 224.153C723.269 261.789 693.43 292.306 656.611 292.306C619.792 292.306 589.953 261.789 589.953 224.153C589.953 186.518 619.792 156 656.611 156C693.43 156 723.269 186.518 723.269 224.153Z" fill="#86FF68" fill-opacity="0.6"/>
</g>
<path d="M723.269 224.153C723.269 261.789 693.43 292.306 656.611 292.306C619.792 292.306 589.953 261.789 589.953 224.153C589.953 186.518 619.792 156 656.611 156C693.43 156 723.269 186.518 723.269 224.153Z" stroke="#FFE5E9" stroke-width="1.15514"/>
<path d="M660.534 216.749C658.964 216.108 657.207 216.106 655.637 216.743L609.352 235.5L655.445 254.416C657.128 255.107 659.024 255.061 660.671 254.288L703.427 234.25L660.534 216.749Z" fill="white"/>
<path d="M703.427 234.25L660.671 254.288C659.024 255.061 657.128 255.107 655.445 254.416L609.352 235.5V242.1C609.352 244.757 610.969 247.147 613.437 248.135L655.451 264.946C657.131 265.618 659.016 265.559 660.651 264.784L699.712 246.262C701.98 245.186 703.427 242.899 703.427 240.388V234.25Z" fill="#CFCFCF"/>
<path d="M660.534 199.749C658.964 199.108 657.207 199.106 655.637 199.743L609.352 218.5L655.445 237.416C657.128 238.107 659.024 238.061 660.671 237.288L703.427 217.25L660.534 199.749Z" fill="white"/>
<path d="M703.427 217.25L660.671 237.288C659.024 238.061 657.128 238.107 655.445 237.416L609.352 218.5V225.1C609.352 227.757 610.969 230.147 613.437 231.135L655.451 247.946C657.131 248.618 659.016 248.559 660.651 247.784L699.712 229.262C701.98 228.186 703.427 225.899 703.427 223.388V217.25Z" fill="#CFCFCF"/>
<path d="M660.534 182.999C658.964 182.358 657.207 182.356 655.637 182.993L609.352 201.75L655.445 220.666C657.128 221.357 659.024 221.311 660.671 220.538L703.427 200.5L660.534 182.999Z" fill="white"/>
<path d="M703.427 200.5L660.671 220.538C659.024 221.311 657.128 221.357 655.445 220.666L609.352 201.75V208.35C609.352 211.007 610.969 213.397 613.437 214.385L655.451 231.196C657.131 231.868 659.016 231.809 660.651 231.034L699.712 212.512C701.98 211.436 703.427 209.149 703.427 206.638V200.5Z" fill="#CFCFCF"/>
<path d="M681.363 195.75L668.027 201.25L681.363 206.25V195.75Z" fill="#E3E3E3"/>
<path d="M693.728 200.25L681.363 195.75V206.25L693.728 200.25Z" fill="#AFAFAF"/>
<path d="M226.051 293.03C264.01 293.03 294.782 262.258 294.782 224.299C294.782 186.34 264.01 155.568 226.051 155.568C188.092 155.568 157.32 186.34 157.32 224.299C157.32 262.258 188.092 293.03 226.051 293.03Z" stroke="#FFE5E9" stroke-width="1.15514"/>
<g filter="url(#filter5_i_217_6608)">
<path d="M225.945 292.46C263.903 292.46 294.675 261.689 294.675 223.73C294.675 185.771 263.903 155 225.945 155C187.986 155 157.215 185.771 157.215 223.73C157.215 261.689 187.986 292.46 225.945 292.46Z" fill="#86FF68" fill-opacity="0.6"/>
</g>
<path d="M191.965 187C186.146 187 181.43 191.864 181.43 197.864V218.084C181.43 243.447 197.471 265.845 220.978 273.304C222.666 273.84 224.471 273.84 226.158 273.304C249.666 265.845 265.707 243.447 265.707 218.084V197.864C265.707 191.864 260.991 187 255.172 187H191.965Z" fill="white"/>
<path fill-rule="evenodd" clip-rule="evenodd" d="M237.112 213.386C237.112 221.1 231.048 227.354 223.567 227.354C216.087 227.354 210.023 221.1 210.023 213.386C210.023 205.672 216.087 199.418 223.567 199.418C231.048 199.418 237.112 205.672 237.112 213.386ZM223.564 233.562C233.54 233.562 242.487 238.112 248.557 245.311C242.707 254.193 234.018 261.051 223.564 264.386C213.109 261.051 204.42 254.193 198.57 245.31C204.641 238.112 213.587 233.562 223.564 233.562Z" fill="#5FE615"/>
<defs>
<filter id="filter0_dd_217_6608" x="0.514464" y="0.201172" width="969.737" height="494.399" filterUnits="userSpaceOnUse" color-interpolation-filters="sRGB">
<feFlood flood-opacity="0" result="BackgroundImageFix"/>
<feColorMatrix in="SourceAlpha" type="matrix" values="0 0 0 0 0 0 0 0 0 0 0 0 0 0 0 0 0 0 127 0" result="hardAlpha"/>
<feMorphology radius="6.93082" operator="erode" in="SourceAlpha" result="effect1_dropShadow_217_6608"/>
<feOffset dy="9.24109"/>
<feGaussianBlur stdDeviation="5.77568"/>
<feComposite in2="hardAlpha" operator="out"/>
<feColorMatrix type="matrix" values="0 0 0 0 0.619608 0 0 0 0 1 0 0 0 0 0 0 0 0 0.25 0"/>
<feBlend mode="normal" in2="BackgroundImageFix" result="effect1_dropShadow_217_6608"/>
<feColorMatrix in="SourceAlpha" type="matrix" values="0 0 0 0 0 0 0 0 0 0 0 0 0 0 0 0 0 0 127 0" result="hardAlpha"/>
<feMorphology radius="5.77568" operator="erode" in="SourceAlpha" result="effect2_dropShadow_217_6608"/>
<feOffset dy="23.1027"/>
<feGaussianBlur stdDeviation="14.4392"/>
<feComposite in2="hardAlpha" operator="out"/>
<feColorMatrix type="matrix" values="0 0 0 0 0.619608 0 0 0 0 1 0 0 0 0 0 0 0 0 0.25 0"/>
<feBlend mode="normal" in2="effect1_dropShadow_217_6608" result="effect2_dropShadow_217_6608"/>
<feBlend mode="normal" in="SourceGraphic" in2="effect2_dropShadow_217_6608" result="shape"/>
</filter>
<filter id="filter1_i_217_6608" x="675.402" y="-22.9004" width="138.617" height="138.617" filterUnits="userSpaceOnUse" color-interpolation-filters="sRGB">
<feFlood flood-opacity="0" result="BackgroundImageFix"/>
<feBlend mode="normal" in="SourceGraphic" in2="BackgroundImageFix" result="shape"/>
<feColorMatrix in="SourceAlpha" type="matrix" values="0 0 0 0 0 0 0 0 0 0 0 0 0 0 0 0 0 0 127 0" result="hardAlpha"/>
<feOffset/>
<feGaussianBlur stdDeviation="5"/>
<feComposite in2="hardAlpha" operator="arithmetic" k2="-1" k3="1"/>
<feColorMatrix type="matrix" values="0 0 0 0 1 0 0 0 0 1 0 0 0 0 1 0 0 0 1 0"/>
<feBlend mode="normal" in2="shape" result="effect1_innerShadow_217_6608"/>
</filter>
<filter id="filter2_i_217_6608" x="392.375" y="154.375" width="138.617" height="138.617" filterUnits="userSpaceOnUse" color-interpolation-filters="sRGB">
<feFlood flood-opacity="0" result="BackgroundImageFix"/>
<feBlend mode="normal" in="SourceGraphic" in2="BackgroundImageFix" result="shape"/>
<feColorMatrix in="SourceAlpha" type="matrix" values="0 0 0 0 0 0 0 0 0 0 0 0 0 0 0 0 0 0 127 0" result="hardAlpha"/>
<feOffset/>
<feGaussianBlur stdDeviation="5"/>
<feComposite in2="hardAlpha" operator="arithmetic" k2="-1" k3="1"/>
<feColorMatrix type="matrix" values="0 0 0 0 1 0 0 0 0 1 0 0 0 0 1 0 0 0 1 0"/>
<feBlend mode="normal" in2="shape" result="effect1_innerShadow_217_6608"/>
</filter>
<filter id="filter3_i_217_6608" x="578.375" y="332.375" width="138.617" height="138.617" filterUnits="userSpaceOnUse" color-interpolation-filters="sRGB">
<feFlood flood-opacity="0" result="BackgroundImageFix"/>
<feBlend mode="normal" in="SourceGraphic" in2="BackgroundImageFix" result="shape"/>
<feColorMatrix in="SourceAlpha" type="matrix" values="0 0 0 0 0 0 0 0 0 0 0 0 0 0 0 0 0 0 127 0" result="hardAlpha"/>
<feOffset/>
<feGaussianBlur stdDeviation="5"/>
<feComposite in2="hardAlpha" operator="arithmetic" k2="-1" k3="1"/>
<feColorMatrix type="matrix" values="0 0 0 0 1 0 0 0 0 1 0 0 0 0 1 0 0 0 1 0"/>
<feBlend mode="normal" in2="shape" result="effect1_innerShadow_217_6608"/>
</filter>
<filter id="filter4_i_217_6608" x="589.375" y="155.422" width="134.473" height="137.461" filterUnits="userSpaceOnUse" color-interpolation-filters="sRGB">
<feFlood flood-opacity="0" result="BackgroundImageFix"/>
<feBlend mode="normal" in="SourceGraphic" in2="BackgroundImageFix" result="shape"/>
<feColorMatrix in="SourceAlpha" type="matrix" values="0 0 0 0 0 0 0 0 0 0 0 0 0 0 0 0 0 0 127 0" result="hardAlpha"/>
<feOffset/>
<feGaussianBlur stdDeviation="5"/>
<feComposite in2="hardAlpha" operator="arithmetic" k2="-1" k3="1"/>
<feColorMatrix type="matrix" values="0 0 0 0 1 0 0 0 0 1 0 0 0 0 1 0 0 0 1 0"/>
<feBlend mode="normal" in2="shape" result="effect1_innerShadow_217_6608"/>
</filter>
<filter id="filter5_i_217_6608" x="157.215" y="155" width="137.461" height="137.461" filterUnits="userSpaceOnUse" color-interpolation-filters="sRGB">
<feFlood flood-opacity="0" result="BackgroundImageFix"/>
<feBlend mode="normal" in="SourceGraphic" in2="BackgroundImageFix" result="shape"/>
<feColorMatrix in="SourceAlpha" type="matrix" values="0 0 0 0 0 0 0 0 0 0 0 0 0 0 0 0 0 0 127 0" result="hardAlpha"/>
<feOffset/>
<feGaussianBlur stdDeviation="5"/>
<feComposite in2="hardAlpha" operator="arithmetic" k2="-1" k3="1"/>
<feColorMatrix type="matrix" values="0 0 0 0 1 0 0 0 0 1 0 0 0 0 1 0 0 0 1 0"/>
<feBlend mode="normal" in2="shape" result="effect1_innerShadow_217_6608"/>
</filter>
<linearGradient id="paint0_linear_217_6608" x1="47.5" y1="6.33504e-06" x2="930.5" y2="435.5" gradientUnits="userSpaceOnUse">
<stop offset="0.00518864" stop-color="#9EFF00"/>
<stop offset="1" stop-color="#00C136"/>
</linearGradient>
<radialGradient id="paint1_radial_217_6608" cx="0" cy="0" r="1" gradientUnits="userSpaceOnUse" gradientTransform="translate(461.053 221.631) rotate(-90.0445) scale(65.9905)">
<stop offset="0.220303" stop-color="#9EFF00"/>
<stop offset="0.995966" stop-color="white" stop-opacity="0"/>
</radialGradient>
<clipPath id="clip0_217_6608">
<rect x="23.6172" y="0.201172" width="923.531" height="448.193" rx="13.8616" fill="white"/>
</clipPath>
<clipPath id="clip1_217_6608">
<rect width="657.273" height="494.398" fill="white" transform="translate(156.746 -22.9023)"/>
</clipPath>
</defs>
</svg>
