<svg xmlns="http://www.w3.org/2000/svg" width="28" height="26" viewBox="0 0 28 26" fill="none">
  <path d="M18.2139 15.1661C16.7908 17.247 14.7074 18.2304 12.2691 18.2304C9.30734 18.2304 6.77214 15.9516 7.13612 12.9298C7.54098 9.57679 10.1443 8.13502 14.4732 7.60395C15.2455 7.51006 15.5661 7.4828 17.233 7.35962L17.4107 7.347V7.07036C17.4107 4.76182 16.0376 3.18577 14.197 3.18577C12.3494 3.18577 11.0606 4.14594 10.27 6.43277L7.84034 5.59477C8.98123 2.29123 11.2317 0.615234 14.197 0.615234C17.543 0.615234 19.9812 3.41496 19.9812 7.07036C19.9812 10.4754 20.1907 13.1837 20.6022 14.2136C21.06 15.36 21.2271 15.6493 21.7385 16.2868L19.7334 17.8947C19.061 17.0567 18.7651 16.5468 18.2154 15.1672V15.1661H18.2139ZM25.453 22.7824C25.1047 23.0393 24.4994 22.8863 24.7735 22.217C25.1142 21.384 25.4767 20.4067 25.1102 19.9645C24.8401 19.6363 24.5095 19.4733 23.7901 19.4733C23.199 19.4733 22.9031 19.5505 22.5109 19.5762C22.2489 19.5929 22.1343 19.1946 22.3943 19.0108C22.7342 18.7672 23.112 18.5813 23.5125 18.4606C24.9906 18.0184 26.7322 18.2612 26.9447 18.5671C27.4137 19.2486 26.6888 21.8696 25.4535 22.7834V22.7818L25.453 22.7824ZM23.934 21.3891C23.6002 21.7118 23.2437 22.0103 22.8673 22.2821C20.1393 24.3594 16.6075 25.4443 13.5377 25.4443C8.59757 25.4443 4.17989 23.1393 0.827389 19.2804C0.540652 18.9851 0.778422 18.5535 1.11413 18.7872C4.72611 21.4567 9.19628 23.0711 13.8255 23.0711C16.7368 23.0711 19.8772 22.381 22.8683 20.8953C23.0768 20.7974 23.3105 20.6636 23.515 20.5687C23.9865 20.2986 24.4019 20.9625 23.934 21.3891ZM17.4233 9.92208C15.8064 10.0432 15.5 10.0675 14.7856 10.1548C11.5053 10.5571 9.90505 11.4441 9.68899 13.2372C9.52744 14.578 10.7304 15.6594 12.2686 15.6594C14.8896 15.6594 16.7898 14.0808 17.439 9.92208H17.4233Z" fill="#BDBCC4"/>
</svg>