<svg xmlns="http://www.w3.org/2000/svg" width="24" height="26" viewBox="0 0 24 26" fill="none">
  <path d="M4.86762 21.2695C4.48194 21.0126 4.15077 20.685 3.76206 20.221C3.56064 19.9742 3.36124 19.7263 3.16335 19.4769C2.56766 18.7374 2.19258 18.3966 1.80437 18.2568C1.64442 18.2005 1.49718 18.1131 1.37113 17.9997C1.24507 17.8863 1.1427 17.7491 1.06989 17.596C0.997078 17.4429 0.955275 17.2768 0.946887 17.1075C0.938499 16.9381 0.963689 16.7688 1.02101 16.6092C1.07833 16.4496 1.16665 16.303 1.28088 16.1777C1.39511 16.0524 1.53299 15.9509 1.6866 15.8791C1.84021 15.8073 2.0065 15.7666 2.1759 15.7593C2.3453 15.752 2.51447 15.7783 2.67367 15.8367C3.6404 16.1835 4.29414 16.7812 5.17606 17.8777C5.05541 17.7272 5.61323 18.4264 5.73288 18.5703C5.97721 18.8621 6.15693 19.0398 6.29827 19.1336C6.56078 19.3098 7.05298 19.3856 7.77639 19.3134C7.80617 18.8227 7.89754 18.3456 8.03637 17.9059C4.22094 16.9725 2.06183 14.5125 2.06183 9.68444C2.06183 8.09073 2.53737 6.65552 3.42181 5.45254C3.14114 4.30357 3.18354 2.91431 3.81002 1.34987C3.88107 1.17293 3.99059 1.01401 4.13063 0.884615C4.27068 0.755221 4.43775 0.658592 4.61975 0.601731C4.72374 0.570937 4.78281 0.556297 4.88731 0.541152C5.91916 0.383144 7.37707 0.759739 9.27671 1.9496C10.4089 1.68511 11.568 1.55247 12.7307 1.55432C13.9029 1.55432 15.068 1.6876 16.1806 1.9501C18.0792 0.750653 19.5397 0.374057 20.5796 0.541657C20.6887 0.557812 20.7815 0.579519 20.8598 0.605265C21.0382 0.664139 21.2015 0.761412 21.3383 0.890236C21.4751 1.01906 21.5819 1.1763 21.6513 1.35088C22.2773 2.91431 22.3197 4.30408 22.0401 5.45153C22.928 6.65451 23.3995 8.08012 23.3995 9.68444C23.3995 14.5135 21.248 16.9665 17.4326 17.9009C17.5936 18.434 17.6769 19.0307 17.6769 19.6748C17.6769 20.8384 17.6719 22.002 17.6618 23.1661C17.9504 23.2292 18.2085 23.3897 18.3926 23.6207C18.5768 23.8517 18.6757 24.1391 18.6728 24.4345C18.6699 24.7299 18.5653 25.0152 18.3767 25.2426C18.188 25.4699 17.9268 25.6253 17.637 25.6827C16.173 25.9755 15.0877 24.9986 15.0877 23.7225L15.0907 23.149L15.0973 22.2428C15.1033 21.3326 15.1059 20.5229 15.1059 19.6748C15.1059 18.7788 14.8711 18.1937 14.5596 17.9266C13.71 17.1936 14.1406 15.7993 15.2538 15.6746C19.0677 15.2465 20.829 13.7694 20.829 9.68444C20.829 8.45672 20.4277 7.44304 19.6553 6.59444C19.4925 6.41606 19.3833 6.19546 19.3401 5.95789C19.2969 5.72032 19.3214 5.47538 19.411 5.25112C19.6245 4.71904 19.7159 4.02087 19.5341 3.17631L19.5215 3.18035C18.8905 3.35905 18.0949 3.74575 17.1332 4.39999C16.9782 4.50524 16.802 4.57531 16.6171 4.60531C16.4321 4.63531 16.2428 4.6245 16.0625 4.57365C14.9775 4.27315 13.8565 4.12216 12.7307 4.12486C11.5868 4.12486 10.4529 4.27782 9.39887 4.57466C9.21919 4.62519 9.03066 4.63602 8.84638 4.60638C8.66209 4.57674 8.48646 4.50735 8.33169 4.40302C7.36546 3.75079 6.56583 3.36511 5.93077 3.1854C5.7455 4.02491 5.83687 4.72005 6.04889 5.25112C6.13857 5.47516 6.16335 5.71993 6.12041 5.95741C6.07747 6.19489 5.96853 6.41548 5.80608 6.59394C5.03875 7.43496 4.63237 8.46833 4.63237 9.68444C4.63237 13.7619 6.3947 15.2475 10.1879 15.6746C11.3 15.7993 11.7316 17.1876 10.8871 17.9211C10.6407 18.1371 10.3358 18.8621 10.3358 19.6748V23.7235C10.3358 24.9911 9.26257 25.9411 7.81677 25.6877C7.52391 25.6356 7.25817 25.4836 7.06483 25.2576C6.87148 25.0315 6.76248 24.7454 6.75641 24.4481C6.75034 24.1507 6.84756 23.8604 7.03152 23.6266C7.21548 23.3929 7.47479 23.2301 7.76528 23.1661V21.8935C6.59511 21.9717 5.62888 21.7804 4.86762 21.27V21.2695Z" fill="#BDBCC4"/>
</svg>