<svg xmlns="http://www.w3.org/2000/svg" width="27" height="27" viewBox="0 0 27 27" fill="none">
  <path d="M13.6428 9.94126C12.62 9.94126 11.6391 10.3475 10.9159 11.0707C10.1927 11.7939 9.78646 12.7748 9.78646 13.7976C9.78646 14.8203 10.1927 15.8012 10.9159 16.5244C11.6391 17.2476 12.62 17.6539 13.6428 17.6539C14.6655 17.6539 15.6464 17.2476 16.3696 16.5244C17.0928 15.8012 17.4991 14.8203 17.4991 13.7976C17.4991 12.7748 17.0928 11.7939 16.3696 11.0707C15.6464 10.3475 14.6655 9.94126 13.6428 9.94126ZM13.6428 7.37072C15.3473 7.37072 16.982 8.04783 18.1872 9.2531C19.3925 10.4584 20.0696 12.0931 20.0696 13.7976C20.0696 15.5021 19.3925 17.1368 18.1872 18.342C16.982 19.5473 15.3473 20.2244 13.6428 20.2244C11.9383 20.2244 10.3036 19.5473 9.0983 18.342C7.89303 17.1368 7.21592 15.5021 7.21592 13.7976C7.21592 12.0931 7.89303 10.4584 9.0983 9.2531C10.3036 8.04783 11.9383 7.37072 13.6428 7.37072ZM21.998 7.04915C22.0018 7.26252 21.9631 7.47452 21.884 7.67275C21.805 7.87098 21.6872 8.05149 21.5377 8.20372C21.3881 8.35596 21.2097 8.47687 21.0129 8.55941C20.8161 8.64196 20.6049 8.68447 20.3914 8.68447C20.178 8.68447 19.9668 8.64196 19.77 8.55941C19.5732 8.47687 19.3948 8.35596 19.2452 8.20372C19.0957 8.05149 18.9779 7.87098 18.8989 7.67275C18.8198 7.47452 18.7811 7.26252 18.7849 7.04915C18.7923 6.62799 18.9649 6.2266 19.2654 5.9314C19.5658 5.63619 19.9702 5.47079 20.3914 5.47079C20.8127 5.47079 21.2171 5.63619 21.5175 5.9314C21.818 6.2266 21.9906 6.62799 21.998 7.04915ZM13.6438 3.5144C10.4634 3.5144 9.94345 3.52349 8.46433 3.58861C7.45671 3.63657 6.78026 3.77136 6.15327 4.01569C5.59545 4.23125 5.19311 4.49022 4.76502 4.91932C4.36261 5.308 4.05319 5.78256 3.85988 6.30757C3.61605 6.93708 3.48126 7.61202 3.43431 8.61863C3.36768 10.0377 3.36011 10.5339 3.36011 13.7981C3.36011 16.9779 3.36919 17.4969 3.43431 18.9765C3.48227 19.9831 3.61706 20.6606 3.85988 21.2866C4.07846 21.8454 4.33542 22.2477 4.76249 22.6748C5.19563 23.1064 5.59797 23.3649 6.15075 23.5784C6.78581 23.8238 7.46176 23.9601 8.46433 24.0065C9.88338 24.0732 10.3796 24.0807 13.6438 24.0807C16.8236 24.0807 17.3426 24.0722 18.8222 24.0065C19.8273 23.9591 20.5048 23.8238 21.1323 23.581C21.6886 23.3639 22.0934 23.1054 22.5205 22.6784C22.9537 22.2452 23.2121 21.8429 23.4252 21.2901C23.6695 20.6565 23.8058 19.9791 23.8522 18.9765C23.9189 17.5575 23.9269 17.0612 23.9269 13.7976C23.9269 10.6172 23.9179 10.0983 23.8522 8.61863C23.8048 7.61354 23.6695 6.93455 23.4252 6.30757C23.2314 5.78312 22.9227 5.30875 22.5215 4.91932C22.133 4.51671 21.6584 4.20727 21.1333 4.01418C20.5038 3.76984 19.8273 3.63556 18.8222 3.58861C17.4032 3.52198 16.9074 3.5144 13.6438 3.5144ZM13.6438 0.943359C17.1356 0.943359 17.5713 0.956485 18.9419 1.0206C20.3109 1.08471 21.2428 1.29926 22.0626 1.6183C22.9107 1.94492 23.6261 2.38714 24.3404 3.10045C24.994 3.74302 25.4998 4.5203 25.8225 5.3782C26.1406 6.19701 26.3561 7.12992 26.4202 8.49899C26.4808 9.86957 26.4975 10.3052 26.4975 13.7976C26.4975 17.2899 26.4849 17.7261 26.4202 19.0962C26.3561 20.4652 26.1401 21.3971 25.8225 22.2169C25.5007 23.0753 24.9948 23.8527 24.3404 24.4947C23.6977 25.1481 22.9204 25.6539 22.0626 25.9768C21.2438 26.2949 20.3109 26.5104 18.9419 26.5745C17.5718 26.6351 17.1356 26.6518 13.6433 26.6518C10.1509 26.6518 9.71528 26.6392 8.34469 26.5745C6.97613 26.5104 6.04373 26.2944 5.2239 25.9768C4.36565 25.6548 3.58823 25.1489 2.94615 24.4947C2.29237 23.8522 1.78656 23.0749 1.46401 22.2169C1.14546 21.3981 0.930412 20.4652 0.8663 19.0962C0.805721 17.7261 0.789062 17.2899 0.789062 13.7976C0.789062 10.3052 0.802188 9.86957 0.8663 8.49899C0.930412 7.12891 1.14546 6.19802 1.46401 5.3782C1.78589 4.51987 2.29178 3.74242 2.94615 3.10045C3.58843 2.44645 4.36579 1.94061 5.2239 1.6183C6.04373 1.29926 6.97461 1.08471 8.34469 1.0206C9.71528 0.960018 10.1514 0.943359 13.6438 0.943359Z" fill="#BDBCC4"/>
</svg>