<svg xmlns="http://www.w3.org/2000/svg" width="24" height="24" viewBox="0 0 24 24" fill="none">
  <path d="M1.35898 0.150391H21.9263C22.2672 0.150391 22.5941 0.285803 22.8352 0.526838C23.0762 0.767873 23.2116 1.09479 23.2116 1.43566V22.0025C23.2116 22.3434 23.0762 22.6703 22.8352 22.9113C22.5941 23.1524 22.2672 23.2878 21.9263 23.2878H1.35999C1.19117 23.2878 1.02398 23.2546 0.867987 23.1901C0.711992 23.1255 0.570246 23.0309 0.450844 22.9115C0.331442 22.7921 0.236724 22.6504 0.172102 22.4945C0.107479 22.3385 0.0742188 22.1713 0.0742188 22.0025V1.43617C0.0741525 1.26734 0.107348 1.10015 0.171909 0.944159C0.236471 0.788165 0.331132 0.646418 0.450487 0.527016C0.569842 0.407614 0.711552 0.312897 0.867521 0.248275C1.02349 0.183652 1.19016 0.150391 1.35898 0.150391ZM2.64476 2.72144V20.7172H20.6406V2.72144H2.64476ZM5.85793 7.86302C5.34649 7.86302 4.85599 7.65985 4.49434 7.2982C4.13269 6.93655 3.92952 6.44606 3.92952 5.93461C3.92952 5.42316 4.13269 4.93267 4.49434 4.57102C4.85599 4.20937 5.34649 4.0062 5.85793 4.0062C6.36938 4.0062 6.85988 4.20937 7.22152 4.57102C7.58317 4.93267 7.78634 5.42316 7.78634 5.93461C7.78634 6.44606 7.58317 6.93655 7.22152 7.2982C6.85988 7.65985 6.36938 7.86302 5.85793 7.86302ZM4.57266 9.14829H7.14371V18.7888H4.57266V9.14829ZM11.6432 9.70107C12.3938 8.97463 13.2702 8.50565 14.2137 8.50565C16.8761 8.50565 18.7127 10.6638 18.7127 13.3262V18.7888H16.1421V13.3257C16.1421 12.7291 15.9051 12.1569 15.4833 11.7351C15.0614 11.3132 14.4892 11.0762 13.8926 11.0762C13.296 11.0762 12.7239 11.3132 12.302 11.7351C11.8802 12.1569 11.6432 12.7291 11.6432 13.3257V18.7888H9.07212V9.14829H11.6432V9.70107Z" fill="#BDBCC4"/>
</svg>