<svg xmlns="http://www.w3.org/2000/svg" width="27" height="27" viewBox="0 0 27 27" fill="none">
  <path d="M8.10845 23.0047C8.86439 22.6707 9.71233 22.6076 10.5094 22.8259C11.4993 23.096 12.5211 23.2323 13.5534 23.2298C19.4472 23.2298 23.8366 19.0045 23.8366 13.3318C23.8366 7.65916 19.4472 3.43433 13.5534 3.43433C7.65967 3.43433 3.27026 7.65966 3.27026 13.3318C3.27026 16.2497 4.42176 18.8232 6.44002 20.628C6.80666 20.9528 7.10314 21.349 7.31129 21.7924C7.51945 22.2358 7.6349 22.717 7.65058 23.2066L8.10845 23.0047ZM13.5534 0.863281C20.7956 0.863281 26.4076 6.16843 26.4076 13.3323C26.4076 20.4957 20.7956 25.8003 13.5534 25.8003C12.2964 25.8039 11.0445 25.6378 9.83241 25.3071C9.60461 25.2444 9.36217 25.2621 9.14585 25.3571L6.59551 26.4829C6.44142 26.551 6.27295 26.5803 6.10491 26.568C5.93687 26.5558 5.77441 26.5025 5.63181 26.4127C5.48922 26.323 5.37086 26.1996 5.28714 26.0534C5.20343 25.9071 5.15693 25.7426 5.15172 25.5742L5.08105 23.2863C5.0765 23.1472 5.04362 23.0104 4.98442 22.8844C4.92523 22.7583 4.84096 22.6457 4.73676 22.5533C2.23538 20.318 0.699219 17.0811 0.699219 13.3318C0.699219 6.16843 6.31281 0.863281 13.5534 0.863281ZM5.83474 16.9786L9.60978 10.9884C9.75177 10.7628 9.93902 10.5691 10.1597 10.4195C10.3804 10.27 10.6297 10.1678 10.8919 10.1195C11.154 10.0712 11.4234 10.0778 11.6829 10.1389C11.9424 10.2 12.1863 10.3143 12.3994 10.4745L15.4021 12.724C15.5359 12.8249 15.6989 12.8795 15.8665 12.8795C16.0341 12.8795 16.1971 12.8249 16.3309 12.724L20.3867 9.64411C20.9278 9.23419 21.6351 9.88137 21.2726 10.4579L17.4971 16.4476C17.355 16.673 17.1678 16.8666 16.9472 17.0161C16.7265 17.1656 16.4773 17.2677 16.2153 17.316C15.9532 17.3644 15.6839 17.3579 15.4245 17.2969C15.1651 17.236 14.9211 17.1219 14.708 16.962L11.7053 14.7125C11.5714 14.6115 11.4083 14.5568 11.2406 14.5568C11.0729 14.5568 10.9098 14.6115 10.7759 14.7125L6.7202 17.7909C6.17903 18.2013 5.47228 17.5536 5.83474 16.9776V16.9786Z" fill="#BDBCC4"/>
</svg>