<svg xmlns="http://www.w3.org/2000/svg" width="27" height="27" viewBox="0 0 27 27" fill="none">
  <path d="M9.21323 23.0408C9.24453 22.6092 9.30612 22.1786 9.3985 21.7545C9.47927 21.3749 9.72512 20.3017 10.0851 18.7463L10.0941 18.7079L10.5914 16.564C10.6929 16.1268 10.7716 15.7876 10.8241 15.6745C10.5745 15.0973 10.4501 14.4738 10.4591 13.845C10.4591 12.1266 11.4309 10.7949 12.6904 10.7949C12.9201 10.7917 13.1477 10.8391 13.357 10.9338C13.5663 11.0285 13.7522 11.168 13.9015 11.3426C14.2074 11.696 14.3488 12.1705 14.2897 12.6229C14.2897 13.2049 14.1807 13.6487 13.7071 15.2383C13.6163 15.5448 13.5532 15.7583 13.4941 15.9723C13.4285 16.2146 13.3719 16.4327 13.3245 16.6437C13.2635 16.8882 13.2592 17.1434 13.312 17.3898C13.3647 17.6362 13.4731 17.8672 13.6289 18.0653C13.7818 18.2594 13.9791 18.4139 14.2042 18.5158C14.4292 18.6177 14.6755 18.664 14.9222 18.6509C16.84 18.6509 18.2641 16.1001 18.2641 12.8051C18.2641 10.2729 16.6058 8.59692 13.8525 8.59692C13.1632 8.57126 12.4761 8.68893 11.8347 8.94249C11.1932 9.19605 10.6114 9.57998 10.1259 10.07C9.63018 10.5708 9.23907 11.1653 8.97541 11.8188C8.71176 12.4723 8.58084 13.1717 8.59028 13.8763C8.55821 14.6356 8.7907 15.3825 9.24806 15.9895C9.48079 16.1692 9.56963 16.4817 9.47321 16.7477C9.40107 17.0398 9.32568 17.3311 9.24706 17.6216C9.23377 17.7025 9.20175 17.7792 9.15354 17.8456C9.10533 17.9119 9.04227 17.9661 8.9694 18.0037C8.89904 18.0405 8.82091 18.0599 8.74153 18.0603C8.66215 18.0607 8.58382 18.0422 8.51305 18.0063C7.02181 17.3904 6.20451 15.7204 6.20451 13.584C6.20451 9.74741 9.40658 6.40651 14.1635 6.40651C18.1935 6.40651 21.2093 9.40009 21.2093 13.0136C21.2093 17.5534 18.7255 20.8595 15.1802 20.8595C14.676 20.8742 14.1753 20.7704 13.7185 20.5563C13.2617 20.3423 12.8615 20.0241 12.5501 19.6272L12.4951 19.8544L12.229 20.9499L12.2265 20.9584C12.1048 21.462 11.9815 21.9651 11.8565 22.4678C11.7202 22.9242 11.548 23.3715 11.3421 23.8046C13.8998 24.4137 16.5937 24.0199 18.8701 22.7042C21.1465 21.3884 22.8324 19.2507 23.5814 16.7303C24.3303 14.21 24.0854 11.4985 22.897 9.15314C21.7085 6.80778 19.6668 5.00674 17.1915 4.12019C14.7162 3.23364 11.9954 3.32892 9.58815 4.38646C7.18093 5.444 5.27024 7.38345 4.24878 9.8062C3.22732 12.2289 3.17269 14.9509 4.09612 17.4127C5.01955 19.8745 6.85089 21.8891 9.21374 23.0423V23.0408H9.21323ZM13.7253 26.6518C6.62603 26.6518 0.871094 20.8968 0.871094 13.7976C0.871094 6.6983 6.62603 0.943359 13.7253 0.943359C20.8246 0.943359 26.5795 6.6983 26.5795 13.7976C26.5795 20.8968 20.8246 26.6518 13.7253 26.6518Z" fill="#BDBCC4"/>
</svg>