<svg xmlns="http://www.w3.org/2000/svg" width="24" height="24" viewBox="0 0 24 24" fill="none">
  <path d="M14.8529 0.0686118C15.3643 0.0686118 15.8548 0.271783 16.2165 0.63343C16.5781 0.995077 16.7813 1.48558 16.7813 1.99702V8.42337C16.7854 8.6792 16.7386 8.93331 16.6436 9.17087C16.5485 9.40843 16.4072 9.6247 16.2277 9.80709C16.0483 9.98947 15.8343 10.1343 15.5983 10.2332C15.3623 10.3321 15.109 10.383 14.8531 10.383C14.5973 10.383 14.344 10.3321 14.108 10.2332C13.872 10.1343 13.658 9.98947 13.4786 9.80709C13.2991 9.6247 13.1577 9.40843 13.0627 9.17087C12.9677 8.93331 12.9208 8.6792 12.925 8.42337V1.99702C12.925 1.48558 13.1282 0.995077 13.4898 0.63343C13.8514 0.271783 14.3419 0.0686118 14.8534 0.0686118H14.8529ZM1.99918 12.9228H3.92708V14.8512C3.92708 15.2326 3.81398 15.6055 3.60209 15.9226C3.39019 16.2397 3.08901 16.4869 2.73664 16.6329C2.38427 16.7788 1.99653 16.817 1.62246 16.7426C1.24838 16.6682 0.904774 16.4845 0.635081 16.2148C0.365388 15.9451 0.181724 15.6015 0.107316 15.2274C0.0329081 14.8534 0.0710974 14.4656 0.217054 14.1133C0.363011 13.7609 0.61018 13.4597 0.927305 13.2478C1.24443 13.0359 1.61727 12.9228 1.99867 12.9228H1.99918ZM12.925 19.3497H14.8534C15.2348 19.3497 15.6076 19.4628 15.9248 19.6747C16.2419 19.8866 16.4891 20.1877 16.635 20.5401C16.781 20.8925 16.8192 21.2802 16.7447 21.6543C16.6703 22.0284 16.4867 22.372 16.217 22.6417C15.9473 22.9114 15.6037 23.095 15.2296 23.1694C14.8555 23.2439 14.4678 23.2057 14.1154 23.0597C13.7631 22.9137 13.4619 22.6666 13.25 22.3495C13.0381 22.0323 12.925 21.6595 12.925 21.2781V19.3497ZM14.8534 12.9228H21.2797C21.7857 12.931 22.2682 13.1378 22.6231 13.4985C22.978 13.8592 23.177 14.3449 23.177 14.851C23.177 15.357 22.978 15.8428 22.6231 16.2035C22.2682 16.5642 21.7857 16.771 21.2797 16.7791H14.8534C14.3419 16.7791 13.8514 16.576 13.4898 16.2143C13.1282 15.8527 12.925 15.3622 12.925 14.8507C12.925 14.3393 13.1282 13.8488 13.4898 13.4871C13.8514 13.1255 14.3419 12.9228 14.8534 12.9228ZM21.2797 6.49597C21.5366 6.49009 21.7921 6.53561 22.0312 6.62986C22.2702 6.7241 22.488 6.86517 22.6718 7.04477C22.8555 7.22438 23.0015 7.4389 23.1012 7.67573C23.2009 7.91256 23.2523 8.16692 23.2523 8.42387C23.2523 8.68083 23.2009 8.9352 23.1012 9.17203C23.0015 9.40886 22.8555 9.62337 22.6718 9.80298C22.488 9.98258 22.2702 10.1237 22.0312 10.2179C21.7921 10.3121 21.5366 10.3577 21.2797 10.3518H19.3518V8.42337C19.352 7.91201 19.5552 7.42164 19.9168 7.06011C20.2785 6.69857 20.7689 6.49547 21.2802 6.49547L21.2797 6.49597ZM1.99867 6.49597H8.42603C8.92971 6.5075 9.40887 6.71568 9.76101 7.07597C10.1132 7.43627 10.3103 7.92007 10.3103 8.42387C10.3103 8.92768 10.1132 9.41148 9.76101 9.77178C9.40887 10.1321 8.92971 10.3403 8.42603 10.3518H1.99867C1.74284 10.3559 1.48874 10.3091 1.25118 10.2141C1.01361 10.119 0.797341 9.97766 0.614957 9.7982C0.432573 9.61874 0.287726 9.40479 0.188854 9.16879C0.0899819 8.9328 0.0390625 8.67949 0.0390625 8.42362C0.0390625 8.16775 0.0899819 7.91445 0.188854 7.67845C0.287726 7.44246 0.432573 7.2285 0.614957 7.04905C0.797341 6.86959 1.01361 6.72822 1.25118 6.63318C1.48874 6.53814 1.74284 6.49183 1.99867 6.49597ZM8.42603 0.0686118C8.93748 0.0686118 9.42798 0.271783 9.78962 0.63343C10.1513 0.995077 10.3544 1.48558 10.3544 1.99702V3.92493H8.42603C8.1702 3.92907 7.9161 3.88225 7.67854 3.78721C7.44097 3.69217 7.2247 3.5508 7.04232 3.37135C6.85993 3.19189 6.71509 2.97793 6.61621 2.74194C6.51734 2.50595 6.46642 2.25264 6.46642 1.99677C6.46642 1.7409 6.51734 1.48759 6.61621 1.2516C6.71509 1.0156 6.85993 0.801647 7.04232 0.622191C7.2247 0.442734 7.44097 0.301368 7.67854 0.206328C7.9161 0.111287 8.1702 0.0644721 8.42603 0.0686118ZM8.42603 12.9228C8.93748 12.9228 9.42798 13.126 9.78962 13.4876C10.1513 13.8493 10.3544 14.3398 10.3544 14.8512V21.2776C10.3544 21.5308 10.3046 21.7816 10.2077 22.0156C10.1107 22.2495 9.96869 22.4621 9.78962 22.6412C9.61055 22.8202 9.39797 22.9623 9.164 23.0592C8.93004 23.1561 8.67927 23.206 8.42603 23.206C8.17279 23.206 7.92203 23.1561 7.68806 23.0592C7.4541 22.9623 7.24151 22.8202 7.06244 22.6412C6.88337 22.4621 6.74133 22.2495 6.64441 22.0156C6.5475 21.7816 6.49762 21.5308 6.49762 21.2776V14.8512C6.49762 14.3398 6.70079 13.8493 7.06244 13.4876C7.42409 13.126 7.91459 12.9228 8.42603 12.9228Z" fill="#BDBCC4"/>
</svg>