<svg xmlns="http://www.w3.org/2000/svg" width="32" height="18" viewBox="0 0 32 18" fill="none">
  <path d="M5.44627 6.06542C5.6151 6.06536 5.78228 6.09855 5.93828 6.16311C6.09427 6.22768 6.23602 6.32234 6.35542 6.44169C6.47482 6.56105 6.56954 6.70276 6.63416 6.85873C6.69878 7.01469 6.73205 7.18187 6.73205 7.35069V16.3486C6.73205 16.6895 6.59661 17.0165 6.35552 17.2576C6.11444 17.4987 5.78747 17.6341 5.44652 17.6341C5.10558 17.6341 4.7786 17.4987 4.53752 17.2576C4.29644 17.0165 4.161 16.6895 4.161 16.3486V7.35069C4.161 7.18187 4.19426 7.01469 4.25889 6.85873C4.32351 6.70276 4.41822 6.56105 4.53763 6.44169C4.65703 6.32234 4.79878 6.22768 4.95477 6.16311C5.11076 6.09855 5.27795 6.06536 5.44678 6.06542H5.44627ZM9.30309 7.35069C9.47192 7.35069 9.63909 7.38396 9.79506 7.44858C9.95103 7.5132 10.0927 7.60792 10.2121 7.72732C10.3314 7.84672 10.4261 7.98847 10.4907 8.14446C10.5552 8.30046 10.5884 8.46764 10.5884 8.63647V16.3486C10.5884 16.6895 10.4529 17.0165 10.2118 17.2576C9.97076 17.4987 9.64378 17.6341 9.30284 17.6341C8.9619 17.6341 8.63492 17.4987 8.39384 17.2576C8.15275 17.0165 8.01732 16.6895 8.01732 16.3486V8.63647C8.01725 8.46764 8.05044 8.30046 8.11501 8.14446C8.17957 7.98847 8.27423 7.84672 8.39358 7.72732C8.51294 7.60792 8.65465 7.5132 8.81062 7.44858C8.96659 7.38396 9.13376 7.35069 9.30258 7.35069H9.30309ZM13.1589 2.20911C13.3277 2.20904 13.4949 2.24224 13.6509 2.3068C13.8069 2.37136 13.9486 2.46602 14.068 2.58538C14.1874 2.70473 14.2822 2.84644 14.3468 3.00241C14.4114 3.15838 14.4447 3.32555 14.4447 3.49438V16.3486C14.4447 16.6895 14.3092 17.0165 14.0682 17.2576C13.8271 17.4987 13.5001 17.6341 13.1592 17.6341C12.8182 17.6341 12.4912 17.4987 12.2502 17.2576C12.0091 17.0165 11.8736 16.6895 11.8736 16.3486V3.49438C11.8736 3.1535 12.009 2.82659 12.2501 2.58556C12.4911 2.34452 12.818 2.20911 13.1589 2.20911ZM19.5863 0.923839C21.5817 0.923746 23.4995 1.6971 24.9367 3.08139C26.3739 4.46569 27.2186 6.35316 27.2933 8.34721L27.2974 8.6814C28.4035 8.83914 29.4114 9.40285 30.1248 10.2628C30.8382 11.1227 31.206 12.2174 31.1568 13.3336C31.1075 14.4499 30.6447 15.5078 29.8583 16.3016C29.0719 17.0954 28.0183 17.5681 26.9026 17.6278L26.6557 17.6344H22.1558C21.8276 17.6349 21.5116 17.5099 21.2726 17.2849C21.0336 17.06 20.8898 16.7521 20.8706 16.4244C20.8513 16.0968 20.9581 15.7742 21.1692 15.5228C21.3802 15.2714 21.6793 15.1103 22.0054 15.0724L22.1568 15.0633H26.5876L26.7653 15.0608C27.2285 15.0365 27.6675 14.846 28.0017 14.5242C28.3358 14.2024 28.5427 13.7709 28.5844 13.3089C28.6262 12.8469 28.4999 12.3854 28.2288 12.0089C27.9577 11.6325 27.56 11.3664 27.1086 11.2595L26.9349 11.2262L24.6597 10.9026L24.7278 8.60567L24.7228 8.37901C24.659 7.10563 24.1244 5.90136 23.2227 4.99996C22.321 4.09855 21.1166 3.56431 19.8432 3.50094L19.5858 3.49438C19.2415 3.49438 18.9037 3.5277 18.5731 3.59332L18.3005 3.65643V16.3486C18.3005 16.6635 18.185 16.9674 17.9758 17.2027C17.7666 17.4381 17.4784 17.5884 17.1656 17.6253L17.0152 17.6339C16.6743 17.6339 16.3474 17.4984 16.1064 17.2574C15.8654 17.0164 15.7299 16.6895 15.7299 16.3486L15.7284 1.95619C16.9008 1.27774 18.2318 0.921567 19.5863 0.923839ZM1.59046 8.63596C1.93134 8.63596 2.25825 8.77137 2.49928 9.01241C2.74032 9.25344 2.87573 9.58036 2.87573 9.92123V15.0628C2.87573 15.4038 2.74029 15.7307 2.49921 15.9718C2.25813 16.2129 1.93115 16.3483 1.59021 16.3483C1.24927 16.3483 0.92229 16.2129 0.681208 15.9718C0.440126 15.7307 0.304688 15.4038 0.304688 15.0628V9.92174C0.304688 9.58073 0.440153 9.25369 0.681282 9.01256C0.922412 8.77143 1.24945 8.63596 1.59046 8.63596Z" fill="#BDBCC4"/>
</svg>