<svg xmlns="http://www.w3.org/2000/svg" width="806" height="1703" viewBox="0 0 806 1703" fill="none">
  <g filter="url(#filter0_f_99_17753)">
    <path d="M244.669 1233.59L131.627 1122.51C128.082 1119.02 125.666 1114.27 124.773 1109.03C123.879 1103.8 124.555 1098.37 126.701 1093.63C148.69 1044.43 157.683 989.051 152.595 934.168C147.506 879.292 128.551 827.257 98.0215 784.361C79.2239 757.976 56.4594 735.604 30.7779 718.282C-10.9978 690.187 -59.0246 676.407 -107.523 678.614C-156.022 680.82 -202.929 698.908 -242.599 730.712C-246.417 733.786 -251.025 735.324 -255.7 735.076C-260.37 734.827 -264.839 732.809 -268.383 729.339L-381.422 618.254C-383.712 616.018 -385.553 613.247 -386.812 610.128C-388.07 607.009 -388.723 603.618 -388.722 600.185C-388.726 596.753 -388.071 593.362 -386.81 590.243C-385.555 587.124 -383.714 584.351 -381.425 582.116C-307.208 510.812 -214.314 469.451 -117.246 464.489C-20.1734 459.525 75.6107 491.24 155.152 554.682C179.493 574.048 202.022 596.188 222.396 620.762C289.106 701.059 330.561 804.209 340.291 914.103C350.022 1024 327.481 1134.48 276.186 1228.28C274.578 1231.2 272.433 1233.69 269.899 1235.57C267.364 1237.46 264.5 1238.69 261.505 1239.2C258.509 1239.71 255.453 1239.46 252.546 1238.5C249.639 1237.53 246.952 1235.86 244.669 1233.59Z" fill="url(#paint0_linear_99_17753)"/>
  </g>
  <defs>
    <filter id="filter0_f_99_17753" x="-851.895" y="0.810242" width="1657.57" height="1701.82" filterUnits="userSpaceOnUse" color-interpolation-filters="sRGB">
      <feFlood flood-opacity="0" result="BackgroundImageFix"/>
      <feBlend mode="normal" in="SourceGraphic" in2="BackgroundImageFix" result="shape"/>
      <feGaussianBlur stdDeviation="231.586" result="effect1_foregroundBlur_99_17753"/>
    </filter>
    <linearGradient id="paint0_linear_99_17753" x1="417.427" y1="1106.11" x2="-638.143" y2="303.679" gradientUnits="userSpaceOnUse">
      <stop stop-color="#17CCFC"/>
      <stop offset="0.473958" stop-color="#9EFF00"/>
    </linearGradient>
  </defs>
</svg>