

<svg xmlns="http://www.w3.org/2000/svg" width="1790" height="548" viewBox="0 0 1790 548" fill="none">
  <g filter="url(#filter0_f_99_17773)">
    <path d="M425.222 -365.524L583.496 -357.293C588.464 -357.03 593.42 -355.077 597.561 -351.748C601.702 -348.419 604.793 -343.908 606.33 -338.935C622.481 -287.524 652.46 -240.1 692.653 -202.384C732.84 -164.671 781.527 -138.279 832.821 -126.401C864.385 -119.109 896.26 -117.45 926.97 -121.506C976.872 -128.165 1021.96 -149.686 1056.81 -183.489C1091.66 -217.291 1114.79 -261.929 1123.41 -312.038C1124.23 -316.87 1126.66 -321.077 1130.32 -323.991C1133.98 -326.9 1138.67 -328.352 1143.62 -328.103L1301.89 -319.87C1305.09 -319.714 1308.3 -318.86 1311.31 -317.359C1314.32 -315.858 1317.06 -313.752 1319.34 -311.181C1321.61 -308.615 1323.37 -305.641 1324.49 -302.47C1325.62 -299.304 1326.08 -296.007 1325.85 -292.816C1317.55 -190.231 1275.42 -97.6836 1206.04 -29.6204C1136.65 38.4471 1043.91 78.1996 942.306 83.4308C911.244 85.0672 879.7 83.4255 848.155 78.5339C744.979 62.6393 645.563 12.8935 565.427 -62.9337C485.286 -138.765 428.927 -236.419 405.148 -340.653C404.418 -343.904 404.375 -347.187 405.02 -350.282C405.669 -353.372 406.994 -356.195 408.902 -358.56C410.809 -360.924 413.259 -362.768 416.074 -363.974C418.893 -365.175 422.011 -365.706 425.222 -365.524Z" fill="url(#paint0_linear_99_17773)"/>
  </g>
  <defs>
    <filter id="filter0_f_99_17773" x="-58.6058" y="-828.731" width="1847.69" height="1375.95" filterUnits="userSpaceOnUse" color-interpolation-filters="sRGB">
      <feFlood flood-opacity="0" result="BackgroundImageFix"/>
      <feBlend mode="normal" in="SourceGraphic" in2="BackgroundImageFix" result="shape"/>
      <feGaussianBlur stdDeviation="231.586" result="effect1_foregroundBlur_99_17773"/>
    </filter>
    <linearGradient id="paint0_linear_99_17773" x1="380.392" y1="-155.553" x2="1702.63" y2="-254.535" gradientUnits="userSpaceOnUse">
      <stop stop-color="#17CCFC"/>
      <stop offset="0.473958" stop-color="#9EFF00"/>
    </linearGradient>
  </defs>
</svg>