<svg xmlns="http://www.w3.org/2000/svg" width="27" height="23" viewBox="0 0 27 23" fill="none">
  <path d="M18.7994 3.34562C17.8224 3.34546 16.8844 3.72888 16.1872 4.41338C15.4901 5.09787 15.0896 6.02871 15.0718 7.00556L15.036 9.02988C15.0339 9.13862 15.0088 9.2457 14.9625 9.34407C14.9161 9.44244 14.8494 9.5299 14.7668 9.60069C14.6843 9.67148 14.5877 9.72402 14.4834 9.75484C14.3791 9.78566 14.2694 9.79408 14.1616 9.77954L12.155 9.50694C9.51478 9.147 6.98563 7.93089 4.55846 5.90909C3.78962 10.1637 5.29095 13.1108 8.90697 15.3845L11.1524 16.7965C11.2593 16.8634 11.348 16.9555 11.411 17.0647C11.474 17.174 11.5091 17.297 11.5135 17.4229C11.5178 17.5489 11.4912 17.6741 11.4359 17.7873C11.3806 17.9006 11.2983 17.9986 11.1963 18.0727L9.14979 19.568C10.3674 19.6437 11.5224 19.5897 12.4816 19.3994C18.5465 18.1883 22.5795 13.6253 22.5795 6.09789C22.5795 5.48353 21.2781 3.34562 18.7994 3.34562ZM12.5008 6.9576C12.5233 5.71854 12.9108 4.51365 13.6149 3.49379C14.3189 2.47393 15.3081 1.68442 16.4587 1.22409C17.6093 0.763764 18.8702 0.653085 20.0834 0.90591C21.2966 1.15873 22.4082 1.76383 23.2792 2.64543C24.1929 2.63887 24.9708 2.87008 26.7099 1.81601C26.2793 3.92414 26.0673 4.83988 25.15 6.09789C25.15 15.9212 19.1124 20.6973 12.9859 21.9199C8.78481 22.7579 2.67649 21.3813 0.925781 19.5538C1.8178 19.4842 5.4429 19.0945 7.5379 17.5613C5.76548 16.3927 -1.29038 12.2405 3.34639 1.07847C5.52216 3.61973 7.72973 5.34975 9.96608 6.26802C11.4548 6.87834 11.8198 6.86522 12.5023 6.95911L12.5008 6.9576Z" fill="#BDBCC4"/>
</svg>