<svg width="46" height="46" viewBox="0 0 46 46" fill="none" xmlns="http://www.w3.org/2000/svg">
<g id="Discord">
<path id="Vector" d="M36.0193 11.0813C33.6499 9.99412 31.109 9.19312 28.4524 8.73435C28.404 8.72549 28.3557 8.74762 28.3308 8.79188C28.004 9.37308 27.6421 10.1313 27.3886 10.7273C24.5312 10.2995 21.6885 10.2995 18.8897 10.7273C18.6362 10.118 18.2611 9.37308 17.9328 8.79188C17.9079 8.7491 17.8596 8.72697 17.8112 8.73435C15.1561 9.19164 12.6152 9.99265 10.2443 11.0813C10.2238 11.0902 10.2062 11.1049 10.1945 11.1241C5.37504 18.3243 4.05478 25.3475 4.70246 32.2836C4.70539 32.3175 4.72444 32.35 4.75081 32.3706C7.93056 34.7058 11.0107 36.1234 14.0336 37.0631C14.082 37.0778 14.1333 37.0601 14.164 37.0203C14.8791 36.0437 15.5165 35.0141 16.0631 33.9313C16.0953 33.8679 16.0646 33.7927 15.9986 33.7676C14.9875 33.3841 14.0248 32.9164 13.0988 32.3854C13.0255 32.3426 13.0196 32.2379 13.087 32.1877C13.2819 32.0417 13.4768 31.8897 13.6629 31.7363C13.6966 31.7083 13.7435 31.7024 13.7831 31.7201C19.8671 34.4978 26.4537 34.4978 32.4659 31.7201C32.5055 31.7009 32.5524 31.7068 32.5875 31.7348C32.7736 31.8883 32.9685 32.0417 33.1649 32.1877C33.2323 32.2379 33.2279 32.3426 33.1546 32.3854C32.2285 32.9268 31.2658 33.3841 30.2533 33.7661C30.1873 33.7912 30.158 33.8679 30.1903 33.9313C30.7486 35.0126 31.386 36.0423 32.0879 37.0188C32.1172 37.0601 32.1699 37.0778 32.2183 37.0631C35.2559 36.1234 38.336 34.7058 41.5157 32.3706C41.5436 32.35 41.5612 32.319 41.5641 32.2851C42.3392 24.2662 40.2658 17.3005 36.0677 11.1256C36.0574 11.1049 36.0398 11.0902 36.0193 11.0813ZM16.9716 28.0602C15.1399 28.0602 13.6307 26.3786 13.6307 24.3134C13.6307 22.2482 15.1106 20.5665 16.9716 20.5665C18.8472 20.5665 20.3418 22.2629 20.3125 24.3134C20.3125 26.3786 18.8326 28.0602 16.9716 28.0602ZM29.3243 28.0602C27.4926 28.0602 25.9833 26.3786 25.9833 24.3134C25.9833 22.2482 27.4633 20.5665 29.3243 20.5665C31.1999 20.5665 32.6945 22.2629 32.6652 24.3134C32.6652 26.3786 31.1999 28.0602 29.3243 28.0602Z" fill="#5865F2"/>
</g>
</svg>
