<svg width="35" height="34" viewBox="0 0 35 34" fill="none" xmlns="http://www.w3.org/2000/svg">
<g id="Group 4">
<path id="Vector" fill-rule="evenodd" clip-rule="evenodd" d="M17.5223 0.186523C8.28465 0.186523 0.794922 7.67625 0.794922 16.9159C0.794922 24.3071 5.58781 30.5768 12.2354 32.7899C13.0724 32.9429 13.3774 32.4263 13.3774 31.9827C13.3774 31.5863 13.363 30.5336 13.3548 29.138C8.7016 30.1485 7.71981 26.895 7.71981 26.895C6.95882 24.9633 5.86201 24.4488 5.86201 24.4488C4.34312 23.4105 5.97704 23.4311 5.97704 23.4311C7.65614 23.5502 8.53934 25.1554 8.53934 25.1554C10.0315 27.7115 12.4552 26.9731 13.4082 26.5459C13.5602 25.4645 13.9915 24.7271 14.4701 24.3091C10.7555 23.887 6.84996 22.4513 6.84996 16.041C6.84996 14.215 7.50209 12.7218 8.5722 11.552C8.39967 11.1289 7.82559 9.42826 8.73549 7.12476C8.73549 7.12476 10.1404 6.67495 13.3363 8.83981C14.6704 8.46907 16.102 8.28319 17.5243 8.27703C18.9446 8.28319 20.3762 8.46907 21.7123 8.83981C24.9062 6.67495 26.3081 7.12476 26.3081 7.12476C27.221 9.42826 26.647 11.1289 26.4744 11.552C27.5466 12.7218 28.1946 14.215 28.1946 16.041C28.1946 22.4678 24.2829 23.8819 20.556 24.2958C21.1567 24.8123 21.6918 25.8332 21.6918 27.3942C21.6918 29.6299 21.6713 31.4343 21.6713 31.9827C21.6713 32.4304 21.9722 32.9511 22.8215 32.7878C29.4639 30.5706 34.2527 24.305 34.2527 16.9159C34.2527 7.67625 26.762 0.186523 17.5223 0.186523Z" fill="black"/>
</g>
</svg>
