<svg width="953" height="947" viewBox="0 0 953 947" fill="none" xmlns="http://www.w3.org/2000/svg">
<path opacity="0.1" d="M392.018 501.712H440.919M392.018 501.712V557.311M392.018 501.712V446.113M392.018 501.712H343.118M440.919 501.712V557.311M440.919 501.712V446.113M440.919 501.712H489.819M392.018 557.311H440.919M392.018 557.311V612.91M392.018 557.311H343.118M392.018 446.113V390.513M392.018 446.113H440.919M392.018 446.113H343.118M343.118 501.712H294.218M343.118 501.712V557.311M343.118 501.712V446.113M440.919 557.311V612.91M440.919 557.311H489.819M440.919 446.113V390.513M440.919 446.113H489.819M489.819 501.712V557.311M489.819 501.712V446.113M489.819 501.712H538.719M440.919 612.91H392.018M440.919 612.91V668.51M440.919 612.91H489.819M489.819 557.311V612.91M489.819 557.311H538.719M392.018 612.91V668.51M392.018 612.91H343.118M343.118 557.311H294.218M343.118 557.311V612.91M440.919 668.51H392.018M440.919 668.51V724.109M440.919 668.51H489.819M489.819 612.91V668.51M489.819 612.91H538.719M392.018 668.51V724.109M392.018 668.51H343.118M343.118 612.91H294.218M343.118 612.91V668.51M440.919 1.31836H392.018M440.919 1.31836V56.9176M440.919 1.31836H489.819M392.018 1.31836V56.9176M392.018 1.31836H343.118M440.919 56.9176H392.018M440.919 56.9176V112.517M440.919 56.9176H489.819M489.819 1.31836V56.9176M489.819 1.31836H538.719M392.018 56.9176V112.517M392.018 56.9176H343.118M343.118 1.31836H294.218M343.118 1.31836V56.9176M440.919 724.109H392.018M440.919 724.109V779.708M440.919 724.109H489.819M489.819 668.51V724.109M489.819 668.51H538.719M392.018 724.109V779.708M392.018 724.109H343.118M343.118 668.51H294.218M343.118 668.51V724.109M440.919 112.517H392.018M440.919 112.517V168.116M440.919 112.517H489.819M489.819 56.9176V112.517M489.819 56.9176H538.719M392.018 112.517V168.116M392.018 112.517H343.118M343.118 56.9176H294.218M343.118 56.9176V112.517M440.919 779.708H392.018M440.919 779.708V835.307M440.919 779.708H489.819M489.819 724.109V779.708M489.819 724.109H538.719M392.018 779.708V835.307M392.018 779.708H343.118M343.118 724.109H294.218M343.118 724.109V779.708M440.919 168.116H392.018M440.919 168.116V223.715M440.919 168.116H489.819M489.819 112.517V168.116M489.819 112.517H538.719M392.018 168.116V223.715M392.018 168.116H343.118M343.118 112.517H294.218M343.118 112.517V168.116M440.919 835.307H392.018M440.919 835.307V890.907M440.919 835.307H489.819M489.819 779.708V835.307M489.819 779.708H538.719M392.018 835.307V890.907M392.018 835.307H343.118M343.118 779.708H294.218M343.118 779.708V835.307M440.919 223.715H392.018M440.919 223.715V279.315M440.919 223.715H489.819M489.819 168.116V223.715M489.819 168.116H538.719M392.018 223.715V279.315M392.018 223.715H343.118M343.118 168.116H294.218M343.118 168.116V223.715M440.919 890.907H392.018M440.919 890.907V946.506M440.919 890.907H489.819M489.819 835.307V890.907M489.819 835.307H538.719M392.018 890.907V946.506M392.018 890.907H343.118M343.118 835.307H294.218M343.118 835.307V890.907M440.919 279.315H392.018M440.919 279.315V334.914M440.919 279.315H489.819M489.819 223.715V279.315M489.819 223.715H538.719M392.018 279.315V334.914M392.018 279.315H343.118M343.118 223.715H294.218M343.118 223.715V279.315M440.919 946.506H392.018M440.919 946.506H489.819M489.819 890.907V946.506M489.819 890.907H538.719M392.018 946.506H343.118M343.118 890.907H294.218M343.118 890.907V946.506M440.919 334.914H392.018M440.919 334.914V390.513M440.919 334.914H489.819M489.819 279.315V334.914M489.819 279.315H538.719M392.018 334.914V390.513M392.018 334.914H343.118M343.118 279.315H294.218M343.118 279.315V334.914M489.819 946.506H538.719M343.118 946.506H294.218M440.919 390.513H392.018M440.919 390.513H489.819M489.819 334.914V390.513M489.819 334.914H538.719M392.018 390.513H343.118M343.118 334.914H294.218M343.118 334.914V390.513M489.819 390.513V446.113M489.819 390.513H538.719M343.118 390.513H294.218M343.118 390.513V446.113M489.819 446.113H538.719M343.118 446.113H294.218M538.719 501.712V557.311M538.719 501.712V446.113M538.719 501.712H587.619M538.719 557.311V612.91M538.719 557.311H587.619M538.719 612.91V668.51M538.719 612.91H587.619M538.719 1.31836V56.9176M538.719 1.31836H587.619M538.719 668.51V724.109M538.719 668.51H587.619M538.719 56.9176V112.517M538.719 56.9176H587.619M538.719 724.109V779.708M538.719 724.109H587.619M538.719 112.517V168.116M538.719 112.517H587.619M538.719 779.708V835.307M538.719 779.708H587.619M538.719 168.116V223.715M538.719 168.116H587.619M538.719 835.307V890.907M538.719 835.307H587.619M538.719 223.715V279.315M538.719 223.715H587.619M538.719 890.907V946.506M538.719 890.907H587.619M538.719 279.315V334.914M538.719 279.315H587.619M538.719 946.506H587.619M538.719 334.914V390.513M538.719 334.914H587.619M538.719 390.513V446.113M538.719 390.513H587.619M538.719 446.113H587.619M587.619 501.712V557.311M587.619 501.712V446.113M587.619 501.712H636.52M587.619 557.311V612.91M587.619 557.311H636.52M587.619 612.91V668.51M587.619 612.91H636.52M587.619 1.31836V56.9176M587.619 1.31836H636.52M587.619 668.51V724.109M587.619 668.51H636.52M587.619 56.9176V112.517M587.619 56.9176H636.52M587.619 724.109V779.708M587.619 724.109H636.52M587.619 112.517V168.116M587.619 112.517H636.52M587.619 779.708V835.307M587.619 779.708H636.52M587.619 168.116V223.715M587.619 168.116H636.52M587.619 835.307V890.907M587.619 835.307H636.52M587.619 223.715V279.315M587.619 223.715H636.52M587.619 890.907V946.506M587.619 890.907H636.52M587.619 279.315V334.914M587.619 279.315H636.52M587.619 946.506H636.52M587.619 334.914V390.513M587.619 334.914H636.52M587.619 390.513V446.113M587.619 390.513H636.52M587.619 446.113H636.52M0.816406 501.712V557.311M0.816406 501.712V446.113M0.816406 501.712H49.7166M0.816406 557.311V612.91M0.816406 557.311H49.7166M0.816406 446.113V390.513M0.816406 446.113H49.7166M49.7166 501.712V557.311M49.7166 501.712V446.113M49.7166 501.712H98.6169M0.816406 612.91V668.51M0.816406 612.91H49.7166M49.7166 557.311V612.91M49.7166 557.311H98.6169M0.816406 668.51V724.109M0.816406 668.51H49.7166M49.7166 612.91V668.51M49.7166 612.91H98.6169M0.816406 724.109V779.708M0.816406 724.109H49.7166M49.7166 668.51V724.109M49.7166 668.51H98.6169M0.816406 56.9176V1.31836H49.7166M0.816406 56.9176V112.517M0.816406 56.9176H49.7166M49.7166 1.31836V56.9176M49.7166 1.31836H98.6169M0.816406 112.517V168.116M0.816406 112.517H49.7166M49.7166 56.9176V112.517M49.7166 56.9176H98.6169M0.816406 779.708V835.307M0.816406 779.708H49.7166M49.7166 724.109V779.708M49.7166 724.109H98.6169M0.816406 168.116V223.715M0.816406 168.116H49.7166M49.7166 112.517V168.116M49.7166 112.517H98.6169M0.816406 835.307V890.907M0.816406 835.307H49.7166M49.7166 779.708V835.307M49.7166 779.708H98.6169M0.816406 223.715V279.315M0.816406 223.715H49.7166M49.7166 168.116V223.715M49.7166 168.116H98.6169M0.816406 890.907V946.506H49.7166M0.816406 890.907H49.7166M49.7166 835.307V890.907M49.7166 835.307H98.6169M0.816406 279.315V334.914M0.816406 279.315H49.7166M49.7166 223.715V279.315M49.7166 223.715H98.6169M49.7166 946.506V890.907M49.7166 946.506H98.6169M49.7166 890.907H98.6169M0.816406 334.914V390.513M0.816406 334.914H49.7166M49.7166 279.315V334.914M49.7166 279.315H98.6169M0.816406 390.513H49.7166M49.7166 334.914V390.513M49.7166 334.914H98.6169M49.7166 390.513V446.113M49.7166 390.513H98.6169M49.7166 446.113H98.6169M636.52 501.712V557.311M636.52 501.712V446.113M636.52 501.712H685.42M636.52 557.311V612.91M636.52 557.311H685.42M636.52 612.91V668.51M636.52 612.91H685.42M636.52 1.31836V56.9176M636.52 1.31836H685.42M636.52 668.51V724.109M636.52 668.51H685.42M636.52 56.9176V112.517M636.52 56.9176H685.42M636.52 724.109V779.708M636.52 724.109H685.42M636.52 112.517V168.116M636.52 112.517H685.42M636.52 779.708V835.307M636.52 779.708H685.42M636.52 168.116V223.715M636.52 168.116H685.42M636.52 835.307V890.907M636.52 835.307H685.42M636.52 223.715V279.315M636.52 223.715H685.42M636.52 890.907V946.506M636.52 890.907H685.42M636.52 279.315V334.914M636.52 279.315H685.42M636.52 946.506H685.42M636.52 334.914V390.513M636.52 334.914H685.42M636.52 390.513V446.113M636.52 390.513H685.42M636.52 446.113H685.42M98.6169 501.712V557.311M98.6169 501.712V446.113M98.6169 501.712H147.517M98.6169 557.311V612.91M98.6169 557.311H147.517M98.6169 612.91V668.51M98.6169 612.91H147.517M98.6169 1.31836V56.9176M98.6169 1.31836H147.517M98.6169 668.51V724.109M98.6169 668.51H147.517M98.6169 56.9176V112.517M98.6169 56.9176H147.517M98.6169 724.109V779.708M98.6169 724.109H147.517M98.6169 112.517V168.116M98.6169 112.517H147.517M98.6169 779.708V835.307M98.6169 779.708H147.517M98.6169 168.116V223.715M98.6169 168.116H147.517M98.6169 835.307V890.907M98.6169 835.307H147.517M98.6169 223.715V279.315M98.6169 223.715H147.517M98.6169 890.907V946.506M98.6169 890.907H147.517M98.6169 279.315V334.914M98.6169 279.315H147.517M98.6169 946.506H147.517M98.6169 334.914V390.513M98.6169 334.914H147.517M98.6169 390.513V446.113M98.6169 390.513H147.517M98.6169 446.113H147.517M685.42 501.712V557.311M685.42 501.712V446.113M685.42 501.712H734.32M685.42 557.311V612.91M685.42 557.311H734.32M685.42 612.91V668.51M685.42 612.91H734.32M685.42 1.31836V56.9176M685.42 1.31836H734.32M685.42 668.51V724.109M685.42 668.51H734.32M685.42 56.9176V112.517M685.42 56.9176H734.32M685.42 724.109V779.708M685.42 724.109H734.32M685.42 112.517V168.116M685.42 112.517H734.32M685.42 779.708V835.307M685.42 779.708H734.32M685.42 168.116V223.715M685.42 168.116H734.32M685.42 835.307V890.907M685.42 835.307H734.32M685.42 223.715V279.315M685.42 223.715H734.32M685.42 890.907V946.506M685.42 890.907H734.32M685.42 279.315V334.914M685.42 279.315H734.32M685.42 946.506H734.32M685.42 334.914V390.513M685.42 334.914H734.32M685.42 390.513V446.113M685.42 390.513H734.32M685.42 446.113H734.32M147.517 501.712V557.311M147.517 501.712V446.113M147.517 501.712H196.417M147.517 557.311V612.91M147.517 557.311H196.417M147.517 612.91V668.51M147.517 612.91H196.417M147.517 1.31836V56.9176M147.517 1.31836H196.417M147.517 668.51V724.109M147.517 668.51H196.417M147.517 56.9176V112.517M147.517 56.9176H196.417M147.517 724.109V779.708M147.517 724.109H196.417M147.517 112.517V168.116M147.517 112.517H196.417M147.517 779.708V835.307M147.517 779.708H196.417M147.517 168.116V223.715M147.517 168.116H196.417M147.517 835.307V890.907M147.517 835.307H196.417M147.517 223.715V279.315M147.517 223.715H196.417M147.517 890.907V946.506M147.517 890.907H196.417M147.517 279.315V334.914M147.517 279.315H196.417M147.517 946.506H196.417M147.517 334.914V390.513M147.517 334.914H196.417M147.517 390.513V446.113M147.517 390.513H196.417M147.517 446.113H196.417M734.32 501.712V557.311M734.32 501.712V446.113M734.32 501.712H783.22M734.32 557.311V612.91M734.32 557.311H783.22M734.32 612.91V668.51M734.32 612.91H783.22M734.32 1.31836V56.9176M734.32 1.31836H783.22M734.32 668.51V724.109M734.32 668.51H783.22M734.32 56.9176V112.517M734.32 56.9176H783.22M734.32 724.109V779.708M734.32 724.109H783.22M734.32 112.517V168.116M734.32 112.517H783.22M734.32 779.708V835.307M734.32 779.708H783.22M734.32 168.116V223.715M734.32 168.116H783.22M734.32 835.307V890.907M734.32 835.307H783.22M734.32 223.715V279.315M734.32 223.715H783.22M734.32 890.907V946.506M734.32 890.907H783.22M734.32 279.315V334.914M734.32 279.315H783.22M734.32 946.506H783.22M734.32 334.914V390.513M734.32 334.914H783.22M734.32 390.513V446.113M734.32 390.513H783.22M734.32 446.113H783.22M196.417 501.712V557.311M196.417 501.712V446.113M196.417 501.712H245.318M196.417 557.311V612.91M196.417 557.311H245.318M196.417 612.91V668.51M196.417 612.91H245.318M196.417 1.31836V56.9176M196.417 1.31836H245.318M196.417 668.51V724.109M196.417 668.51H245.318M196.417 56.9176V112.517M196.417 56.9176H245.318M196.417 724.109V779.708M196.417 724.109H245.318M196.417 112.517V168.116M196.417 112.517H245.318M196.417 779.708V835.307M196.417 779.708H245.318M196.417 168.116V223.715M196.417 168.116H245.318M196.417 835.307V890.907M196.417 835.307H245.318M196.417 223.715V279.315M196.417 223.715H245.318M196.417 890.907V946.506M196.417 890.907H245.318M196.417 279.315V334.914M196.417 279.315H245.318M196.417 946.506H245.318M196.417 334.914V390.513M196.417 334.914H245.318M196.417 390.513V446.113M196.417 390.513H245.318M196.417 446.113H245.318M783.22 501.712V557.311M783.22 501.712V446.113M783.22 501.712H832.12M783.22 557.311V612.91M783.22 557.311H832.12M783.22 612.91V668.51M783.22 612.91H832.12M783.22 1.31836V56.9176M783.22 1.31836H832.12M783.22 668.51V724.109M783.22 668.51H832.12M783.22 56.9176V112.517M783.22 56.9176H832.12M783.22 724.109V779.708M783.22 724.109H832.12M783.22 112.517V168.116M783.22 112.517H832.12M783.22 779.708V835.307M783.22 779.708H832.12M783.22 168.116V223.715M783.22 168.116H832.12M783.22 835.307V890.907M783.22 835.307H832.12M783.22 223.715V279.315M783.22 223.715H832.12M783.22 890.907V946.506M783.22 890.907H832.12M783.22 279.315V334.914M783.22 279.315H832.12M783.22 946.506H832.12M783.22 334.914V390.513M783.22 334.914H832.12M783.22 390.513V446.113M783.22 390.513H832.12M783.22 446.113H832.12M245.318 501.712V557.311M245.318 501.712V446.113M245.318 501.712H294.218M245.318 557.311V612.91M245.318 557.311H294.218M245.318 612.91V668.51M245.318 612.91H294.218M245.318 1.31836V56.9176M245.318 1.31836H294.218M245.318 668.51V724.109M245.318 668.51H294.218M245.318 56.9176V112.517M245.318 56.9176H294.218M245.318 724.109V779.708M245.318 724.109H294.218M245.318 112.517V168.116M245.318 112.517H294.218M245.318 779.708V835.307M245.318 779.708H294.218M245.318 168.116V223.715M245.318 168.116H294.218M245.318 835.307V890.907M245.318 835.307H294.218M245.318 223.715V279.315M245.318 223.715H294.218M245.318 890.907V946.506M245.318 890.907H294.218M245.318 279.315V334.914M245.318 279.315H294.218M245.318 946.506H294.218M245.318 334.914V390.513M245.318 334.914H294.218M245.318 390.513V446.113M245.318 390.513H294.218M245.318 446.113H294.218M832.12 501.712V557.311M832.12 501.712V446.113M832.12 501.712H881.021M832.12 557.311V612.91M832.12 557.311H881.021M832.12 612.91V668.51M832.12 612.91H881.021M832.12 1.31836V56.9176M832.12 1.31836H881.021M832.12 668.51V724.109M832.12 668.51H881.021M832.12 56.9176V112.517M832.12 56.9176H881.021M832.12 724.109V779.708M832.12 724.109H881.021M832.12 112.517V168.116M832.12 112.517H881.021M832.12 779.708V835.307M832.12 779.708H881.021M832.12 168.116V223.715M832.12 168.116H881.021M832.12 835.307V890.907M832.12 835.307H881.021M832.12 223.715V279.315M832.12 223.715H881.021M832.12 890.907V946.506M832.12 890.907H881.021M832.12 279.315V334.914M832.12 279.315H881.021M832.12 946.506H881.021M832.12 334.914V390.513M832.12 334.914H881.021M832.12 390.513V446.113M832.12 390.513H881.021M832.12 446.113H881.021M294.218 501.712V557.311M294.218 501.712V446.113M294.218 557.311V612.91M294.218 612.91V668.51M294.218 1.31836V56.9176M294.218 668.51V724.109M294.218 56.9176V112.517M294.218 724.109V779.708M294.218 112.517V168.116M294.218 779.708V835.307M294.218 168.116V223.715M294.218 835.307V890.907M294.218 223.715V279.315M294.218 890.907V946.506M294.218 279.315V334.914M294.218 334.914V390.513M294.218 390.513V446.113M881.021 501.712V557.311M881.021 501.712V446.113M881.021 501.712H929.921M881.021 557.311V612.91M881.021 557.311H929.921M881.021 612.91V668.51M881.021 612.91H929.921M881.021 1.31836V56.9176M881.021 1.31836H929.921M881.021 668.51V724.109M881.021 668.51H929.921M881.021 56.9176V112.517M881.021 56.9176H929.921M881.021 724.109V779.708M881.021 724.109H929.921M881.021 112.517V168.116M881.021 112.517H929.921M881.021 779.708V835.307M881.021 779.708H929.921M881.021 168.116V223.715M881.021 168.116H929.921M881.021 835.307V890.907M881.021 835.307H929.921M881.021 223.715V279.315M881.021 223.715H929.921M881.021 890.907V946.506M881.021 890.907H929.921M881.021 279.315V334.914M881.021 279.315H929.921M881.021 946.506H929.921M881.021 334.914V390.513M881.021 334.914H929.921M881.021 390.513V446.113M881.021 390.513H929.921M881.021 446.113H929.921M929.921 501.712V557.311M929.921 501.712V446.113M929.921 501.712H978.821M929.921 557.311V612.91M929.921 557.311H978.821M929.921 612.91V668.51M929.921 612.91H978.821M929.921 1.31836V56.9176M929.921 1.31836H978.821V56.9176M929.921 668.51V724.109M929.921 668.51H978.821M929.921 56.9176V112.517M929.921 56.9176H978.821M929.921 724.109V779.708M929.921 724.109H978.821M929.921 112.517V168.116M929.921 112.517H978.821M929.921 779.708V835.307M929.921 779.708H978.821M929.921 168.116V223.715M929.921 168.116H978.821M929.921 835.307V890.907M929.921 835.307H978.821M929.921 223.715V279.315M929.921 223.715H978.821M929.921 890.907V946.506M929.921 890.907H978.821M929.921 279.315V334.914M929.921 279.315H978.821M929.921 946.506H978.821V890.907M929.921 334.914V390.513M929.921 334.914H978.821M929.921 390.513V446.113M929.921 390.513H978.821M929.921 446.113H978.821M978.821 501.712V557.311M978.821 501.712V446.113M978.821 557.311V612.91M978.821 612.91V668.51M978.821 56.9176V112.517M978.821 668.51V724.109M978.821 724.109V779.708M978.821 112.517V168.116M978.821 779.708V835.307M978.821 168.116V223.715M978.821 835.307V890.907M978.821 223.715V279.315M978.821 279.315V334.914M978.821 334.914V390.513M978.821 390.513V446.113" stroke="url(#paint0_radial_34_13271)" stroke-width="0.698575"/>
<defs>
<radialGradient id="paint0_radial_34_13271" cx="0" cy="0" r="1" gradientUnits="userSpaceOnUse" gradientTransform="translate(480.039 467.558) rotate(154.359) scale(552.491 444.04)">
<stop offset="0.350546"/>
<stop offset="1" stop-opacity="0"/>
</radialGradient>
</defs>
</svg>
