<svg xmlns="http://www.w3.org/2000/svg" width="1259" height="1512" viewBox="0 0 1259 1512" fill="none">
  <g filter="url(#filter0_f_36_13437)">
    <path d="M697.149 1232.83L584.107 1121.74C580.562 1118.25 578.147 1113.5 577.253 1108.27C576.359 1103.03 577.036 1097.6 579.182 1092.86C601.171 1043.66 610.164 988.282 605.075 933.4C599.987 878.524 581.031 826.488 550.502 783.592C531.704 757.208 508.94 734.836 483.258 717.514C441.483 689.419 393.456 675.639 344.957 677.845C296.458 680.051 249.552 698.14 209.881 729.943C206.064 733.017 201.456 734.556 196.78 734.308C192.11 734.059 187.641 732.041 184.097 728.57L71.058 617.486C68.7683 615.249 66.9271 612.478 65.6688 609.359C64.4104 606.241 63.757 602.849 63.7585 599.417C63.7541 595.985 64.4097 592.593 65.6703 589.475C66.9251 586.356 68.7664 583.583 71.055 581.347C145.273 510.044 238.167 468.683 335.234 463.72C432.307 458.757 528.091 490.471 607.633 553.913C631.974 573.279 654.502 595.42 674.877 619.993C741.587 700.291 783.042 803.44 792.772 913.335C802.502 1023.24 779.962 1133.71 728.666 1227.51C727.058 1230.43 724.913 1232.92 722.379 1234.81C719.845 1236.69 716.981 1237.93 713.985 1238.43C710.989 1238.94 707.933 1238.69 705.027 1237.73C702.12 1236.76 699.433 1235.09 697.149 1232.83Z" fill="url(#paint0_linear_36_13437)"/>
  </g>
  <defs>
    <filter id="filter0_f_36_13437" x="-399.414" y="0.0426636" width="1657.57" height="1701.82" filterUnits="userSpaceOnUse" color-interpolation-filters="sRGB">
      <feFlood flood-opacity="0" result="BackgroundImageFix"/>
      <feBlend mode="normal" in="SourceGraphic" in2="BackgroundImageFix" result="shape"/>
      <feGaussianBlur stdDeviation="231.586" result="effect1_foregroundBlur_36_13437"/>
    </filter>
    <linearGradient id="paint0_linear_36_13437" x1="869.907" y1="1105.34" x2="-185.662" y2="302.911" gradientUnits="userSpaceOnUse">
      <stop stop-color="#17CCFC"/>
      <stop offset="0.473958" stop-color="#9EFF00"/>
    </linearGradient>
  </defs>
</svg>