<svg width="46" height="45" viewBox="0 0 46 45" fill="none" xmlns="http://www.w3.org/2000/svg">
<g id="Instagram">
<path id="Vector" d="M22.9181 6.08398C18.5127 6.08398 17.9598 6.10325 16.2295 6.18199C14.5026 6.26107 13.3238 6.53448 12.2924 6.93564C11.2255 7.34997 10.3205 7.90422 9.41883 8.80623C8.51651 9.7079 7.96228 10.613 7.5466 11.6795C7.14444 12.7113 6.87071 13.8905 6.79298 15.6168C6.71559 17.3471 6.69531 17.9003 6.69531 22.306C6.69531 26.7116 6.71491 27.2628 6.79332 28.9931C6.87274 30.7201 7.14613 31.8989 7.54694 32.9303C7.9616 33.9973 8.51584 34.9023 9.41782 35.804C10.3191 36.7063 11.2241 37.2619 12.2904 37.6763C13.3225 38.0774 14.5016 38.3508 16.2281 38.4299C17.9584 38.5087 18.511 38.5279 22.9161 38.5279C27.3219 38.5279 27.8731 38.5087 29.6034 38.4299C31.3303 38.3508 32.5104 38.0774 33.5425 37.6763C34.6091 37.2619 35.5128 36.7063 36.4141 35.804C37.3164 34.9023 37.8706 33.9973 38.2863 32.9307C38.6851 31.8989 38.9588 30.7197 39.0399 28.9935C39.1176 27.2631 39.1379 26.7116 39.1379 22.306C39.1379 17.9003 39.1176 17.3474 39.0399 15.6171C38.9588 13.8901 38.6851 12.7113 38.2863 11.6799C37.8706 10.613 37.3164 9.7079 36.4141 8.80623C35.5117 7.90389 34.6094 7.34964 33.5415 6.93564C32.5074 6.53448 31.328 6.26107 29.601 6.18199C27.8708 6.10325 27.3199 6.08398 22.9131 6.08398H22.9181ZM21.4629 9.00732C21.8948 9.00664 22.3767 9.00732 22.9181 9.00732C27.2493 9.00732 27.7626 9.02286 29.473 9.10059C31.0546 9.17292 31.9129 9.4372 32.4848 9.65924C33.2418 9.95326 33.7815 10.3047 34.3489 10.8725C34.9166 11.4403 35.2681 11.981 35.5628 12.738C35.7848 13.3092 36.0494 14.1676 36.1214 15.7492C36.1991 17.4593 36.216 17.973 36.216 22.3022C36.216 26.6315 36.1991 27.1452 36.1214 28.8552C36.0491 30.4369 35.7848 31.2953 35.5628 31.8664C35.2688 32.6235 34.9166 33.1625 34.3489 33.7299C33.7811 34.2977 33.2421 34.6492 32.4848 34.9432C31.9136 35.1663 31.0546 35.4299 29.473 35.5022C27.763 35.5799 27.2493 35.5968 22.9181 35.5968C18.5867 35.5968 18.0733 35.5799 16.3633 35.5022C14.7817 35.4292 13.9233 35.1649 13.3512 34.9429C12.5942 34.6488 12.0535 34.2974 11.4857 33.7296C10.918 33.1618 10.5665 32.6224 10.2718 31.8651C10.0498 31.2939 9.78517 30.4355 9.71318 28.8539C9.63545 27.1438 9.61991 26.6301 9.61991 22.2982C9.61991 17.9662 9.63545 17.4552 9.71318 15.7452C9.7855 14.1635 10.0498 13.3051 10.2718 12.7333C10.5658 11.9763 10.918 11.4355 11.4857 10.8678C12.0535 10.3 12.5942 9.94853 13.3512 9.65383C13.923 9.43078 14.7817 9.16717 16.3633 9.09451C17.8597 9.02692 18.4397 9.00664 21.4629 9.00326V9.00732ZM31.577 11.7008C30.5024 11.7008 29.6304 12.5718 29.6304 13.6468C29.6304 14.7215 30.5024 15.5934 31.577 15.5934C32.6517 15.5934 33.5236 14.7215 33.5236 13.6468C33.5236 12.5721 32.6517 11.7002 31.577 11.7002V11.7008ZM22.9181 13.9753C18.3177 13.9753 14.5877 17.7053 14.5877 22.306C14.5877 26.9066 18.3177 30.6349 22.9181 30.6349C27.5186 30.6349 31.2472 26.9066 31.2472 22.306C31.2472 17.7053 27.5183 13.9753 22.9178 13.9753H22.9181ZM22.9181 16.8986C25.9042 16.8986 28.3253 19.3194 28.3253 22.306C28.3253 25.2921 25.9042 27.7133 22.9181 27.7133C19.9317 27.7133 17.511 25.2921 17.511 22.306C17.511 19.3194 19.9317 16.8986 22.9181 16.8986Z" fill="url(#paint0_radial_21_12839)"/>
<path id="Vector_2" d="M22.9181 6.08398C18.5127 6.08398 17.9598 6.10325 16.2295 6.18199C14.5026 6.26107 13.3238 6.53448 12.2924 6.93564C11.2255 7.34997 10.3205 7.90422 9.41883 8.80623C8.51651 9.7079 7.96228 10.613 7.5466 11.6795C7.14444 12.7113 6.87071 13.8905 6.79298 15.6168C6.71559 17.3471 6.69531 17.9003 6.69531 22.306C6.69531 26.7116 6.71491 27.2628 6.79332 28.9931C6.87274 30.7201 7.14613 31.8989 7.54694 32.9303C7.9616 33.9973 8.51584 34.9023 9.41782 35.804C10.3191 36.7063 11.2241 37.2619 12.2904 37.6763C13.3225 38.0774 14.5016 38.3508 16.2281 38.4299C17.9584 38.5087 18.511 38.5279 22.9161 38.5279C27.3219 38.5279 27.8731 38.5087 29.6034 38.4299C31.3303 38.3508 32.5104 38.0774 33.5425 37.6763C34.6091 37.2619 35.5128 36.7063 36.4141 35.804C37.3164 34.9023 37.8706 33.9973 38.2863 32.9307C38.6851 31.8989 38.9588 30.7197 39.0399 28.9935C39.1176 27.2631 39.1379 26.7116 39.1379 22.306C39.1379 17.9003 39.1176 17.3474 39.0399 15.6171C38.9588 13.8901 38.6851 12.7113 38.2863 11.6799C37.8706 10.613 37.3164 9.7079 36.4141 8.80623C35.5117 7.90389 34.6094 7.34964 33.5415 6.93564C32.5074 6.53448 31.328 6.26107 29.601 6.18199C27.8708 6.10325 27.3199 6.08398 22.9131 6.08398H22.9181ZM21.4629 9.00732C21.8948 9.00664 22.3767 9.00732 22.9181 9.00732C27.2493 9.00732 27.7626 9.02286 29.473 9.10059C31.0546 9.17292 31.9129 9.4372 32.4848 9.65924C33.2418 9.95326 33.7815 10.3047 34.3489 10.8725C34.9166 11.4403 35.2681 11.981 35.5628 12.738C35.7848 13.3092 36.0494 14.1676 36.1214 15.7492C36.1991 17.4593 36.216 17.973 36.216 22.3022C36.216 26.6315 36.1991 27.1452 36.1214 28.8552C36.0491 30.4369 35.7848 31.2953 35.5628 31.8664C35.2688 32.6235 34.9166 33.1625 34.3489 33.7299C33.7811 34.2977 33.2421 34.6492 32.4848 34.9432C31.9136 35.1663 31.0546 35.4299 29.473 35.5022C27.763 35.5799 27.2493 35.5968 22.9181 35.5968C18.5867 35.5968 18.0733 35.5799 16.3633 35.5022C14.7817 35.4292 13.9233 35.1649 13.3512 34.9429C12.5942 34.6488 12.0535 34.2974 11.4857 33.7296C10.918 33.1618 10.5665 32.6224 10.2718 31.8651C10.0498 31.2939 9.78517 30.4355 9.71318 28.8539C9.63545 27.1438 9.61991 26.6301 9.61991 22.2982C9.61991 17.9662 9.63545 17.4552 9.71318 15.7452C9.7855 14.1635 10.0498 13.3051 10.2718 12.7333C10.5658 11.9763 10.918 11.4355 11.4857 10.8678C12.0535 10.3 12.5942 9.94853 13.3512 9.65383C13.923 9.43078 14.7817 9.16717 16.3633 9.09451C17.8597 9.02692 18.4397 9.00664 21.4629 9.00326V9.00732ZM31.577 11.7008C30.5024 11.7008 29.6304 12.5718 29.6304 13.6468C29.6304 14.7215 30.5024 15.5934 31.577 15.5934C32.6517 15.5934 33.5236 14.7215 33.5236 13.6468C33.5236 12.5721 32.6517 11.7002 31.577 11.7002V11.7008ZM22.9181 13.9753C18.3177 13.9753 14.5877 17.7053 14.5877 22.306C14.5877 26.9066 18.3177 30.6349 22.9181 30.6349C27.5186 30.6349 31.2472 26.9066 31.2472 22.306C31.2472 17.7053 27.5183 13.9753 22.9178 13.9753H22.9181ZM22.9181 16.8986C25.9042 16.8986 28.3253 19.3194 28.3253 22.306C28.3253 25.2921 25.9042 27.7133 22.9181 27.7133C19.9317 27.7133 17.511 25.2921 17.511 22.306C17.511 19.3194 19.9317 16.8986 22.9181 16.8986Z" fill="url(#paint1_radial_21_12839)"/>
</g>
<defs>
<radialGradient id="paint0_radial_21_12839" cx="0" cy="0" r="1" gradientUnits="userSpaceOnUse" gradientTransform="translate(15.3129 41.0268) rotate(-90) scale(32.1543 29.9048)">
<stop stop-color="#FFDD55"/>
<stop offset="0.1" stop-color="#FFDD55"/>
<stop offset="0.5" stop-color="#FF543E"/>
<stop offset="1" stop-color="#C837AB"/>
</radialGradient>
<radialGradient id="paint1_radial_21_12839" cx="0" cy="0" r="1" gradientUnits="userSpaceOnUse" gradientTransform="translate(1.261 8.42119) rotate(78.6811) scale(14.3731 59.2443)">
<stop stop-color="#3771C8"/>
<stop offset="0.128" stop-color="#3771C8"/>
<stop offset="1" stop-color="#6600FF" stop-opacity="0"/>
</radialGradient>
</defs>
</svg>
