<svg width="46" height="45" viewBox="0 0 46 45" fill="none" xmlns="http://www.w3.org/2000/svg">
<g id="LinkedIn">
<path id="Shape" d="M7.33789 8.74877C7.33789 7.51004 8.34208 6.50586 9.5808 6.50586H36.694C37.9327 6.50586 38.9369 7.51004 38.9369 8.74877V35.8619C38.9369 37.1006 37.9327 38.1048 36.694 38.1048H9.5808C8.34208 38.1048 7.33789 37.1006 7.33789 35.8619V8.74877Z" fill="#0A66C2"/>
<g id="Vector">
<path d="M14.4326 16.3193C15.9465 16.3193 17.1738 15.0921 17.1738 13.5781C17.1738 12.0642 15.9465 10.8369 14.4326 10.8369C12.9187 10.8369 11.6914 12.0642 11.6914 13.5781C11.6914 15.0921 12.9187 16.3193 14.4326 16.3193Z" fill="white"/>
<path d="M19.6843 18.3452H24.2274V20.4264C24.2274 20.4264 25.4602 17.9607 28.8145 17.9607C31.8067 17.9607 34.2855 19.4348 34.2855 23.9277V33.4021H29.5776V25.0758C29.5776 22.4253 28.1626 22.1338 27.0843 22.1338C24.8466 22.1338 24.4635 24.064 24.4635 25.4215V33.4021H19.6843V18.3452Z" fill="white"/>
<path d="M12.043 18.3452H16.8222V33.4022H12.043V18.3452Z" fill="white"/>
</g>
</g>
</svg>
