<svg xmlns="http://www.w3.org/2000/svg" width="124" height="124" viewBox="0 0 124 124" fill="none">
  <circle cx="61.5" cy="61.5" r="61.5" transform="matrix(-1 0 0 1 123.5 0.214844)" fill="black"/>
  <path d="M61.5806 104.359C61.8961 104.466 62.2055 104.464 62.52 104.355C66.5657 102.943 95.418 91.7604 95.418 59.9204V31.1385C95.418 30.377 94.8969 29.7132 94.1543 29.5285L62.4556 21.6453C62.1899 21.5792 61.912 21.5792 61.6463 21.6453C61.3806 21.7113 29.9476 29.5285 29.9476 29.5285C29.2049 29.7132 28.6839 30.377 28.6839 31.1385V59.9204C28.6839 92.0817 57.5298 102.986 61.5806 104.359Z" fill="white"/>
  <path d="M42.0634 41.3538C44.6165 38.5538 47.7296 36.3217 51.2008 34.8023C54.672 33.2828 58.4238 32.51 62.213 32.5337C66.0021 32.5575 69.7439 33.3775 73.1958 34.9404C76.6476 36.5033 79.7324 38.7742 82.2502 41.606L62.0432 59.572L42.0634 41.3538Z" fill="url(#paint0_radial_34_13255)"/>
  <defs>
    <radialGradient id="paint0_radial_34_13255" cx="0" cy="0" r="1" gradientUnits="userSpaceOnUse" gradientTransform="translate(62.0432 59.572) rotate(-90.0445) scale(59.6826)">
      <stop offset="0.220303"/>
      <stop offset="0.995966" stop-opacity="0"/>
    </radialGradient>
  </defs>
</svg>