<svg width="45" height="46" viewBox="0 0 45 46" fill="none" xmlns="http://www.w3.org/2000/svg">
<g id="Medium">
<path id="Vector" d="M24.6859 22.9156C24.6859 28.7458 19.9918 33.4723 14.2012 33.4723C8.41053 33.4723 3.7168 28.7472 3.7168 22.9156C3.7168 17.0841 8.41089 12.3594 14.2012 12.3594C19.9914 12.3594 24.6859 17.0855 24.6859 22.9156ZM36.1877 22.9156C36.1877 28.404 33.8405 32.8528 30.9454 32.8528C28.0502 32.8528 25.703 28.4026 25.703 22.9156C25.703 17.4287 28.0502 12.9785 30.9454 12.9785C33.8405 12.9785 36.1877 17.4287 36.1877 22.9156ZM40.8921 22.9156C40.8921 27.833 40.0665 31.8189 39.0483 31.8189C38.0301 31.8189 37.2045 27.8315 37.2045 22.9156C37.2045 17.9998 38.0301 14.0124 39.0487 14.0124C40.0672 14.0124 40.8921 17.9987 40.8921 22.9156Z" fill="black"/>
</g>
</svg>
