<svg width="45" height="45" viewBox="0 0 45 45" fill="none" xmlns="http://www.w3.org/2000/svg">
<g id="Reddit">
<path id="Vector" d="M22.5258 39.034C13.2864 39.034 5.79688 31.5444 5.79688 22.3051C5.79688 13.0657 13.2864 5.57617 22.5258 5.57617C31.7652 5.57617 39.2547 13.0657 39.2547 22.3051C39.2547 31.5444 31.7652 39.034 22.5258 39.034ZM33.684 22.3051C33.6667 21.8342 33.5137 21.3783 33.2432 20.9925C32.9728 20.6066 32.5965 20.3072 32.1597 20.1304C31.723 19.9536 31.2444 19.9069 30.7817 19.9959C30.319 20.0849 29.8919 20.3059 29.5519 20.6322C27.6489 19.3386 25.4119 18.6239 23.1113 18.5745L24.1987 13.3551L27.7787 14.1079C27.8212 14.5035 28.0034 14.871 28.2925 15.1444C28.5816 15.4178 28.9586 15.5792 29.356 15.5997C29.7534 15.6201 30.145 15.4982 30.4606 15.256C30.7762 15.0137 30.9952 14.6668 31.0781 14.2777C31.161 13.8885 31.1025 13.4825 30.9131 13.1326C30.7237 12.7827 30.4158 12.5118 30.0446 12.3684C29.6734 12.2251 29.2633 12.2187 28.8879 12.3505C28.5125 12.4823 28.1963 12.7436 27.9961 13.0874L23.8975 12.2677C23.8305 12.253 23.7612 12.2518 23.6937 12.264C23.6262 12.2763 23.5618 12.3019 23.5042 12.3392C23.4466 12.3765 23.397 12.4249 23.3583 12.4816C23.3196 12.5382 23.2925 12.602 23.2786 12.6692L22.0406 18.4742C19.7118 18.5093 17.444 19.2245 15.5164 20.5318C15.2585 20.2892 14.9509 20.1055 14.615 19.9935C14.279 19.8816 13.9228 19.844 13.5709 19.8834C13.219 19.9228 12.8799 20.0382 12.577 20.2217C12.2742 20.4052 12.0148 20.6524 11.817 20.9461C11.6192 21.2397 11.4876 21.5729 11.4313 21.9225C11.375 22.2721 11.3955 22.6298 11.4911 22.9707C11.5868 23.3116 11.7555 23.6277 11.9855 23.8969C12.2155 24.1662 12.5012 24.3822 12.823 24.53C12.8042 24.775 12.8042 25.0211 12.823 25.2661C12.823 29.0134 17.1893 32.058 22.576 32.058C27.9627 32.058 32.3289 29.0134 32.3289 25.2661C32.3478 25.0211 32.3478 24.775 32.3289 24.53C32.7417 24.3248 33.088 24.007 33.3278 23.6133C33.5676 23.2196 33.6911 22.766 33.684 22.3051ZM16.9551 23.978C16.9551 23.5343 17.1313 23.1088 17.445 22.7951C17.7588 22.4813 18.1843 22.3051 18.6279 22.3051C19.0716 22.3051 19.4971 22.4813 19.8109 22.7951C20.1246 23.1088 20.3008 23.5343 20.3008 23.978C20.3008 24.4216 20.1246 24.8471 19.8109 25.1609C19.4971 25.4746 19.0716 25.6509 18.6279 25.6509C18.1843 25.6509 17.7588 25.4746 17.445 25.1609C17.1313 24.8471 16.9551 24.4216 16.9551 23.978ZM26.6745 28.5784C25.4877 29.4728 24.0274 29.9281 22.5425 29.8665C21.0576 29.9281 19.5973 29.4728 18.4105 28.5784C18.3393 28.4917 18.303 28.3817 18.3085 28.2697C18.314 28.1577 18.3609 28.0518 18.4402 27.9725C18.5195 27.8932 18.6255 27.8462 18.7375 27.8407C18.8495 27.8352 18.9595 27.8716 19.0462 27.9427C20.052 28.6805 21.2797 29.0523 22.5258 28.9966C23.7734 29.0645 25.0069 28.7045 26.0221 27.9762C26.0649 27.9283 26.1171 27.8896 26.1754 27.8628C26.2338 27.8359 26.297 27.8212 26.3612 27.8198C26.4255 27.8184 26.4893 27.8302 26.5488 27.8546C26.6082 27.8789 26.6621 27.9151 26.7069 27.9611C26.7518 28.0071 26.7867 28.0619 26.8095 28.1219C26.8323 28.182 26.8424 28.2461 26.8394 28.3103C26.8364 28.3744 26.8202 28.4373 26.7918 28.4949C26.7635 28.5526 26.7235 28.6038 26.6745 28.6453V28.5784ZM26.3734 25.7178C26.0426 25.7178 25.7191 25.6197 25.444 25.4358C25.1689 25.252 24.9545 24.9907 24.8279 24.6851C24.7013 24.3794 24.6681 24.043 24.7327 23.7185C24.7972 23.394 24.9566 23.0959 25.1905 22.862C25.4245 22.628 25.7226 22.4687 26.0471 22.4041C26.3716 22.3396 26.7079 22.3727 27.0136 22.4993C27.3193 22.6259 27.5806 22.8404 27.7644 23.1155C27.9482 23.3906 28.0463 23.714 28.0463 24.0449C28.0554 24.2715 28.0183 24.4977 27.9372 24.7096C27.8562 24.9215 27.7329 25.1146 27.5749 25.2774C27.4168 25.4401 27.2273 25.569 27.0179 25.6562C26.8085 25.7434 26.5835 25.7871 26.3567 25.7847L26.3734 25.7178Z" fill="#FC471E"/>
<path id="Vector_2" d="M33.6821 22.3052C33.6649 21.8344 33.5119 21.3785 33.2414 20.9926C32.971 20.6068 32.5947 20.3074 32.1579 20.1306C31.7211 19.9537 31.2426 19.907 30.7798 19.9961C30.3171 20.0851 29.8901 20.3061 29.5501 20.6324C27.6471 19.3387 25.41 18.6241 23.1095 18.5747L24.1968 13.3553L27.7768 14.1081C27.8194 14.5037 28.0016 14.8712 28.2906 15.1446C28.5797 15.418 28.9568 15.5794 29.3542 15.5998C29.7515 15.6203 30.1432 15.4984 30.4588 15.2561C30.7744 15.0138 30.9933 14.667 31.0763 14.2778C31.1592 13.8887 31.1007 13.4827 30.9113 13.1328C30.7219 12.7829 30.414 12.5119 30.0428 12.3686C29.6716 12.2252 29.2615 12.2189 28.8861 12.3507C28.5106 12.4825 28.1945 12.7437 27.9943 13.0876L23.8957 12.2679C23.8287 12.2532 23.7594 12.2519 23.6919 12.2642C23.6244 12.2765 23.56 12.302 23.5024 12.3394C23.4448 12.3767 23.3952 12.4251 23.3565 12.4818C23.3178 12.5384 23.2907 12.6022 23.2768 12.6694L22.0388 18.4743C19.71 18.5094 17.4422 19.2247 15.5145 20.532C15.2567 20.2893 14.9491 20.1057 14.6132 19.9937C14.2772 19.8817 13.921 19.8441 13.5691 19.8836C13.2172 19.923 12.878 20.0384 12.5752 20.2219C12.2723 20.4054 12.013 20.6525 11.8152 20.9462C11.6173 21.2399 11.4857 21.5731 11.4295 21.9227C11.3732 22.2723 11.3936 22.6299 11.4893 22.9709C11.585 23.3118 11.7537 23.6278 11.9837 23.8971C12.2137 24.1663 12.4994 24.3824 12.8212 24.5302C12.8024 24.7752 12.8024 25.0213 12.8212 25.2663C12.8212 29.0135 17.1874 32.0582 22.5741 32.0582C27.9608 32.0582 32.3271 29.0135 32.3271 25.2663C32.3459 25.0213 32.3459 24.7752 32.3271 24.5302C32.7399 24.325 33.0862 24.0072 33.326 23.6135C33.5658 23.2197 33.6893 22.7662 33.6821 22.3052ZM16.9532 23.9781C16.9532 23.5345 17.1295 23.109 17.4432 22.7952C17.7569 22.4815 18.1824 22.3052 18.6261 22.3052C19.0698 22.3052 19.4953 22.4815 19.809 22.7952C20.1228 23.109 20.299 23.5345 20.299 23.9781C20.299 24.4218 20.1228 24.8473 19.809 25.161C19.4953 25.4748 19.0698 25.651 18.6261 25.651C18.1824 25.651 17.7569 25.4748 17.4432 25.161C17.1295 24.8473 16.9532 24.4218 16.9532 23.9781ZM26.6727 28.5786C25.4858 29.473 24.0256 29.9282 22.5407 29.8667C21.0558 29.9282 19.5955 29.473 18.4086 28.5786C18.3375 28.4919 18.3012 28.3819 18.3067 28.2699C18.3122 28.1579 18.3591 28.0519 18.4384 27.9726C18.5177 27.8934 18.6236 27.8464 18.7356 27.8409C18.8476 27.8354 18.9577 27.8717 19.0443 27.9429C20.0501 28.6806 21.2778 29.0525 22.524 28.9968C23.7716 29.0647 25.005 28.7047 26.0203 27.9763C26.0631 27.9284 26.1153 27.8898 26.1736 27.8629C26.2319 27.836 26.2952 27.8214 26.3594 27.82C26.4236 27.8186 26.4875 27.8304 26.5469 27.8547C26.6064 27.879 26.6602 27.9153 26.7051 27.9613C26.7499 28.0073 26.7848 28.062 26.8076 28.1221C26.8304 28.1822 26.8406 28.2463 26.8376 28.3104C26.8346 28.3746 26.8183 28.4375 26.79 28.4951C26.7616 28.5527 26.7217 28.6039 26.6727 28.6455V28.5786ZM26.3716 25.7179C26.0407 25.7179 25.7173 25.6198 25.4422 25.436C25.1671 25.2522 24.9527 24.9909 24.8261 24.6852C24.6994 24.3796 24.6663 24.0432 24.7309 23.7187C24.7954 23.3942 24.9547 23.0961 25.1887 22.8621C25.4226 22.6282 25.7207 22.4689 26.0452 22.4043C26.3697 22.3398 26.7061 22.3729 27.0118 22.4995C27.3175 22.6261 27.5787 22.8405 27.7626 23.1156C27.9464 23.3907 28.0445 23.7142 28.0445 24.0451C28.0536 24.2717 28.0165 24.4979 27.9354 24.7097C27.8544 24.9216 27.7311 25.1148 27.573 25.2775C27.415 25.4403 27.2255 25.5692 27.0161 25.6564C26.8067 25.7436 26.5817 25.7873 26.3549 25.7849L26.3716 25.7179Z" fill="white"/>
</g>
</svg>
