<svg width="46" height="46" viewBox="0 0 46 46" fill="none" xmlns="http://www.w3.org/2000/svg">
<g id="Twitter">
<path id="Vector" fill-rule="evenodd" clip-rule="evenodd" d="M37.3619 15.6455C37.3745 15.9706 37.3787 16.2955 37.3787 16.6206C37.3787 26.4761 30.4458 37.8538 17.7679 37.8538C13.8735 37.8538 10.2523 36.6126 7.20117 34.4996C7.74051 34.5587 8.28825 34.6032 8.8444 34.6032C12.0734 34.6032 15.0475 33.4061 17.4065 31.3965C14.3904 31.3522 11.8437 29.1801 10.9653 26.225C11.387 26.3136 11.8212 26.3581 12.2653 26.3581C12.8915 26.3581 13.4995 26.2695 14.0822 26.0922C10.9261 25.4125 8.54882 22.3983 8.54882 18.7782C8.54882 18.7338 8.54882 18.719 8.54882 18.6894C9.479 19.2361 10.5436 19.5758 11.6741 19.6201C9.82219 18.2755 8.60482 15.9853 8.60482 13.3995C8.60482 12.0401 8.94383 10.7546 9.5406 9.64638C12.9391 14.1678 18.0201 17.1378 23.7483 17.4481C23.6306 16.9014 23.5703 16.3253 23.5703 15.749C23.5703 11.6265 26.6565 8.28711 30.464 8.28711C32.4462 8.28711 34.2366 9.18857 35.4931 10.6366C37.0663 10.3115 38.5401 9.691 39.8737 8.83399C39.3568 10.5776 38.2655 12.0401 36.8394 12.9562C38.2346 12.7789 39.5655 12.3802 40.7997 11.7892C39.8737 13.2816 38.7082 14.5964 37.3619 15.6455Z" fill="#1EA1F2"/>
</g>
</svg>
