<svg width="45" height="45" viewBox="0 0 45 45" fill="none" xmlns="http://www.w3.org/2000/svg">
<g id="YouTube">
<path id="Shape" d="M40.3491 12.8365C39.9151 11.2243 38.6439 9.95308 37.0316 9.51902C34.0862 8.71289 22.3043 8.71289 22.3043 8.71289C22.3043 8.71289 10.5225 8.71289 7.57701 9.48801C5.99577 9.92208 4.69356 11.2243 4.2595 12.8365C3.48438 15.782 3.48438 21.8899 3.48438 21.8899C3.48438 21.8899 3.48438 28.0289 4.2595 30.9434C4.69356 32.5556 5.96476 33.8268 7.57701 34.2609C10.5535 35.067 22.3043 35.067 22.3043 35.067C22.3043 35.067 34.0862 35.067 37.0316 34.2919C38.6439 33.8578 39.9151 32.5866 40.3491 30.9744C41.1243 28.0289 41.1243 21.921 41.1243 21.921C41.1243 21.921 41.1553 15.782 40.3491 12.8365Z" fill="#FF0000"/>
<path id="Vector" d="M18.5547 27.318L28.3522 21.6751L18.5547 16.0322V27.318Z" fill="white"/>
</g>
</svg>
