<svg width="527" height="80" viewBox="0 0 527 80" fill="none" xmlns="http://www.w3.org/2000/svg">
<g filter="url(#filter0_dd_469_5015)">
<g clip-path="url(#clip0_469_5015)">
<rect x="18.2539" y="0.265503" width="490.406" height="78.8952" rx="10.7584" fill="#1F1F1F"/>
<path d="M48.4407 21.3406V29.817H47.2653L42.9567 23.6004H42.8781V29.817H41.5992V21.3406H42.7829L47.0956 27.5654H47.1742V21.3406H48.4407ZM52.727 29.9453C52.131 29.9453 51.6109 29.8087 51.1667 29.5355C50.7224 29.2624 50.3775 28.8802 50.132 28.3891C49.8864 27.8979 49.7636 27.324 49.7636 26.6673C49.7636 26.0078 49.8864 25.4312 50.132 24.9373C50.3775 24.4434 50.7224 24.0598 51.1667 23.7867C51.6109 23.5135 52.131 23.3769 52.727 23.3769C53.323 23.3769 53.8431 23.5135 54.2873 23.7867C54.7316 24.0598 55.0765 24.4434 55.3221 24.9373C55.5676 25.4312 55.6904 26.0078 55.6904 26.6673C55.6904 27.324 55.5676 27.8979 55.3221 28.3891C55.0765 28.8802 54.7316 29.2624 54.2873 29.5355C53.8431 29.8087 53.323 29.9453 52.727 29.9453ZM52.7311 28.9064C53.1174 28.9064 53.4375 28.8043 53.6914 28.6001C53.9452 28.396 54.1328 28.1242 54.2542 27.7848C54.3784 27.4454 54.4405 27.0715 54.4405 26.6632C54.4405 26.2576 54.3784 25.8851 54.2542 25.5457C54.1328 25.2035 53.9452 24.929 53.6914 24.722C53.4375 24.5151 53.1174 24.4116 52.7311 24.4116C52.3421 24.4116 52.0193 24.5151 51.7627 24.722C51.5088 24.929 51.3198 25.2035 51.1956 25.5457C51.0742 25.8851 51.0135 26.2576 51.0135 26.6632C51.0135 27.0715 51.0742 27.4454 51.1956 27.7848C51.3198 28.1242 51.5088 28.396 51.7627 28.6001C52.0193 28.8043 52.3421 28.9064 52.7311 28.9064ZM56.914 29.817V23.4597H58.1101V24.4696H58.1763C58.2922 24.1274 58.4964 23.8584 58.7889 23.6625C59.0841 23.4638 59.418 23.3645 59.7905 23.3645C59.8677 23.3645 59.9588 23.3673 60.0636 23.3728C60.1712 23.3783 60.2554 23.3852 60.3161 23.3935V24.5772C60.2664 24.5634 60.1781 24.5482 60.0512 24.5317C59.9243 24.5123 59.7974 24.5027 59.6704 24.5027C59.378 24.5027 59.1172 24.5648 58.8882 24.6889C58.6619 24.8103 58.4826 24.98 58.3501 25.198C58.2177 25.4132 58.1515 25.6588 58.1515 25.9347V29.817H56.914ZM64.5724 23.4597V24.453H61.0999V23.4597H64.5724ZM62.0311 21.9366H63.2686V27.9503C63.2686 28.1904 63.3045 28.3711 63.3762 28.4925C63.448 28.6112 63.5404 28.6926 63.6536 28.7367C63.7694 28.7781 63.895 28.7988 64.0302 28.7988C64.1295 28.7988 64.2164 28.7919 64.2909 28.7781C64.3654 28.7643 64.4234 28.7533 64.4648 28.745L64.6883 29.7673C64.6165 29.7949 64.5144 29.8225 64.382 29.8501C64.2495 29.8804 64.084 29.897 63.8853 29.8997C63.5597 29.9053 63.2562 29.8473 62.9748 29.7259C62.6933 29.6045 62.4657 29.4169 62.2919 29.163C62.118 28.9092 62.0311 28.5905 62.0311 28.2069V21.9366ZM67.1576 26.0423V29.817H65.9201V21.3406H67.141V24.4944H67.2197C67.3687 24.1523 67.5963 23.8805 67.9026 23.6791C68.2089 23.4776 68.609 23.3769 69.1029 23.3769C69.5388 23.3769 69.9196 23.4666 70.2452 23.6459C70.5735 23.8253 70.8274 24.0929 71.0067 24.4489C71.1888 24.8021 71.2799 25.2435 71.2799 25.7733V29.817H70.0424V25.9223C70.0424 25.456 69.9223 25.0945 69.6823 24.8379C69.4422 24.5786 69.1084 24.4489 68.6807 24.4489C68.3882 24.4489 68.1261 24.511 67.8943 24.6351C67.6653 24.7593 67.4846 24.9414 67.3521 25.1815C67.2224 25.4187 67.1576 25.7057 67.1576 26.0423ZM75.5134 29.9453C74.8871 29.9453 74.3476 29.8114 73.8951 29.5438C73.4454 29.2734 73.0977 28.894 72.8521 28.4056C72.6093 27.9145 72.4879 27.3392 72.4879 26.6797C72.4879 26.0285 72.6093 25.4546 72.8521 24.958C73.0977 24.4613 73.4398 24.0736 73.8786 23.7949C74.32 23.5163 74.836 23.3769 75.4265 23.3769C75.7852 23.3769 76.1329 23.4362 76.4695 23.5549C76.8061 23.6735 77.1082 23.8598 77.3759 24.1136C77.6435 24.3675 77.8546 24.6972 78.0091 25.1028C78.1636 25.5057 78.2409 25.9954 78.2409 26.5721V27.0108H73.1874V26.0837H77.0282C77.0282 25.7581 76.962 25.4698 76.8296 25.2187C76.6971 24.9649 76.5109 24.7648 76.2708 24.6186C76.0335 24.4723 75.7548 24.3992 75.4348 24.3992C75.0871 24.3992 74.7836 24.4847 74.5242 24.6558C74.2676 24.8241 74.069 25.0449 73.9282 25.318C73.7903 25.5884 73.7213 25.8823 73.7213 26.1996V26.9239C73.7213 27.3488 73.7958 27.7103 73.9448 28.0083C74.0965 28.3063 74.3076 28.5339 74.578 28.6912C74.8484 28.8457 75.1644 28.923 75.5258 28.923C75.7604 28.923 75.9742 28.8899 76.1673 28.8236C76.3605 28.7547 76.5274 28.6526 76.6681 28.5174C76.8089 28.3822 76.9165 28.2152 76.991 28.0166L78.1623 28.2276C78.0685 28.5725 77.9001 28.8747 77.6573 29.134C77.4173 29.3907 77.1151 29.5907 76.7509 29.7342C76.3895 29.8749 75.977 29.9453 75.5134 29.9453ZM79.4562 29.817V23.4597H80.6523V24.4696H80.7185C80.8344 24.1274 81.0386 23.8584 81.3311 23.6625C81.6263 23.4638 81.9602 23.3645 82.3327 23.3645C82.4099 23.3645 82.501 23.3673 82.6058 23.3728C82.7134 23.3783 82.7976 23.3852 82.8583 23.3935V24.5772C82.8086 24.5634 82.7203 24.5482 82.5934 24.5317C82.4665 24.5123 82.3396 24.5027 82.2126 24.5027C81.9202 24.5027 81.6594 24.5648 81.4304 24.6889C81.2041 24.8103 81.0248 24.98 80.8924 25.198C80.7599 25.4132 80.6937 25.6588 80.6937 25.9347V29.817H79.4562ZM85.009 26.0423V29.817H83.7714V23.4597H84.9593V24.4944H85.0379C85.1842 24.1578 85.4132 23.8874 85.725 23.6832C86.0395 23.479 86.4355 23.3769 86.9128 23.3769C87.346 23.3769 87.7254 23.468 88.051 23.6501C88.3766 23.8294 88.6291 24.0971 88.8084 24.453C88.9878 24.809 89.0774 25.2491 89.0774 25.7733V29.817H87.8399V25.9223C87.8399 25.4615 87.7199 25.1014 87.4798 24.8421C87.2398 24.5799 86.9101 24.4489 86.4907 24.4489C86.2037 24.4489 85.9485 24.511 85.725 24.6351C85.5042 24.7593 85.329 24.9414 85.1993 25.1815C85.0724 25.4187 85.009 25.7057 85.009 26.0423ZM94.3462 21.3406L96.7053 28.2442H96.8005L99.1597 21.3406H100.542L97.4917 29.817H96.0141L92.9638 21.3406H94.3462ZM101.509 29.817V23.4597H102.746V29.817H101.509ZM102.134 22.4788C101.919 22.4788 101.734 22.407 101.579 22.2636C101.428 22.1173 101.352 21.9435 101.352 21.7421C101.352 21.5379 101.428 21.3641 101.579 21.2206C101.734 21.0743 101.919 21.0012 102.134 21.0012C102.349 21.0012 102.533 21.0743 102.684 21.2206C102.839 21.3641 102.916 21.5379 102.916 21.7421C102.916 21.9435 102.839 22.1173 102.684 22.2636C102.533 22.407 102.349 22.4788 102.134 22.4788ZM104.254 29.817V23.4597H105.45V24.4696H105.516C105.632 24.1274 105.836 23.8584 106.128 23.6625C106.424 23.4638 106.758 23.3645 107.13 23.3645C107.207 23.3645 107.298 23.3673 107.403 23.3728C107.511 23.3783 107.595 23.3852 107.656 23.3935V24.5772C107.606 24.5634 107.518 24.5482 107.391 24.5317C107.264 24.5123 107.137 24.5027 107.01 24.5027C106.718 24.5027 106.457 24.5648 106.228 24.6889C106.002 24.8103 105.822 24.98 105.69 25.198C105.557 25.4132 105.491 25.6588 105.491 25.9347V29.817H104.254ZM111.007 32.3334C110.502 32.3334 110.067 32.2671 109.703 32.1347C109.341 32.0023 109.046 31.8271 108.817 31.6091C108.588 31.3911 108.417 31.1524 108.304 30.8931L109.368 30.4543C109.442 30.5757 109.541 30.704 109.666 30.8392C109.793 30.9772 109.964 31.0945 110.179 31.1911C110.397 31.2876 110.677 31.3359 111.019 31.3359C111.488 31.3359 111.876 31.2214 112.182 30.9924C112.488 30.7661 112.641 30.4047 112.641 29.908V28.6581H112.563C112.488 28.7933 112.381 28.9437 112.24 29.1092C112.102 29.2748 111.912 29.4182 111.669 29.5397C111.426 29.6611 111.11 29.7218 110.721 29.7218C110.219 29.7218 109.766 29.6045 109.363 29.37C108.963 29.1327 108.646 28.7836 108.412 28.3228C108.18 27.8593 108.064 27.2895 108.064 26.6135C108.064 25.9375 108.178 25.358 108.407 24.8752C108.639 24.3923 108.956 24.0226 109.359 23.766C109.762 23.5066 110.219 23.3769 110.729 23.3769C111.124 23.3769 111.443 23.4431 111.685 23.5756C111.928 23.7053 112.117 23.857 112.252 24.0309C112.39 24.2047 112.497 24.3578 112.571 24.4903H112.662V23.4597H113.875V29.9577C113.875 30.504 113.748 30.9524 113.494 31.3028C113.24 31.6532 112.897 31.9126 112.463 32.0809C112.033 32.2492 111.547 32.3334 111.007 32.3334ZM110.994 28.6953C111.35 28.6953 111.651 28.6126 111.896 28.447C112.145 28.2787 112.332 28.0386 112.459 27.7268C112.589 27.4123 112.654 27.0357 112.654 26.5969C112.654 26.1693 112.59 25.7926 112.463 25.467C112.337 25.1414 112.15 24.8876 111.905 24.7055C111.659 24.5206 111.356 24.4282 110.994 24.4282C110.622 24.4282 110.311 24.5248 110.063 24.7179C109.815 24.9083 109.627 25.1677 109.5 25.496C109.376 25.8244 109.314 26.1913 109.314 26.5969C109.314 27.0136 109.377 27.3792 109.504 27.6937C109.631 28.0083 109.819 28.2539 110.067 28.4304C110.318 28.607 110.627 28.6953 110.994 28.6953ZM115.377 29.817V23.4597H116.614V29.817H115.377ZM116.002 22.4788C115.786 22.4788 115.602 22.407 115.447 22.2636C115.295 22.1173 115.219 21.9435 115.219 21.7421C115.219 21.5379 115.295 21.3641 115.447 21.2206C115.602 21.0743 115.786 21.0012 116.002 21.0012C116.217 21.0012 116.4 21.0743 116.552 21.2206C116.707 21.3641 116.784 21.5379 116.784 21.7421C116.784 21.9435 116.707 22.1173 116.552 22.2636C116.4 22.407 116.217 22.4788 116.002 22.4788ZM119.359 26.0423V29.817H118.121V23.4597H119.309V24.4944H119.388C119.534 24.1578 119.763 23.8874 120.075 23.6832C120.389 23.479 120.785 23.3769 121.263 23.3769C121.696 23.3769 122.075 23.468 122.401 23.6501C122.726 23.8294 122.979 24.0971 123.158 24.453C123.338 24.809 123.427 25.2491 123.427 25.7733V29.817H122.19V25.9223C122.19 25.4615 122.07 25.1014 121.83 24.8421C121.59 24.5799 121.26 24.4489 120.84 24.4489C120.554 24.4489 120.298 24.511 120.075 24.6351C119.854 24.7593 119.679 24.9414 119.549 25.1815C119.422 25.4187 119.359 25.7057 119.359 26.0423ZM124.929 29.817V23.4597H126.167V29.817H124.929ZM125.554 22.4788C125.339 22.4788 125.154 22.407 124.999 22.2636C124.848 22.1173 124.772 21.9435 124.772 21.7421C124.772 21.5379 124.848 21.3641 124.999 21.2206C125.154 21.0743 125.339 21.0012 125.554 21.0012C125.769 21.0012 125.953 21.0743 126.105 21.2206C126.259 21.3641 126.336 21.5379 126.336 21.7421C126.336 21.9435 126.259 22.1173 126.105 22.2636C125.953 22.407 125.769 22.4788 125.554 22.4788ZM129.524 29.9577C129.121 29.9577 128.757 29.8832 128.431 29.7342C128.106 29.5824 127.848 29.3631 127.657 29.0761C127.47 28.7891 127.376 28.4373 127.376 28.0207C127.376 27.662 127.445 27.3668 127.583 27.135C127.721 26.9032 127.907 26.7197 128.141 26.5845C128.376 26.4493 128.638 26.3472 128.928 26.2782C129.217 26.2093 129.513 26.1568 129.813 26.121C130.194 26.0768 130.503 26.041 130.741 26.0134C130.978 25.983 131.15 25.9347 131.258 25.8685C131.366 25.8023 131.419 25.6947 131.419 25.5457V25.5167C131.419 25.1552 131.317 24.8752 131.113 24.6765C130.912 24.4778 130.611 24.3785 130.211 24.3785C129.794 24.3785 129.466 24.471 129.226 24.6558C128.988 24.8379 128.824 25.0407 128.733 25.2642L127.57 24.9993C127.708 24.6131 127.91 24.3013 128.175 24.064C128.442 23.8239 128.75 23.6501 129.097 23.5425C129.445 23.4321 129.811 23.3769 130.194 23.3769C130.448 23.3769 130.717 23.4073 131.001 23.468C131.288 23.5259 131.556 23.6335 131.804 23.7908C132.055 23.9481 132.261 24.173 132.421 24.4654C132.581 24.7552 132.661 25.1318 132.661 25.5953V29.817H131.452V28.9478H131.403C131.323 29.1078 131.203 29.2651 131.043 29.4196C130.883 29.5741 130.677 29.7024 130.426 29.8045C130.175 29.9066 129.874 29.9577 129.524 29.9577ZM129.793 28.9644C130.135 28.9644 130.427 28.8968 130.67 28.7616C130.916 28.6263 131.102 28.4498 131.229 28.2318C131.359 28.011 131.423 27.7751 131.423 27.524V26.7045C131.379 26.7487 131.294 26.7901 131.167 26.8287C131.043 26.8646 130.901 26.8963 130.741 26.9239C130.581 26.9487 130.425 26.9722 130.273 26.9943C130.121 27.0136 129.994 27.0301 129.892 27.0439C129.652 27.0743 129.433 27.1253 129.234 27.1971C129.038 27.2688 128.881 27.3723 128.762 27.5075C128.646 27.6399 128.588 27.8165 128.588 28.0373C128.588 28.3435 128.702 28.5753 128.928 28.7326C129.154 28.8871 129.442 28.9644 129.793 28.9644Z" fill="#FAFAFA"/>
<path d="M137.906 26.241C137.906 25.198 138.041 24.2392 138.311 23.3645C138.584 22.4871 138.974 21.68 139.478 20.9433H140.339C140.141 21.2164 139.954 21.5531 139.781 21.9532C139.61 22.3505 139.459 22.7878 139.329 23.2652C139.2 23.7398 139.098 24.2309 139.023 24.7386C138.951 25.2463 138.916 25.7471 138.916 26.241C138.916 26.8977 138.979 27.564 139.106 28.2401C139.233 28.9161 139.404 29.5438 139.619 30.1232C139.834 30.7027 140.074 31.1745 140.339 31.5387H139.478C138.974 30.802 138.584 29.9963 138.311 29.1216C138.041 28.2442 137.906 27.284 137.906 26.241ZM145.629 27.2178V23.4597H146.606V29.817H145.629V28.7409H145.563C145.414 29.0637 145.182 29.3382 144.868 29.5645C144.553 29.788 144.156 29.8997 143.676 29.8997C143.278 29.8997 142.925 29.8128 142.616 29.639C142.307 29.4624 142.064 29.1975 141.888 28.8443C141.711 28.4884 141.623 28.04 141.623 27.4992V23.4597H142.6V27.433C142.6 27.8965 142.729 28.2663 142.989 28.5422C143.251 28.8181 143.585 28.9561 143.99 28.9561C144.233 28.9561 144.48 28.894 144.731 28.7698C144.985 28.6457 145.197 28.4553 145.369 28.1987C145.542 27.9421 145.629 27.6151 145.629 27.2178ZM152.74 24.8835L151.863 25.1318C151.808 24.9855 151.726 24.8434 151.619 24.7055C151.514 24.5648 151.37 24.4489 151.188 24.3578C151.006 24.2668 150.773 24.2212 150.489 24.2212C150.1 24.2212 149.776 24.3109 149.516 24.4903C149.26 24.6669 149.131 24.8917 149.131 25.1649C149.131 25.4077 149.22 25.5995 149.396 25.7402C149.573 25.8809 149.849 25.9982 150.224 26.092L151.168 26.3238C151.736 26.4617 152.16 26.6728 152.438 26.957C152.717 27.2385 152.856 27.6013 152.856 28.0455C152.856 28.4097 152.751 28.7353 152.542 29.0223C152.335 29.3093 152.045 29.5355 151.673 29.7011C151.3 29.8666 150.867 29.9494 150.373 29.9494C149.725 29.9494 149.188 29.8087 148.763 29.5272C148.338 29.2458 148.069 28.8347 147.956 28.2939L148.883 28.0621C148.971 28.4042 149.138 28.6608 149.384 28.8319C149.632 29.003 149.956 29.0885 150.356 29.0885C150.812 29.0885 151.173 28.9919 151.441 28.7988C151.711 28.6029 151.846 28.3684 151.846 28.0952C151.846 27.8745 151.769 27.6896 151.615 27.5406C151.46 27.3888 151.223 27.2757 150.903 27.2012L149.843 26.9529C149.261 26.8149 148.833 26.6011 148.56 26.3114C148.29 26.0189 148.155 25.6533 148.155 25.2146C148.155 24.8559 148.255 24.5386 148.457 24.2626C148.661 23.9867 148.938 23.7701 149.289 23.6128C149.642 23.4556 150.042 23.3769 150.489 23.3769C151.118 23.3769 151.612 23.5149 151.971 23.7908C152.332 24.0667 152.589 24.4309 152.74 24.8835ZM157.811 25.7278V26.6383H154.103V25.7278H157.811ZM162.037 29.9494C161.425 29.9494 160.896 29.8142 160.452 29.5438C160.011 29.2706 159.67 28.8899 159.43 28.4015C159.192 27.9103 159.074 27.3392 159.074 26.688C159.074 26.0368 159.192 25.4629 159.43 24.9662C159.67 24.4668 160.004 24.0778 160.431 23.7991C160.862 23.5176 161.364 23.3769 161.938 23.3769C162.269 23.3769 162.596 23.4321 162.919 23.5425C163.242 23.6528 163.536 23.8322 163.8 24.0805C164.065 24.3261 164.276 24.6517 164.434 25.0573C164.591 25.4629 164.67 25.9623 164.67 26.5555V26.9694H159.769V26.1251H163.676C163.676 25.7664 163.604 25.4463 163.461 25.1649C163.32 24.8835 163.119 24.6613 162.857 24.4985C162.597 24.3357 162.291 24.2544 161.938 24.2544C161.549 24.2544 161.212 24.3509 160.928 24.5441C160.647 24.7345 160.43 24.9828 160.278 25.2891C160.126 25.5953 160.051 25.9237 160.051 26.2741V26.837C160.051 27.3171 160.133 27.7241 160.299 28.0579C160.467 28.3891 160.7 28.6415 160.998 28.8154C161.296 28.9864 161.643 29.072 162.037 29.072C162.294 29.072 162.526 29.0361 162.733 28.9644C162.942 28.8899 163.123 28.7795 163.275 28.6332C163.427 28.4842 163.544 28.2994 163.627 28.0786L164.57 28.3435C164.471 28.6636 164.304 28.945 164.069 29.1879C163.835 29.4279 163.545 29.6155 163.2 29.7507C162.855 29.8832 162.468 29.9494 162.037 29.9494ZM167.868 29.966C167.466 29.966 167.1 29.8901 166.772 29.7383C166.443 29.5838 166.182 29.3617 165.989 29.072C165.796 28.7795 165.7 28.4263 165.7 28.0124C165.7 27.6482 165.771 27.353 165.915 27.1267C166.058 26.8977 166.25 26.7183 166.49 26.5887C166.73 26.459 166.995 26.3624 167.285 26.2989C167.577 26.2327 167.871 26.1803 168.166 26.1417C168.553 26.092 168.866 26.0547 169.106 26.0299C169.349 26.0023 169.525 25.9568 169.636 25.8933C169.749 25.8299 169.805 25.7195 169.805 25.5622V25.5291C169.805 25.1207 169.694 24.8034 169.47 24.5772C169.249 24.3509 168.914 24.2378 168.464 24.2378C167.998 24.2378 167.632 24.3399 167.368 24.5441C167.103 24.7483 166.916 24.9662 166.809 25.198L165.882 24.8669C166.047 24.4806 166.268 24.1799 166.544 23.9646C166.823 23.7467 167.126 23.5949 167.454 23.5094C167.786 23.4211 168.111 23.3769 168.431 23.3769C168.635 23.3769 168.87 23.4018 169.135 23.4514C169.402 23.4983 169.66 23.5963 169.909 23.7453C170.16 23.8943 170.368 24.1192 170.534 24.4199C170.699 24.7207 170.782 25.1235 170.782 25.6284V29.817H169.805V28.9561H169.756C169.689 29.094 169.579 29.2417 169.425 29.3989C169.27 29.5562 169.064 29.69 168.808 29.8004C168.551 29.9108 168.238 29.966 167.868 29.966ZM168.017 29.0885C168.404 29.0885 168.729 29.0126 168.994 28.8609C169.262 28.7091 169.463 28.5132 169.598 28.2732C169.736 28.0331 169.805 27.7806 169.805 27.5158V26.6218C169.764 26.6714 169.673 26.717 169.532 26.7584C169.394 26.797 169.234 26.8315 169.052 26.8618C168.873 26.8894 168.698 26.9142 168.526 26.9363C168.358 26.9556 168.222 26.9722 168.117 26.986C167.863 27.0191 167.626 27.0729 167.405 27.1474C167.187 27.2191 167.01 27.3281 166.875 27.4744C166.743 27.6179 166.676 27.8138 166.676 28.0621C166.676 28.4015 166.802 28.6581 167.053 28.8319C167.307 29.003 167.628 29.0885 168.017 29.0885ZM176.91 24.8835L176.033 25.1318C175.978 24.9855 175.896 24.8434 175.789 24.7055C175.684 24.5648 175.54 24.4489 175.358 24.3578C175.176 24.2668 174.943 24.2212 174.659 24.2212C174.27 24.2212 173.945 24.3109 173.686 24.4903C173.429 24.6669 173.301 24.8917 173.301 25.1649C173.301 25.4077 173.389 25.5995 173.566 25.7402C173.743 25.8809 174.019 25.9982 174.394 26.092L175.337 26.3238C175.906 26.4617 176.329 26.6728 176.608 26.957C176.887 27.2385 177.026 27.6013 177.026 28.0455C177.026 28.4097 176.921 28.7353 176.712 29.0223C176.505 29.3093 176.215 29.5355 175.842 29.7011C175.47 29.8666 175.037 29.9494 174.543 29.9494C173.894 29.9494 173.358 29.8087 172.933 29.5272C172.508 29.2458 172.239 28.8347 172.126 28.2939L173.053 28.0621C173.141 28.4042 173.308 28.6608 173.554 28.8319C173.802 29.003 174.126 29.0885 174.526 29.0885C174.981 29.0885 175.343 28.9919 175.611 28.7988C175.881 28.6029 176.016 28.3684 176.016 28.0952C176.016 27.8745 175.939 27.6896 175.784 27.5406C175.63 27.3888 175.393 27.2757 175.073 27.2012L174.013 26.9529C173.431 26.8149 173.003 26.6011 172.73 26.3114C172.46 26.0189 172.324 25.6533 172.324 25.2146C172.324 24.8559 172.425 24.5386 172.626 24.2626C172.831 23.9867 173.108 23.7701 173.458 23.6128C173.812 23.4556 174.212 23.3769 174.659 23.3769C175.288 23.3769 175.782 23.5149 176.14 23.7908C176.502 24.0667 176.758 24.4309 176.91 24.8835ZM181.103 23.4597V24.2875H177.809V23.4597H181.103ZM178.769 21.9366H179.746V27.9959C179.746 28.2718 179.786 28.4787 179.866 28.6167C179.949 28.7519 180.053 28.8429 180.18 28.8899C180.31 28.934 180.447 28.9561 180.59 28.9561C180.698 28.9561 180.786 28.9506 180.855 28.9395C180.924 28.9257 180.979 28.9147 181.021 28.9064L181.219 29.7838C181.153 29.8087 181.061 29.8335 180.942 29.8583C180.823 29.8859 180.673 29.8997 180.491 29.8997C180.215 29.8997 179.944 29.8404 179.68 29.7218C179.417 29.6031 179.199 29.4224 179.026 29.1796C178.855 28.9368 178.769 28.6305 178.769 28.2608V21.9366ZM185.829 25.7278V26.6383H182.121V25.7278H185.829ZM190.354 21.3406V29.817H189.327V22.4167H189.278L187.208 23.7908V22.7478L189.327 21.3406H190.354ZM194.736 25.5788C194.736 26.6218 194.6 27.582 194.326 28.4594C194.056 29.3341 193.668 30.1398 193.163 30.8765H192.303C192.501 30.6033 192.686 30.2667 192.857 29.8666C193.031 29.4693 193.183 29.0333 193.312 28.5587C193.442 28.0814 193.543 27.5889 193.615 27.0812C193.689 26.5707 193.726 26.0699 193.726 25.5788C193.726 24.9221 193.663 24.2557 193.536 23.5797C193.409 22.9037 193.238 22.276 193.023 21.6965C192.807 21.1171 192.567 20.6453 192.303 20.2811H193.163C193.668 21.0178 194.056 21.8249 194.326 22.7023C194.6 23.577 194.736 24.5358 194.736 25.5788Z" fill="#A1A1A1"/>
<rect x="40.668" y="48.7134" width="7.17229" height="7.17229" rx="3.58615" fill="#F74A25"/>
<path d="M56.1171 55.9896V46.8612H59.2015C59.9147 46.8612 60.5 46.9831 60.9576 47.2267C61.4152 47.4674 61.754 47.7988 61.9739 48.2207C62.1938 48.6426 62.3037 49.1225 62.3037 49.6604C62.3037 50.1982 62.1938 50.6751 61.9739 51.0911C61.754 51.5072 61.4167 51.834 60.9621 52.0717C60.5075 52.3065 59.9265 52.4239 59.2193 52.4239H56.7233V51.4254H59.1837C59.671 51.4254 60.0632 51.3541 60.3604 51.2115C60.6605 51.0689 60.8774 50.8668 61.0111 50.6053C61.1478 50.3408 61.2162 50.0259 61.2162 49.6604C61.2162 49.2949 61.1478 48.9755 61.0111 48.7021C60.8744 48.4287 60.656 48.2177 60.3559 48.0692C60.0558 47.9176 59.6591 47.8418 59.1658 47.8418H57.2225V55.9896H56.1171ZM60.4139 51.889L62.6603 55.9896H61.3766L59.1658 51.889H60.4139ZM66.7246 56.1323C66.065 56.1323 65.4959 55.9867 65.0175 55.6954C64.5421 55.4013 64.1751 54.9912 63.9166 54.4653C63.661 53.9363 63.5333 53.3212 63.5333 52.62C63.5333 51.9187 63.661 51.3006 63.9166 50.7658C64.1751 50.2279 64.5346 49.809 64.9952 49.5088C65.4588 49.2057 65.9996 49.0542 66.6177 49.0542C66.9742 49.0542 67.3264 49.1136 67.674 49.2325C68.0217 49.3513 68.3381 49.5445 68.6234 49.8119C68.9087 50.0764 69.136 50.427 69.3054 50.8638C69.4747 51.3006 69.5594 51.8385 69.5594 52.4773V52.9231H64.2821V52.0138H68.4897C68.4897 51.6275 68.4124 51.2828 68.2579 50.9797C68.1064 50.6766 67.8894 50.4374 67.6072 50.2621C67.3278 50.0868 66.998 49.9991 66.6177 49.9991C66.1987 49.9991 65.8362 50.1031 65.5301 50.3111C65.227 50.5162 64.9937 50.7836 64.8303 51.1134C64.6669 51.4433 64.5852 51.7969 64.5852 52.1742V52.7804C64.5852 53.2975 64.6743 53.7358 64.8526 54.0953C65.0339 54.4519 65.2849 54.7238 65.6059 54.911C65.9268 55.0952 66.2997 55.1873 66.7246 55.1873C67.001 55.1873 67.2506 55.1487 67.4734 55.0714C67.6993 54.9912 67.8939 54.8723 68.0573 54.7149C68.2208 54.5544 68.3471 54.3553 68.4362 54.1176L69.4524 54.4029C69.3455 54.7475 69.1657 55.0506 68.9131 55.3121C68.6605 55.5706 68.3485 55.7727 67.9771 55.9183C67.6057 56.0609 67.1882 56.1323 66.7246 56.1323ZM73.0989 56.1501C72.6651 56.1501 72.2713 56.0684 71.9177 55.9049C71.5641 55.7385 71.2833 55.4993 71.0753 55.1873C70.8673 54.8723 70.7633 54.492 70.7633 54.0463C70.7633 53.654 70.8406 53.3361 70.9951 53.0924C71.1496 52.8458 71.3561 52.6527 71.6147 52.513C71.8732 52.3733 72.1584 52.2693 72.4704 52.201C72.7854 52.1297 73.1019 52.0732 73.4198 52.0316C73.8358 51.9781 74.1731 51.938 74.4316 51.9113C74.6931 51.8816 74.8833 51.8325 75.0021 51.7642C75.124 51.6958 75.1849 51.577 75.1849 51.4076V51.372C75.1849 50.9322 75.0645 50.5905 74.8238 50.3468C74.5861 50.1031 74.2251 49.9813 73.7407 49.9813C73.2386 49.9813 72.8448 50.0912 72.5596 50.3111C72.2743 50.531 72.0737 50.7658 71.9579 51.0154L70.9594 50.6588C71.1377 50.2428 71.3754 49.9189 71.6726 49.6871C71.9727 49.4524 72.2996 49.2889 72.6532 49.1968C73.0098 49.1017 73.3604 49.0542 73.7051 49.0542C73.925 49.0542 74.1776 49.0809 74.4628 49.1344C74.751 49.1849 75.0289 49.2904 75.2963 49.4509C75.5667 49.6114 75.7911 49.8535 75.9694 50.1774C76.1476 50.5013 76.2368 50.9351 76.2368 51.4789V55.9896H75.1849V55.0625H75.1314C75.0601 55.2111 74.9412 55.3701 74.7748 55.5394C74.6084 55.7088 74.387 55.8529 74.1107 55.9718C73.8343 56.0907 73.4971 56.1501 73.0989 56.1501ZM73.2594 55.2052C73.6754 55.2052 74.026 55.1234 74.3113 54.96C74.5995 54.7966 74.8164 54.5856 74.962 54.3271C75.1106 54.0686 75.1849 53.7967 75.1849 53.5114V52.5487C75.1403 52.6021 75.0423 52.6512 74.8907 52.6957C74.7421 52.7373 74.5698 52.7745 74.3737 52.8072C74.1805 52.8369 73.9918 52.8636 73.8076 52.8874C73.6263 52.9082 73.4793 52.926 73.3663 52.9409C73.093 52.9765 72.8374 53.0345 72.5997 53.1147C72.365 53.192 72.1748 53.3094 72.0292 53.4668C71.8865 53.6214 71.8152 53.8323 71.8152 54.0998C71.8152 54.4653 71.9504 54.7416 72.2208 54.9288C72.4942 55.113 72.8404 55.2052 73.2594 55.2052ZM80.6666 56.1323C80.0961 56.1323 79.5924 55.9881 79.1556 55.6999C78.7188 55.4087 78.3771 54.9986 78.1304 54.4697C77.8838 53.9378 77.7605 53.3094 77.7605 52.5843C77.7605 51.8652 77.8838 51.2412 78.1304 50.7123C78.3771 50.1834 78.7203 49.7748 79.1601 49.4865C79.5998 49.1983 80.108 49.0542 80.6844 49.0542C81.1302 49.0542 81.4823 49.1285 81.7408 49.2771C82.0023 49.4227 82.2014 49.5891 82.3381 49.7763C82.4777 49.9605 82.5862 50.112 82.6634 50.2309H82.7526V46.8612H83.8045V55.9896H82.7882V54.9377H82.6634C82.5862 55.0625 82.4762 55.22 82.3336 55.4102C82.191 55.5974 81.9874 55.7653 81.723 55.9139C81.4585 56.0595 81.1064 56.1323 80.6666 56.1323ZM80.8092 55.1873C81.2312 55.1873 81.5878 55.0774 81.879 54.8575C82.1702 54.6346 82.3915 54.3271 82.5431 53.9348C82.6946 53.5396 82.7704 53.0835 82.7704 52.5665C82.7704 52.0554 82.6961 51.6082 82.5475 51.2249C82.399 50.8386 82.1791 50.5385 81.8879 50.3245C81.5967 50.1076 81.2371 49.9991 80.8092 49.9991C80.3635 49.9991 79.9921 50.1135 79.6949 50.3423C79.4008 50.5682 79.1794 50.8757 79.0308 51.265C78.8852 51.6513 78.8124 52.0851 78.8124 52.5665C78.8124 53.0538 78.8867 53.4966 79.0353 53.8947C79.1868 54.2899 79.4097 54.6049 79.7038 54.8397C80.001 55.0714 80.3695 55.1873 80.8092 55.1873ZM90.6512 50.6766L89.7063 50.9441C89.6469 50.7866 89.5592 50.6335 89.4433 50.485C89.3304 50.3334 89.1759 50.2086 88.9798 50.1106C88.7837 50.0125 88.5326 49.9635 88.2265 49.9635C87.8075 49.9635 87.4584 50.06 87.1791 50.2532C86.9027 50.4434 86.7645 50.6855 86.7645 50.9797C86.7645 51.2412 86.8596 51.4477 87.0498 51.5993C87.24 51.7508 87.5371 51.8771 87.9412 51.9781L88.9575 52.2277C89.5696 52.3763 90.0257 52.6036 90.3259 52.9097C90.626 53.2128 90.776 53.6035 90.776 54.0819C90.776 54.4742 90.6631 54.8248 90.4373 55.1338C90.2144 55.4429 89.9024 55.6865 89.5013 55.8648C89.1001 56.0431 88.6336 56.1323 88.1017 56.1323C87.4034 56.1323 86.8255 55.9807 86.3678 55.6776C85.9102 55.3745 85.6205 54.9318 85.4987 54.3494L86.4971 54.0998C86.5922 54.4682 86.772 54.7446 87.0364 54.9288C87.3039 55.113 87.653 55.2052 88.0839 55.2052C88.5742 55.2052 88.9634 55.1012 89.2517 54.8931C89.5429 54.6822 89.6885 54.4296 89.6885 54.1354C89.6885 53.8977 89.6053 53.6986 89.4389 53.5382C89.2725 53.3747 89.0169 53.2529 88.6722 53.1727L87.5312 52.9052C86.9042 52.7567 86.4436 52.5264 86.1494 52.2144C85.8582 51.8994 85.7126 51.5057 85.7126 51.0332C85.7126 50.6469 85.8211 50.3052 86.038 50.008C86.2579 49.7109 86.5565 49.4776 86.9339 49.3083C87.3143 49.1389 87.7451 49.0542 88.2265 49.0542C88.904 49.0542 89.4359 49.2028 89.8222 49.4999C90.2114 49.7971 90.4878 50.1893 90.6512 50.6766ZM93.0508 56.0609C92.8309 56.0609 92.6422 55.9822 92.4847 55.8247C92.3272 55.6672 92.2485 55.4785 92.2485 55.2586C92.2485 55.0388 92.3272 54.8501 92.4847 54.6926C92.6422 54.5351 92.8309 54.4563 93.0508 54.4563C93.2707 54.4563 93.4594 54.5351 93.6169 54.6926C93.7743 54.8501 93.8531 55.0388 93.8531 55.2586C93.8531 55.4042 93.8159 55.538 93.7417 55.6598C93.6703 55.7816 93.5738 55.8797 93.4519 55.954C93.3331 56.0253 93.1994 56.0609 93.0508 56.0609ZM93.0508 50.9797C92.8309 50.9797 92.6422 50.901 92.4847 50.7435C92.3272 50.586 92.2485 50.3973 92.2485 50.1774C92.2485 49.9575 92.3272 49.7688 92.4847 49.6114C92.6422 49.4539 92.8309 49.3751 93.0508 49.3751C93.2707 49.3751 93.4594 49.4539 93.6169 49.6114C93.7743 49.7688 93.8531 49.9575 93.8531 50.1774C93.8531 50.323 93.8159 50.4567 93.7417 50.5786C93.6703 50.7004 93.5738 50.7985 93.4519 50.8727C93.3331 50.9441 93.1994 50.9797 93.0508 50.9797Z" fill="#FAFAFA"/>
<path d="M98.8093 56.1271V55.0924L102.472 49.3063H103.287V50.8294H102.77L100.15 54.9765V55.0427H105.171V56.1271H98.8093ZM102.828 57.7827V55.8126L102.836 55.3407V49.3063H104.049V57.7827H102.828ZM109.489 57.9234C108.835 57.9206 108.276 57.7482 107.812 57.406C107.349 57.0639 106.994 56.5658 106.749 55.9119C106.503 55.258 106.38 54.4702 106.38 53.5486C106.38 52.6298 106.503 51.8448 106.749 51.1936C106.997 50.5424 107.353 50.0458 107.817 49.7036C108.283 49.3615 108.84 49.1904 109.489 49.1904C110.137 49.1904 110.693 49.3629 111.157 49.7078C111.62 50.0499 111.975 50.5466 112.22 51.1978C112.469 51.8462 112.593 52.6298 112.593 53.5486C112.593 54.473 112.47 55.2621 112.225 55.916C111.979 56.5672 111.624 57.0653 111.161 57.4102C110.697 57.7523 110.14 57.9234 109.489 57.9234ZM109.489 56.8183C110.063 56.8183 110.511 56.5382 110.834 55.9781C111.159 55.418 111.322 54.6082 111.322 53.5486C111.322 52.845 111.248 52.2504 111.099 51.7648C110.952 51.2764 110.741 50.9067 110.465 50.6556C110.192 50.4017 109.867 50.2748 109.489 50.2748C108.918 50.2748 108.469 50.5562 108.144 51.1191C107.818 51.682 107.654 52.4918 107.651 53.5486C107.651 54.255 107.724 54.8524 107.87 55.3407C108.019 55.8264 108.231 56.1947 108.504 56.4458C108.777 56.6941 109.105 56.8183 109.489 56.8183ZM115.141 55.6263L115.132 54.1156H115.347L117.88 51.4254H119.362L116.473 54.4881H116.279L115.141 55.6263ZM114.002 57.7827V49.3063H115.24V57.7827H114.002ZM118.017 57.7827L115.741 54.7613L116.593 53.8963L119.536 57.7827H118.017Z" fill="#FAFAFA"/>
<path d="M126.194 48.4881L123.672 57.8559H122.847L125.368 48.4881H126.194ZM131.419 52.1252L130.609 52.3544C130.558 52.2194 130.483 52.0883 130.384 51.9609C130.287 51.831 130.155 51.7241 129.986 51.64C129.818 51.5559 129.603 51.5139 129.341 51.5139C128.982 51.5139 128.682 51.5967 128.443 51.7623C128.206 51.9253 128.088 52.1328 128.088 52.385C128.088 52.6091 128.169 52.7861 128.332 52.916C128.495 53.0459 128.75 53.1542 129.096 53.2408L129.967 53.4547C130.492 53.5821 130.883 53.7769 131.14 54.0393C131.397 54.299 131.526 54.634 131.526 55.044C131.526 55.3802 131.429 55.6808 131.236 55.9457C131.045 56.2106 130.777 56.4194 130.433 56.5722C130.09 56.725 129.69 56.8015 129.234 56.8015C128.635 56.8015 128.14 56.6716 127.748 56.4118C127.355 56.152 127.107 55.7725 127.003 55.2733L127.858 55.0593C127.94 55.3751 128.094 55.612 128.321 55.7699C128.55 55.9278 128.849 56.0068 129.219 56.0068C129.639 56.0068 129.972 55.9177 130.219 55.7394C130.469 55.5585 130.594 55.342 130.594 55.0899C130.594 54.8861 130.523 54.7155 130.38 54.5779C130.237 54.4379 130.018 54.3334 129.723 54.2647L128.745 54.0354C128.207 53.9081 127.813 53.7107 127.56 53.4433C127.311 53.1733 127.186 52.8358 127.186 52.4308C127.186 52.0997 127.279 51.8068 127.465 51.5521C127.653 51.2974 127.909 51.0975 128.233 50.9523C128.559 50.8071 128.928 50.7345 129.341 50.7345C129.921 50.7345 130.377 50.8619 130.708 51.1166C131.042 51.3713 131.279 51.7075 131.419 52.1252Z" fill="#FAFAFA"/>
<g clip-path="url(#clip1_469_5015)">
<path d="M253.145 66.6092C253.145 66.1141 253.546 65.7127 254.041 65.7127H255.834C256.329 65.7127 256.731 66.1141 256.731 66.6092V78.2642H253.145V66.6092Z" fill="#9EFE00"/>
<path d="M259.633 65.7126C259.633 65.2175 260.034 64.8161 260.529 64.8161H262.322C262.818 64.8161 263.219 65.2175 263.219 65.7126V78.2642H259.633V65.7126Z" fill="#9EFE00"/>
<path d="M266.121 62.1263C266.121 61.6311 266.522 61.2297 267.018 61.2297H268.811C269.306 61.2297 269.707 61.6311 269.707 62.1263V78.2639H266.121V62.1263Z" fill="#9EFE00"/>
<path d="M272.605 75.5746C272.605 75.0795 273.007 74.6781 273.502 74.6781H275.295C275.79 74.6781 276.192 75.0795 276.192 75.5746V78.2642H272.605V75.5746Z" fill="#9EFE00"/>
<path d="M279.09 74.678C279.09 74.1829 279.491 73.7815 279.986 73.7815H281.779C282.275 73.7815 282.676 74.1829 282.676 74.678V78.2642H279.09V74.678Z" fill="#9EFE00"/>
<path d="M285.57 74.678C285.57 74.1829 285.972 73.7815 286.467 73.7815H288.26C288.755 73.7815 289.156 74.1829 289.156 74.678V78.2642H285.57V74.678Z" fill="#9EFE00"/>
<path d="M292.062 67.5058C292.062 67.0107 292.464 66.6093 292.959 66.6093H294.752C295.247 66.6093 295.649 67.0107 295.649 67.5058V78.2642H292.062V67.5058Z" fill="#9EFE00"/>
<path d="M298.551 63.9195C298.551 63.4243 298.952 63.0229 299.447 63.0229H301.24C301.736 63.0229 302.137 63.4243 302.137 63.9195V78.2641H298.551V63.9195Z" fill="#9EFE00"/>
<path d="M305.031 70.1951C305.031 69.7 305.433 69.2986 305.928 69.2986H307.721C308.216 69.2986 308.617 69.7 308.617 70.1951V78.264H305.031V70.1951Z" fill="#9EFE00"/>
<path d="M311.516 70.1951C311.516 69.7 311.917 69.2986 312.412 69.2986H314.205C314.7 69.2986 315.102 69.7 315.102 70.1951V78.264H311.516V70.1951Z" fill="#9EFE00"/>
<path d="M318 67.5058C318 67.0107 318.401 66.6093 318.897 66.6093H320.69C321.185 66.6093 321.586 67.0107 321.586 67.5058V78.2642H318V67.5058Z" fill="#9EFE00"/>
<path d="M324.488 67.5057C324.488 67.0105 324.89 66.6091 325.385 66.6091H327.178C327.673 66.6091 328.074 67.0105 328.074 67.5057V78.2641H324.488V67.5057Z" fill="#9EFE00"/>
<path d="M330.977 63.9195C330.977 63.4243 331.378 63.0229 331.873 63.0229H333.666C334.161 63.0229 334.563 63.4243 334.563 63.9195V78.2641H330.977V63.9195Z" fill="#9EFE00"/>
<path d="M337.457 73.7814C337.457 73.2863 337.858 72.8849 338.354 72.8849H340.147C340.642 72.8849 341.043 73.2863 341.043 73.7814V78.2641H337.457V73.7814Z" fill="#9EFE00"/>
<path d="M343.945 75.5746C343.945 75.0795 344.347 74.6781 344.842 74.6781H346.635C347.131 74.6781 347.531 75.0795 347.531 75.5746V78.2642H343.945V75.5746Z" fill="#9EFE00"/>
<path d="M350.43 65.7126C350.43 65.2175 350.83 64.8161 351.326 64.8161H353.119C353.614 64.8161 354.016 65.2175 354.016 65.7126V78.2642H350.43V65.7126Z" fill="#9EFE00"/>
<path d="M356.918 67.5058C356.918 67.0107 357.32 66.6093 357.815 66.6093H359.608C360.102 66.6093 360.504 67.0107 360.504 67.5058V78.2642H356.918V67.5058Z" fill="#9EFE00"/>
<path d="M363.406 66.6092C363.406 66.1141 363.807 65.7127 364.303 65.7127H366.096C366.591 65.7127 366.992 66.1141 366.992 66.6092V78.2642H363.406V66.6092Z" fill="#9EFE00"/>
<path d="M369.887 71.0917C369.887 70.5965 370.288 70.1951 370.783 70.1951H372.576C373.071 70.1951 373.473 70.5965 373.473 71.0917V78.264H369.887V71.0917Z" fill="#9EFE00"/>
<path d="M376.371 75.5746C376.371 75.0795 376.773 74.6781 377.268 74.6781H379.061C379.556 74.6781 379.957 75.0795 379.957 75.5746V78.2642H376.371V75.5746Z" fill="#9EFE00"/>
<path d="M382.855 66.6092C382.855 66.1141 383.256 65.7127 383.752 65.7127H385.545C386.04 65.7127 386.442 66.1141 386.442 66.6092V78.2642H382.855V66.6092Z" fill="#9EFE00"/>
<path d="M389.344 73.7814C389.344 73.2863 389.745 72.8849 390.24 72.8849H392.033C392.528 72.8849 392.93 73.2863 392.93 73.7814V78.2641H389.344V73.7814Z" fill="#9EFE00"/>
<path d="M395.832 66.6092C395.832 66.1141 396.234 65.7127 396.729 65.7127H398.522C399.017 65.7127 399.418 66.1141 399.418 66.6092V78.2642H395.832V66.6092Z" fill="#9EFE00"/>
<path d="M402.312 61.2297C402.312 60.7345 402.714 60.3331 403.209 60.3331H405.002C405.497 60.3331 405.899 60.7345 405.899 61.2297V78.2639H402.312V61.2297Z" fill="#9EFE00"/>
<path d="M408.801 67.5058C408.801 67.0107 409.202 66.6093 409.697 66.6093H411.49C411.985 66.6093 412.387 67.0107 412.387 67.5058V78.2642H408.801V67.5058Z" fill="#9EFE00"/>
<path d="M415.289 71.9883C415.289 71.4931 415.69 71.0917 416.186 71.0917H417.979C418.474 71.0917 418.875 71.4931 418.875 71.9883V78.264H415.289V71.9883Z" fill="#9EFE00"/>
<path d="M421.773 68.4024C421.773 67.9073 422.175 67.5059 422.67 67.5059H424.463C424.958 67.5059 425.36 67.9073 425.36 68.4024V78.2643H421.773V68.4024Z" fill="#9EFE00"/>
<path d="M428.258 66.6092C428.258 66.1141 428.659 65.7127 429.154 65.7127H430.947C431.443 65.7127 431.844 66.1141 431.844 66.6092V78.2642H428.258V66.6092Z" fill="#9EFE00"/>
<path d="M434.742 72.8849C434.742 72.3897 435.143 71.9883 435.639 71.9883H437.432C437.927 71.9883 438.328 72.3897 438.328 72.8849V78.2641H434.742V72.8849Z" fill="#9EFE00"/>
<path d="M441.227 64.816C441.227 64.3209 441.628 63.9195 442.123 63.9195H443.916C444.411 63.9195 444.813 64.3209 444.813 64.816V78.2641H441.227V64.816Z" fill="#9EFE00"/>
<path d="M447.711 73.7814C447.711 73.2863 448.113 72.8849 448.607 72.8849H450.401C450.896 72.8849 451.297 73.2863 451.297 73.7814V78.2641H447.711V73.7814Z" fill="#9EFE00"/>
<path d="M454.199 75.5746C454.199 75.0795 454.601 74.6781 455.096 74.6781H456.889C457.384 74.6781 457.785 75.0795 457.785 75.5746V78.2642H454.199V75.5746Z" fill="#9EFE00"/>
<path d="M460.688 70.1951C460.688 69.7 461.089 69.2986 461.584 69.2986H463.377C463.873 69.2986 464.274 69.7 464.274 70.1951V78.264H460.688V70.1951Z" fill="#9EFE00"/>
<path d="M467.168 61.2297C467.168 60.7345 467.569 60.3331 468.065 60.3331H469.858C470.352 60.3331 470.754 60.7345 470.754 61.2297V78.2639H467.168V61.2297Z" fill="#9EFE00"/>
<path d="M473.656 73.7814C473.656 73.2863 474.058 72.8849 474.553 72.8849H476.346C476.841 72.8849 477.242 73.2863 477.242 73.7814V78.2641H473.656V73.7814Z" fill="#9EFE00"/>
<path d="M480.145 62.1263C480.145 61.6311 480.546 61.2297 481.041 61.2297H482.834C483.33 61.2297 483.731 61.6311 483.731 62.1263V78.2639H480.145V62.1263Z" fill="#9EFE00"/>
<path d="M486.629 66.6092C486.629 66.1141 487.03 65.7127 487.525 65.7127H489.319C489.813 65.7127 490.215 66.1141 490.215 66.6092V78.2642H486.629V66.6092Z" fill="#9EFE00"/>
<path d="M493.113 66.6092C493.113 66.1141 493.515 65.7127 494.01 65.7127H495.803C496.298 65.7127 496.699 66.1141 496.699 66.6092V78.2642H493.113V66.6092Z" fill="#9EFE00"/>
<path d="M499.598 65.7126C499.598 65.2175 499.998 64.8161 500.494 64.8161H502.287C502.782 64.8161 503.184 65.2175 503.184 65.7126V78.2642H499.598V65.7126Z" fill="#9EFE00"/>
<path d="M506.086 64.8161C506.086 64.321 506.488 63.9196 506.982 63.9196H508.776C509.27 63.9196 509.672 64.321 509.672 64.8161V78.2641H506.086V64.8161Z" fill="#9EFE00"/>
</g>
</g>
<rect x="18.7022" y="0.713771" width="489.509" height="77.9987" rx="10.3102" stroke="#545454" stroke-width="0.896537"/>
</g>
<defs>
<filter id="filter0_dd_469_5015" x="0.32317" y="0.265501" width="526.268" height="114.757" filterUnits="userSpaceOnUse" color-interpolation-filters="sRGB">
<feFlood flood-opacity="0" result="BackgroundImageFix"/>
<feColorMatrix in="SourceAlpha" type="matrix" values="0 0 0 0 0 0 0 0 0 0 0 0 0 0 0 0 0 0 127 0" result="hardAlpha"/>
<feMorphology radius="5.37922" operator="erode" in="SourceAlpha" result="effect1_dropShadow_469_5015"/>
<feOffset dy="7.17229"/>
<feGaussianBlur stdDeviation="4.48268"/>
<feComposite in2="hardAlpha" operator="out"/>
<feColorMatrix type="matrix" values="0 0 0 0 0 0 0 0 0 0 0 0 0 0 0 0 0 0 0.25 0"/>
<feBlend mode="normal" in2="BackgroundImageFix" result="effect1_dropShadow_469_5015"/>
<feColorMatrix in="SourceAlpha" type="matrix" values="0 0 0 0 0 0 0 0 0 0 0 0 0 0 0 0 0 0 127 0" result="hardAlpha"/>
<feMorphology radius="4.48268" operator="erode" in="SourceAlpha" result="effect2_dropShadow_469_5015"/>
<feOffset dy="17.9307"/>
<feGaussianBlur stdDeviation="11.2067"/>
<feComposite in2="hardAlpha" operator="out"/>
<feColorMatrix type="matrix" values="0 0 0 0 0 0 0 0 0 0 0 0 0 0 0 0 0 0 0.25 0"/>
<feBlend mode="normal" in2="effect1_dropShadow_469_5015" result="effect2_dropShadow_469_5015"/>
<feBlend mode="normal" in="SourceGraphic" in2="effect2_dropShadow_469_5015" result="shape"/>
</filter>
<clipPath id="clip0_469_5015">
<rect x="18.2539" y="0.265503" width="490.406" height="78.8952" rx="10.7584" fill="white"/>
</clipPath>
<clipPath id="clip1_469_5015">
<rect width="271.651" height="17.9307" fill="white" transform="translate(253.148 60.3336)"/>
</clipPath>
</defs>
</svg>
