<svg width="527" height="80" viewBox="0 0 527 80" fill="none" xmlns="http://www.w3.org/2000/svg">
<g filter="url(#filter0_dd_469_5283)">
<g clip-path="url(#clip0_469_5283)">
<rect x="18.2539" y="0.50531" width="490.406" height="78.8952" rx="10.7584" fill="#1F1F1F"/>
<path d="M46.2223 23.8067C46.1781 23.4149 45.996 23.1114 45.676 22.8961C45.3559 22.6782 44.953 22.5692 44.4674 22.5692C44.1198 22.5692 43.819 22.6244 43.5652 22.7347C43.3113 22.8423 43.114 22.9913 42.9733 23.1817C42.8353 23.3693 42.7664 23.5832 42.7664 23.8232C42.7664 24.0247 42.8133 24.1985 42.9071 24.3447C43.0037 24.491 43.1292 24.6138 43.2837 24.7131C43.441 24.8097 43.6093 24.8911 43.7887 24.9573C43.968 25.0207 44.1405 25.0732 44.306 25.1146L45.1338 25.3298C45.4042 25.396 45.6815 25.4857 45.9657 25.5988C46.2499 25.7119 46.5134 25.8609 46.7562 26.0458C46.999 26.2307 47.1949 26.4597 47.3439 26.7328C47.4957 27.006 47.5716 27.333 47.5716 27.7138C47.5716 28.1939 47.4474 28.6202 47.1991 28.9927C46.9535 29.3651 46.5962 29.659 46.1271 29.8742C45.6608 30.0894 45.0965 30.1971 44.4343 30.1971C43.7997 30.1971 43.2506 30.0963 42.7871 29.8949C42.3235 29.6935 41.9607 29.4079 41.6985 29.0382C41.4364 28.6657 41.2916 28.2242 41.264 27.7138H42.547C42.5718 28.02 42.6712 28.2753 42.845 28.4794C43.0216 28.6809 43.2465 28.8312 43.5196 28.9306C43.7956 29.0271 44.0977 29.0754 44.426 29.0754C44.7875 29.0754 45.1089 29.0189 45.3904 28.9057C45.6746 28.7898 45.8981 28.6298 46.0609 28.4256C46.2237 28.2187 46.3051 27.9773 46.3051 27.7013C46.3051 27.4502 46.2333 27.2447 46.0899 27.0846C45.9491 26.9246 45.7574 26.7922 45.5146 26.6873C45.2745 26.5825 45.0027 26.49 44.6992 26.41L43.6976 26.1369C43.0188 25.952 42.4808 25.6802 42.0835 25.3215C41.6889 24.9628 41.4916 24.4882 41.4916 23.8977C41.4916 23.4094 41.624 22.9831 41.8889 22.6188C42.1538 22.2546 42.5125 21.9718 42.965 21.7704C43.4175 21.5662 43.928 21.4641 44.4964 21.4641C45.0703 21.4641 45.5766 21.5648 46.0154 21.7662C46.4568 21.9677 46.8045 22.245 47.0583 22.5981C47.3122 22.9486 47.4446 23.3514 47.4557 23.8067H46.2223ZM48.8427 30.0563V23.6991H50.0802V30.0563H48.8427ZM49.4677 22.7182C49.2524 22.7182 49.0676 22.6464 48.9131 22.5029C48.7613 22.3567 48.6854 22.1829 48.6854 21.9815C48.6854 21.7773 48.7613 21.6034 48.9131 21.46C49.0676 21.3137 49.2524 21.2406 49.4677 21.2406C49.6829 21.2406 49.8664 21.3137 50.0181 21.46C50.1726 21.6034 50.2499 21.7773 50.2499 21.9815C50.2499 22.1829 50.1726 22.3567 50.0181 22.5029C49.8664 22.6464 49.6829 22.7182 49.4677 22.7182ZM52.8248 26.2817V30.0563H51.5873V23.6991H52.7751V24.7338H52.8538C53 24.3972 53.229 24.1268 53.5408 23.9226C53.8554 23.7184 54.2513 23.6163 54.7287 23.6163C55.1619 23.6163 55.5412 23.7074 55.8668 23.8895C56.1924 24.0688 56.4449 24.3365 56.6242 24.6924C56.8036 25.0483 56.8933 25.4884 56.8933 26.0127V30.0563H55.6558V26.1617C55.6558 25.7009 55.5357 25.3408 55.2957 25.0814C55.0556 24.8193 54.7259 24.6883 54.3065 24.6883C54.0195 24.6883 53.7643 24.7503 53.5408 24.8745C53.3201 24.9987 53.1449 25.1808 53.0152 25.4208C52.8882 25.6581 52.8248 25.9451 52.8248 26.2817ZM61.0606 32.5728C60.5556 32.5728 60.121 32.5065 59.7568 32.3741C59.3954 32.2416 59.1001 32.0664 58.8711 31.8485C58.6421 31.6305 58.471 31.3918 58.3579 31.1324L59.4216 30.6937C59.4961 30.8151 59.5954 30.9434 59.7196 31.0786C59.8465 31.2166 60.0176 31.3339 60.2328 31.4304C60.4508 31.527 60.7308 31.5753 61.073 31.5753C61.5421 31.5753 61.9297 31.4608 62.236 31.2318C62.5423 31.0055 62.6954 30.6441 62.6954 30.1474V28.8975H62.6168C62.5423 29.0327 62.4347 29.183 62.2939 29.3486C62.156 29.5141 61.9656 29.6576 61.7228 29.779C61.48 29.9004 61.164 29.9611 60.775 29.9611C60.2728 29.9611 59.8203 29.8439 59.4174 29.6093C59.0174 29.372 58.7 29.023 58.4655 28.5622C58.2337 28.0987 58.1179 27.5289 58.1179 26.8529C58.1179 26.1769 58.2324 25.5974 58.4614 25.1146C58.6931 24.6317 59.0105 24.262 59.4133 24.0053C59.8162 23.746 60.2728 23.6163 60.7833 23.6163C61.1778 23.6163 61.4965 23.6825 61.7393 23.815C61.9821 23.9446 62.1712 24.0964 62.3064 24.2702C62.4443 24.4441 62.5506 24.5972 62.625 24.7296H62.7161V23.6991H63.9288V30.1971C63.9288 30.7434 63.8019 31.1918 63.548 31.5422C63.2942 31.8926 62.9506 32.152 62.5174 32.3203C62.087 32.4886 61.6014 32.5728 61.0606 32.5728ZM61.0482 28.9347C61.4041 28.9347 61.7048 28.8519 61.9504 28.6864C62.1987 28.5181 62.3864 28.278 62.5133 27.9662C62.643 27.6517 62.7078 27.275 62.7078 26.8363C62.7078 26.4086 62.6444 26.032 62.5174 25.7064C62.3905 25.3808 62.2043 25.127 61.9587 24.9449C61.7131 24.76 61.4096 24.6676 61.0482 24.6676C60.6757 24.6676 60.3652 24.7641 60.1169 24.9573C59.8686 25.1477 59.681 25.407 59.554 25.7354C59.4299 26.0637 59.3678 26.4307 59.3678 26.8363C59.3678 27.253 59.4312 27.6186 59.5582 27.9331C59.6851 28.2477 59.8727 28.4932 60.121 28.6698C60.3721 28.8464 60.6812 28.9347 61.0482 28.9347ZM67.2807 30.1971C66.8779 30.1971 66.5137 30.1226 66.1881 29.9736C65.8625 29.8218 65.6045 29.6024 65.4141 29.3155C65.2265 29.0285 65.1327 28.6767 65.1327 28.2601C65.1327 27.9014 65.2017 27.6061 65.3396 27.3744C65.4776 27.1426 65.6638 26.9591 65.8984 26.8239C66.1329 26.6887 66.395 26.5866 66.6847 26.5176C66.9745 26.4486 67.2697 26.3962 67.5705 26.3603C67.9512 26.3162 68.2603 26.2803 68.4976 26.2527C68.7348 26.2224 68.9073 26.1741 69.0149 26.1079C69.1225 26.0417 69.1763 25.934 69.1763 25.7851V25.7561C69.1763 25.3946 69.0742 25.1146 68.87 24.9159C68.6686 24.7172 68.3679 24.6179 67.9678 24.6179C67.5511 24.6179 67.2228 24.7103 66.9827 24.8952C66.7454 25.0773 66.5813 25.2801 66.4902 25.5036L65.3272 25.2387C65.4652 24.8524 65.6666 24.5406 65.9315 24.3033C66.1991 24.0633 66.5068 23.8895 66.8544 23.7819C67.2021 23.6715 67.5677 23.6163 67.9512 23.6163C68.2051 23.6163 68.4741 23.6466 68.7583 23.7074C69.0453 23.7653 69.3129 23.8729 69.5612 24.0302C69.8123 24.1875 70.0179 24.4123 70.1779 24.7048C70.338 24.9945 70.418 25.3712 70.418 25.8347V30.0563H69.2094V29.1872H69.1598C69.0797 29.3472 68.9597 29.5045 68.7997 29.659C68.6397 29.8135 68.4341 29.9418 68.183 30.0439C67.9319 30.146 67.6312 30.1971 67.2807 30.1971ZM67.5498 29.2037C67.8919 29.2037 68.1844 29.1361 68.4272 29.0009C68.6728 28.8657 68.859 28.6891 68.9859 28.4712C69.1156 28.2504 69.1805 28.0145 69.1805 27.7634V26.9439C69.1363 26.9881 69.0508 27.0295 68.9239 27.0681C68.7997 27.104 68.6576 27.1357 68.4976 27.1633C68.3375 27.1881 68.1816 27.2116 68.0299 27.2336C67.8781 27.253 67.7512 27.2695 67.6491 27.2833C67.409 27.3137 67.1897 27.3647 66.991 27.4364C66.7951 27.5082 66.6378 27.6117 66.5192 27.7469C66.4033 27.8793 66.3454 28.0559 66.3454 28.2766C66.3454 28.5829 66.4585 28.8147 66.6847 28.972C66.911 29.1265 67.1993 29.2037 67.5498 29.2037ZM71.9085 32.4403V23.6991H73.117V24.7296H73.2205C73.2922 24.5972 73.3957 24.4441 73.5309 24.2702C73.6661 24.0964 73.8537 23.9446 74.0938 23.815C74.3338 23.6825 74.6511 23.6163 75.0457 23.6163C75.5589 23.6163 76.017 23.746 76.4198 24.0053C76.8227 24.2647 77.1386 24.6386 77.3676 25.127C77.5994 25.6154 77.7153 26.2031 77.7153 26.8901C77.7153 27.5772 77.6008 28.1663 77.3717 28.6574C77.1427 29.1458 76.8282 29.5224 76.4281 29.7873C76.028 30.0494 75.5714 30.1805 75.0581 30.1805C74.6718 30.1805 74.3559 30.1157 74.1103 29.986C73.8675 29.8563 73.6771 29.7045 73.5392 29.5307C73.4012 29.3569 73.295 29.2024 73.2205 29.0672H73.146V32.4403H71.9085ZM73.1212 26.8777C73.1212 27.3247 73.186 27.7165 73.3157 28.0531C73.4454 28.3898 73.633 28.6533 73.8786 28.8437C74.1241 29.0313 74.4249 29.1251 74.7808 29.1251C75.1506 29.1251 75.4596 29.0271 75.7079 28.8312C75.9563 28.6326 76.1439 28.3635 76.2708 28.0242C76.4005 27.6848 76.4653 27.3026 76.4653 26.8777C76.4653 26.4583 76.4019 26.0817 76.275 25.7478C76.1508 25.4139 75.9632 25.1504 75.7121 24.9573C75.4637 24.7641 75.1533 24.6676 74.7808 24.6676C74.4221 24.6676 74.1186 24.76 73.8703 24.9449C73.6247 25.1297 73.4385 25.3877 73.3115 25.7188C73.1846 26.0499 73.1212 26.4362 73.1212 26.8777ZM81.6218 30.1846C81.0258 30.1846 80.5057 30.0481 80.0615 29.7749C79.6172 29.5017 79.2723 29.1196 79.0268 28.6284C78.7812 28.1373 78.6584 27.5634 78.6584 26.9067C78.6584 26.2472 78.7812 25.6705 79.0268 25.1766C79.2723 24.6827 79.6172 24.2992 80.0615 24.026C80.5057 23.7529 81.0258 23.6163 81.6218 23.6163C82.2178 23.6163 82.7379 23.7529 83.1822 24.026C83.6264 24.2992 83.9713 24.6827 84.2169 25.1766C84.4624 25.6705 84.5852 26.2472 84.5852 26.9067C84.5852 27.5634 84.4624 28.1373 84.2169 28.6284C83.9713 29.1196 83.6264 29.5017 83.1822 29.7749C82.7379 30.0481 82.2178 30.1846 81.6218 30.1846ZM81.626 29.1458C82.0123 29.1458 82.3323 29.0437 82.5862 28.8395C82.84 28.6353 83.0276 28.3635 83.1491 28.0242C83.2732 27.6848 83.3353 27.3109 83.3353 26.9025C83.3353 26.4969 83.2732 26.1244 83.1491 25.7851C83.0276 25.4429 82.84 25.1684 82.5862 24.9614C82.3323 24.7545 82.0123 24.651 81.626 24.651C81.2369 24.651 80.9141 24.7545 80.6575 24.9614C80.4036 25.1684 80.2146 25.4429 80.0904 25.7851C79.969 26.1244 79.9083 26.4969 79.9083 26.9025C79.9083 27.3109 79.969 27.6848 80.0904 28.0242C80.2146 28.3635 80.4036 28.6353 80.6575 28.8395C80.9141 29.0437 81.2369 29.1458 81.626 29.1458ZM85.8088 30.0563V23.6991H87.0049V24.709H87.0711C87.187 24.3668 87.3912 24.0978 87.6837 23.9019C87.9789 23.7032 88.3128 23.6039 88.6853 23.6039C88.7625 23.6039 88.8536 23.6066 88.9584 23.6122C89.0661 23.6177 89.1502 23.6246 89.2109 23.6329V24.8166C89.1612 24.8028 89.0729 24.7876 88.946 24.771C88.8191 24.7517 88.6922 24.7421 88.5653 24.7421C88.2728 24.7421 88.012 24.8041 87.783 24.9283C87.5568 25.0497 87.3774 25.2194 87.245 25.4374C87.1125 25.6526 87.0463 25.8982 87.0463 26.1741V30.0563H85.8088ZM92.6363 30.1846C92.01 30.1846 91.4705 30.0508 91.018 29.7832C90.5683 29.5128 90.2206 29.1334 89.975 28.645C89.7322 28.1538 89.6108 27.5785 89.6108 26.9191C89.6108 26.2679 89.7322 25.694 89.975 25.1973C90.2206 24.7007 90.5628 24.313 91.0015 24.0343C91.443 23.7556 91.9589 23.6163 92.5494 23.6163C92.9081 23.6163 93.2558 23.6756 93.5924 23.7943C93.929 23.9129 94.2312 24.0992 94.4988 24.353C94.7664 24.6069 94.9775 24.9366 95.132 25.3422C95.2866 25.745 95.3638 26.2348 95.3638 26.8115V27.2502H90.3103V26.3231H94.1511C94.1511 25.9975 94.0849 25.7092 93.9525 25.4581C93.82 25.2042 93.6338 25.0042 93.3937 24.858C93.1564 24.7117 92.8778 24.6386 92.5577 24.6386C92.21 24.6386 91.9065 24.7241 91.6471 24.8952C91.3905 25.0635 91.1919 25.2843 91.0511 25.5574C90.9132 25.8278 90.8442 26.1217 90.8442 26.439V27.1633C90.8442 27.5882 90.9187 27.9497 91.0677 28.2477C91.2195 28.5457 91.4305 28.7733 91.7009 28.9306C91.9713 29.0851 92.2873 29.1623 92.6487 29.1623C92.8833 29.1623 93.0971 29.1292 93.2903 29.063C93.4834 28.994 93.6503 28.8919 93.7911 28.7567C93.9318 28.6215 94.0394 28.4546 94.1139 28.2559L95.2852 28.467C95.1914 28.8119 95.0231 29.1141 94.7802 29.3734C94.5402 29.63 94.2381 29.8301 93.8738 29.9736C93.5124 30.1143 93.0999 30.1846 92.6363 30.1846Z" fill="#FAFAFA"/>
<path d="M100.996 26.4804C100.996 25.4374 101.131 24.4786 101.401 23.6039C101.674 22.7264 102.063 21.9194 102.568 21.1827H103.429C103.231 21.4558 103.044 21.7924 102.87 22.1925C102.699 22.5899 102.549 23.0272 102.419 23.5045C102.29 23.9791 102.188 24.4703 102.113 24.978C102.041 25.4857 102.005 25.9865 102.005 26.4804C102.005 27.1371 102.069 27.8034 102.196 28.4794C102.323 29.1554 102.494 29.7832 102.709 30.3626C102.924 30.942 103.164 31.4139 103.429 31.7781H102.568C102.063 31.0414 101.674 30.2357 101.401 29.361C101.131 28.4836 100.996 27.5234 100.996 26.4804ZM106.584 30.2053C106.181 30.2053 105.815 30.1295 105.487 29.9777C105.158 29.8232 104.898 29.6011 104.704 29.3113C104.511 29.0189 104.415 28.6657 104.415 28.2518C104.415 27.8876 104.487 27.5923 104.63 27.3661C104.773 27.1371 104.965 26.9577 105.205 26.828C105.445 26.6984 105.71 26.6018 106 26.5383C106.292 26.4721 106.586 26.4197 106.882 26.381C107.268 26.3314 107.581 26.2941 107.821 26.2693C108.064 26.2417 108.24 26.1962 108.351 26.1327C108.464 26.0693 108.52 25.9589 108.52 25.8016V25.7685C108.52 25.3601 108.409 25.0428 108.185 24.8166C107.965 24.5903 107.629 24.4772 107.18 24.4772C106.713 24.4772 106.348 24.5793 106.083 24.7835C105.818 24.9876 105.632 25.2056 105.524 25.4374L104.597 25.1063C104.762 24.72 104.983 24.4192 105.259 24.204C105.538 23.986 105.841 23.8343 106.17 23.7487C106.501 23.6604 106.826 23.6163 107.146 23.6163C107.351 23.6163 107.585 23.6411 107.85 23.6908C108.118 23.7377 108.376 23.8357 108.624 23.9847C108.875 24.1337 109.083 24.3585 109.249 24.6593C109.414 24.96 109.497 25.3629 109.497 25.8678V30.0563H108.52V29.1955H108.471C108.405 29.3334 108.294 29.481 108.14 29.6383C107.985 29.7956 107.78 29.9294 107.523 30.0398C107.266 30.1501 106.953 30.2053 106.584 30.2053ZM106.733 29.3279C107.119 29.3279 107.444 29.252 107.709 29.1003C107.977 28.9485 108.178 28.7526 108.314 28.5125C108.452 28.2725 108.52 28.02 108.52 27.7551V26.8611C108.479 26.9108 108.388 26.9563 108.247 26.9977C108.109 27.0364 107.949 27.0709 107.767 27.1012C107.588 27.1288 107.413 27.1536 107.242 27.1757C107.073 27.195 106.937 27.2116 106.832 27.2254C106.578 27.2585 106.341 27.3123 106.12 27.3868C105.902 27.4585 105.725 27.5675 105.59 27.7138C105.458 27.8572 105.392 28.0531 105.392 28.3015C105.392 28.6409 105.517 28.8975 105.768 29.0713C106.022 29.2424 106.343 29.3279 106.733 29.3279ZM111.122 32.4403V23.6991H112.066V24.709H112.182C112.254 24.5986 112.353 24.4579 112.48 24.2868C112.609 24.113 112.794 23.9584 113.034 23.8232C113.277 23.6853 113.606 23.6163 114.019 23.6163C114.555 23.6163 115.027 23.7501 115.435 24.0178C115.843 24.2854 116.162 24.6648 116.391 25.1559C116.62 25.6471 116.735 26.2265 116.735 26.8943C116.735 27.5675 116.62 28.1511 116.391 28.645C116.162 29.1361 115.845 29.5169 115.439 29.7873C115.033 30.055 114.566 30.1888 114.036 30.1888C113.628 30.1888 113.301 30.1212 113.055 29.986C112.81 29.848 112.621 29.6921 112.488 29.5183C112.356 29.3417 112.254 29.1955 112.182 29.0796H112.099V32.4403H111.122ZM112.082 26.8777C112.082 27.3578 112.153 27.7814 112.294 28.1483C112.434 28.5125 112.64 28.7981 112.91 29.0051C113.181 29.2093 113.512 29.3113 113.904 29.3113C114.312 29.3113 114.653 29.2037 114.926 28.9885C115.202 28.7705 115.409 28.4781 115.547 28.1111C115.687 27.7413 115.758 27.3302 115.758 26.8777C115.758 26.4307 115.689 26.0279 115.551 25.6692C115.416 25.3077 115.21 25.0221 114.934 24.8124C114.661 24.6 114.317 24.4937 113.904 24.4937C113.506 24.4937 113.172 24.5944 112.902 24.7959C112.632 24.9945 112.427 25.2732 112.289 25.6319C112.151 25.9879 112.082 26.4031 112.082 26.8777ZM121.709 25.9672V26.8777H118.001V25.9672H121.709ZM127.773 25.1228L126.895 25.3712C126.84 25.2249 126.759 25.0828 126.651 24.9449C126.546 24.8041 126.403 24.6883 126.221 24.5972C126.039 24.5061 125.806 24.4606 125.521 24.4606C125.132 24.4606 124.808 24.5503 124.549 24.7296C124.292 24.9062 124.164 25.1311 124.164 25.4043C124.164 25.6471 124.252 25.8389 124.429 25.9796C124.605 26.1203 124.881 26.2376 125.256 26.3314L126.2 26.5632C126.768 26.7011 127.192 26.9122 127.471 27.1964C127.749 27.4778 127.889 27.8407 127.889 28.2849C127.889 28.6491 127.784 28.9747 127.574 29.2617C127.367 29.5486 127.078 29.7749 126.705 29.9404C126.333 30.106 125.899 30.1888 125.405 30.1888C124.757 30.1888 124.22 30.0481 123.795 29.7666C123.37 29.4852 123.101 29.0741 122.988 28.5332L123.915 28.3015C124.004 28.6436 124.171 28.9002 124.416 29.0713C124.665 29.2424 124.989 29.3279 125.389 29.3279C125.844 29.3279 126.206 29.2313 126.473 29.0382C126.744 28.8423 126.879 28.6077 126.879 28.3346C126.879 28.1138 126.802 27.929 126.647 27.78C126.493 27.6282 126.255 27.5151 125.935 27.4406L124.876 27.1923C124.293 27.0543 123.866 26.8405 123.593 26.5507C123.322 26.2583 123.187 25.8927 123.187 25.4539C123.187 25.0952 123.288 24.7779 123.489 24.502C123.693 24.2261 123.971 24.0095 124.321 23.8522C124.674 23.6949 125.074 23.6163 125.521 23.6163C126.15 23.6163 126.644 23.7543 127.003 24.0302C127.364 24.3061 127.621 24.6703 127.773 25.1228ZM131.784 30.1888C131.21 30.1888 130.706 30.0522 130.273 29.779C129.843 29.5059 129.506 29.1237 129.263 28.6326C129.023 28.1414 128.903 27.5675 128.903 26.9108C128.903 26.2486 129.023 25.6705 129.263 25.1766C129.506 24.6827 129.843 24.2992 130.273 24.026C130.706 23.7529 131.21 23.6163 131.784 23.6163C132.358 23.6163 132.86 23.7529 133.29 24.026C133.724 24.2992 134.06 24.6827 134.3 25.1766C134.543 25.6705 134.665 26.2486 134.665 26.9108C134.665 27.5675 134.543 28.1414 134.3 28.6326C134.06 29.1237 133.724 29.5059 133.29 29.779C132.86 30.0522 132.358 30.1888 131.784 30.1888ZM131.784 29.3113C132.22 29.3113 132.579 29.1996 132.86 28.9761C133.141 28.7526 133.35 28.4587 133.485 28.0945C133.62 27.7303 133.688 27.3357 133.688 26.9108C133.688 26.4859 133.62 26.0899 133.485 25.723C133.35 25.356 133.141 25.0594 132.86 24.8331C132.579 24.6069 132.22 24.4937 131.784 24.4937C131.348 24.4937 130.989 24.6069 130.708 24.8331C130.426 25.0594 130.218 25.356 130.083 25.723C129.948 26.0899 129.88 26.4859 129.88 26.9108C129.88 27.3357 129.948 27.7303 130.083 28.0945C130.218 28.4587 130.426 28.7526 130.708 28.9761C130.989 29.1996 131.348 29.3113 131.784 29.3113ZM140.004 27.4571V23.6991H140.981V30.0563H140.004V28.9802H139.938C139.789 29.3031 139.557 29.5776 139.243 29.8039C138.928 30.0274 138.531 30.1391 138.051 30.1391C137.653 30.1391 137.3 30.0522 136.991 29.8784C136.682 29.7018 136.439 29.4369 136.263 29.0837C136.086 28.7278 135.998 28.2794 135.998 27.7386V23.6991H136.975V27.6724C136.975 28.1359 137.104 28.5056 137.364 28.7816C137.626 29.0575 137.96 29.1955 138.365 29.1955C138.608 29.1955 138.855 29.1334 139.106 29.0092C139.36 28.885 139.572 28.6947 139.743 28.438C139.917 28.1814 140.004 27.8545 140.004 27.4571ZM145.377 23.6991V24.5268H142.082V23.6991H145.377ZM143.043 22.176H144.019V28.2352C144.019 28.5112 144.059 28.7181 144.139 28.8561C144.222 28.9913 144.327 29.0823 144.454 29.1292C144.584 29.1734 144.72 29.1955 144.864 29.1955C144.971 29.1955 145.06 29.1899 145.129 29.1789C145.198 29.1651 145.253 29.1541 145.294 29.1458L145.493 30.0232C145.427 30.0481 145.334 30.0729 145.215 30.0977C145.097 30.1253 144.946 30.1391 144.764 30.1391C144.488 30.1391 144.218 30.0798 143.953 29.9611C143.691 29.8425 143.473 29.6618 143.299 29.419C143.128 29.1761 143.043 28.8699 143.043 28.5001V22.176ZM147.802 26.232V30.0563H146.825V21.58H147.802V24.6924H147.885C148.034 24.364 148.257 24.1033 148.555 23.9102C148.856 23.7143 149.256 23.6163 149.755 23.6163C150.188 23.6163 150.568 23.7032 150.893 23.877C151.219 24.0481 151.472 24.3116 151.651 24.6676C151.833 25.0207 151.924 25.4705 151.924 26.0168V30.0563H150.947V26.083C150.947 25.5781 150.816 25.1877 150.554 24.9118C150.295 24.6331 149.935 24.4937 149.474 24.4937C149.154 24.4937 148.867 24.5613 148.613 24.6965C148.362 24.8317 148.163 25.029 148.017 25.2884C147.873 25.5478 147.802 25.8623 147.802 26.232ZM156.219 30.1888C155.606 30.1888 155.078 30.0536 154.633 29.7832C154.192 29.51 153.851 29.1292 153.611 28.6409C153.374 28.1497 153.255 27.5785 153.255 26.9274C153.255 26.2762 153.374 25.7023 153.611 25.2056C153.851 24.7062 154.185 24.3171 154.613 24.0385C155.043 23.757 155.545 23.6163 156.119 23.6163C156.45 23.6163 156.777 23.6715 157.1 23.7819C157.423 23.8922 157.717 24.0716 157.982 24.3199C158.247 24.5655 158.458 24.8911 158.615 25.2967C158.772 25.7023 158.851 26.2017 158.851 26.7949V27.2088H153.951V26.3645H157.858C157.858 26.0058 157.786 25.6857 157.642 25.4043C157.502 25.1228 157.3 24.9007 157.038 24.7379C156.779 24.5751 156.472 24.4937 156.119 24.4937C155.73 24.4937 155.394 24.5903 155.109 24.7835C154.828 24.9738 154.611 25.2222 154.46 25.5284C154.308 25.8347 154.232 26.1631 154.232 26.5135V27.0764C154.232 27.5565 154.315 27.9635 154.48 28.2973C154.649 28.6284 154.882 28.8809 155.18 29.0547C155.478 29.2258 155.824 29.3113 156.219 29.3113C156.475 29.3113 156.707 29.2755 156.914 29.2037C157.124 29.1292 157.304 29.0189 157.456 28.8726C157.608 28.7236 157.725 28.5388 157.808 28.318L158.752 28.5829C158.652 28.903 158.485 29.1844 158.251 29.4272C158.016 29.6673 157.727 29.8549 157.382 29.9901C157.037 30.1226 156.649 30.1888 156.219 30.1888ZM162.05 30.2053C161.647 30.2053 161.281 30.1295 160.953 29.9777C160.625 29.8232 160.364 29.6011 160.171 29.3113C159.978 29.0189 159.881 28.6657 159.881 28.2518C159.881 27.8876 159.953 27.5923 160.096 27.3661C160.24 27.1371 160.431 26.9577 160.671 26.828C160.912 26.6984 161.176 26.6018 161.466 26.5383C161.759 26.4721 162.052 26.4197 162.348 26.381C162.734 26.3314 163.047 26.2941 163.287 26.2693C163.53 26.2417 163.707 26.1962 163.817 26.1327C163.93 26.0693 163.987 25.9589 163.987 25.8016V25.7685C163.987 25.3601 163.875 25.0428 163.651 24.8166C163.431 24.5903 163.095 24.4772 162.646 24.4772C162.179 24.4772 161.814 24.5793 161.549 24.7835C161.284 24.9876 161.098 25.2056 160.99 25.4374L160.063 25.1063C160.229 24.72 160.449 24.4192 160.725 24.204C161.004 23.986 161.307 23.8343 161.636 23.7487C161.967 23.6604 162.293 23.6163 162.613 23.6163C162.817 23.6163 163.051 23.6411 163.316 23.6908C163.584 23.7377 163.842 23.8357 164.09 23.9847C164.341 24.1337 164.55 24.3585 164.715 24.6593C164.881 24.96 164.963 25.3629 164.963 25.8678V30.0563H163.987V29.1955H163.937C163.871 29.3334 163.76 29.481 163.606 29.6383C163.451 29.7956 163.246 29.9294 162.989 30.0398C162.733 30.1501 162.419 30.2053 162.05 30.2053ZM162.199 29.3279C162.585 29.3279 162.911 29.252 163.175 29.1003C163.443 28.9485 163.645 28.7526 163.78 28.5125C163.918 28.2725 163.987 28.02 163.987 27.7551V26.8611C163.945 26.9108 163.854 26.9563 163.714 26.9977C163.576 27.0364 163.416 27.0709 163.233 27.1012C163.054 27.1288 162.879 27.1536 162.708 27.1757C162.539 27.195 162.403 27.2116 162.298 27.2254C162.044 27.2585 161.807 27.3123 161.586 27.3868C161.368 27.4585 161.192 27.5675 161.056 27.7138C160.924 27.8572 160.858 28.0531 160.858 28.3015C160.858 28.6409 160.983 28.8975 161.234 29.0713C161.488 29.2424 161.81 29.3279 162.199 29.3279ZM171.092 25.1228L170.214 25.3712C170.159 25.2249 170.078 25.0828 169.97 24.9449C169.865 24.8041 169.722 24.6883 169.539 24.5972C169.357 24.5061 169.124 24.4606 168.84 24.4606C168.451 24.4606 168.127 24.5503 167.867 24.7296C167.611 24.9062 167.482 25.1311 167.482 25.4043C167.482 25.6471 167.571 25.8389 167.747 25.9796C167.924 26.1203 168.2 26.2376 168.575 26.3314L169.519 26.5632C170.087 26.7011 170.511 26.9122 170.789 27.1964C171.068 27.4778 171.207 27.8407 171.207 28.2849C171.207 28.6491 171.103 28.9747 170.893 29.2617C170.686 29.5486 170.396 29.7749 170.024 29.9404C169.651 30.106 169.218 30.1888 168.724 30.1888C168.076 30.1888 167.539 30.0481 167.114 29.7666C166.689 29.4852 166.42 29.0741 166.307 28.5332L167.234 28.3015C167.322 28.6436 167.489 28.9002 167.735 29.0713C167.983 29.2424 168.307 29.3279 168.708 29.3279C169.163 29.3279 169.524 29.2313 169.792 29.0382C170.062 28.8423 170.198 28.6077 170.198 28.3346C170.198 28.1138 170.12 27.929 169.966 27.78C169.811 27.6282 169.574 27.5151 169.254 27.4406L168.194 27.1923C167.612 27.0543 167.184 26.8405 166.911 26.5507C166.641 26.2583 166.506 25.8927 166.506 25.4539C166.506 25.0952 166.606 24.7779 166.808 24.502C167.012 24.2261 167.289 24.0095 167.64 23.8522C167.993 23.6949 168.393 23.6163 168.84 23.6163C169.469 23.6163 169.963 23.7543 170.322 24.0302C170.683 24.3061 170.94 24.6703 171.092 25.1228ZM175.285 23.6991V24.5268H171.99V23.6991H175.285ZM172.95 22.176H173.927V28.2352C173.927 28.5112 173.967 28.7181 174.047 28.8561C174.13 28.9913 174.235 29.0823 174.362 29.1292C174.491 29.1734 174.628 29.1955 174.771 29.1955C174.879 29.1955 174.967 29.1899 175.036 29.1789C175.105 29.1651 175.161 29.1541 175.202 29.1458L175.401 30.0232C175.334 30.0481 175.242 30.0729 175.123 30.0977C175.005 30.1253 174.854 30.1391 174.672 30.1391C174.396 30.1391 174.126 30.0798 173.861 29.9611C173.599 29.8425 173.381 29.6618 173.207 29.419C173.036 29.1761 172.95 28.8699 172.95 28.5001V22.176ZM180.011 25.9672V26.8777H176.302V25.9672H180.011ZM184.535 21.58V30.0563H183.509V22.6561H183.459L181.389 24.0302V22.9872L183.509 21.58H184.535ZM188.918 25.8182C188.918 26.8611 188.781 27.8214 188.508 28.6988C188.237 29.5735 187.85 30.3792 187.345 31.1159H186.484C186.683 30.8427 186.867 30.5061 187.039 30.106C187.212 29.7087 187.364 29.2727 187.494 28.7981C187.623 28.3208 187.724 27.8283 187.796 27.3206C187.87 26.8101 187.908 26.3093 187.908 25.8182C187.908 25.1615 187.844 24.4951 187.717 23.8191C187.59 23.1431 187.419 22.5154 187.204 21.9359C186.989 21.3565 186.749 20.8847 186.484 20.5204H187.345C187.85 21.2572 188.237 22.0642 188.508 22.9417C188.781 23.8163 188.918 24.7752 188.918 25.8182Z" fill="#A1A1A1"/>
<rect x="40.668" y="48.9529" width="7.17229" height="7.17229" rx="3.58615" fill="#F74A25"/>
<path d="M56.1171 56.2291V47.1008H59.2015C59.9147 47.1008 60.5 47.2226 60.9576 47.4662C61.4152 47.7069 61.754 48.0383 61.9739 48.4602C62.1938 48.8822 62.3037 49.362 62.3037 49.8999C62.3037 50.4377 62.1938 50.9146 61.9739 51.3306C61.754 51.7467 61.4167 52.0735 60.9621 52.3112C60.5075 52.546 59.9265 52.6634 59.2193 52.6634H56.7233V51.6649H59.1837C59.671 51.6649 60.0632 51.5936 60.3604 51.451C60.6605 51.3084 60.8774 51.1063 61.0111 50.8448C61.1478 50.5803 61.2162 50.2654 61.2162 49.8999C61.2162 49.5344 61.1478 49.215 61.0111 48.9416C60.8744 48.6682 60.656 48.4572 60.3559 48.3087C60.0558 48.1571 59.6591 48.0813 59.1658 48.0813H57.2225V56.2291H56.1171ZM60.4139 52.1285L62.6603 56.2291H61.3766L59.1658 52.1285H60.4139ZM66.7246 56.3718C66.065 56.3718 65.4959 56.2262 65.0175 55.9349C64.5421 55.6408 64.1751 55.2307 63.9166 54.7048C63.661 54.1758 63.5333 53.5607 63.5333 52.8595C63.5333 52.1582 63.661 51.5401 63.9166 51.0053C64.1751 50.4674 64.5346 50.0485 64.9952 49.7483C65.4588 49.4452 65.9996 49.2937 66.6177 49.2937C66.9742 49.2937 67.3264 49.3531 67.674 49.472C68.0217 49.5908 68.3381 49.784 68.6234 50.0514C68.9087 50.3159 69.136 50.6665 69.3054 51.1033C69.4747 51.5401 69.5594 52.078 69.5594 52.7168V53.1626H64.2821V52.2533H68.4897C68.4897 51.867 68.4124 51.5223 68.2579 51.2192C68.1064 50.9161 67.8894 50.6769 67.6072 50.5016C67.3278 50.3263 66.998 50.2386 66.6177 50.2386C66.1987 50.2386 65.8362 50.3426 65.5301 50.5506C65.227 50.7557 64.9937 51.0231 64.8303 51.3529C64.6669 51.6828 64.5852 52.0364 64.5852 52.4138V53.0199C64.5852 53.537 64.6743 53.9753 64.8526 54.3348C65.0339 54.6914 65.2849 54.9633 65.6059 55.1505C65.9268 55.3347 66.2997 55.4268 66.7246 55.4268C67.001 55.4268 67.2506 55.3882 67.4734 55.3109C67.6993 55.2307 67.8939 55.1119 68.0573 54.9544C68.2208 54.7939 68.3471 54.5948 68.4362 54.3571L69.4524 54.6424C69.3455 54.987 69.1657 55.2901 68.9131 55.5516C68.6605 55.8101 68.3485 56.0122 67.9771 56.1578C67.6057 56.3004 67.1882 56.3718 66.7246 56.3718ZM73.0989 56.3896C72.6651 56.3896 72.2713 56.3079 71.9177 56.1444C71.5641 55.978 71.2833 55.7388 71.0753 55.4268C70.8673 55.1119 70.7633 54.7315 70.7633 54.2858C70.7633 53.8935 70.8406 53.5756 70.9951 53.3319C71.1496 53.0853 71.3561 52.8922 71.6147 52.7525C71.8732 52.6128 72.1584 52.5088 72.4704 52.4405C72.7854 52.3692 73.1019 52.3127 73.4198 52.2711C73.8358 52.2176 74.1731 52.1775 74.4316 52.1508C74.6931 52.1211 74.8833 52.072 75.0021 52.0037C75.124 51.9353 75.1849 51.8165 75.1849 51.6471V51.6115C75.1849 51.1717 75.0645 50.83 74.8238 50.5863C74.5861 50.3426 74.2251 50.2208 73.7407 50.2208C73.2386 50.2208 72.8448 50.3307 72.5596 50.5506C72.2743 50.7705 72.0737 51.0053 71.9579 51.2549L70.9594 50.8983C71.1377 50.4823 71.3754 50.1584 71.6726 49.9266C71.9727 49.6919 72.2996 49.5284 72.6532 49.4363C73.0098 49.3412 73.3604 49.2937 73.7051 49.2937C73.925 49.2937 74.1776 49.3204 74.4628 49.3739C74.751 49.4244 75.0289 49.5299 75.2963 49.6904C75.5667 49.8509 75.7911 50.093 75.9694 50.4169C76.1476 50.7408 76.2368 51.1746 76.2368 51.7184V56.2291H75.1849V55.302H75.1314C75.0601 55.4506 74.9412 55.6096 74.7748 55.7789C74.6084 55.9483 74.387 56.0924 74.1107 56.2113C73.8343 56.3302 73.4971 56.3896 73.0989 56.3896ZM73.2594 55.4447C73.6754 55.4447 74.026 55.3629 74.3113 55.1995C74.5995 55.0361 74.8164 54.8251 74.962 54.5666C75.1106 54.3081 75.1849 54.0362 75.1849 53.7509V52.7882C75.1403 52.8416 75.0423 52.8907 74.8907 52.9352C74.7421 52.9768 74.5698 53.014 74.3737 53.0467C74.1805 53.0764 73.9918 53.1031 73.8076 53.1269C73.6263 53.1477 73.4793 53.1655 73.3663 53.1804C73.093 53.216 72.8374 53.274 72.5997 53.3542C72.365 53.4315 72.1748 53.5489 72.0292 53.7063C71.8865 53.8609 71.8152 54.0718 71.8152 54.3393C71.8152 54.7048 71.9504 54.9811 72.2208 55.1683C72.4942 55.3525 72.8404 55.4447 73.2594 55.4447ZM80.6666 56.3718C80.0961 56.3718 79.5924 56.2276 79.1556 55.9394C78.7188 55.6482 78.3771 55.2381 78.1304 54.7092C77.8838 54.1773 77.7605 53.5489 77.7605 52.8238C77.7605 52.1047 77.8838 51.4807 78.1304 50.9518C78.3771 50.4229 78.7203 50.0143 79.1601 49.7261C79.5998 49.4378 80.108 49.2937 80.6844 49.2937C81.1302 49.2937 81.4823 49.368 81.7408 49.5166C82.0023 49.6622 82.2014 49.8286 82.3381 50.0158C82.4777 50.2 82.5862 50.3515 82.6634 50.4704H82.7526V47.1008H83.8045V56.2291H82.7882V55.1772H82.6634C82.5862 55.302 82.4762 55.4595 82.3336 55.6497C82.191 55.8369 81.9874 56.0048 81.723 56.1534C81.4585 56.299 81.1064 56.3718 80.6666 56.3718ZM80.8092 55.4268C81.2312 55.4268 81.5878 55.3169 81.879 55.097C82.1702 54.8741 82.3915 54.5666 82.5431 54.1744C82.6946 53.7791 82.7704 53.323 82.7704 52.806C82.7704 52.2949 82.6961 51.8477 82.5475 51.4644C82.399 51.0781 82.1791 50.778 81.8879 50.564C81.5967 50.3471 81.2371 50.2386 80.8092 50.2386C80.3635 50.2386 79.9921 50.353 79.6949 50.5818C79.4008 50.8077 79.1794 51.1152 79.0308 51.5045C78.8852 51.8908 78.8124 52.3246 78.8124 52.806C78.8124 53.2933 78.8867 53.7361 79.0353 54.1342C79.1868 54.5294 79.4097 54.8444 79.7038 55.0792C80.001 55.3109 80.3695 55.4268 80.8092 55.4268ZM90.6512 50.9161L89.7063 51.1836C89.6469 51.0261 89.5592 50.873 89.4433 50.7245C89.3304 50.5729 89.1759 50.4481 88.9798 50.3501C88.7837 50.252 88.5326 50.203 88.2265 50.203C87.8075 50.203 87.4584 50.2995 87.1791 50.4927C86.9027 50.6829 86.7645 50.925 86.7645 51.2192C86.7645 51.4807 86.8596 51.6872 87.0498 51.8388C87.24 51.9903 87.5371 52.1166 87.9412 52.2176L88.9575 52.4672C89.5696 52.6158 90.0257 52.8431 90.3259 53.1492C90.626 53.4523 90.776 53.843 90.776 54.3214C90.776 54.7137 90.6631 55.0643 90.4373 55.3733C90.2144 55.6824 89.9024 55.926 89.5013 56.1043C89.1001 56.2826 88.6336 56.3718 88.1017 56.3718C87.4034 56.3718 86.8255 56.2202 86.3678 55.9171C85.9102 55.614 85.6205 55.1713 85.4987 54.5889L86.4971 54.3393C86.5922 54.7077 86.772 54.9841 87.0364 55.1683C87.3039 55.3525 87.653 55.4447 88.0839 55.4447C88.5742 55.4447 88.9634 55.3407 89.2517 55.1327C89.5429 54.9217 89.6885 54.6691 89.6885 54.3749C89.6885 54.1372 89.6053 53.9381 89.4389 53.7777C89.2725 53.6142 89.0169 53.4924 88.6722 53.4122L87.5312 53.1447C86.9042 52.9962 86.4436 52.7659 86.1494 52.4539C85.8582 52.1389 85.7126 51.7452 85.7126 51.2727C85.7126 50.8864 85.8211 50.5447 86.038 50.2475C86.2579 49.9504 86.5565 49.7171 86.9339 49.5478C87.3143 49.3784 87.7451 49.2937 88.2265 49.2937C88.904 49.2937 89.4359 49.4423 89.8222 49.7394C90.2114 50.0366 90.4878 50.4288 90.6512 50.9161ZM93.0508 56.3004C92.8309 56.3004 92.6422 56.2217 92.4847 56.0642C92.3272 55.9067 92.2485 55.718 92.2485 55.4981C92.2485 55.2783 92.3272 55.0896 92.4847 54.9321C92.6422 54.7746 92.8309 54.6958 93.0508 54.6958C93.2707 54.6958 93.4594 54.7746 93.6169 54.9321C93.7743 55.0896 93.8531 55.2783 93.8531 55.4981C93.8531 55.6437 93.8159 55.7775 93.7417 55.8993C93.6703 56.0211 93.5738 56.1192 93.4519 56.1935C93.3331 56.2648 93.1994 56.3004 93.0508 56.3004ZM93.0508 51.2192C92.8309 51.2192 92.6422 51.1405 92.4847 50.983C92.3272 50.8255 92.2485 50.6368 92.2485 50.4169C92.2485 50.197 92.3272 50.0083 92.4847 49.8509C92.6422 49.6934 92.8309 49.6146 93.0508 49.6146C93.2707 49.6146 93.4594 49.6934 93.6169 49.8509C93.7743 50.0083 93.8531 50.197 93.8531 50.4169C93.8531 50.5625 93.8159 50.6962 93.7417 50.8181C93.6703 50.9399 93.5738 51.038 93.4519 51.1122C93.3331 51.1836 93.1994 51.2192 93.0508 51.2192Z" fill="#FAFAFA"/>
<path d="M102.228 57.2505C101.616 57.2505 101.069 57.145 100.588 56.934C100.109 56.723 99.7304 56.4303 99.4511 56.0559C99.1747 55.6786 99.0262 55.2418 99.0054 54.7455H100.405C100.423 55.0159 100.513 55.2507 100.677 55.4498C100.843 55.6459 101.06 55.7974 101.328 55.9044C101.595 56.0114 101.892 56.0649 102.219 56.0649C102.579 56.0649 102.897 56.0025 103.173 55.8777C103.452 55.7528 103.671 55.579 103.828 55.3562C103.986 55.1303 104.064 54.8703 104.064 54.5761C104.064 54.2701 103.986 54.0012 103.828 53.7694C103.674 53.5346 103.446 53.3504 103.146 53.2167C102.849 53.083 102.489 53.0161 102.067 53.0161H101.296V51.8929H102.067C102.406 51.8929 102.703 51.832 102.959 51.7102C103.217 51.5883 103.42 51.419 103.565 51.202C103.711 50.9821 103.784 50.7251 103.784 50.4309C103.784 50.1486 103.72 49.9035 103.592 49.6955C103.467 49.4845 103.289 49.3196 103.057 49.2007C102.828 49.0819 102.558 49.0225 102.246 49.0225C101.949 49.0225 101.671 49.0774 101.412 49.1874C101.157 49.2943 100.949 49.4489 100.788 49.6509C100.628 49.85 100.542 50.0892 100.53 50.3685H99.197C99.2119 49.8753 99.3575 49.4414 99.6338 49.067C99.9132 48.6926 100.282 48.3999 100.739 48.189C101.197 47.978 101.705 47.8725 102.264 47.8725C102.849 47.8725 103.354 47.9869 103.779 48.2157C104.207 48.4415 104.537 48.7431 104.769 49.1205C105.003 49.4979 105.119 49.9109 105.116 50.3596C105.119 50.8707 104.977 51.3045 104.688 51.6611C104.403 52.0177 104.023 52.2569 103.547 52.3787V52.4501C104.153 52.5422 104.623 52.7829 104.956 53.1721C105.292 53.5614 105.458 54.0443 105.455 54.6207C105.458 55.1229 105.318 55.5731 105.036 55.9713C104.757 56.3694 104.375 56.6829 103.89 56.9117C103.406 57.1376 102.852 57.2505 102.228 57.2505ZM110.251 57.2505C109.844 57.2445 109.443 57.1702 109.048 57.0276C108.656 56.885 108.299 56.6473 107.978 56.3145C107.657 55.9817 107.4 55.5344 107.207 54.9728C107.017 54.4112 106.922 53.71 106.922 52.869C106.922 52.0727 107.001 51.3655 107.158 50.7474C107.319 50.1293 107.549 49.6078 107.849 49.1829C108.149 48.755 108.512 48.4296 108.937 48.2068C109.361 47.9839 109.838 47.8725 110.367 47.8725C110.911 47.8725 111.394 47.9795 111.816 48.1934C112.238 48.4074 112.58 48.703 112.841 49.0804C113.105 49.4578 113.273 49.8872 113.345 50.3685H111.985C111.893 49.9882 111.71 49.6777 111.437 49.437C111.164 49.1963 110.807 49.0759 110.367 49.0759C109.699 49.0759 109.177 49.3671 108.803 49.9496C108.431 50.532 108.244 51.3417 108.241 52.3787H108.308C108.466 52.1202 108.659 51.9003 108.887 51.7191C109.119 51.5348 109.378 51.3937 109.663 51.2956C109.951 51.1946 110.254 51.1441 110.572 51.1441C111.101 51.1441 111.58 51.2733 112.008 51.5319C112.438 51.7874 112.782 52.141 113.037 52.5927C113.293 53.0443 113.42 53.5614 113.42 54.1438C113.42 54.7262 113.288 55.2536 113.024 55.7261C112.762 56.1986 112.394 56.573 111.918 56.8493C111.443 57.1227 110.887 57.2564 110.251 57.2505ZM110.247 56.0916C110.598 56.0916 110.911 56.0054 111.187 55.8331C111.464 55.6607 111.682 55.429 111.843 55.1378C112.003 54.8465 112.083 54.5212 112.083 54.1616C112.083 53.811 112.005 53.4916 111.847 53.2033C111.693 52.9151 111.479 52.6863 111.205 52.5169C110.935 52.3475 110.626 52.2629 110.278 52.2629C110.014 52.2629 109.769 52.3134 109.543 52.4144C109.32 52.5154 109.124 52.6551 108.954 52.8334C108.785 53.0117 108.651 53.2167 108.553 53.4485C108.458 53.6773 108.411 53.9194 108.411 54.175C108.411 54.5167 108.489 54.8332 108.647 55.1244C108.807 55.4156 109.026 55.6503 109.302 55.8286C109.581 56.0039 109.896 56.0916 110.247 56.0916ZM115.448 57.2104C115.204 57.2104 114.995 57.1242 114.819 56.9518C114.644 56.7765 114.556 56.5655 114.556 56.3189C114.556 56.0753 114.644 55.8673 114.819 55.6949C114.995 55.5196 115.204 55.4319 115.448 55.4319C115.692 55.4319 115.901 55.5196 116.076 55.6949C116.252 55.8673 116.339 56.0753 116.339 56.3189C116.339 56.4823 116.298 56.6324 116.214 56.7691C116.134 56.9028 116.027 57.0098 115.894 57.09C115.76 57.1702 115.611 57.2104 115.448 57.2104ZM118.031 57.1257V56.1273L121.12 52.927C121.45 52.5793 121.722 52.2747 121.936 52.0132C122.153 51.7488 122.315 51.4977 122.422 51.26C122.529 51.0223 122.582 50.7697 122.582 50.5023C122.582 50.1992 122.511 49.9377 122.368 49.7178C122.226 49.4949 122.031 49.3241 121.784 49.2052C121.538 49.0834 121.26 49.0225 120.951 49.0225C120.624 49.0225 120.339 49.0893 120.095 49.223C119.851 49.3567 119.664 49.5454 119.533 49.7891C119.403 50.0328 119.337 50.318 119.337 50.6449H118.022C118.022 50.0892 118.15 49.6034 118.406 49.1874C118.661 48.7714 119.012 48.449 119.458 48.2202C119.903 47.9884 120.41 47.8725 120.977 47.8725C121.551 47.8725 122.056 47.9869 122.493 48.2157C122.933 48.4415 123.276 48.7506 123.523 49.1428C123.769 49.5321 123.893 49.9718 123.893 50.4621C123.893 50.8009 123.829 51.1322 123.701 51.4561C123.576 51.78 123.358 52.141 123.046 52.5392C122.734 52.9344 122.3 53.4143 121.744 53.9789L119.93 55.8777V55.9445H124.04V57.1257H118.031ZM126.897 54.8035L126.888 53.1766H127.12L129.848 50.2794H131.443L128.332 53.5777H128.123L126.897 54.8035ZM125.671 57.1257V47.9973H127.004V57.1257H125.671ZM129.995 57.1257L127.543 53.8719L128.462 52.9403L131.631 57.1257H129.995Z" fill="#FAFAFA"/>
<path d="M142.509 48.7276L139.988 58.0954H139.162L141.684 48.7276H142.509ZM147.735 52.3647L146.925 52.5939C146.874 52.4589 146.799 52.3278 146.699 52.2004C146.603 52.0705 146.47 51.9636 146.302 51.8795C146.134 51.7955 145.919 51.7534 145.656 51.7534C145.297 51.7534 144.998 51.8362 144.759 52.0018C144.522 52.1648 144.403 52.3723 144.403 52.6245C144.403 52.8486 144.485 53.0256 144.648 53.1555C144.811 53.2854 145.065 53.3937 145.412 53.4803L146.283 53.6942C146.808 53.8216 147.199 54.0164 147.456 54.2788C147.713 54.5385 147.842 54.8735 147.842 55.2835C147.842 55.6197 147.745 55.9203 147.551 56.1852C147.36 56.4501 147.093 56.6589 146.749 56.8117C146.405 56.9645 146.005 57.041 145.549 57.041C144.951 57.041 144.455 56.9111 144.063 56.6513C143.671 56.3915 143.423 56.012 143.318 55.5128L144.174 55.2988C144.255 55.6146 144.41 55.8515 144.636 56.0094C144.865 56.1673 145.165 56.2463 145.534 56.2463C145.954 56.2463 146.288 56.1572 146.535 55.9789C146.785 55.798 146.909 55.5815 146.909 55.3294C146.909 55.1256 146.838 54.955 146.695 54.8174C146.553 54.6774 146.334 54.5729 146.038 54.5042L145.06 54.2749C144.523 54.1476 144.128 53.9502 143.876 53.6828C143.626 53.4128 143.502 53.0753 143.502 52.6703C143.502 52.3392 143.595 52.0463 143.78 51.7916C143.969 51.5369 144.225 51.337 144.548 51.1918C144.874 51.0466 145.244 50.9741 145.656 50.9741C146.237 50.9741 146.693 51.1014 147.024 51.3561C147.358 51.6108 147.595 51.947 147.735 52.3647Z" fill="#FAFAFA"/>
<g clip-path="url(#clip1_469_5283)">
<path d="M253.145 66.8487C253.145 66.3536 253.546 65.9522 254.041 65.9522H255.834C256.329 65.9522 256.731 66.3536 256.731 66.8487V78.5037H253.145V66.8487Z" fill="#9EFE00"/>
<path d="M259.633 65.9521C259.633 65.4569 260.034 65.0555 260.529 65.0555H262.322C262.818 65.0555 263.219 65.4569 263.219 65.9521V78.5036H259.633V65.9521Z" fill="#9EFE00"/>
<path d="M266.121 62.3658C266.121 61.8707 266.522 61.4693 267.018 61.4693H268.811C269.306 61.4693 269.707 61.8707 269.707 62.3658V78.5035H266.121V62.3658Z" fill="#9EFE00"/>
<path d="M272.605 75.8141C272.605 75.319 273.007 74.9176 273.502 74.9176H275.295C275.79 74.9176 276.192 75.319 276.192 75.8141V78.5037H272.605V75.8141Z" fill="#9EFE00"/>
<path d="M279.09 74.9176C279.09 74.4224 279.491 74.0211 279.986 74.0211H281.779C282.275 74.0211 282.676 74.4224 282.676 74.9176V78.5037H279.09V74.9176Z" fill="#9EFE00"/>
<path d="M285.57 74.9176C285.57 74.4224 285.972 74.0211 286.467 74.0211H288.26C288.755 74.0211 289.156 74.4224 289.156 74.9176V78.5037H285.57V74.9176Z" fill="#9EFE00"/>
<path d="M292.062 67.7454C292.062 67.2502 292.464 66.8488 292.959 66.8488H294.752C295.247 66.8488 295.649 67.2502 295.649 67.7454V78.5038H292.062V67.7454Z" fill="#9EFE00"/>
<path d="M298.551 64.159C298.551 63.6638 298.952 63.2625 299.447 63.2625H301.24C301.736 63.2625 302.137 63.6638 302.137 64.159V78.5036H298.551V64.159Z" fill="#9EFE00"/>
<path d="M305.031 70.4346C305.031 69.9395 305.433 69.5381 305.928 69.5381H307.721C308.216 69.5381 308.617 69.9395 308.617 70.4346V78.5035H305.031V70.4346Z" fill="#9EFE00"/>
<path d="M311.516 70.4346C311.516 69.9395 311.917 69.5381 312.412 69.5381H314.205C314.7 69.5381 315.102 69.9395 315.102 70.4346V78.5035H311.516V70.4346Z" fill="#9EFE00"/>
<path d="M318 67.7454C318 67.2502 318.401 66.8488 318.897 66.8488H320.69C321.185 66.8488 321.586 67.2502 321.586 67.7454V78.5038H318V67.7454Z" fill="#9EFE00"/>
<path d="M324.488 67.7452C324.488 67.25 324.89 66.8486 325.385 66.8486H327.178C327.673 66.8486 328.074 67.25 328.074 67.7452V78.5036H324.488V67.7452Z" fill="#9EFE00"/>
<path d="M330.977 64.159C330.977 63.6638 331.378 63.2625 331.873 63.2625H333.666C334.161 63.2625 334.563 63.6638 334.563 64.159V78.5036H330.977V64.159Z" fill="#9EFE00"/>
<path d="M337.457 74.021C337.457 73.5258 337.858 73.1245 338.354 73.1245H340.147C340.642 73.1245 341.043 73.5258 341.043 74.021V78.5037H337.457V74.021Z" fill="#9EFE00"/>
<path d="M343.945 75.8141C343.945 75.319 344.347 74.9176 344.842 74.9176H346.635C347.131 74.9176 347.531 75.319 347.531 75.8141V78.5037H343.945V75.8141Z" fill="#9EFE00"/>
<path d="M350.43 65.9522C350.43 65.4571 350.83 65.0557 351.326 65.0557H353.119C353.614 65.0557 354.016 65.4571 354.016 65.9522V78.5037H350.43V65.9522Z" fill="#9EFE00"/>
<path d="M356.918 67.7454C356.918 67.2502 357.32 66.8488 357.815 66.8488H359.608C360.102 66.8488 360.504 67.2502 360.504 67.7454V78.5038H356.918V67.7454Z" fill="#9EFE00"/>
<path d="M363.406 66.8487C363.406 66.3536 363.807 65.9522 364.303 65.9522H366.096C366.591 65.9522 366.992 66.3536 366.992 66.8487V78.5037H363.406V66.8487Z" fill="#9EFE00"/>
<path d="M369.887 71.3312C369.887 70.8361 370.288 70.4347 370.783 70.4347H372.576C373.071 70.4347 373.473 70.8361 373.473 71.3312V78.5035H369.887V71.3312Z" fill="#9EFE00"/>
<path d="M376.371 75.8141C376.371 75.319 376.773 74.9176 377.268 74.9176H379.061C379.556 74.9176 379.957 75.319 379.957 75.8141V78.5037H376.371V75.8141Z" fill="#9EFE00"/>
<path d="M382.855 66.8487C382.855 66.3536 383.256 65.9522 383.752 65.9522H385.545C386.04 65.9522 386.442 66.3536 386.442 66.8487V78.5037H382.855V66.8487Z" fill="#9EFE00"/>
<path d="M389.344 74.021C389.344 73.5258 389.745 73.1245 390.24 73.1245H392.033C392.528 73.1245 392.93 73.5258 392.93 74.021V78.5037H389.344V74.021Z" fill="#9EFE00"/>
<path d="M395.832 66.8487C395.832 66.3536 396.234 65.9522 396.729 65.9522H398.522C399.017 65.9522 399.418 66.3536 399.418 66.8487V78.5037H395.832V66.8487Z" fill="#9EFE00"/>
<path d="M402.312 61.4692C402.312 60.9741 402.714 60.5727 403.209 60.5727H405.002C405.497 60.5727 405.899 60.9741 405.899 61.4692V78.5034H402.312V61.4692Z" fill="#9EFE00"/>
<path d="M408.801 67.7454C408.801 67.2502 409.202 66.8488 409.697 66.8488H411.49C411.985 66.8488 412.387 67.2502 412.387 67.7454V78.5038H408.801V67.7454Z" fill="#9EFE00"/>
<path d="M415.289 72.2278C415.289 71.7327 415.69 71.3313 416.186 71.3313H417.979C418.474 71.3313 418.875 71.7327 418.875 72.2278V78.5036H415.289V72.2278Z" fill="#9EFE00"/>
<path d="M421.773 68.6415C421.773 68.1463 422.175 67.7449 422.67 67.7449H424.463C424.958 67.7449 425.36 68.1463 425.36 68.6415V78.5034H421.773V68.6415Z" fill="#9EFE00"/>
<path d="M428.258 66.8487C428.258 66.3536 428.659 65.9522 429.154 65.9522H430.947C431.443 65.9522 431.844 66.3536 431.844 66.8487V78.5037H428.258V66.8487Z" fill="#9EFE00"/>
<path d="M434.742 73.1244C434.742 72.6292 435.143 72.2278 435.639 72.2278H437.432C437.927 72.2278 438.328 72.6292 438.328 73.1244V78.5036H434.742V73.1244Z" fill="#9EFE00"/>
<path d="M441.227 65.0556C441.227 64.5605 441.628 64.1591 442.123 64.1591H443.916C444.411 64.1591 444.813 64.5605 444.813 65.0556V78.5036H441.227V65.0556Z" fill="#9EFE00"/>
<path d="M447.711 74.021C447.711 73.5258 448.113 73.1245 448.607 73.1245H450.401C450.896 73.1245 451.297 73.5258 451.297 74.021V78.5037H447.711V74.021Z" fill="#9EFE00"/>
<path d="M454.199 75.8141C454.199 75.319 454.601 74.9176 455.096 74.9176H456.889C457.384 74.9176 457.785 75.319 457.785 75.8141V78.5037H454.199V75.8141Z" fill="#9EFE00"/>
<path d="M460.688 70.4346C460.688 69.9395 461.089 69.5381 461.584 69.5381H463.377C463.873 69.5381 464.274 69.9395 464.274 70.4346V78.5035H460.688V70.4346Z" fill="#9EFE00"/>
<path d="M467.168 61.4692C467.168 60.9741 467.569 60.5727 468.065 60.5727H469.858C470.352 60.5727 470.754 60.9741 470.754 61.4692V78.5034H467.168V61.4692Z" fill="#9EFE00"/>
<path d="M473.656 74.0209C473.656 73.5258 474.058 73.1244 474.553 73.1244H476.346C476.841 73.1244 477.242 73.5258 477.242 74.0209V78.5036H473.656V74.0209Z" fill="#9EFE00"/>
<path d="M480.145 62.3658C480.145 61.8707 480.546 61.4693 481.041 61.4693H482.834C483.33 61.4693 483.731 61.8707 483.731 62.3658V78.5035H480.145V62.3658Z" fill="#9EFE00"/>
<path d="M486.629 66.8487C486.629 66.3536 487.03 65.9522 487.525 65.9522H489.319C489.813 65.9522 490.215 66.3536 490.215 66.8487V78.5037H486.629V66.8487Z" fill="#9EFE00"/>
<path d="M493.113 66.8487C493.113 66.3536 493.515 65.9522 494.01 65.9522H495.803C496.298 65.9522 496.699 66.3536 496.699 66.8487V78.5037H493.113V66.8487Z" fill="#9EFE00"/>
<path d="M499.598 65.9522C499.598 65.4571 499.998 65.0557 500.494 65.0557H502.287C502.782 65.0557 503.184 65.4571 503.184 65.9522V78.5037H499.598V65.9522Z" fill="#9EFE00"/>
<path d="M506.086 65.0555C506.086 64.5604 506.488 64.159 506.982 64.159H508.776C509.27 64.159 509.672 64.5604 509.672 65.0555V78.5036H506.086V65.0555Z" fill="#9EFE00"/>
</g>
</g>
<rect x="18.7022" y="0.953578" width="489.509" height="77.9987" rx="10.3102" stroke="#545454" stroke-width="0.896537"/>
</g>
<defs>
<filter id="filter0_dd_469_5283" x="0.32317" y="0.505309" width="526.268" height="114.757" filterUnits="userSpaceOnUse" color-interpolation-filters="sRGB">
<feFlood flood-opacity="0" result="BackgroundImageFix"/>
<feColorMatrix in="SourceAlpha" type="matrix" values="0 0 0 0 0 0 0 0 0 0 0 0 0 0 0 0 0 0 127 0" result="hardAlpha"/>
<feMorphology radius="5.37922" operator="erode" in="SourceAlpha" result="effect1_dropShadow_469_5283"/>
<feOffset dy="7.17229"/>
<feGaussianBlur stdDeviation="4.48268"/>
<feComposite in2="hardAlpha" operator="out"/>
<feColorMatrix type="matrix" values="0 0 0 0 0 0 0 0 0 0 0 0 0 0 0 0 0 0 0.25 0"/>
<feBlend mode="normal" in2="BackgroundImageFix" result="effect1_dropShadow_469_5283"/>
<feColorMatrix in="SourceAlpha" type="matrix" values="0 0 0 0 0 0 0 0 0 0 0 0 0 0 0 0 0 0 127 0" result="hardAlpha"/>
<feMorphology radius="4.48268" operator="erode" in="SourceAlpha" result="effect2_dropShadow_469_5283"/>
<feOffset dy="17.9307"/>
<feGaussianBlur stdDeviation="11.2067"/>
<feComposite in2="hardAlpha" operator="out"/>
<feColorMatrix type="matrix" values="0 0 0 0 0 0 0 0 0 0 0 0 0 0 0 0 0 0 0.25 0"/>
<feBlend mode="normal" in2="effect1_dropShadow_469_5283" result="effect2_dropShadow_469_5283"/>
<feBlend mode="normal" in="SourceGraphic" in2="effect2_dropShadow_469_5283" result="shape"/>
</filter>
<clipPath id="clip0_469_5283">
<rect x="18.2539" y="0.50531" width="490.406" height="78.8952" rx="10.7584" fill="white"/>
</clipPath>
<clipPath id="clip1_469_5283">
<rect width="271.651" height="17.9307" fill="white" transform="translate(253.148 60.573)"/>
</clipPath>
</defs>
</svg>
