<svg width="527" height="80" viewBox="0 0 527 80" fill="none" xmlns="http://www.w3.org/2000/svg">
<g filter="url(#filter0_dd_469_5551)">
<g clip-path="url(#clip0_469_5551)">
<rect x="18.2539" y="0.745117" width="490.406" height="78.8952" rx="10.7584" fill="#1F1F1F"/>
<path d="M41.5992 21.8199H43.1513L45.8498 28.409H45.9491L48.6477 21.8199H50.1997V30.2963H48.9829V24.1625H48.9043L46.4044 30.2838H45.3945L42.8947 24.1584H42.816V30.2963H41.5992V21.8199ZM55.8291 27.6598V23.939H57.0707V30.2963H55.8539V29.1953H55.7877C55.6414 29.5347 55.4069 29.8175 55.0841 30.0438C54.764 30.2673 54.3653 30.379 53.8879 30.379C53.4796 30.379 53.1181 30.2894 52.8036 30.11C52.4918 29.9279 52.2462 29.6589 52.0669 29.3029C51.8903 28.947 51.802 28.5069 51.802 27.9827V23.939H53.0395V27.8337C53.0395 28.2669 53.1595 28.6118 53.3996 28.8684C53.6396 29.125 53.9514 29.2533 54.3349 29.2533C54.5667 29.2533 54.7971 29.1953 55.0261 29.0794C55.2579 28.9636 55.4497 28.7883 55.6014 28.5538C55.7559 28.3193 55.8318 28.0213 55.8291 27.6598ZM58.5757 30.2963V23.939H59.7636V24.9737H59.8422C59.9746 24.6233 60.1912 24.3501 60.492 24.1542C60.7927 23.9556 61.1528 23.8562 61.5722 23.8562C61.9971 23.8562 62.3531 23.9556 62.64 24.1542C62.9298 24.3529 63.1436 24.6261 63.2816 24.9737H63.3478C63.4995 24.6343 63.741 24.3639 64.0721 24.1625C64.4032 23.9583 64.7978 23.8562 65.2558 23.8562C65.8325 23.8562 66.3029 24.037 66.6671 24.3984C67.0341 24.7599 67.2176 25.3048 67.2176 26.0333V30.2963H65.9801V26.1491C65.9801 25.7187 65.8628 25.4069 65.6283 25.2138C65.3938 25.0206 65.1137 24.924 64.7881 24.924C64.3853 24.924 64.0721 25.0482 63.8486 25.2965C63.6251 25.5421 63.5133 25.858 63.5133 26.2443V30.2963H62.28V26.0705C62.28 25.7256 62.1724 25.4483 61.9571 25.2386C61.7419 25.0289 61.4619 24.924 61.117 24.924C60.8824 24.924 60.6658 24.9861 60.4672 25.1103C60.2713 25.2317 60.1126 25.4014 59.9912 25.6194C59.8725 25.8374 59.8132 26.0898 59.8132 26.3768V30.2963H58.5757ZM68.8178 30.2963V21.8199H70.0553V24.9696H70.1298C70.2015 24.8371 70.305 24.684 70.4402 24.5102C70.5754 24.3363 70.763 24.1846 71.0031 24.0549C71.2432 23.9224 71.5605 23.8562 71.955 23.8562C72.4682 23.8562 72.9263 23.9859 73.3291 24.2453C73.732 24.5046 74.0479 24.8785 74.2769 25.3669C74.5087 25.8553 74.6246 26.443 74.6246 27.1301C74.6246 27.8171 74.5101 28.4062 74.2811 28.8973C74.052 29.3857 73.7375 29.7624 73.3374 30.0272C72.9373 30.2894 72.4807 30.4204 71.9674 30.4204C71.5812 30.4204 71.2652 30.3556 71.0197 30.2259C70.7768 30.0962 70.5865 29.9445 70.4485 29.7706C70.3105 29.5968 70.2043 29.4423 70.1298 29.3071H70.0263V30.2963H68.8178ZM70.0305 27.1176C70.0305 27.5646 70.0953 27.9564 70.225 28.2931C70.3547 28.6297 70.5423 28.8932 70.7879 29.0836C71.0335 29.2712 71.3342 29.365 71.6901 29.365C72.0599 29.365 72.3689 29.2671 72.6172 29.0712C72.8656 28.8725 73.0532 28.6035 73.1801 28.2641C73.3098 27.9247 73.3747 27.5426 73.3747 27.1176C73.3747 26.6982 73.3112 26.3216 73.1843 25.9877C73.0601 25.6539 72.8725 25.3904 72.6214 25.1972C72.3731 25.0041 72.0626 24.9075 71.6901 24.9075C71.3314 24.9075 71.0279 24.9999 70.7796 25.1848C70.534 25.3697 70.3478 25.6277 70.2209 25.9588C70.0939 26.2899 70.0305 26.6762 70.0305 27.1176ZM77.7065 30.437C77.3036 30.437 76.9394 30.3625 76.6138 30.2135C76.2882 30.0617 76.0302 29.8424 75.8399 29.5554C75.6522 29.2685 75.5584 28.9167 75.5584 28.5C75.5584 28.1413 75.6274 27.8461 75.7654 27.6143C75.9033 27.3825 76.0896 27.199 76.3241 27.0638C76.5586 26.9286 76.8208 26.8265 77.1105 26.7576C77.4002 26.6886 77.6954 26.6361 77.9962 26.6003C78.377 26.5561 78.686 26.5203 78.9233 26.4927C79.1606 26.4623 79.333 26.414 79.4406 26.3478C79.5483 26.2816 79.6021 26.174 79.6021 26.025V25.996C79.6021 25.6345 79.5 25.3545 79.2958 25.1558C79.0944 24.9572 78.7936 24.8578 78.3935 24.8578C77.9769 24.8578 77.6485 24.9503 77.4085 25.1351C77.1712 25.3172 77.007 25.52 76.916 25.7435L75.7529 25.4787C75.8909 25.0924 76.0923 24.7806 76.3572 24.5433C76.6249 24.3032 76.9325 24.1294 77.2802 24.0218C77.6278 23.9114 77.9934 23.8562 78.377 23.8562C78.6308 23.8562 78.8998 23.8866 79.184 23.9473C79.471 24.0052 79.7386 24.1128 79.987 24.2701C80.2381 24.4274 80.4436 24.6523 80.6037 24.9447C80.7637 25.2345 80.8437 25.6111 80.8437 26.0746V30.2963H79.6352V29.4271H79.5855C79.5055 29.5871 79.3855 29.7444 79.2254 29.8989C79.0654 30.0535 78.8598 30.1818 78.6087 30.2838C78.3577 30.3859 78.0569 30.437 77.7065 30.437ZM77.9755 29.4437C78.3176 29.4437 78.6101 29.3761 78.8529 29.2409C79.0985 29.1057 79.2848 28.9291 79.4117 28.7111C79.5414 28.4904 79.6062 28.2544 79.6062 28.0033V27.1839C79.5621 27.228 79.4765 27.2694 79.3496 27.308C79.2254 27.3439 79.0833 27.3756 78.9233 27.4032C78.7633 27.428 78.6074 27.4515 78.4556 27.4736C78.3038 27.4929 78.1769 27.5094 78.0748 27.5232C77.8348 27.5536 77.6154 27.6046 77.4168 27.6764C77.2209 27.7481 77.0636 27.8516 76.9449 27.9868C76.829 28.1192 76.7711 28.2958 76.7711 28.5166C76.7711 28.8228 76.8842 29.0546 77.1105 29.2119C77.3367 29.3664 77.6251 29.4437 77.9755 29.4437ZM82.3342 30.2963V23.939H83.5717V30.2963H82.3342ZM82.9592 22.9581C82.744 22.9581 82.5591 22.8864 82.4046 22.7429C82.2528 22.5966 82.1769 22.4228 82.1769 22.2214C82.1769 22.0172 82.2528 21.8434 82.4046 21.6999C82.5591 21.5537 82.744 21.4805 82.9592 21.4805C83.1744 21.4805 83.3579 21.5537 83.5096 21.6999C83.6642 21.8434 83.7414 22.0172 83.7414 22.2214C83.7414 22.4228 83.6642 22.5966 83.5096 22.7429C83.3579 22.8864 83.1744 22.9581 82.9592 22.9581Z" fill="#FAFAFA"/>
<path d="M89.1479 26.7203C89.1479 25.6773 89.2831 24.7185 89.5535 23.8438C89.8267 22.9664 90.2157 22.1593 90.7207 21.4226H91.5815C91.3829 21.6958 91.1966 22.0324 91.0228 22.4325C90.8517 22.8298 90.7013 23.2671 90.5717 23.7445C90.442 24.2191 90.3399 24.7102 90.2654 25.2179C90.1936 25.7256 90.1578 26.2264 90.1578 26.7203C90.1578 27.377 90.2212 28.0434 90.3482 28.7194C90.4751 29.3954 90.6462 30.0231 90.8614 30.6025C91.0766 31.182 91.3167 31.6538 91.5815 32.018H90.7207C90.2157 31.2813 89.8267 30.4756 89.5535 29.6009C89.2831 28.7235 89.1479 27.7633 89.1479 26.7203ZM94.7359 30.4453C94.333 30.4453 93.9674 30.3694 93.6391 30.2176C93.3107 30.0631 93.05 29.841 92.8568 29.5513C92.6637 29.2588 92.5671 28.9056 92.5671 28.4917C92.5671 28.1275 92.6388 27.8323 92.7823 27.606C92.9258 27.377 93.1176 27.1977 93.3576 27.068C93.5977 26.9383 93.8626 26.8417 94.1523 26.7782C94.4448 26.712 94.7386 26.6596 95.0339 26.621C95.4201 26.5713 95.7333 26.5341 95.9734 26.5092C96.2162 26.4816 96.3928 26.4361 96.5031 26.3726C96.6163 26.3092 96.6728 26.1988 96.6728 26.0415V26.0084C96.6728 25.6001 96.5611 25.2827 96.3376 25.0565C96.1169 24.8302 95.7816 24.7171 95.3319 24.7171C94.8655 24.7171 94.4999 24.8192 94.2351 25.0234C93.9702 25.2276 93.7839 25.4455 93.6763 25.6773L92.7492 25.3462C92.9148 24.9599 93.1355 24.6592 93.4114 24.4439C93.6901 24.226 93.9936 24.0742 94.322 23.9887C94.6531 23.9004 94.9787 23.8562 95.2987 23.8562C95.5029 23.8562 95.7375 23.8811 96.0023 23.9307C96.27 23.9776 96.528 24.0756 96.7763 24.2246C97.0274 24.3736 97.2357 24.5985 97.4013 24.8992C97.5668 25.2 97.6496 25.6028 97.6496 26.1078V30.2963H96.6728V29.4354H96.6232C96.5569 29.5733 96.4466 29.721 96.2921 29.8782C96.1375 30.0355 95.932 30.1693 95.6754 30.2797C95.4188 30.3901 95.1056 30.4453 94.7359 30.4453ZM94.8849 29.5678C95.2711 29.5678 95.5967 29.4919 95.8616 29.3402C96.1293 29.1884 96.3307 28.9925 96.4659 28.7525C96.6039 28.5124 96.6728 28.26 96.6728 27.9951V27.1011C96.6314 27.1507 96.5404 27.1963 96.3997 27.2377C96.2617 27.2763 96.1017 27.3108 95.9196 27.3411C95.7402 27.3687 95.565 27.3936 95.3939 27.4156C95.2256 27.4349 95.089 27.4515 94.9842 27.4653C94.7303 27.4984 94.493 27.5522 94.2723 27.6267C94.0543 27.6985 93.8777 27.8074 93.7425 27.9537C93.6101 28.0972 93.5439 28.2931 93.5439 28.5414C93.5439 28.8808 93.6694 29.1374 93.9205 29.3112C94.1744 29.4823 94.4958 29.5678 94.8849 29.5678ZM99.2746 32.6802V23.939H100.218V24.9489H100.334C100.406 24.8385 100.505 24.6978 100.632 24.5267C100.762 24.3529 100.947 24.1984 101.187 24.0632C101.43 23.9252 101.758 23.8562 102.172 23.8562C102.707 23.8562 103.179 23.99 103.587 24.2577C103.996 24.5253 104.314 24.9047 104.543 25.3959C104.772 25.887 104.887 26.4665 104.887 27.1342C104.887 27.8074 104.772 28.391 104.543 28.8849C104.314 29.3761 103.997 29.7568 103.591 30.0272C103.186 30.2949 102.718 30.4287 102.188 30.4287C101.78 30.4287 101.453 30.3611 101.207 30.2259C100.962 30.0879 100.773 29.932 100.64 29.7582C100.508 29.5816 100.406 29.4354 100.334 29.3195H100.251V32.6802H99.2746ZM100.235 27.1176C100.235 27.5977 100.305 28.0213 100.446 28.3883C100.587 28.7525 100.792 29.0381 101.063 29.245C101.333 29.4492 101.664 29.5513 102.056 29.5513C102.464 29.5513 102.805 29.4437 103.078 29.2284C103.354 29.0105 103.561 28.718 103.699 28.351C103.84 27.9813 103.91 27.5701 103.91 27.1176C103.91 26.6706 103.841 26.2678 103.703 25.9091C103.568 25.5476 103.362 25.2621 103.086 25.0524C102.813 24.8399 102.47 24.7337 102.056 24.7337C101.659 24.7337 101.325 24.8344 101.054 25.0358C100.784 25.2345 100.58 25.5131 100.442 25.8718C100.304 26.2278 100.235 26.643 100.235 27.1176ZM109.861 26.2071V27.1176H106.153V26.2071H109.861ZM115.925 25.3628L115.048 25.6111C114.993 25.4649 114.911 25.3228 114.804 25.1848C114.699 25.0441 114.555 24.9282 114.373 24.8371C114.191 24.7461 113.958 24.7006 113.674 24.7006C113.285 24.7006 112.96 24.7902 112.701 24.9696C112.444 25.1462 112.316 25.371 112.316 25.6442C112.316 25.887 112.404 26.0788 112.581 26.2195C112.758 26.3602 113.034 26.4775 113.409 26.5713L114.352 26.8031C114.921 26.941 115.344 27.1521 115.623 27.4363C115.902 27.7178 116.041 28.0806 116.041 28.5248C116.041 28.8891 115.936 29.2146 115.727 29.5016C115.52 29.7886 115.23 30.0148 114.857 30.1804C114.485 30.3459 114.052 30.4287 113.558 30.4287C112.909 30.4287 112.373 30.288 111.948 30.0065C111.523 29.7251 111.254 29.314 111.141 28.7732L112.068 28.5414C112.156 28.8835 112.323 29.1401 112.569 29.3112C112.817 29.4823 113.141 29.5678 113.541 29.5678C113.996 29.5678 114.358 29.4713 114.626 29.2781C114.896 29.0822 115.031 28.8477 115.031 28.5745C115.031 28.3538 114.954 28.1689 114.799 28.0199C114.645 27.8681 114.408 27.755 114.088 27.6805L113.028 27.4322C112.446 27.2942 112.018 27.0804 111.745 26.7907C111.475 26.4982 111.339 26.1326 111.339 25.6939C111.339 25.3352 111.44 25.0179 111.641 24.7419C111.846 24.466 112.123 24.2494 112.473 24.0921C112.827 23.9349 113.227 23.8562 113.674 23.8562C114.303 23.8562 114.797 23.9942 115.155 24.2701C115.517 24.546 115.773 24.9103 115.925 25.3628ZM119.936 30.4287C119.362 30.4287 118.859 30.2921 118.426 30.019C117.995 29.7458 117.659 29.3636 117.416 28.8725C117.176 28.3814 117.056 27.8074 117.056 27.1507C117.056 26.4885 117.176 25.9105 117.416 25.4166C117.659 24.9227 117.995 24.5391 118.426 24.266C118.859 23.9928 119.362 23.8562 119.936 23.8562C120.51 23.8562 121.012 23.9928 121.443 24.266C121.876 24.5391 122.213 24.9227 122.453 25.4166C122.695 25.9105 122.817 26.4885 122.817 27.1507C122.817 27.8074 122.695 28.3814 122.453 28.8725C122.213 29.3636 121.876 29.7458 121.443 30.019C121.012 30.2921 120.51 30.4287 119.936 30.4287ZM119.936 29.5513C120.372 29.5513 120.731 29.4395 121.012 29.216C121.294 28.9925 121.502 28.6987 121.637 28.3345C121.773 27.9702 121.84 27.5757 121.84 27.1507C121.84 26.7258 121.773 26.3299 121.637 25.9629C121.502 25.5959 121.294 25.2993 121.012 25.073C120.731 24.8468 120.372 24.7337 119.936 24.7337C119.5 24.7337 119.142 24.8468 118.86 25.073C118.579 25.2993 118.37 25.5959 118.235 25.9629C118.1 26.3299 118.032 26.7258 118.032 27.1507C118.032 27.5757 118.1 27.9702 118.235 28.3345C118.37 28.6987 118.579 28.9925 118.86 29.216C119.142 29.4395 119.5 29.5513 119.936 29.5513ZM128.156 27.6971V23.939H129.133V30.2963H128.156V29.2202H128.09C127.941 29.543 127.71 29.8175 127.395 30.0438C127.08 30.2673 126.683 30.379 126.203 30.379C125.806 30.379 125.452 30.2921 125.143 30.1183C124.834 29.9417 124.592 29.6768 124.415 29.3236C124.238 28.9677 124.15 28.5193 124.15 27.9785V23.939H125.127V27.9123C125.127 28.3758 125.257 28.7456 125.516 29.0215C125.778 29.2974 126.112 29.4354 126.518 29.4354C126.76 29.4354 127.007 29.3733 127.258 29.2491C127.512 29.125 127.725 28.9346 127.896 28.678C128.07 28.4214 128.156 28.0944 128.156 27.6971ZM133.529 23.939V24.7668H130.235V23.939H133.529ZM131.195 22.4159H132.172V28.4752C132.172 28.7511 132.212 28.958 132.292 29.096C132.375 29.2312 132.479 29.3223 132.606 29.3692C132.736 29.4133 132.873 29.4354 133.016 29.4354C133.124 29.4354 133.212 29.4299 133.281 29.4188C133.35 29.405 133.405 29.394 133.446 29.3857L133.645 30.2632C133.579 30.288 133.486 30.3128 133.368 30.3377C133.249 30.3652 133.099 30.379 132.917 30.379C132.641 30.379 132.37 30.3197 132.105 30.2011C131.843 30.0824 131.625 29.9017 131.452 29.6589C131.28 29.4161 131.195 29.1098 131.195 28.7401V22.4159ZM135.954 26.472V30.2963H134.977V21.8199H135.954V24.9323H136.037C136.186 24.604 136.409 24.3432 136.707 24.1501C137.008 23.9542 137.408 23.8562 137.908 23.8562C138.341 23.8562 138.72 23.9431 139.046 24.117C139.371 24.288 139.624 24.5516 139.803 24.9075C139.985 25.2607 140.076 25.7104 140.076 26.2568V30.2963H139.1V26.323C139.1 25.818 138.969 25.4276 138.706 25.1517C138.447 24.873 138.087 24.7337 137.626 24.7337C137.306 24.7337 137.019 24.8013 136.765 24.9365C136.514 25.0717 136.316 25.269 136.169 25.5283C136.026 25.7877 135.954 26.1022 135.954 26.472ZM145.348 26.2071V27.1176H141.639V26.2071H145.348ZM149.872 21.8199V30.2963H148.846V22.896H148.796L146.726 24.2701V23.2271L148.846 21.8199H149.872ZM154.254 26.0581C154.254 27.1011 154.118 28.0613 153.845 28.9387C153.574 29.8134 153.187 30.6191 152.682 31.3558H151.821C152.02 31.0826 152.204 30.746 152.375 30.3459C152.549 29.9486 152.701 29.5126 152.831 29.0381C152.96 28.5607 153.061 28.0682 153.133 27.5605C153.207 27.05 153.245 26.5492 153.245 26.0581C153.245 25.4014 153.181 24.735 153.054 24.059C152.927 23.383 152.756 22.7553 152.541 22.1759C152.326 21.5964 152.086 21.1246 151.821 20.7604H152.682C153.187 21.4971 153.574 22.3042 153.845 23.1816C154.118 24.0563 154.254 25.0151 154.254 26.0581Z" fill="#A1A1A1"/>
<rect x="40.668" y="49.1924" width="7.17229" height="7.17229" rx="3.58615" fill="#F74A25"/>
<path d="M56.1171 56.4682V47.3398H59.2015C59.9147 47.3398 60.5 47.4617 60.9576 47.7053C61.4152 47.946 61.754 48.2773 61.9739 48.6993C62.1938 49.1212 62.3037 49.6011 62.3037 50.139C62.3037 50.6768 62.1938 51.1537 61.9739 51.5697C61.754 51.9857 61.4167 52.3126 60.9621 52.5503C60.5075 52.7851 59.9265 52.9024 59.2193 52.9024H56.7233V51.904H59.1837C59.671 51.904 60.0632 51.8327 60.3604 51.6901C60.6605 51.5474 60.8774 51.3454 61.0111 51.0839C61.1478 50.8194 61.2162 50.5044 61.2162 50.139C61.2162 49.7735 61.1478 49.454 61.0111 49.1807C60.8744 48.9073 60.656 48.6963 60.3559 48.5477C60.0558 48.3962 59.6591 48.3204 59.1658 48.3204H57.2225V56.4682H56.1171ZM60.4139 52.3676L62.6603 56.4682H61.3766L59.1658 52.3676H60.4139ZM66.7246 56.6108C66.065 56.6108 65.4959 56.4652 65.0175 56.174C64.5421 55.8798 64.1751 55.4698 63.9166 54.9438C63.661 54.4149 63.5333 53.7998 63.5333 53.0985C63.5333 52.3973 63.661 51.7792 63.9166 51.2443C64.1751 50.7065 64.5346 50.2875 64.9952 49.9874C65.4588 49.6843 65.9996 49.5328 66.6177 49.5328C66.9742 49.5328 67.3264 49.5922 67.674 49.7111C68.0217 49.8299 68.3381 50.0231 68.6234 50.2905C68.9087 50.555 69.136 50.9056 69.3054 51.3424C69.4747 51.7792 69.5594 52.317 69.5594 52.9559V53.4016H64.2821V52.4924H68.4897C68.4897 52.1061 68.4124 51.7614 68.2579 51.4583C68.1064 51.1552 67.8894 50.916 67.6072 50.7407C67.3278 50.5654 66.998 50.4777 66.6177 50.4777C66.1987 50.4777 65.8362 50.5817 65.5301 50.7897C65.227 50.9947 64.9937 51.2622 64.8303 51.592C64.6669 51.9218 64.5852 52.2754 64.5852 52.6528V53.259C64.5852 53.776 64.6743 54.2143 64.8526 54.5739C65.0339 54.9305 65.2849 55.2024 65.6059 55.3896C65.9268 55.5738 66.2997 55.6659 66.7246 55.6659C67.001 55.6659 67.2506 55.6273 67.4734 55.55C67.6993 55.4698 67.8939 55.3509 68.0573 55.1934C68.2208 55.033 68.3471 54.8339 68.4362 54.5962L69.4524 54.8814C69.3455 55.2261 69.1657 55.5292 68.9131 55.7907C68.6605 56.0492 68.3485 56.2513 67.9771 56.3969C67.6057 56.5395 67.1882 56.6108 66.7246 56.6108ZM73.0989 56.6287C72.6651 56.6287 72.2713 56.5469 71.9177 56.3835C71.5641 56.2171 71.2833 55.9779 71.0753 55.6659C70.8673 55.3509 70.7633 54.9706 70.7633 54.5249C70.7633 54.1326 70.8406 53.8147 70.9951 53.571C71.1496 53.3244 71.3561 53.1312 71.6147 52.9916C71.8732 52.8519 72.1584 52.7479 72.4704 52.6796C72.7854 52.6083 73.1019 52.5518 73.4198 52.5102C73.8358 52.4567 74.1731 52.4166 74.4316 52.3898C74.6931 52.3601 74.8833 52.3111 75.0021 52.2428C75.124 52.1744 75.1849 52.0556 75.1849 51.8862V51.8505C75.1849 51.4107 75.0645 51.069 74.8238 50.8254C74.5861 50.5817 74.2251 50.4599 73.7407 50.4599C73.2386 50.4599 72.8448 50.5698 72.5596 50.7897C72.2743 51.0096 72.0737 51.2443 71.9579 51.4939L70.9594 51.1374C71.1377 50.7214 71.3754 50.3975 71.6726 50.1657C71.9727 49.931 72.2996 49.7675 72.6532 49.6754C73.0098 49.5803 73.3604 49.5328 73.7051 49.5328C73.925 49.5328 74.1776 49.5595 74.4628 49.613C74.751 49.6635 75.0289 49.769 75.2963 49.9295C75.5667 50.0899 75.7911 50.3321 75.9694 50.656C76.1476 50.9799 76.2368 51.4137 76.2368 51.9575V56.4682H75.1849V55.5411H75.1314C75.0601 55.6897 74.9412 55.8486 74.7748 56.018C74.6084 56.1874 74.387 56.3315 74.1107 56.4504C73.8343 56.5692 73.4971 56.6287 73.0989 56.6287ZM73.2594 55.6837C73.6754 55.6837 74.026 55.602 74.3113 55.4386C74.5995 55.2752 74.8164 55.0642 74.962 54.8057C75.1106 54.5471 75.1849 54.2753 75.1849 53.99V53.0272C75.1403 53.0807 75.0423 53.1297 74.8907 53.1743C74.7421 53.2159 74.5698 53.2531 74.3737 53.2857C74.1805 53.3155 73.9918 53.3422 73.8076 53.366C73.6263 53.3868 73.4793 53.4046 73.3663 53.4195C73.093 53.4551 72.8374 53.5131 72.5997 53.5933C72.365 53.6706 72.1748 53.7879 72.0292 53.9454C71.8865 54.0999 71.8152 54.3109 71.8152 54.5783C71.8152 54.9438 71.9504 55.2202 72.2208 55.4074C72.4942 55.5916 72.8404 55.6837 73.2594 55.6837ZM80.6666 56.6108C80.0961 56.6108 79.5924 56.4667 79.1556 56.1785C78.7188 55.8873 78.3771 55.4772 78.1304 54.9483C77.8838 54.4164 77.7605 53.7879 77.7605 53.0629C77.7605 52.3438 77.8838 51.7198 78.1304 51.1909C78.3771 50.6619 78.7203 50.2534 79.1601 49.9651C79.5998 49.6769 80.108 49.5328 80.6844 49.5328C81.1302 49.5328 81.4823 49.6071 81.7408 49.7556C82.0023 49.9012 82.2014 50.0676 82.3381 50.2548C82.4777 50.4391 82.5862 50.5906 82.6634 50.7095H82.7526V47.3398H83.8045V56.4682H82.7882V55.4163H82.6634C82.5862 55.5411 82.4762 55.6986 82.3336 55.8888C82.191 56.076 81.9874 56.2439 81.723 56.3924C81.4585 56.538 81.1064 56.6108 80.6666 56.6108ZM80.8092 55.6659C81.2312 55.6659 81.5878 55.556 81.879 55.3361C82.1702 55.1132 82.3915 54.8057 82.5431 54.4134C82.6946 54.0182 82.7704 53.5621 82.7704 53.0451C82.7704 52.534 82.6961 52.0868 82.5475 51.7034C82.399 51.3171 82.1791 51.017 81.8879 50.8031C81.5967 50.5862 81.2371 50.4777 80.8092 50.4777C80.3635 50.4777 79.9921 50.5921 79.6949 50.8209C79.4008 51.0467 79.1794 51.3543 79.0308 51.7436C78.8852 52.1298 78.8124 52.5637 78.8124 53.0451C78.8124 53.5324 78.8867 53.9751 79.0353 54.3733C79.1868 54.7685 79.4097 55.0835 79.7038 55.3182C80.001 55.55 80.3695 55.6659 80.8092 55.6659ZM90.6512 51.1552L89.7063 51.4226C89.6469 51.2651 89.5592 51.1121 89.4433 50.9635C89.3304 50.812 89.1759 50.6872 88.9798 50.5891C88.7837 50.4911 88.5326 50.442 88.2265 50.442C87.8075 50.442 87.4584 50.5386 87.1791 50.7318C86.9027 50.9219 86.7645 51.1641 86.7645 51.4583C86.7645 51.7198 86.8596 51.9263 87.0498 52.0778C87.24 52.2294 87.5371 52.3557 87.9412 52.4567L88.9575 52.7063C89.5696 52.8549 90.0257 53.0822 90.3259 53.3883C90.626 53.6914 90.776 54.0821 90.776 54.5605C90.776 54.9527 90.6631 55.3034 90.4373 55.6124C90.2144 55.9214 89.9024 56.1651 89.5013 56.3434C89.1001 56.5217 88.6336 56.6108 88.1017 56.6108C87.4034 56.6108 86.8255 56.4593 86.3678 56.1562C85.9102 55.8531 85.6205 55.4104 85.4987 54.8279L86.4971 54.5783C86.5922 54.9468 86.772 55.2232 87.0364 55.4074C87.3039 55.5916 87.653 55.6837 88.0839 55.6837C88.5742 55.6837 88.9634 55.5797 89.2517 55.3717C89.5429 55.1608 89.6885 54.9082 89.6885 54.614C89.6885 54.3763 89.6053 54.1772 89.4389 54.0167C89.2725 53.8533 89.0169 53.7315 88.6722 53.6512L87.5312 53.3838C86.9042 53.2352 86.4436 53.0049 86.1494 52.6929C85.8582 52.378 85.7126 51.9842 85.7126 51.5118C85.7126 51.1255 85.8211 50.7838 86.038 50.4866C86.2579 50.1895 86.5565 49.9562 86.9339 49.7868C87.3143 49.6175 87.7451 49.5328 88.2265 49.5328C88.904 49.5328 89.4359 49.6813 89.8222 49.9785C90.2114 50.2756 90.4878 50.6679 90.6512 51.1552ZM93.0508 56.5395C92.8309 56.5395 92.6422 56.4608 92.4847 56.3033C92.3272 56.1458 92.2485 55.9571 92.2485 55.7372C92.2485 55.5173 92.3272 55.3286 92.4847 55.1712C92.6422 55.0137 92.8309 54.9349 93.0508 54.9349C93.2707 54.9349 93.4594 55.0137 93.6169 55.1712C93.7743 55.3286 93.8531 55.5173 93.8531 55.7372C93.8531 55.8828 93.8159 56.0165 93.7417 56.1384C93.6703 56.2602 93.5738 56.3583 93.4519 56.4325C93.3331 56.5039 93.1994 56.5395 93.0508 56.5395ZM93.0508 51.4583C92.8309 51.4583 92.6422 51.3795 92.4847 51.2221C92.3272 51.0646 92.2485 50.8759 92.2485 50.656C92.2485 50.4361 92.3272 50.2474 92.4847 50.0899C92.6422 49.9324 92.8309 49.8537 93.0508 49.8537C93.2707 49.8537 93.4594 49.9324 93.6169 50.0899C93.7743 50.2474 93.8531 50.4361 93.8531 50.656C93.8531 50.8016 93.8159 50.9353 93.7417 51.0571C93.6703 51.179 93.5738 51.277 93.4519 51.3513C93.3331 51.4226 93.1994 51.4583 93.0508 51.4583Z" fill="#FAFAFA"/>
<path d="M99.0499 57.3647V56.3663L102.139 53.1661C102.469 52.8184 102.741 52.5138 102.954 52.2523C103.171 51.9879 103.333 51.7368 103.44 51.4991C103.547 51.2613 103.601 51.0088 103.601 50.7413C103.601 50.4382 103.529 50.1767 103.387 49.9569C103.244 49.734 103.05 49.5631 102.803 49.4443C102.556 49.3224 102.278 49.2615 101.969 49.2615C101.643 49.2615 101.357 49.3284 101.114 49.4621C100.87 49.5958 100.683 49.7845 100.552 50.0282C100.421 50.2718 100.356 50.5571 100.356 50.884H99.041C99.041 50.3283 99.1688 49.8425 99.4244 49.4264C99.6799 49.0104 100.031 48.688 100.476 48.4592C100.922 48.2275 101.429 48.1116 101.996 48.1116C102.57 48.1116 103.075 48.226 103.512 48.4548C103.951 48.6806 104.295 48.9896 104.541 49.3819C104.788 49.7711 104.911 50.2109 104.911 50.7012C104.911 51.04 104.847 51.3713 104.72 51.6952C104.595 52.0191 104.376 52.3801 104.064 52.7783C103.752 53.1735 103.318 53.6534 102.763 54.218L100.949 56.1167V56.1836H105.058V57.3647H99.0499ZM106.98 57.3647L110.965 49.4844V49.4175H106.356V48.2364H112.391V49.4576L108.419 57.3647H106.98ZM113.192 57.4494C112.949 57.4494 112.739 57.3633 112.564 57.1909C112.389 57.0156 112.301 56.8046 112.301 56.558C112.301 56.3143 112.389 56.1063 112.564 55.934C112.739 55.7587 112.949 55.671 113.192 55.671C113.436 55.671 113.646 55.7587 113.821 55.934C113.996 56.1063 114.084 56.3143 114.084 56.558C114.084 56.7214 114.042 56.8715 113.959 57.0082C113.879 57.1419 113.772 57.2489 113.638 57.3291C113.505 57.4093 113.356 57.4494 113.192 57.4494ZM118.623 57.4895C118.011 57.4895 117.464 57.3841 116.983 57.1731C116.504 56.9621 116.125 56.6694 115.846 56.295C115.57 55.9176 115.421 55.4808 115.4 54.9846H116.8C116.818 55.255 116.908 55.4897 117.072 55.6888C117.238 55.885 117.455 56.0365 117.723 56.1435C117.99 56.2504 118.287 56.3039 118.614 56.3039C118.974 56.3039 119.292 56.2415 119.568 56.1167C119.847 55.9919 120.066 55.8181 120.223 55.5952C120.381 55.3694 120.459 55.1094 120.459 54.8152C120.459 54.5092 120.381 54.2402 120.223 54.0085C120.069 53.7737 119.841 53.5895 119.541 53.4558C119.244 53.3221 118.884 53.2552 118.463 53.2552H117.691V52.132H118.463C118.801 52.132 119.098 52.0711 119.354 51.9492C119.612 51.8274 119.815 51.658 119.96 51.4411C120.106 51.2212 120.179 50.9642 120.179 50.67C120.179 50.3877 120.115 50.1426 119.987 49.9346C119.862 49.7236 119.684 49.5587 119.452 49.4398C119.223 49.321 118.953 49.2615 118.641 49.2615C118.344 49.2615 118.066 49.3165 117.807 49.4264C117.552 49.5334 117.344 49.6879 117.183 49.89C117.023 50.0891 116.937 50.3283 116.925 50.6076H115.592C115.607 50.1143 115.753 49.6805 116.029 49.3061C116.308 48.9317 116.677 48.639 117.134 48.428C117.592 48.2171 118.1 48.1116 118.659 48.1116C119.244 48.1116 119.749 48.226 120.174 48.4548C120.602 48.6806 120.932 48.9822 121.164 49.3596C121.398 49.737 121.514 50.15 121.511 50.5987C121.514 51.1098 121.372 51.5436 121.083 51.9002C120.798 52.2568 120.418 52.496 119.942 52.6178V52.6891C120.548 52.7812 121.018 53.0219 121.351 53.4112C121.687 53.8005 121.853 54.2833 121.85 54.8598C121.853 55.362 121.713 55.8121 121.431 56.2103C121.152 56.6085 120.77 56.922 120.286 57.1508C119.801 57.3766 119.247 57.4895 118.623 57.4895ZM124.703 55.0425L124.694 53.4157H124.926L127.654 50.5185H129.249L126.138 53.8168H125.929L124.703 55.0425ZM123.477 57.3647V48.2364H124.81V57.3647H123.477ZM127.801 57.3647L125.349 54.111L126.268 53.1794L129.437 57.3647H127.801Z" fill="#FAFAFA"/>
<path d="M142.509 48.9668L139.988 58.3345H139.162L141.684 48.9668H142.509ZM147.735 52.6038L146.925 52.8331C146.874 52.6981 146.799 52.5669 146.699 52.4396C146.603 52.3097 146.47 52.2027 146.302 52.1186C146.134 52.0346 145.919 51.9926 145.656 51.9926C145.297 51.9926 144.998 52.0753 144.759 52.2409C144.522 52.4039 144.403 52.6115 144.403 52.8636C144.403 53.0878 144.485 53.2648 144.648 53.3947C144.811 53.5246 145.065 53.6328 145.412 53.7194L146.283 53.9334C146.808 54.0607 147.199 54.2556 147.456 54.5179C147.713 54.7777 147.842 55.1126 147.842 55.5227C147.842 55.8589 147.745 56.1594 147.551 56.4243C147.36 56.6892 147.093 56.898 146.749 57.0509C146.405 57.2037 146.005 57.2801 145.549 57.2801C144.951 57.2801 144.455 57.1502 144.063 56.8904C143.671 56.6306 143.423 56.2511 143.318 55.7519L144.174 55.538C144.255 55.8538 144.41 56.0907 144.636 56.2486C144.865 56.4065 145.165 56.4854 145.534 56.4854C145.954 56.4854 146.288 56.3963 146.535 56.218C146.785 56.0372 146.909 55.8207 146.909 55.5685C146.909 55.3648 146.838 55.1941 146.695 55.0566C146.553 54.9165 146.334 54.8121 146.038 54.7433L145.06 54.5141C144.523 54.3867 144.128 54.1893 143.876 53.9219C143.626 53.6519 143.502 53.3144 143.502 52.9095C143.502 52.5784 143.595 52.2855 143.78 52.0308C143.969 51.7761 144.225 51.5761 144.548 51.431C144.874 51.2858 145.244 51.2132 145.656 51.2132C146.237 51.2132 146.693 51.3405 147.024 51.5952C147.358 51.8499 147.595 52.1861 147.735 52.6038Z" fill="#FAFAFA"/>
<g clip-path="url(#clip1_469_5551)">
<path d="M253.145 67.0889C253.145 66.5937 253.546 66.1923 254.041 66.1923H255.834C256.329 66.1923 256.731 66.5937 256.731 67.0889V78.7438H253.145V67.0889Z" fill="#9EFE00"/>
<path d="M259.633 66.1921C259.633 65.6969 260.034 65.2955 260.529 65.2955H262.322C262.818 65.2955 263.219 65.6969 263.219 66.1921V78.7436H259.633V66.1921Z" fill="#9EFE00"/>
<path d="M266.121 62.6059C266.121 62.1107 266.522 61.7094 267.018 61.7094H268.811C269.306 61.7094 269.707 62.1107 269.707 62.6059V78.7435H266.121V62.6059Z" fill="#9EFE00"/>
<path d="M272.605 76.0538C272.605 75.5586 273.007 75.1572 273.502 75.1572H275.295C275.79 75.1572 276.192 75.5586 276.192 76.0538V78.7434H272.605V76.0538Z" fill="#9EFE00"/>
<path d="M279.09 75.1576C279.09 74.6625 279.491 74.2611 279.986 74.2611H281.779C282.275 74.2611 282.676 74.6625 282.676 75.1576V78.7438H279.09V75.1576Z" fill="#9EFE00"/>
<path d="M285.57 75.1576C285.57 74.6625 285.972 74.2611 286.467 74.2611H288.26C288.755 74.2611 289.156 74.6625 289.156 75.1576V78.7438H285.57V75.1576Z" fill="#9EFE00"/>
<path d="M292.062 67.985C292.062 67.4898 292.464 67.0884 292.959 67.0884H294.752C295.247 67.0884 295.649 67.4898 295.649 67.985V78.7434H292.062V67.985Z" fill="#9EFE00"/>
<path d="M298.551 64.3991C298.551 63.904 298.952 63.5026 299.447 63.5026H301.24C301.736 63.5026 302.137 63.904 302.137 64.3991V78.7437H298.551V64.3991Z" fill="#9EFE00"/>
<path d="M305.031 70.6747C305.031 70.1796 305.433 69.7782 305.928 69.7782H307.721C308.216 69.7782 308.617 70.1796 308.617 70.6747V78.7436H305.031V70.6747Z" fill="#9EFE00"/>
<path d="M311.516 70.6747C311.516 70.1796 311.917 69.7782 312.412 69.7782H314.205C314.7 69.7782 315.102 70.1796 315.102 70.6747V78.7436H311.516V70.6747Z" fill="#9EFE00"/>
<path d="M318 67.985C318 67.4898 318.401 67.0884 318.897 67.0884H320.69C321.185 67.0884 321.586 67.4898 321.586 67.985V78.7434H318V67.985Z" fill="#9EFE00"/>
<path d="M324.488 67.9852C324.488 67.49 324.89 67.0886 325.385 67.0886H327.178C327.673 67.0886 328.074 67.49 328.074 67.9852V78.7436H324.488V67.9852Z" fill="#9EFE00"/>
<path d="M330.977 64.3991C330.977 63.904 331.378 63.5026 331.873 63.5026H333.666C334.161 63.5026 334.563 63.904 334.563 64.3991V78.7437H330.977V64.3991Z" fill="#9EFE00"/>
<path d="M337.457 74.2611C337.457 73.7659 337.858 73.3646 338.354 73.3646H340.147C340.642 73.3646 341.043 73.7659 341.043 74.2611V78.7438H337.457V74.2611Z" fill="#9EFE00"/>
<path d="M343.945 76.0538C343.945 75.5586 344.347 75.1572 344.842 75.1572H346.635C347.131 75.1572 347.531 75.5586 347.531 76.0538V78.7434H343.945V76.0538Z" fill="#9EFE00"/>
<path d="M350.43 66.1923C350.43 65.6971 350.83 65.2957 351.326 65.2957H353.119C353.614 65.2957 354.016 65.6971 354.016 66.1923V78.7438H350.43V66.1923Z" fill="#9EFE00"/>
<path d="M356.918 67.985C356.918 67.4898 357.32 67.0884 357.815 67.0884H359.608C360.102 67.0884 360.504 67.4898 360.504 67.985V78.7434H356.918V67.985Z" fill="#9EFE00"/>
<path d="M363.406 67.0889C363.406 66.5937 363.807 66.1923 364.303 66.1923H366.096C366.591 66.1923 366.992 66.5937 366.992 67.0889V78.7438H363.406V67.0889Z" fill="#9EFE00"/>
<path d="M369.887 71.5713C369.887 71.0761 370.288 70.6747 370.783 70.6747H372.576C373.071 70.6747 373.473 71.0761 373.473 71.5713V78.7436H369.887V71.5713Z" fill="#9EFE00"/>
<path d="M376.371 76.0538C376.371 75.5586 376.773 75.1572 377.268 75.1572H379.061C379.556 75.1572 379.957 75.5586 379.957 76.0538V78.7434H376.371V76.0538Z" fill="#9EFE00"/>
<path d="M382.855 67.0889C382.855 66.5937 383.256 66.1923 383.752 66.1923H385.545C386.04 66.1923 386.442 66.5937 386.442 67.0889V78.7438H382.855V67.0889Z" fill="#9EFE00"/>
<path d="M389.344 74.2611C389.344 73.7659 389.745 73.3646 390.24 73.3646H392.033C392.528 73.3646 392.93 73.7659 392.93 74.2611V78.7438H389.344V74.2611Z" fill="#9EFE00"/>
<path d="M395.832 67.0889C395.832 66.5937 396.234 66.1923 396.729 66.1923H398.522C399.017 66.1923 399.418 66.5937 399.418 67.0889V78.7438H395.832V67.0889Z" fill="#9EFE00"/>
<path d="M402.312 61.7093C402.312 61.2142 402.714 60.8128 403.209 60.8128H405.002C405.497 60.8128 405.899 61.2142 405.899 61.7093V78.7435H402.312V61.7093Z" fill="#9EFE00"/>
<path d="M408.801 67.985C408.801 67.4898 409.202 67.0884 409.697 67.0884H411.49C411.985 67.0884 412.387 67.4898 412.387 67.985V78.7434H408.801V67.985Z" fill="#9EFE00"/>
<path d="M415.289 72.4679C415.289 71.9727 415.69 71.5714 416.186 71.5714H417.979C418.474 71.5714 418.875 71.9727 418.875 72.4679V78.7436H415.289V72.4679Z" fill="#9EFE00"/>
<path d="M421.773 68.8815C421.773 68.3864 422.175 67.985 422.67 67.985H424.463C424.958 67.985 425.36 68.3864 425.36 68.8815V78.7434H421.773V68.8815Z" fill="#9EFE00"/>
<path d="M428.258 67.0889C428.258 66.5937 428.659 66.1923 429.154 66.1923H430.947C431.443 66.1923 431.844 66.5937 431.844 67.0889V78.7438H428.258V67.0889Z" fill="#9EFE00"/>
<path d="M434.742 73.3645C434.742 72.8693 435.143 72.468 435.639 72.468H437.432C437.927 72.468 438.328 72.8693 438.328 73.3645V78.7437H434.742V73.3645Z" fill="#9EFE00"/>
<path d="M441.227 65.2956C441.227 64.8005 441.628 64.3991 442.123 64.3991H443.916C444.411 64.3991 444.813 64.8005 444.813 65.2956V78.7437H441.227V65.2956Z" fill="#9EFE00"/>
<path d="M447.711 74.2611C447.711 73.7659 448.113 73.3646 448.607 73.3646H450.401C450.896 73.3646 451.297 73.7659 451.297 74.2611V78.7438H447.711V74.2611Z" fill="#9EFE00"/>
<path d="M454.199 76.0538C454.199 75.5586 454.601 75.1572 455.096 75.1572H456.889C457.384 75.1572 457.785 75.5586 457.785 76.0538V78.7434H454.199V76.0538Z" fill="#9EFE00"/>
<path d="M460.688 70.6747C460.688 70.1796 461.089 69.7782 461.584 69.7782H463.377C463.873 69.7782 464.274 70.1796 464.274 70.6747V78.7436H460.688V70.6747Z" fill="#9EFE00"/>
<path d="M467.168 61.7093C467.168 61.2142 467.569 60.8128 468.065 60.8128H469.858C470.352 60.8128 470.754 61.2142 470.754 61.7093V78.7435H467.168V61.7093Z" fill="#9EFE00"/>
<path d="M473.656 74.2609C473.656 73.7658 474.058 73.3644 474.553 73.3644H476.346C476.841 73.3644 477.242 73.7658 477.242 74.2609V78.7436H473.656V74.2609Z" fill="#9EFE00"/>
<path d="M480.145 62.6059C480.145 62.1107 480.546 61.7094 481.041 61.7094H482.834C483.33 61.7094 483.731 62.1107 483.731 62.6059V78.7435H480.145V62.6059Z" fill="#9EFE00"/>
<path d="M486.629 67.0889C486.629 66.5937 487.03 66.1923 487.525 66.1923H489.319C489.813 66.1923 490.215 66.5937 490.215 67.0889V78.7438H486.629V67.0889Z" fill="#9EFE00"/>
<path d="M493.113 67.0889C493.113 66.5937 493.515 66.1923 494.01 66.1923H495.803C496.298 66.1923 496.699 66.5937 496.699 67.0889V78.7438H493.113V67.0889Z" fill="#9EFE00"/>
<path d="M499.598 66.1923C499.598 65.6971 499.998 65.2957 500.494 65.2957H502.287C502.782 65.2957 503.184 65.6971 503.184 66.1923V78.7438H499.598V66.1923Z" fill="#9EFE00"/>
<path d="M506.086 65.2955C506.086 64.8004 506.488 64.399 506.982 64.399H508.776C509.27 64.399 509.672 64.8004 509.672 65.2955V78.7436H506.086V65.2955Z" fill="#9EFE00"/>
</g>
</g>
<rect x="18.7022" y="1.19339" width="489.509" height="77.9987" rx="10.3102" stroke="#545454" stroke-width="0.896537"/>
</g>
<defs>
<filter id="filter0_dd_469_5551" x="0.32317" y="0.745116" width="526.268" height="114.757" filterUnits="userSpaceOnUse" color-interpolation-filters="sRGB">
<feFlood flood-opacity="0" result="BackgroundImageFix"/>
<feColorMatrix in="SourceAlpha" type="matrix" values="0 0 0 0 0 0 0 0 0 0 0 0 0 0 0 0 0 0 127 0" result="hardAlpha"/>
<feMorphology radius="5.37922" operator="erode" in="SourceAlpha" result="effect1_dropShadow_469_5551"/>
<feOffset dy="7.17229"/>
<feGaussianBlur stdDeviation="4.48268"/>
<feComposite in2="hardAlpha" operator="out"/>
<feColorMatrix type="matrix" values="0 0 0 0 0 0 0 0 0 0 0 0 0 0 0 0 0 0 0.25 0"/>
<feBlend mode="normal" in2="BackgroundImageFix" result="effect1_dropShadow_469_5551"/>
<feColorMatrix in="SourceAlpha" type="matrix" values="0 0 0 0 0 0 0 0 0 0 0 0 0 0 0 0 0 0 127 0" result="hardAlpha"/>
<feMorphology radius="4.48268" operator="erode" in="SourceAlpha" result="effect2_dropShadow_469_5551"/>
<feOffset dy="17.9307"/>
<feGaussianBlur stdDeviation="11.2067"/>
<feComposite in2="hardAlpha" operator="out"/>
<feColorMatrix type="matrix" values="0 0 0 0 0 0 0 0 0 0 0 0 0 0 0 0 0 0 0.25 0"/>
<feBlend mode="normal" in2="effect1_dropShadow_469_5551" result="effect2_dropShadow_469_5551"/>
<feBlend mode="normal" in="SourceGraphic" in2="effect2_dropShadow_469_5551" result="shape"/>
</filter>
<clipPath id="clip0_469_5551">
<rect x="18.2539" y="0.745117" width="490.406" height="78.8952" rx="10.7584" fill="white"/>
</clipPath>
<clipPath id="clip1_469_5551">
<rect width="271.651" height="17.9307" fill="white" transform="translate(253.148 60.8129)"/>
</clipPath>
</defs>
</svg>
