<svg width="527" height="80" viewBox="0 0 527 80" fill="none" xmlns="http://www.w3.org/2000/svg">
<g filter="url(#filter0_dd_469_5819)">
<g clip-path="url(#clip0_469_5819)">
<rect x="18.2539" y="0.984985" width="490.406" height="78.8952" rx="10.7584" fill="#1F1F1F"/>
<path d="M41.5992 30.5362V22.0598H46.8555V23.1608H42.8781V25.7434H46.4789V26.8402H42.8781V30.5362H41.5992ZM48.0915 30.5362V24.1789H49.2876V25.1888H49.3538C49.4697 24.8467 49.6739 24.5776 49.9664 24.3817C50.2616 24.1831 50.5955 24.0837 50.968 24.0837C51.0453 24.0837 51.1363 24.0865 51.2412 24.092C51.3488 24.0975 51.4329 24.1044 51.4936 24.1127V25.2964C51.444 25.2826 51.3557 25.2674 51.2287 25.2509C51.1018 25.2316 50.9749 25.2219 50.848 25.2219C50.5555 25.2219 50.2947 25.284 50.0657 25.4082C49.8395 25.5296 49.6601 25.6993 49.5277 25.9172C49.3952 26.1325 49.329 26.378 49.329 26.654V30.5362H48.0915ZM54.1999 30.6769C53.7971 30.6769 53.4329 30.6024 53.1073 30.4534C52.7817 30.3017 52.5237 30.0823 52.3333 29.7953C52.1457 29.5084 52.0519 29.1566 52.0519 28.7399C52.0519 28.3812 52.1208 28.086 52.2588 27.8542C52.3968 27.6224 52.583 27.439 52.8175 27.3038C53.0521 27.1686 53.3142 27.0665 53.6039 26.9975C53.8936 26.9285 54.1889 26.8761 54.4896 26.8402C54.8704 26.7961 55.1794 26.7602 55.4167 26.7326C55.654 26.7022 55.8265 26.654 55.9341 26.5877C56.0417 26.5215 56.0955 26.4139 56.0955 26.2649V26.2359C56.0955 25.8745 55.9934 25.5944 55.7892 25.3958C55.5878 25.1971 55.2871 25.0978 54.887 25.0978C54.4703 25.0978 54.142 25.1902 53.9019 25.3751C53.6646 25.5572 53.5005 25.76 53.4094 25.9835L52.2464 25.7186C52.3843 25.3323 52.5858 25.0205 52.8507 24.7832C53.1183 24.5432 53.426 24.3693 53.7736 24.2617C54.1213 24.1513 54.4869 24.0962 54.8704 24.0962C55.1243 24.0962 55.3933 24.1265 55.6775 24.1872C55.9644 24.2452 56.2321 24.3528 56.4804 24.51C56.7315 24.6673 56.9371 24.8922 57.0971 25.1847C57.2571 25.4744 57.3372 25.851 57.3372 26.3146V30.5362H56.1286V29.667H56.079C55.9989 29.8271 55.8789 29.9843 55.7189 30.1389C55.5588 30.2934 55.3533 30.4217 55.1022 30.5238C54.8511 30.6259 54.5503 30.6769 54.1999 30.6769ZM54.4689 29.6836C54.8111 29.6836 55.1036 29.616 55.3464 29.4808C55.5919 29.3456 55.7782 29.169 55.9051 28.951C56.0348 28.7303 56.0996 28.4944 56.0996 28.2433V27.4238C56.0555 27.4679 55.97 27.5093 55.843 27.548C55.7189 27.5838 55.5768 27.6156 55.4167 27.6431C55.2567 27.668 55.1008 27.6914 54.949 27.7135C54.7973 27.7328 54.6704 27.7494 54.5683 27.7632C54.3282 27.7935 54.1089 27.8446 53.9102 27.9163C53.7143 27.988 53.557 28.0915 53.4384 28.2267C53.3225 28.3592 53.2645 28.5358 53.2645 28.7565C53.2645 29.0628 53.3777 29.2945 53.6039 29.4518C53.8302 29.6063 54.1185 29.6836 54.4689 29.6836ZM60.0652 26.7616V30.5362H58.8277V24.1789H60.0155V25.2136H60.0941C60.2404 24.877 60.4694 24.6066 60.7812 24.4024C61.0957 24.1982 61.4917 24.0962 61.969 24.0962C62.4022 24.0962 62.7816 24.1872 63.1072 24.3693C63.4328 24.5487 63.6853 24.8163 63.8646 25.1723C64.044 25.5282 64.1337 25.9683 64.1337 26.4925V30.5362H62.8961V26.6415C62.8961 26.1808 62.7761 25.8207 62.5361 25.5613C62.296 25.2992 61.9663 25.1681 61.5469 25.1681C61.2599 25.1681 61.0047 25.2302 60.7812 25.3544C60.5605 25.4785 60.3852 25.6606 60.2556 25.9007C60.1286 26.138 60.0652 26.4249 60.0652 26.7616ZM66.7737 28.3799L66.7654 26.8692H66.9807L69.5136 24.1789H70.9953L68.1064 27.2417H67.9119L66.7737 28.3799ZM65.6355 30.5362V22.0598H66.8731V30.5362H65.6355ZM69.6502 30.5362L67.3739 27.5148L68.2265 26.6498L71.1692 30.5362H69.6502ZM74.9909 24.1789V25.1723H71.3984V24.1789H74.9909ZM72.3834 30.5362V23.4422C72.3834 23.0449 72.4703 22.7152 72.6442 22.453C72.818 22.1882 73.0484 21.9909 73.3353 21.8612C73.6223 21.7287 73.9341 21.6625 74.2707 21.6625C74.5191 21.6625 74.7315 21.6832 74.9081 21.7246C75.0847 21.7632 75.2158 21.7991 75.3013 21.8322L75.0116 22.8338C74.9536 22.8173 74.8791 22.7979 74.7881 22.7759C74.697 22.751 74.5867 22.7386 74.457 22.7386C74.1562 22.7386 73.941 22.8131 73.8113 22.9621C73.6844 23.1111 73.6209 23.3263 73.6209 23.6078V30.5362H72.3834ZM80.137 27.8998V24.1789H81.3787V30.5362H80.1618V29.4353H80.0956C79.9494 29.7746 79.7149 30.0575 79.392 30.2837C79.072 30.5072 78.6732 30.619 78.1959 30.619C77.7875 30.619 77.4261 30.5293 77.1115 30.3499C76.7997 30.1678 76.5542 29.8988 76.3748 29.5429C76.1982 29.1869 76.1099 28.7468 76.1099 28.2226V24.1789H77.3474V28.0736C77.3474 28.5068 77.4675 28.8517 77.7075 29.1083C77.9476 29.3649 78.2594 29.4932 78.6429 29.4932C78.8747 29.4932 79.1051 29.4353 79.3341 29.3194C79.5659 29.2035 79.7576 29.0283 79.9094 28.7937C80.0639 28.5592 80.1398 28.2612 80.137 27.8998ZM82.8837 30.5362V24.1789H84.0798V25.1888H84.146C84.2619 24.8467 84.4661 24.5776 84.7585 24.3817C85.0538 24.1831 85.3877 24.0837 85.7601 24.0837C85.8374 24.0837 85.9285 24.0865 86.0333 24.092C86.1409 24.0975 86.2251 24.1044 86.2858 24.1127V25.2964C86.2361 25.2826 86.1478 25.2674 86.0209 25.2509C85.894 25.2316 85.767 25.2219 85.6401 25.2219C85.3476 25.2219 85.0869 25.284 84.8579 25.4082C84.6316 25.5296 84.4523 25.6993 84.3198 25.9172C84.1874 26.1325 84.1212 26.378 84.1212 26.654V30.5362H82.8837ZM90.5421 24.1789V25.1723H87.0696V24.1789H90.5421ZM88.0008 22.6558H89.2383V28.6696C89.2383 28.9096 89.2742 29.0904 89.3459 29.2118C89.4177 29.3304 89.5101 29.4118 89.6232 29.456C89.7391 29.4973 89.8647 29.518 89.9999 29.518C90.0992 29.518 90.1861 29.5111 90.2606 29.4973C90.3351 29.4835 90.3931 29.4725 90.4345 29.4642L90.658 30.4865C90.5862 30.5141 90.4841 30.5417 90.3517 30.5693C90.2192 30.5997 90.0537 30.6162 89.855 30.619C89.5294 30.6245 89.2259 30.5665 88.9445 30.4451C88.663 30.3237 88.4354 30.1361 88.2616 29.8823C88.0877 29.6284 88.0008 29.3097 88.0008 28.9262V22.6558Z" fill="#FAFAFA"/>
<path d="M96.1479 26.9602C96.1479 25.9172 96.2831 24.9584 96.5535 24.0837C96.8267 23.2063 97.2157 22.3992 97.7207 21.6625H98.5815C98.3829 21.9357 98.1966 22.2723 98.0228 22.6724C97.8517 23.0697 97.7013 23.5071 97.5717 23.9844C97.442 24.459 97.3399 24.9501 97.2654 25.4578C97.1936 25.9655 97.1578 26.4663 97.1578 26.9602C97.1578 27.6169 97.2212 28.2833 97.3482 28.9593C97.4751 29.6353 97.6462 30.263 97.8614 30.8425C98.0766 31.4219 98.3167 31.8937 98.5815 32.258H97.7207C97.2157 31.5212 96.8267 30.7155 96.5535 29.8409C96.2831 28.9634 96.1479 28.0032 96.1479 26.9602ZM102.394 30.6686C101.781 30.6686 101.253 30.5334 100.809 30.263C100.367 29.9899 100.027 29.6091 99.7865 29.1207C99.5492 28.6296 99.4305 28.0584 99.4305 27.4072C99.4305 26.7561 99.5492 26.1821 99.7865 25.6855C100.027 25.1861 100.36 24.797 100.788 24.5183C101.219 24.2369 101.721 24.0962 102.295 24.0962C102.626 24.0962 102.953 24.1513 103.276 24.2617C103.598 24.3721 103.892 24.5514 104.157 24.7998C104.422 25.0453 104.633 25.3709 104.79 25.7765C104.948 26.1821 105.026 26.6816 105.026 27.2748V27.6887H100.126V26.8443H104.033C104.033 26.4856 103.961 26.1656 103.818 25.8841C103.677 25.6027 103.476 25.3806 103.213 25.2178C102.954 25.055 102.648 24.9736 102.295 24.9736C101.906 24.9736 101.569 25.0702 101.285 25.2633C101.003 25.4537 100.787 25.702 100.635 26.0083C100.483 26.3146 100.407 26.6429 100.407 26.9933V27.5562C100.407 28.0363 100.49 28.4433 100.656 28.7772C100.824 29.1083 101.057 29.3608 101.355 29.5346C101.653 29.7057 101.999 29.7912 102.394 29.7912C102.651 29.7912 102.882 29.7553 103.089 29.6836C103.299 29.6091 103.48 29.4987 103.631 29.3525C103.783 29.2035 103.9 29.0186 103.983 28.7979L104.927 29.0628C104.828 29.3828 104.661 29.6643 104.426 29.9071C104.192 30.1471 103.902 30.3348 103.557 30.47C103.212 30.6024 102.824 30.6686 102.394 30.6686ZM110.361 27.937V24.1789H111.337V30.5362H110.361V29.4601H110.294C110.145 29.7829 109.914 30.0575 109.599 30.2837C109.285 30.5072 108.887 30.619 108.407 30.619C108.01 30.619 107.657 30.5321 107.348 30.3582C107.039 30.1816 106.796 29.9167 106.619 29.5636C106.443 29.2076 106.354 28.7593 106.354 28.2184V24.1789H107.331V28.1522C107.331 28.6158 107.461 28.9855 107.72 29.2614C107.982 29.5374 108.316 29.6753 108.722 29.6753C108.965 29.6753 109.211 29.6132 109.463 29.4891C109.716 29.3649 109.929 29.1745 110.1 28.9179C110.274 28.6613 110.361 28.3343 110.361 27.937ZM116.611 26.447V27.3576H112.902V26.447H116.611ZM120.754 30.6686C120.158 30.6686 119.645 30.5279 119.215 30.2465C118.784 29.965 118.453 29.5774 118.221 29.0835C117.99 28.5896 117.874 28.0253 117.874 27.3907C117.874 26.745 117.992 26.1752 118.23 25.6813C118.47 25.1847 118.804 24.797 119.231 24.5183C119.662 24.2369 120.164 24.0962 120.738 24.0962C121.185 24.0962 121.588 24.1789 121.946 24.3445C122.305 24.51 122.599 24.7418 122.828 25.0398C123.057 25.3378 123.199 25.6855 123.254 26.0828H122.277C122.203 25.7931 122.037 25.5365 121.781 25.313C121.527 25.0867 121.185 24.9736 120.754 24.9736C120.374 24.9736 120.04 25.0729 119.753 25.2716C119.469 25.4675 119.246 25.7448 119.086 26.1035C118.929 26.4594 118.85 26.8775 118.85 27.3576C118.85 27.8487 118.928 28.2764 119.082 28.6406C119.24 29.0048 119.46 29.2876 119.744 29.4891C120.031 29.6905 120.368 29.7912 120.754 29.7912C121.008 29.7912 121.239 29.7471 121.446 29.6588C121.652 29.5705 121.828 29.4435 121.971 29.278C122.115 29.1124 122.217 28.9138 122.277 28.682H123.254C123.199 29.0572 123.062 29.3953 122.844 29.696C122.629 29.994 122.344 30.2313 121.988 30.4079C121.635 30.5817 121.223 30.6686 120.754 30.6686ZM127.19 30.6686C126.577 30.6686 126.049 30.5334 125.605 30.263C125.163 29.9899 124.822 29.6091 124.582 29.1207C124.345 28.6296 124.226 28.0584 124.226 27.4072C124.226 26.7561 124.345 26.1821 124.582 25.6855C124.822 25.1861 125.156 24.797 125.584 24.5183C126.014 24.2369 126.516 24.0962 127.09 24.0962C127.422 24.0962 127.748 24.1513 128.071 24.2617C128.394 24.3721 128.688 24.5514 128.953 24.7998C129.218 25.0453 129.429 25.3709 129.586 25.7765C129.743 26.1821 129.822 26.6816 129.822 27.2748V27.6887H124.922V26.8443H128.829C128.829 26.4856 128.757 26.1656 128.614 25.8841C128.473 25.6027 128.271 25.3806 128.009 25.2178C127.75 25.055 127.444 24.9736 127.09 24.9736C126.701 24.9736 126.365 25.0702 126.081 25.2633C125.799 25.4537 125.582 25.702 125.431 26.0083C125.279 26.3146 125.203 26.6429 125.203 26.9933V27.5562C125.203 28.0363 125.286 28.4433 125.451 28.7772C125.62 29.1083 125.853 29.3608 126.151 29.5346C126.449 29.7057 126.795 29.7912 127.19 29.7912C127.446 29.7912 127.678 29.7553 127.885 29.6836C128.095 29.6091 128.276 29.4987 128.427 29.3525C128.579 29.2035 128.696 29.0186 128.779 28.7979L129.723 29.0628C129.623 29.3828 129.456 29.6643 129.222 29.9071C128.987 30.1471 128.698 30.3348 128.353 30.47C128.008 30.6024 127.62 30.6686 127.19 30.6686ZM132.127 26.7119V30.5362H131.15V24.1789H132.094V25.1723H132.177C132.326 24.8494 132.552 24.5901 132.855 24.3942C133.159 24.1955 133.551 24.0962 134.031 24.0962C134.461 24.0962 134.838 24.1845 135.161 24.361C135.483 24.5349 135.735 24.7998 135.914 25.1557C136.093 25.5089 136.183 25.9559 136.183 26.4967V30.5362H135.206V26.5629C135.206 26.0635 135.076 25.6744 134.817 25.3958C134.558 25.1143 134.202 24.9736 133.749 24.9736C133.438 24.9736 133.159 25.0412 132.913 25.1764C132.67 25.3116 132.479 25.5089 132.338 25.7682C132.197 26.0276 132.127 26.3422 132.127 26.7119ZM140.575 24.1789V25.0067H137.28V24.1789H140.575ZM138.24 22.6558H139.217V28.7151C139.217 28.991 139.257 29.198 139.337 29.3359C139.42 29.4711 139.525 29.5622 139.652 29.6091C139.781 29.6532 139.918 29.6753 140.062 29.6753C140.169 29.6753 140.257 29.6698 140.326 29.6588C140.395 29.645 140.451 29.6339 140.492 29.6256L140.691 30.5031C140.624 30.5279 140.532 30.5527 140.413 30.5776C140.295 30.6052 140.144 30.619 139.962 30.619C139.686 30.619 139.416 30.5596 139.151 30.441C138.889 30.3224 138.671 30.1416 138.497 29.8988C138.326 29.656 138.24 29.3497 138.24 28.98V22.6558ZM141.886 30.5362V24.1789H142.83V25.1391H142.896C143.012 24.8246 143.222 24.5694 143.525 24.3735C143.829 24.1776 144.171 24.0796 144.552 24.0796C144.623 24.0796 144.713 24.081 144.821 24.0837C144.928 24.0865 145.01 24.0906 145.065 24.0962V25.0895C145.032 25.0812 144.956 25.0688 144.837 25.0522C144.721 25.0329 144.599 25.0233 144.469 25.0233C144.16 25.0233 143.884 25.0881 143.641 25.2178C143.401 25.3447 143.211 25.5213 143.07 25.7476C142.932 25.9711 142.863 26.2263 142.863 26.5132V30.5362H141.886ZM147.936 30.6852C147.533 30.6852 147.167 30.6093 146.839 30.4576C146.511 30.303 146.25 30.0809 146.057 29.7912C145.864 29.4987 145.767 29.1455 145.767 28.7317C145.767 28.3674 145.839 28.0722 145.982 27.8459C146.126 27.6169 146.317 27.4376 146.557 27.3079C146.798 27.1782 147.062 27.0816 147.352 27.0182C147.645 26.952 147.938 26.8995 148.234 26.8609C148.62 26.8112 148.933 26.774 149.173 26.7492C149.416 26.7216 149.593 26.676 149.703 26.6126C149.816 26.5491 149.873 26.4387 149.873 26.2815V26.2484C149.873 25.84 149.761 25.5227 149.537 25.2964C149.317 25.0702 148.981 24.957 148.532 24.957C148.065 24.957 147.7 25.0591 147.435 25.2633C147.17 25.4675 146.984 25.6855 146.876 25.9172L145.949 25.5861C146.115 25.1998 146.335 24.8991 146.611 24.6839C146.89 24.4659 147.193 24.3141 147.522 24.2286C147.853 24.1403 148.179 24.0962 148.499 24.0962C148.703 24.0962 148.937 24.121 149.202 24.1707C149.47 24.2176 149.728 24.3155 149.976 24.4645C150.227 24.6135 150.436 24.8384 150.601 25.1391C150.767 25.4399 150.849 25.8427 150.849 26.3477V30.5362H149.873V29.6753H149.823C149.757 29.8133 149.646 29.9609 149.492 30.1182C149.337 30.2754 149.132 30.4093 148.875 30.5196C148.619 30.63 148.305 30.6852 147.936 30.6852ZM148.085 29.8078C148.471 29.8078 148.797 29.7319 149.061 29.5801C149.329 29.4284 149.531 29.2325 149.666 28.9924C149.804 28.7524 149.873 28.4999 149.873 28.235V27.341C149.831 27.3907 149.74 27.4362 149.6 27.4776C149.462 27.5162 149.302 27.5507 149.119 27.5811C148.94 27.6087 148.765 27.6335 148.594 27.6556C148.425 27.6749 148.289 27.6914 148.184 27.7052C147.93 27.7383 147.693 27.7921 147.472 27.8666C147.254 27.9384 147.078 28.0474 146.942 28.1936C146.81 28.3371 146.744 28.533 146.744 28.7813C146.744 29.1207 146.869 29.3773 147.12 29.5511C147.374 29.7222 147.696 29.8078 148.085 29.8078ZM153.451 22.0598V30.5362H152.474V22.0598H153.451ZM158.725 26.447V27.3576H155.016V26.447H158.725ZM163.249 22.0598V30.5362H162.222V23.1359H162.173L160.103 24.51V23.4671L162.222 22.0598H163.249ZM167.631 26.298C167.631 27.341 167.495 28.3012 167.222 29.1787C166.951 30.0533 166.564 30.859 166.059 31.5957H165.198C165.396 31.3226 165.581 30.9859 165.752 30.5859C165.926 30.1885 166.078 29.7526 166.208 29.278C166.337 28.8006 166.438 28.3081 166.51 27.8004C166.584 27.29 166.622 26.7892 166.622 26.298C166.622 25.6413 166.558 24.975 166.431 24.299C166.304 23.6229 166.133 22.9952 165.918 22.4158C165.703 21.8363 165.463 21.3645 165.198 21.0003H166.059C166.564 21.737 166.951 22.5441 167.222 23.4215C167.495 24.2962 167.631 25.255 167.631 26.298Z" fill="#A1A1A1"/>
<rect x="40.668" y="49.4324" width="7.17229" height="7.17229" rx="3.58615" fill="#F74A25"/>
<path d="M56.1171 56.7083V47.5799H59.2015C59.9147 47.5799 60.5 47.7017 60.9576 47.9454C61.4152 48.1861 61.754 48.5174 61.9739 48.9393C62.1938 49.3613 62.3037 49.8412 62.3037 50.379C62.3037 50.9168 62.1938 51.3938 61.9739 51.8098C61.754 52.2258 61.4167 52.5526 60.9621 52.7904C60.5075 53.0251 59.9265 53.1425 59.2193 53.1425H56.7233V52.1441H59.1837C59.671 52.1441 60.0632 52.0727 60.3604 51.9301C60.6605 51.7875 60.8774 51.5854 61.0111 51.3239C61.1478 51.0595 61.2162 50.7445 61.2162 50.379C61.2162 50.0135 61.1478 49.6941 61.0111 49.4207C60.8744 49.1473 60.656 48.9364 60.3559 48.7878C60.0558 48.6362 59.6591 48.5605 59.1658 48.5605H57.2225V56.7083H56.1171ZM60.4139 52.6076L62.6603 56.7083H61.3766L59.1658 52.6076H60.4139ZM66.7246 56.8509C66.065 56.8509 65.4959 56.7053 65.0175 56.4141C64.5421 56.1199 64.1751 55.7098 63.9166 55.1839C63.661 54.655 63.5333 54.0399 63.5333 53.3386C63.5333 52.6373 63.661 52.0193 63.9166 51.4844C64.1751 50.9466 64.5346 50.5276 64.9952 50.2275C65.4588 49.9244 65.9996 49.7728 66.6177 49.7728C66.9742 49.7728 67.3264 49.8323 67.674 49.9511C68.0217 50.07 68.3381 50.2631 68.6234 50.5306C68.9087 50.795 69.136 51.1456 69.3054 51.5825C69.4747 52.0193 69.5594 52.5571 69.5594 53.196V53.6417H64.2821V52.7324H68.4897C68.4897 52.3461 68.4124 52.0014 68.2579 51.6983C68.1064 51.3953 67.8894 51.156 67.6072 50.9807C67.3278 50.8054 66.998 50.7178 66.6177 50.7178C66.1987 50.7178 65.8362 50.8218 65.5301 51.0298C65.227 51.2348 64.9937 51.5022 64.8303 51.8321C64.6669 52.1619 64.5852 52.5155 64.5852 52.8929V53.4991C64.5852 54.0161 64.6743 54.4544 64.8526 54.8139C65.0339 55.1705 65.2849 55.4424 65.6059 55.6296C65.9268 55.8138 66.2997 55.906 66.7246 55.906C67.001 55.906 67.2506 55.8673 67.4734 55.7901C67.6993 55.7098 67.8939 55.591 68.0573 55.4335C68.2208 55.273 68.3471 55.0739 68.4362 54.8362L69.4524 55.1215C69.3455 55.4662 69.1657 55.7693 68.9131 56.0308C68.6605 56.2893 68.3485 56.4913 67.9771 56.6369C67.6057 56.7796 67.1882 56.8509 66.7246 56.8509ZM73.0989 56.8687C72.6651 56.8687 72.2713 56.787 71.9177 56.6236C71.5641 56.4572 71.2833 56.218 71.0753 55.906C70.8673 55.591 70.7633 55.2106 70.7633 54.7649C70.7633 54.3727 70.8406 54.0547 70.9951 53.8111C71.1496 53.5644 71.3561 53.3713 71.6147 53.2316C71.8732 53.092 72.1584 52.988 72.4704 52.9196C72.7854 52.8483 73.1019 52.7918 73.4198 52.7502C73.8358 52.6968 74.1731 52.6566 74.4316 52.6299C74.6931 52.6002 74.8833 52.5512 75.0021 52.4828C75.124 52.4145 75.1849 52.2956 75.1849 52.1262V52.0906C75.1849 51.6508 75.0645 51.3091 74.8238 51.0654C74.5861 50.8218 74.2251 50.6999 73.7407 50.6999C73.2386 50.6999 72.8448 50.8099 72.5596 51.0298C72.2743 51.2497 72.0737 51.4844 71.9579 51.734L70.9594 51.3774C71.1377 50.9614 71.3754 50.6375 71.6726 50.4058C71.9727 50.171 72.2996 50.0076 72.6532 49.9155C73.0098 49.8204 73.3604 49.7728 73.7051 49.7728C73.925 49.7728 74.1776 49.7996 74.4628 49.8531C74.751 49.9036 75.0289 50.0091 75.2963 50.1695C75.5667 50.33 75.7911 50.5722 75.9694 50.896C76.1476 51.2199 76.2368 51.6538 76.2368 52.1976V56.7083H75.1849V55.7812H75.1314C75.0601 55.9297 74.9412 56.0887 74.7748 56.2581C74.6084 56.4274 74.387 56.5716 74.1107 56.6904C73.8343 56.8093 73.4971 56.8687 73.0989 56.8687ZM73.2594 55.9238C73.6754 55.9238 74.026 55.8421 74.3113 55.6786C74.5995 55.5152 74.8164 55.3042 74.962 55.0457C75.1106 54.7872 75.1849 54.5153 75.1849 54.23V53.2673C75.1403 53.3208 75.0423 53.3698 74.8907 53.4144C74.7421 53.456 74.5698 53.4931 74.3737 53.5258C74.1805 53.5555 73.9918 53.5823 73.8076 53.606C73.6263 53.6268 73.4793 53.6447 73.3663 53.6595C73.093 53.6952 72.8374 53.7531 72.5997 53.8333C72.365 53.9106 72.1748 54.028 72.0292 54.1855C71.8865 54.34 71.8152 54.551 71.8152 54.8184C71.8152 55.1839 71.9504 55.4602 72.2208 55.6474C72.4942 55.8317 72.8404 55.9238 73.2594 55.9238ZM80.6666 56.8509C80.0961 56.8509 79.5924 56.7068 79.1556 56.4185C78.7188 56.1273 78.3771 55.7173 78.1304 55.1883C77.8838 54.6564 77.7605 54.028 77.7605 53.3029C77.7605 52.5838 77.8838 51.9598 78.1304 51.4309C78.3771 50.902 78.7203 50.4934 79.1601 50.2052C79.5998 49.9169 80.108 49.7728 80.6844 49.7728C81.1302 49.7728 81.4823 49.8471 81.7408 49.9957C82.0023 50.1413 82.2014 50.3077 82.3381 50.4949C82.4777 50.6791 82.5862 50.8307 82.6634 50.9495H82.7526V47.5799H83.8045V56.7083H82.7882V55.6563H82.6634C82.5862 55.7812 82.4762 55.9386 82.3336 56.1288C82.191 56.316 81.9874 56.4839 81.723 56.6325C81.4585 56.7781 81.1064 56.8509 80.6666 56.8509ZM80.8092 55.906C81.2312 55.906 81.5878 55.796 81.879 55.5761C82.1702 55.3533 82.3915 55.0457 82.5431 54.6535C82.6946 54.2583 82.7704 53.8021 82.7704 53.2851C82.7704 52.774 82.6961 52.3268 82.5475 51.9435C82.399 51.5572 82.1791 51.2571 81.8879 51.0431C81.5967 50.8262 81.2371 50.7178 80.8092 50.7178C80.3635 50.7178 79.9921 50.8322 79.6949 51.061C79.4008 51.2868 79.1794 51.5943 79.0308 51.9836C78.8852 52.3699 78.8124 52.8037 78.8124 53.2851C78.8124 53.7724 78.8867 54.2152 79.0353 54.6134C79.1868 55.0086 79.4097 55.3235 79.7038 55.5583C80.001 55.7901 80.3695 55.906 80.8092 55.906ZM90.6512 51.3953L89.7063 51.6627C89.6469 51.5052 89.5592 51.3522 89.4433 51.2036C89.3304 51.052 89.1759 50.9272 88.9798 50.8292C88.7837 50.7311 88.5326 50.6821 88.2265 50.6821C87.8075 50.6821 87.4584 50.7787 87.1791 50.9718C86.9027 51.162 86.7645 51.4042 86.7645 51.6983C86.7645 51.9598 86.8596 52.1664 87.0498 52.3179C87.24 52.4694 87.5371 52.5957 87.9412 52.6968L88.9575 52.9464C89.5696 53.0949 90.0257 53.3223 90.3259 53.6283C90.626 53.9314 90.776 54.3222 90.776 54.8006C90.776 55.1928 90.6631 55.5434 90.4373 55.8525C90.2144 56.1615 89.9024 56.4052 89.5013 56.5834C89.1001 56.7617 88.6336 56.8509 88.1017 56.8509C87.4034 56.8509 86.8255 56.6993 86.3678 56.3962C85.9102 56.0932 85.6205 55.6504 85.4987 55.068L86.4971 54.8184C86.5922 55.1869 86.772 55.4632 87.0364 55.6474C87.3039 55.8317 87.653 55.9238 88.0839 55.9238C88.5742 55.9238 88.9634 55.8198 89.2517 55.6118C89.5429 55.4008 89.6885 55.1482 89.6885 54.8541C89.6885 54.6163 89.6053 54.4172 89.4389 54.2568C89.2725 54.0934 89.0169 53.9715 88.6722 53.8913L87.5312 53.6239C86.9042 53.4753 86.4436 53.245 86.1494 52.933C85.8582 52.618 85.7126 52.2243 85.7126 51.7518C85.7126 51.3655 85.8211 51.0238 86.038 50.7267C86.2579 50.4295 86.5565 50.1963 86.9339 50.0269C87.3143 49.8575 87.7451 49.7728 88.2265 49.7728C88.904 49.7728 89.4359 49.9214 89.8222 50.2185C90.2114 50.5157 90.4878 50.9079 90.6512 51.3953ZM93.0508 56.7796C92.8309 56.7796 92.6422 56.7008 92.4847 56.5433C92.3272 56.3858 92.2485 56.1972 92.2485 55.9773C92.2485 55.7574 92.3272 55.5687 92.4847 55.4112C92.6422 55.2537 92.8309 55.175 93.0508 55.175C93.2707 55.175 93.4594 55.2537 93.6169 55.4112C93.7743 55.5687 93.8531 55.7574 93.8531 55.9773C93.8531 56.1229 93.8159 56.2566 93.7417 56.3784C93.6703 56.5002 93.5738 56.5983 93.4519 56.6726C93.3331 56.7439 93.1994 56.7796 93.0508 56.7796ZM93.0508 51.6983C92.8309 51.6983 92.6422 51.6196 92.4847 51.4621C92.3272 51.3046 92.2485 51.1159 92.2485 50.896C92.2485 50.6762 92.3272 50.4875 92.4847 50.33C92.6422 50.1725 92.8309 50.0937 93.0508 50.0937C93.2707 50.0937 93.4594 50.1725 93.6169 50.33C93.7743 50.4875 93.8531 50.6762 93.8531 50.896C93.8531 51.0416 93.8159 51.1754 93.7417 51.2972C93.6703 51.419 93.5738 51.5171 93.4519 51.5914C93.3331 51.6627 93.1994 51.6983 93.0508 51.6983Z" fill="#FAFAFA"/>
<path d="M99.0499 57.6048V56.6064L102.139 53.4061C102.469 53.0584 102.741 52.7539 102.954 52.4924C103.171 52.2279 103.333 51.9768 103.44 51.7391C103.547 51.5014 103.601 51.2488 103.601 50.9814C103.601 50.6783 103.529 50.4168 103.387 50.1969C103.244 49.974 103.05 49.8032 102.803 49.6843C102.556 49.5625 102.278 49.5016 101.969 49.5016C101.643 49.5016 101.357 49.5684 101.114 49.7022C100.87 49.8359 100.683 50.0246 100.552 50.2682C100.421 50.5119 100.356 50.7971 100.356 51.124H99.041C99.041 50.5683 99.1688 50.0825 99.4244 49.6665C99.6799 49.2505 100.031 48.9281 100.476 48.6993C100.922 48.4675 101.429 48.3516 101.996 48.3516C102.57 48.3516 103.075 48.466 103.512 48.6948C103.951 48.9207 104.295 49.2297 104.541 49.6219C104.788 50.0112 104.911 50.451 104.911 50.9413C104.911 51.28 104.847 51.6113 104.72 51.9352C104.595 52.2591 104.376 52.6201 104.064 53.0183C103.752 53.4135 103.318 53.8934 102.763 54.458L100.949 56.3568V56.4236H105.058V57.6048H99.0499ZM106.98 57.6048L110.965 49.7244V49.6576H106.356V48.4764H112.391V49.6977L108.419 57.6048H106.98ZM113.192 57.6895C112.949 57.6895 112.739 57.6033 112.564 57.431C112.389 57.2556 112.301 57.0447 112.301 56.798C112.301 56.5544 112.389 56.3464 112.564 56.174C112.739 55.9987 112.949 55.9111 113.192 55.9111C113.436 55.9111 113.646 55.9987 113.821 56.174C113.996 56.3464 114.084 56.5544 114.084 56.798C114.084 56.9615 114.042 57.1115 113.959 57.2482C113.879 57.3819 113.772 57.4889 113.638 57.5691C113.505 57.6494 113.356 57.6895 113.192 57.6895ZM118.623 57.7296C118.011 57.7296 117.464 57.6241 116.983 57.4131C116.504 57.2022 116.125 56.9095 115.846 56.5351C115.57 56.1577 115.421 55.7209 115.4 55.2246H116.8C116.818 55.495 116.908 55.7298 117.072 55.9289C117.238 56.125 117.455 56.2765 117.723 56.3835C117.99 56.4905 118.287 56.544 118.614 56.544C118.974 56.544 119.292 56.4816 119.568 56.3568C119.847 56.232 120.066 56.0581 120.223 55.8353C120.381 55.6095 120.459 55.3494 120.459 55.0553C120.459 54.7492 120.381 54.4803 120.223 54.2485C120.069 54.0138 119.841 53.8295 119.541 53.6958C119.244 53.5621 118.884 53.4952 118.463 53.4952H117.691V52.372H118.463C118.801 52.372 119.098 52.3111 119.354 52.1893C119.612 52.0675 119.815 51.8981 119.96 51.6812C120.106 51.4613 120.179 51.2042 120.179 50.9101C120.179 50.6278 120.115 50.3826 119.987 50.1746C119.862 49.9636 119.684 49.7987 119.452 49.6799C119.223 49.561 118.953 49.5016 118.641 49.5016C118.344 49.5016 118.066 49.5566 117.807 49.6665C117.552 49.7735 117.344 49.928 117.183 50.13C117.023 50.3291 116.937 50.5683 116.925 50.8477H115.592C115.607 50.3544 115.753 49.9206 116.029 49.5462C116.308 49.1717 116.677 48.8791 117.134 48.6681C117.592 48.4571 118.1 48.3516 118.659 48.3516C119.244 48.3516 119.749 48.466 120.174 48.6948C120.602 48.9207 120.932 49.2223 121.164 49.5996C121.398 49.977 121.514 50.3901 121.511 50.8387C121.514 51.3498 121.372 51.7837 121.083 52.1403C120.798 52.4968 120.418 52.736 119.942 52.8579V52.9292C120.548 53.0213 121.018 53.262 121.351 53.6512C121.687 54.0405 121.853 54.5234 121.85 55.0998C121.853 55.602 121.713 56.0522 121.431 56.4504C121.152 56.8486 120.77 57.162 120.286 57.3909C119.801 57.6167 119.247 57.7296 118.623 57.7296ZM124.703 55.2826L124.694 53.6557H124.926L127.654 50.7585H129.249L126.138 54.0569H125.929L124.703 55.2826ZM123.477 57.6048V48.4764H124.81V57.6048H123.477ZM127.801 57.6048L125.349 54.351L126.268 53.4195L129.437 57.6048H127.801Z" fill="#FAFAFA"/>
<path d="M142.509 49.2068L139.988 58.5746H139.162L141.684 49.2068H142.509ZM147.735 52.8439L146.925 53.0731C146.874 52.9381 146.799 52.807 146.699 52.6796C146.603 52.5497 146.47 52.4427 146.302 52.3587C146.134 52.2746 145.919 52.2326 145.656 52.2326C145.297 52.2326 144.998 52.3154 144.759 52.4809C144.522 52.644 144.403 52.8515 144.403 53.1037C144.403 53.3278 144.485 53.5048 144.648 53.6347C144.811 53.7646 145.065 53.8729 145.412 53.9595L146.283 54.1734C146.808 54.3008 147.199 54.4956 147.456 54.7579C147.713 55.0177 147.842 55.3527 147.842 55.7627C147.842 56.0989 147.745 56.3995 147.551 56.6644C147.36 56.9292 147.093 57.1381 146.749 57.2909C146.405 57.4437 146.005 57.5201 145.549 57.5201C144.951 57.5201 144.455 57.3902 144.063 57.1305C143.671 56.8707 143.423 56.4912 143.318 55.992L144.174 55.778C144.255 56.0938 144.41 56.3307 144.636 56.4886C144.865 56.6465 145.165 56.7255 145.534 56.7255C145.954 56.7255 146.288 56.6363 146.535 56.4581C146.785 56.2772 146.909 56.0607 146.909 55.8086C146.909 55.6048 146.838 55.4342 146.695 55.2966C146.553 55.1565 146.334 55.0521 146.038 54.9834L145.06 54.7541C144.523 54.6268 144.128 54.4294 143.876 54.162C143.626 53.892 143.502 53.5545 143.502 53.1495C143.502 52.8184 143.595 52.5255 143.78 52.2708C143.969 52.0161 144.225 51.8162 144.548 51.671C144.874 51.5258 145.244 51.4532 145.656 51.4532C146.237 51.4532 146.693 51.5806 147.024 51.8353C147.358 52.09 147.595 52.4262 147.735 52.8439Z" fill="#FAFAFA"/>
<g clip-path="url(#clip1_469_5819)">
<path d="M253.145 67.3284C253.145 66.8333 253.546 66.4319 254.041 66.4319H255.834C256.329 66.4319 256.731 66.8333 256.731 67.3284V78.9834H253.145V67.3284Z" fill="#9EFE00"/>
<path d="M259.633 66.4321C259.633 65.9369 260.034 65.5355 260.529 65.5355H262.322C262.818 65.5355 263.219 65.9369 263.219 66.4321V78.9836H259.633V66.4321Z" fill="#9EFE00"/>
<path d="M266.121 62.846C266.121 62.3509 266.522 61.9495 267.018 61.9495H268.811C269.306 61.9495 269.707 62.3509 269.707 62.846V78.9837H266.121V62.846Z" fill="#9EFE00"/>
<path d="M272.605 76.2939C272.605 75.7987 273.007 75.3973 273.502 75.3973H275.295C275.79 75.3973 276.192 75.7987 276.192 76.2939V78.9835H272.605V76.2939Z" fill="#9EFE00"/>
<path d="M279.09 75.3973C279.09 74.9021 279.491 74.5007 279.986 74.5007H281.779C282.275 74.5007 282.676 74.9021 282.676 75.3973V78.9834H279.09V75.3973Z" fill="#9EFE00"/>
<path d="M285.57 75.3973C285.57 74.9021 285.972 74.5007 286.467 74.5007H288.26C288.755 74.5007 289.156 74.9021 289.156 75.3973V78.9834H285.57V75.3973Z" fill="#9EFE00"/>
<path d="M292.062 68.225C292.062 67.7299 292.464 67.3285 292.959 67.3285H294.752C295.247 67.3285 295.649 67.7299 295.649 68.225V78.9835H292.062V68.225Z" fill="#9EFE00"/>
<path d="M298.551 64.6392C298.551 64.144 298.952 63.7426 299.447 63.7426H301.24C301.736 63.7426 302.137 64.144 302.137 64.6392V78.9837H298.551V64.6392Z" fill="#9EFE00"/>
<path d="M305.031 70.9148C305.031 70.4196 305.433 70.0182 305.928 70.0182H307.721C308.216 70.0182 308.617 70.4196 308.617 70.9148V78.9836H305.031V70.9148Z" fill="#9EFE00"/>
<path d="M311.516 70.9148C311.516 70.4196 311.917 70.0182 312.412 70.0182H314.205C314.7 70.0182 315.102 70.4196 315.102 70.9148V78.9836H311.516V70.9148Z" fill="#9EFE00"/>
<path d="M318 68.225C38018 67.7299 318.401 67.3285 318.897 67.3285H320.69C321.185 67.3285 321.586 67.7299 321.586 68.225V78.9835H318V68.225Z" fill="#9EFE00"/>
<path d="M324.488 68.2252C324.488 67.73 324.89 67.3286 325.385 67.3286H327.178C327.673 67.3286 328.074 67.73 328.074 68.2252V78.9836H324.488V68.2252Z" fill="#9EFE00"/>
<path d="M330.977 64.6392C330.977 64.144 331.378 63.7426 331.873 63.7426H333.666C334.161 63.7426 334.563 64.144 334.563 64.6392V78.9837H330.977V64.6392Z" fill="#9EFE00"/>
<path d="M337.457 74.5007C337.457 74.0055 337.858 73.6041 338.354 73.6041H340.147C340.642 73.6041 341.043 74.0055 341.043 74.5007V78.9833H337.457V74.5007Z" fill="#9EFE00"/>
<path d="M343.945 76.2939C343.945 75.7987 344.347 75.3973 344.842 75.3973H346.635C347.131 75.3973 347.531 75.7987 347.531 76.2939V78.9835H343.945V76.2939Z" fill="#9EFE00"/>
<path d="M350.43 66.4319C350.43 65.9367 350.83 65.5353 351.326 65.5353H353.119C353.614 65.5353 354.016 65.9367 354.016 66.4319V78.9834H350.43V66.4319Z" fill="#9EFE00"/>
<path d="M356.918 68.225C356.918 67.7299 357.32 67.3285 357.815 67.3285H359.608C360.102 67.3285 360.504 67.7299 360.504 68.225V78.9835H356.918V68.225Z" fill="#9EFE00"/>
<path d="M363.406 67.3284C363.406 66.8333 363.807 66.4319 364.303 66.4319H366.096C366.591 66.4319 366.992 66.8333 366.992 67.3284V78.9834H363.406V67.3284Z" fill="#9EFE00"/>
<path d="M369.887 71.8114C369.887 71.3162 370.288 70.9149 370.783 70.9149H372.576C373.071 70.9149 373.473 71.3162 373.473 71.8114V78.9837H369.887V71.8114Z" fill="#9EFE00"/>
<path d="M376.371 76.2939C376.371 75.7987 376.773 75.3973 377.268 75.3973H379.061C379.556 75.3973 379.957 75.7987 379.957 76.2939V78.9835H376.371V76.2939Z" fill="#9EFE00"/>
<path d="M382.855 67.3284C382.855 66.8333 383.256 66.4319 383.752 66.4319H385.545C386.04 66.4319 386.442 66.8333 386.442 67.3284V78.9834H382.855V67.3284Z" fill="#9EFE00"/>
<path d="M389.344 74.5007C389.344 74.0055 389.745 73.6041 390.24 73.6041H392.033C392.528 73.6041 392.93 74.0055 392.93 74.5007V78.9833H389.344V74.5007Z" fill="#9EFE00"/>
<path d="M395.832 67.3284C395.832 66.8333 396.234 66.4319 396.729 66.4319H398.522C399.017 66.4319 399.418 66.8333 399.418 67.3284V78.9834H395.832V67.3284Z" fill="#9EFE00"/>
<path d="M402.312 61.9494C402.312 61.4542 402.714 61.0529 403.209 61.0529H405.002C405.497 61.0529 405.899 61.4542 405.899 61.9494V78.9836H402.312V61.9494Z" fill="#9EFE00"/>
<path d="M408.801 68.225C408.801 67.7299 409.202 67.3285 409.697 67.3285H411.49C411.985 67.3285 412.387 67.7299 412.387 68.225V78.9835H408.801V68.225Z" fill="#9EFE00"/>
<path d="M415.289 72.708C415.289 72.2128 415.69 71.8115 416.186 71.8115H417.979C418.474 71.8115 418.875 72.2128 418.875 72.708V78.9838H415.289V72.708Z" fill="#9EFE00"/>
<path d="M421.773 69.1216C421.773 68.6265 422.175 68.2251 422.67 68.2251H424.463C424.958 68.2251 425.36 68.6265 425.36 69.1216V78.9835H421.773V69.1216Z" fill="#9EFE00"/>
<path d="M428.258 67.3284C428.258 66.8333 428.659 66.4319 429.154 66.4319H430.947C431.443 66.4319 431.844 66.8333 431.844 67.3284V78.9834H428.258V67.3284Z" fill="#9EFE00"/>
<path d="M434.742 73.6045C434.742 73.1094 435.143 72.708 435.639 72.708H437.432C437.927 72.708 438.328 73.1094 438.328 73.6045V78.9838H434.742V73.6045Z" fill="#9EFE00"/>
<path d="M441.227 65.5358C441.227 65.0406 441.628 64.6392 442.123 64.6392H443.916C444.411 64.6392 444.813 65.0406 444.813 65.5358V78.9838H441.227V65.5358Z" fill="#9EFE00"/>
<path d="M447.711 74.5007C447.711 74.0055 448.113 73.6041 448.607 73.6041H450.401C450.896 73.6041 451.297 74.0055 451.297 74.5007V78.9833H447.711V74.5007Z" fill="#9EFE00"/>
<path d="M454.199 76.2939C454.199 75.7987 454.601 75.3973 455.096 75.3973H456.889C457.384 75.3973 457.785 75.7987 457.785 76.2939V78.9835H454.199V76.2939Z" fill="#9EFE00"/>
<path d="M460.688 70.9148C460.688 70.4196 461.089 70.0182 461.584 70.0182H463.377C463.873 70.0182 464.274 70.4196 464.274 70.9148V78.9836H460.688V70.9148Z" fill="#9EFE00"/>
<path d="M467.168 61.9494C467.168 61.4542 467.569 61.0529 468.065 61.0529H469.858C470.352 61.0529 470.754 61.4542 470.754 61.9494V78.9836H467.168V61.9494Z" fill="#9EFE00"/>
<path d="M473.656 74.5009C473.656 74.0057 474.058 73.6044 474.553 73.6044H476.346C476.841 73.6044 477.242 74.0057 477.242 74.5009V78.9836H473.656V74.5009Z" fill="#9EFE00"/>
<path d="M480.145 62.846C480.145 62.3509 480.546 61.9495 481.041 61.9495H482.834C483.33 61.9495 483.731 62.3509 483.731 62.846V78.9837H480.145V62.846Z" fill="#9EFE00"/>
<path d="M486.629 67.3284C486.629 66.8333 487.03 66.4319 487.525 66.4319H489.319C489.813 66.4319 490.215 66.8333 490.215 67.3284V78.9834H486.629V67.3284Z" fill="#9EFE00"/>
<path d="M493.113 67.3284C493.113 66.8333 493.515 66.4319 494.01 66.4319H495.803C496.298 66.4319 496.699 66.8333 496.699 67.3284V78.9834H493.113V67.3284Z" fill="#9EFE00"/>
<path d="M499.598 66.4319C499.598 65.9367 499.998 65.5353 500.494 65.5353H502.287C502.782 65.5353 503.184 65.9367 503.184 66.4319V78.9834H499.598V66.4319Z" fill="#9EFE00"/>
<path d="M506.086 65.5355C506.086 65.0404 506.488 64.639 506.982 64.639H508.776C509.27 64.639 509.672 65.0404 509.672 65.5355V78.9836H506.086V65.5355Z" fill="#9EFE00"/>
</g>
</g>
<rect x="18.7022" y="1.43325" width="489.509" height="77.9987" rx="10.3102" stroke="#545454" stroke-width="0.896537"/>
</g>
<defs>
<filter id="filter0_dd_469_5819" x="0.32317" y="0.984984" width="526.268" height="114.757" filterUnits="userSpaceOnUse" color-interpolation-filters="sRGB">
<feFlood flood-opacity="0" result="BackgroundImageFix"/>
<feColorMatrix in="SourceAlpha" type="matrix" values="0 0 0 0 0 0 0 0 0 0 0 0 0 0 0 0 0 0 127 0" result="hardAlpha"/>
<feMorphology radius="5.37922" operator="erode" in="SourceAlpha" result="effect1_dropShadow_469_5819"/>
<feOffset dy="7.17229"/>
<feGaussianBlur stdDeviation="4.48268"/>
<feComposite in2="hardAlpha" operator="out"/>
<feColorMatrix type="matrix" values="0 0 0 0 0 0 0 0 0 0 0 0 0 0 0 0 0 0 0.25 0"/>
<feBlend mode="normal" in2="BackgroundImageFix" result="effect1_dropShadow_469_5819"/>
<feColorMatrix in="SourceAlpha" type="matrix" values="0 0 0 0 0 0 0 0 0 0 0 0 0 0 0 0 0 0 127 0" result="hardAlpha"/>
<feMorphology radius="4.48268" operator="erode" in="SourceAlpha" result="effect2_dropShadow_469_5819"/>
<feOffset dy="17.9307"/>
<feGaussianBlur stdDeviation="11.2067"/>
<feComposite in2="hardAlpha" operator="out"/>
<feColorMatrix type="matrix" values="0 0 0 0 0 0 0 0 0 0 0 0 0 0 0 0 0 0 0.25 0"/>
<feBlend mode="normal" in2="effect1_dropShadow_469_5819" result="effect2_dropShadow_469_5819"/>
<feBlend mode="normal" in="SourceGraphic" in2="effect2_dropShadow_469_5819" result="shape"/>
</filter>
<clipPath id="clip0_469_5819">
<rect x="18.2539" y="0.984985" width="490.406" height="78.8952" rx="10.7584" fill="white"/>
</clipPath>
<clipPath id="clip1_469_5819">
<rect width="271.651" height="17.9307" fill="white" transform="translate(253.148 61.0529)"/>
</clipPath>
</defs>
</svg>
