<svg width="48" height="48" viewBox="0 0 48 49" fill="none" xmlns="http://www.w3.org/2000/svg">
<g id="Apple">
<g id="Vector">
<path d="M30.2231 6.38965C30.3741 8.36166 29.7505 10.3149 28.4846 11.8345C27.8785 12.5884 27.1091 13.1949 26.2346 13.6084C25.36 14.0219 24.4031 14.2316 23.4358 14.2216C23.3741 13.2733 23.4998 12.3221 23.806 11.4225C24.1121 10.5228 24.5925 9.69227 25.2198 8.97838C26.5027 7.51707 28.2892 6.59277 30.2231 6.38965Z" fill="black"/>
<path d="M33.7508 20.7424C33.1081 21.8748 32.7623 23.1514 32.7455 24.4533C32.7471 25.9178 33.1798 27.3494 33.9895 28.5697C34.7993 29.79 35.9503 30.7449 37.2991 31.3153C36.7688 33.0381 35.9694 34.6661 34.9306 36.1392C33.5355 38.2261 32.0728 40.2649 29.7511 40.3026C28.647 40.3281 27.9016 40.0106 27.125 39.6797C26.3149 39.3347 25.4707 38.975 24.1497 38.975C22.7487 38.975 21.8668 39.3462 21.0162 39.7042C20.2811 40.0136 19.5694 40.3131 18.5664 40.3547C16.3554 40.4366 14.6657 38.1273 13.2198 36.06C10.3301 31.8381 8.07991 24.162 11.0966 18.939C11.793 17.6875 12.8017 16.6378 14.0244 15.8921C15.2472 15.1464 16.6422 14.7302 18.0736 14.6839C19.3276 14.6581 20.5309 15.1414 21.5859 15.5652C22.3927 15.8893 23.1127 16.1785 23.7023 16.1785C24.2207 16.1785 24.9206 15.9007 25.7363 15.5769C27.0213 15.0669 28.5936 14.4429 30.1958 14.6111C31.4237 14.6495 32.6258 14.9737 33.7065 15.558C34.7872 16.1422 35.7168 16.9704 36.4214 17.9767C35.3122 18.6587 34.3935 19.6101 33.7508 20.7424Z" fill="black"/>
</g>
</g>
</svg>
