<svg width="48" height="49" viewBox="0 0 48 49" fill="none" xmlns="http://www.w3.org/2000/svg">
<g id="Discord">
<path id="Vector" d="M37.8617 11.8858C35.3122 10.716 32.5783 9.8541 29.7198 9.36047C29.6678 9.35094 29.6157 9.37475 29.5889 9.42237C29.2373 10.0477 28.8479 10.8636 28.5751 11.5048C25.5007 11.0445 22.4419 11.0445 19.4305 11.5048C19.1578 10.8493 18.7541 10.0477 18.401 9.42237C18.3742 9.37634 18.3221 9.35253 18.2701 9.36047C15.4132 9.85251 12.6793 10.7144 10.1282 11.8858C10.1062 11.8953 10.0872 11.9111 10.0746 11.9318C4.88899 19.6791 3.46842 27.2359 4.1653 34.699C4.16845 34.7355 4.18895 34.7705 4.21733 34.7927C7.63868 37.3053 10.9528 38.8306 14.2055 39.8417C14.2575 39.8575 14.3127 39.8385 14.3458 39.7956C15.1152 38.7449 15.8011 37.637 16.3891 36.472C16.4238 36.4037 16.3907 36.3228 16.3198 36.2958C15.2319 35.8831 14.196 35.38 13.1996 34.8086C13.1207 34.7625 13.1144 34.6498 13.1869 34.5959C13.3966 34.4387 13.6063 34.2752 13.8066 34.1102C13.8428 34.08 13.8933 34.0737 13.9359 34.0927C20.4822 37.0815 27.5692 37.0815 34.0383 34.0927C34.0808 34.0721 34.1313 34.0784 34.1691 34.1086C34.3694 34.2737 34.5791 34.4387 34.7903 34.5959C34.8629 34.6498 34.8581 34.7625 34.7793 34.8086C33.7829 35.3911 32.747 35.8831 31.6575 36.2942C31.5866 36.3212 31.555 36.4037 31.5897 36.472C32.1904 37.6354 32.8763 38.7433 33.6315 39.7941C33.663 39.8385 33.7198 39.8575 33.7718 39.8417C37.0402 38.8306 40.3544 37.3053 43.7757 34.7927C43.8057 34.7705 43.8246 34.7371 43.8278 34.7006C44.6618 26.0724 42.4308 18.5775 37.9137 11.9334C37.9027 11.9111 37.8838 11.8953 37.8617 11.8858ZM17.3667 30.1548C15.3959 30.1548 13.7719 28.3453 13.7719 26.1232C13.7719 23.9011 15.3643 22.0917 17.3667 22.0917C19.3848 22.0917 20.993 23.917 20.9615 26.1232C20.9615 28.3453 19.369 30.1548 17.3667 30.1548ZM30.6579 30.1548C28.6871 30.1548 27.0631 28.3453 27.0631 26.1232C27.0631 23.9011 28.6556 22.0917 30.6579 22.0917C32.676 22.0917 34.2842 23.917 34.2527 26.1232C34.2527 28.3453 32.676 30.1548 30.6579 30.1548Z" fill="#5865F2"/>
</g>
</svg>
