<svg width="48" height="49" viewBox="0 0 48 49" fill="none" xmlns="http://www.w3.org/2000/svg">
<g id="Figma">
<path id="Vector" d="M24 24.6191C24 21.3055 26.6863 18.6191 30 18.6191C33.3137 18.6191 36 21.3055 36 24.6191C36 27.9329 33.3137 30.6191 30 30.6191C26.6863 30.6191 24 27.9329 24 24.6191Z" fill="#1ABCFE"/>
<path id="Vector_2" d="M12 36.6191C12 33.3055 14.6863 30.6191 18 30.6191H24V36.6191C24 39.9329 21.3137 42.6191 18 42.6191C14.6863 42.6191 12 39.9329 12 36.6191Z" fill="#0ACF83"/>
<path id="Vector_3" d="M24 6.61914V18.6191H30C33.3137 18.6191 36 15.9328 36 12.6191C36 9.30543 33.3137 6.61914 30 6.61914H24Z" fill="#FF7262"/>
<path id="Vector_4" d="M12 12.6191C12 15.9328 14.6863 18.6191 18 18.6191H24V6.61914H18C14.6863 6.61914 12 9.30543 12 12.6191Z" fill="#F24E1E"/>
<path id="Vector_5" d="M12 24.6191C12 27.9329 14.6863 30.6191 18 30.6191H24V18.6191H18C14.6863 18.6191 12 21.3055 12 24.6191Z" fill="#A259FF"/>
</g>
</svg>
