<svg width="48" height="46" viewBox="0 0 34 40" fill="none" xmlns="http://www.w3.org/2000/svg">
<g id="Group 4">
<path id="Vector" fill-rule="evenodd" clip-rule="evenodd" d="M17.9983 0.619141C8.05881 0.619141 0 8.67795 0 18.6197C0 26.5724 5.15706 33.3185 12.3098 35.6998C13.2104 35.8644 13.5385 35.3086 13.5385 34.8312C13.5385 34.4047 13.5231 33.2721 13.5142 31.7704C8.50744 32.8577 7.45106 29.357 7.45106 29.357C6.63225 27.2785 5.4521 26.7249 5.4521 26.7249C3.8178 25.6078 5.57586 25.6299 5.57586 25.6299C7.38255 25.758 8.33285 27.4852 8.33285 27.4852C9.93843 30.2355 12.5462 29.441 13.5717 28.9813C13.7352 27.8178 14.1993 27.0244 14.7143 26.5746C10.7175 26.1205 6.51512 24.5757 6.51512 17.6782C6.51512 15.7135 7.2168 14.1068 8.36821 12.8482C8.18257 12.393 7.56487 10.5631 8.54391 8.08456C8.54391 8.08456 10.0556 7.60057 13.4943 9.92992C14.9297 9.53101 16.4701 9.33101 18.0006 9.32438C19.5288 9.33101 21.0692 9.53101 22.5068 9.92992C25.9433 7.60057 27.4517 8.08456 27.4517 8.08456C28.434 10.5631 27.8163 12.393 27.6307 12.8482C28.7843 14.1068 29.4816 15.7135 29.4816 17.6782C29.4816 24.5934 25.2726 26.1149 21.2625 26.5603C21.909 27.1161 22.4847 28.2145 22.4847 29.8941C22.4847 32.2997 22.4626 34.2412 22.4626 34.8312C22.4626 35.313 22.7863 35.8733 23.7002 35.6976C30.8474 33.3119 36 26.5702 36 18.6197C36 8.67795 27.9401 0.619141 17.9983 0.619141Z" fill="black"/>
</g>
</svg>
