<svg width="48" height="47" viewBox="0 0 32 40" fill="none" xmlns="http://www.w3.org/2000/svg">
<g id="Group">
<path id="Shape" fill-rule="evenodd" clip-rule="evenodd" d="M33.32 18.0056C33.32 16.8001 33.2118 15.641 33.0109 14.5283H17V21.1042H26.1491C25.755 23.2292 24.5573 25.0297 22.7568 26.2352V30.5006H28.2509C31.4655 27.5411 33.32 23.1829 33.32 18.0056Z" fill="#4285F4"/>
<path id="Shape_2" fill-rule="evenodd" clip-rule="evenodd" d="M17.0004 34.6196C21.5904 34.6196 25.4386 33.0974 28.2514 30.501L22.7573 26.2355C21.235 27.2555 19.2877 27.8583 17.0004 27.8583C12.5727 27.8583 8.82497 24.8678 7.48815 20.8496H1.80859V25.2542C4.60587 30.8101 10.355 34.6196 17.0004 34.6196Z" fill="#34A853"/>
<path id="Shape_3" fill-rule="evenodd" clip-rule="evenodd" d="M7.48774 20.8489C7.14774 19.8289 6.95456 18.7394 6.95456 17.6189C6.95456 16.4985 7.14774 15.4089 7.48774 14.3889V9.98438H1.80818C0.656819 12.2794 0 14.8757 0 17.6189C0 20.3621 0.656819 22.9585 1.80818 25.2535L7.48774 20.8489Z" fill="#FBBC05"/>
<path id="Shape_4" fill-rule="evenodd" clip-rule="evenodd" d="M17.0004 7.38052C19.4963 7.38052 21.7373 8.23824 23.4991 9.92279L28.375 5.04688C25.4309 2.30369 21.5827 0.619141 17.0004 0.619141C10.355 0.619141 4.60587 4.42869 1.80859 9.98461L7.48815 14.3892C8.82497 10.371 12.5727 7.38052 17.0004 7.38052Z" fill="#EA4335"/>
</g>
</svg>
