<svg width="48" height="48" viewBox="0 0 48 49" fill="none" xmlns="http://www.w3.org/2000/svg">
<path d="M7 10.0325C7 8.69962 8.08048 7.61914 9.41333 7.61914H38.5867C39.9195 7.61914 41 8.69962 41 10.0325V39.2057C41 40.5386 39.9195 41.619 38.5867 41.619H9.41333C8.08049 41.619 7 40.5386 7 39.2057V10.0325Z" fill="#0A66C2"/>
<path d="M14.6331 18.1783C16.262 18.1783 17.5826 16.8577 17.5826 15.2288C17.5826 13.5998 16.262 12.2793 14.6331 12.2793C13.0041 12.2793 11.6836 13.5998 11.6836 15.2288C11.6836 16.8577 13.0041 18.1783 14.6331 18.1783Z" fill="white"/>
<path d="M20.2838 20.358H25.1721V22.5974C25.1721 22.5974 26.4986 19.9444 30.1078 19.9444C33.3273 19.9444 35.9944 21.5304 35.9944 26.3648V36.5591H30.9288V27.6001C30.9288 24.7482 29.4063 24.4346 28.2461 24.4346C25.8383 24.4346 25.4261 26.5114 25.4261 27.9721V36.5591H20.2838V20.358Z" fill="white"/>
<path d="M12.0619 20.3581H17.2042V36.5591H12.0619V20.3581Z" fill="white"/>
</svg>
