<svg width="48" height="49" viewBox="0 0 48 45" fill="none" xmlns="http://www.w3.org/2000/svg">
<g id="Reddit">
<path id="Vector" d="M24 42.6191C14.0586 42.6191 6 34.5605 6 24.6191C6 14.6777 14.0586 6.61914 24 6.61914C33.9414 6.61914 42 14.6777 42 24.6191C42 34.5605 33.9414 42.6191 24 42.6191ZM36.006 24.6191C35.9875 24.1125 35.8228 23.622 35.5318 23.2068C35.2408 22.7916 34.8359 22.4695 34.366 22.2792C33.896 22.089 33.3811 22.0387 32.8832 22.1345C32.3853 22.2303 31.9258 22.4681 31.56 22.8191C29.5124 21.4272 27.1054 20.6582 24.63 20.6051L25.8 14.9891L29.652 15.7991C29.6978 16.2248 29.8938 16.6202 30.2049 16.9144C30.5159 17.2086 30.9216 17.3822 31.3492 17.4042C31.7767 17.4262 32.1981 17.2951 32.5377 17.0344C32.8773 16.7737 33.1129 16.4005 33.2021 15.9818C33.2914 15.5631 33.2284 15.1263 33.0246 14.7498C32.8208 14.3732 32.4895 14.0817 32.0901 13.9275C31.6908 13.7732 31.2495 13.7664 30.8455 13.9082C30.4416 14.05 30.1014 14.3311 29.886 14.7011L25.476 13.8191C25.4039 13.8033 25.3293 13.802 25.2567 13.8152C25.184 13.8284 25.1147 13.8559 25.0528 13.896C24.9908 13.9362 24.9375 13.9883 24.8958 14.0493C24.8541 14.1102 24.825 14.1788 24.81 14.2511L23.478 20.4971C20.9722 20.5349 18.5321 21.3045 16.458 22.7111C16.1805 22.4501 15.8496 22.2524 15.4881 22.132C15.1267 22.0115 14.7433 21.971 14.3647 22.0134C13.9861 22.0558 13.6212 22.1801 13.2953 22.3775C12.9695 22.5749 12.6904 22.8409 12.4776 23.1569C12.2647 23.4729 12.1231 23.8314 12.0625 24.2075C12.002 24.5837 12.024 24.9685 12.1269 25.3353C12.2299 25.7022 12.4114 26.0422 12.6588 26.3319C12.9063 26.6216 13.2138 26.8541 13.56 27.0131C13.5397 27.2768 13.5397 27.5415 13.56 27.8051C13.56 31.8371 18.258 35.1131 24.054 35.1131C29.85 35.1131 34.548 31.8371 34.548 27.8051C34.5683 27.5415 34.5683 27.2768 34.548 27.0131C34.9922 26.7924 35.3648 26.4504 35.6228 26.0268C35.8808 25.6031 36.0137 25.1151 36.006 24.6191ZM18.006 26.4191C18.006 25.9417 18.1956 25.4839 18.5332 25.1463C18.8708 24.8088 19.3286 24.6191 19.806 24.6191C20.2834 24.6191 20.7412 24.8088 21.0788 25.1463C21.4164 25.4839 21.606 25.9417 21.606 26.4191C21.606 26.8965 21.4164 27.3544 21.0788 27.6919C20.7412 28.0295 20.2834 28.2191 19.806 28.2191C19.3286 28.2191 18.8708 28.0295 18.5332 27.6919C18.1956 27.3544 18.006 26.8965 18.006 26.4191ZM28.464 31.3691C27.1869 32.3315 25.6157 32.8213 24.018 32.7551C22.4203 32.8213 20.8491 32.3315 19.572 31.3691C19.4955 31.2759 19.4563 31.1575 19.4623 31.037C19.4682 30.9165 19.5187 30.8025 19.604 30.7172C19.6893 30.6318 19.8033 30.5813 19.9238 30.5754C20.0443 30.5695 20.1627 30.6086 20.256 30.6851C21.3382 31.4789 22.6592 31.879 24 31.8191C25.3424 31.8921 26.6696 31.5048 27.762 30.7211C27.808 30.6696 27.8642 30.628 27.927 30.5991C27.9897 30.5702 28.0578 30.5544 28.1269 30.5529C28.196 30.5514 28.2647 30.5641 28.3287 30.5903C28.3926 30.6164 28.4506 30.6555 28.4988 30.705C28.5471 30.7545 28.5846 30.8133 28.6092 30.878C28.6337 30.9426 28.6447 31.0116 28.6414 31.0806C28.6381 31.1497 28.6207 31.2173 28.5902 31.2793C28.5597 31.3413 28.5167 31.3964 28.464 31.4411V31.3691ZM28.14 28.2911C27.784 28.2911 27.436 28.1856 27.14 27.9878C26.844 27.79 26.6133 27.5089 26.477 27.18C26.3408 26.8511 26.3051 26.4891 26.3746 26.14C26.444 25.7908 26.6155 25.4701 26.8672 25.2183C27.1189 24.9666 27.4397 24.7952 27.7888 24.7257C28.138 24.6563 28.4999 24.6919 28.8288 24.8282C29.1577 24.9644 29.4389 25.1951 29.6366 25.4911C29.8344 25.7871 29.94 26.1351 29.94 26.4911C29.9498 26.735 29.9098 26.9784 29.8226 27.2063C29.7354 27.4343 29.6028 27.6422 29.4327 27.8173C29.2627 27.9924 29.0588 28.1311 28.8335 28.2249C28.6081 28.3187 28.3661 28.3658 28.122 28.3631L28.14 28.2911Z" fill="#FC471E"/>
<path id="Vector_2" d="M36.0042 24.6196C35.9857 24.1129 35.821 23.6224 35.53 23.2073C35.239 22.7921 34.8341 22.4699 34.3642 22.2797C33.8942 22.0894 33.3793 22.0392 32.8814 22.135C32.3835 22.2308 31.924 22.4685 31.5582 22.8196C29.5106 21.4277 27.1036 20.6587 24.6282 20.6056L25.7982 14.9896L29.6502 15.7996C29.696 16.2253 29.892 16.6207 30.2031 16.9149C30.5141 17.209 30.9198 17.3827 31.3474 17.4047C31.7749 17.4267 32.1963 17.2956 32.5359 17.0349C32.8755 16.7742 33.1111 16.401 33.2003 15.9823C33.2896 15.5635 33.2266 15.1267 33.0228 14.7502C32.819 14.3737 32.4877 14.0822 32.0883 13.9279C31.689 13.7737 31.2477 13.7669 30.8437 13.9087C30.4398 14.0505 30.0996 14.3316 29.8842 14.7016L25.4742 13.8196C25.4021 13.8038 25.3275 13.8024 25.2549 13.8156C25.1822 13.8288 25.1129 13.8563 25.051 13.8965C24.989 13.9367 24.9357 13.9888 24.894 14.0497C24.8523 14.1107 24.8232 14.1793 24.8082 14.2516L23.4762 20.4976C20.9704 20.5354 18.5303 21.3049 16.4562 22.7116C16.1787 22.4505 15.8478 22.2529 15.4863 22.1324C15.1249 22.0119 14.7415 21.9715 14.3629 22.0139C13.9843 22.0563 13.6194 22.1805 13.2935 22.378C12.9677 22.5754 12.6886 22.8413 12.4758 23.1573C12.2629 23.4733 12.1213 23.8318 12.0607 24.208C12.0002 24.5841 12.0222 24.969 12.1251 25.3358C12.2281 25.7026 12.4096 26.0427 12.657 26.3324C12.9045 26.6221 13.212 26.8545 13.5582 27.0136C13.5379 27.2772 13.5379 27.542 13.5582 27.8056C13.5582 31.8376 18.2562 35.1136 24.0522 35.1136C29.8482 35.1136 34.5462 31.8376 34.5462 27.8056C34.5665 27.542 34.5665 27.2772 34.5462 27.0136C34.9904 26.7928 35.363 26.4509 35.621 26.0272C35.879 25.6036 36.0119 25.1156 36.0042 24.6196ZM18.0042 26.4196C18.0042 25.9422 18.1938 25.4844 18.5314 25.1468C18.869 24.8092 19.3268 24.6196 19.8042 24.6196C20.2816 24.6196 20.7394 24.8092 21.077 25.1468C21.4146 25.4844 21.6042 25.9422 21.6042 26.4196C21.6042 26.897 21.4146 27.3548 21.077 27.6924C20.7394 28.03 20.2816 28.2196 19.8042 28.2196C19.3268 28.2196 18.869 28.03 18.5314 27.6924C18.1938 27.3548 18.0042 26.897 18.0042 26.4196ZM28.4622 31.3696C27.1851 32.332 25.6139 32.8218 24.0162 32.7556C22.4185 32.8218 20.8473 32.332 19.5702 31.3696C19.4937 31.2763 19.4545 31.1579 19.4605 31.0374C19.4664 30.9169 19.5169 30.8029 19.6022 30.7176C19.6875 30.6323 19.8015 30.5818 19.922 30.5759C20.0425 30.5699 20.1609 30.6091 20.2542 30.6856C21.3364 31.4794 22.6574 31.8795 23.9982 31.8196C25.3406 31.8926 26.6678 31.5053 27.7602 30.7216C27.8062 30.67 27.8624 30.6285 27.9252 30.5996C27.9879 30.5706 28.056 30.5549 28.1251 30.5534C28.1942 30.5519 28.2629 30.5646 28.3269 30.5907C28.3908 30.6169 28.4488 30.6559 28.497 30.7054C28.5453 30.7549 28.5828 30.8138 28.6074 30.8784C28.6319 30.9431 28.6429 31.012 28.6396 31.0811C28.6363 31.1501 28.6189 31.2178 28.5884 31.2798C28.5579 31.3418 28.5149 31.3969 28.4622 31.4416V31.3696ZM28.1382 28.2916C27.7822 28.2916 27.4342 28.186 27.1382 27.9882C26.8422 27.7905 26.6115 27.5093 26.4752 27.1804C26.339 26.8515 26.3033 26.4896 26.3728 26.1404C26.4422 25.7913 26.6137 25.4705 26.8654 25.2188C27.1171 24.9671 27.4379 24.7956 27.787 24.7262C28.1362 24.6567 28.4981 24.6924 28.827 24.8286C29.1559 24.9649 29.4371 25.1956 29.6348 25.4916C29.8326 25.7876 29.9382 26.1356 29.9382 26.4916C29.948 26.7355 29.908 26.9788 29.8208 27.2068C29.7336 27.4348 29.601 27.6426 29.4309 27.8177C29.2609 27.9928 29.057 28.1315 28.8317 28.2254C28.6063 28.3192 28.3643 28.3662 28.1202 28.3636L28.1382 28.2916Z" fill="white"/>
</g>
</svg>
