<svg width="48" height="49" viewBox="0 0 48 49" fill="none" xmlns="http://www.w3.org/2000/svg">
<g id="Spotify">
<circle id="Circle" cx="24" cy="24.6191" r="18" fill="#1ED760"/>
<path id="Vector" d="M33.6186 22.6835C28.1848 19.4364 19.2217 19.1378 14.0345 20.7222C13.2015 20.9764 12.3206 20.5032 12.0682 19.665C11.8158 18.8265 12.2856 17.9407 13.1192 17.6859C19.0737 15.8669 28.9725 16.2184 35.228 19.9549C35.9772 20.4023 36.223 21.376 35.779 22.1287C35.3345 22.8826 34.3661 23.1312 33.6186 22.6835ZM33.4407 27.493C33.0594 28.1154 32.2506 28.3107 31.6328 27.9285C27.1027 25.1265 20.1948 24.3149 14.8352 25.9517C14.1402 26.1632 13.406 25.7688 13.1951 25.0708C12.9855 24.3714 13.3777 23.6341 14.0713 23.4214C20.194 21.552 27.8052 22.4575 33.0083 25.6749C33.6261 26.0577 33.8205 26.8722 33.4407 27.493ZM31.378 32.1118C31.0751 32.6118 30.4283 32.7683 29.9333 32.4637C25.9746 30.0292 20.9921 29.4794 15.1243 30.8281C14.5589 30.9585 13.9954 30.602 13.8664 30.033C13.737 29.4642 14.0898 28.8971 14.6567 28.7673C21.0779 27.2902 26.5861 27.9258 31.0294 30.6579C31.5247 30.9623 31.6808 31.6136 31.378 32.1118Z" fill="white"/>
</g>
</svg>
