<svg width="48" height="49" viewBox="0 0 48 49" fill="none" xmlns="http://www.w3.org/2000/svg">
<g id="TikTok">
<path id="vector" d="M14.5652 29.3596C14.7605 27.7422 15.4238 26.8367 16.6739 25.9084C18.4624 24.6511 20.6966 25.3623 20.6966 25.3623V21.1433C21.2398 21.1295 21.7832 21.1617 22.3204 21.2396V26.6689C22.3204 26.6689 20.0869 25.9578 18.2983 27.2156C17.0489 28.1433 16.3843 29.0495 16.1896 30.6669C16.1835 31.5451 16.3483 32.6931 17.1073 33.6858C16.9196 33.5896 16.7284 33.4799 16.5335 33.3569C14.8616 32.2342 14.557 30.5499 14.5652 29.3596ZM31.5454 13.3425C30.315 11.9943 29.8498 10.633 29.6815 9.67676H31.2293C31.2293 9.67676 30.9207 12.1841 33.1698 14.6498L33.201 14.6829C32.5949 14.3016 32.039 13.8516 31.5454 13.3425ZM39.0015 17.1649V22.4851C39.0015 22.4851 37.0264 22.4077 35.5648 22.0359C33.5239 21.5158 32.2121 20.7182 32.2121 20.7182C32.2121 20.7182 31.306 20.1494 31.2327 20.1097V31.0959C31.2327 31.7076 31.0652 33.2353 30.5545 34.5094C29.8877 36.1762 28.8588 37.2703 28.6696 37.4939C28.6696 37.4939 27.4182 38.9728 25.2105 39.9687C23.2204 40.8671 21.4732 40.8444 20.951 40.8671C20.951 40.8671 17.9307 40.9867 15.2129 39.2205C14.6252 38.8312 14.0766 38.3903 13.5742 37.9035L13.5878 37.9132C16.3063 39.6794 19.3259 39.5598 19.3259 39.5598C19.8488 39.5371 21.596 39.5598 23.5853 38.6614C25.791 37.6655 27.0445 36.1866 27.0445 36.1866C27.2317 35.963 28.2653 34.8689 28.9294 33.2015C29.4387 31.928 29.6076 30.3997 29.6076 29.788V18.8031C29.6809 18.8434 30.5863 19.4122 30.5863 19.4122C30.5863 19.4122 31.8988 20.2105 33.9397 20.7299C35.402 21.1017 37.3764 21.1791 37.3764 21.1791V17.0102C38.052 17.1617 38.6278 17.2026 39.0015 17.1649Z" fill="#FD355A"/>
<path id="vector_2" d="M37.3761 17.0102V21.1778C37.3761 21.1778 35.4017 21.1004 33.9393 20.7286C31.8984 20.2085 30.586 19.4109 30.586 19.4109C30.586 19.4109 29.6805 18.8421 29.6073 18.8018V29.7893C29.6073 30.401 29.4397 31.9293 28.929 33.2028C28.2623 34.8702 27.2334 35.9643 27.0441 36.1879C27.0441 36.1879 25.7921 37.6668 23.585 38.6627C21.5957 39.5611 19.8485 39.5384 19.3255 39.5611C19.3255 39.5611 16.3059 39.6807 13.5874 37.9145L13.5739 37.9048C13.2869 37.6268 13.0167 37.3334 12.7647 37.0259C11.8972 35.9682 11.3655 34.7175 11.2318 34.3606C11.2316 34.3591 11.2316 34.3575 11.2318 34.356C11.0168 33.7358 10.5651 32.2465 10.6268 30.804C10.736 28.259 11.6313 26.6969 11.868 26.3055C12.495 25.2384 13.3104 24.2836 14.2779 23.4836C15.1317 22.7933 16.0995 22.2441 17.1415 21.8584C18.268 21.4056 19.4743 21.1629 20.6956 21.1433V25.3623C20.6956 25.3623 18.4614 24.6537 16.6735 25.9084C15.4235 26.8367 14.7602 27.7422 14.5648 29.3596C14.5567 30.5499 14.8612 32.2342 16.5318 33.3575C16.7267 33.481 16.9179 33.5907 17.1056 33.6864C17.3974 34.0658 17.7526 34.3964 18.1569 34.6648C19.7888 35.6978 21.1562 35.7699 22.9047 35.099C24.0706 34.6505 24.9483 33.6396 25.3553 32.5196C25.611 31.8201 25.6076 31.1161 25.6076 30.388V9.67676H29.6771C29.8453 10.633 30.3106 11.9943 31.541 13.3425C32.0346 13.8516 32.5905 14.3016 33.1966 14.6829C33.3757 14.8682 34.2913 15.7842 35.4668 16.3465C36.0746 16.6371 36.7152 16.8598 37.3761 17.0102Z" fill="black"/>
<path id="vector_3" d="M9.61328 33.0654V33.0687L9.71426 33.3424C9.70266 33.3105 9.66514 33.2136 9.61328 33.0654Z" fill="#33F3ED"/>
<path id="vector_4" d="M17.141 21.8589C16.099 22.2446 15.1312 22.7938 14.2774 23.4841C13.3095 24.2859 12.4944 25.2427 11.8682 26.3119C11.6315 26.702 10.7362 28.2654 10.627 30.8104C10.5653 32.2529 11.017 33.7422 11.232 34.3624C11.2318 34.3639 11.2318 34.3654 11.232 34.3669C11.3677 34.7206 11.8974 35.9713 12.7649 37.0322C13.0169 37.3398 13.287 37.6332 13.574 37.9111C12.6545 37.3016 11.8343 36.5646 11.1405 35.7243C10.2804 34.6757 9.75002 33.438 9.61165 33.0726C9.61149 33.07 9.61149 33.0674 9.61165 33.0648V33.0603C9.39597 32.4408 8.94289 30.9508 9.00597 29.5064C9.11517 26.9613 10.0105 25.3992 10.2472 25.0079C10.8731 23.9385 11.6883 22.9817 12.6564 22.1801C13.51 21.4895 14.4778 20.9403 15.52 20.5549C16.17 20.2964 16.8472 20.1057 17.5398 19.9861C18.5837 19.8115 19.6497 19.7963 20.6985 19.9412V21.1439C19.476 21.163 18.2685 21.4057 17.141 21.8589Z" fill="#33F3ED"/>
<path id="vector_5" d="M29.6797 9.67708H25.6102V30.389C25.6102 31.117 25.6102 31.8191 25.3579 32.5205C24.9468 33.64 24.0726 34.6508 22.9073 35.0994C21.1581 35.7728 19.7907 35.6981 18.1595 34.6651C17.7545 34.3979 17.3984 34.0684 17.1055 33.69C18.4952 34.4005 19.7392 34.3882 21.2802 33.7953C22.4447 33.3468 23.3204 32.3359 23.73 31.2158C23.9864 30.5164 23.983 29.8123 23.983 29.0849V8.36914H29.6024C29.6024 8.36914 29.5393 8.884 29.6797 9.67708ZM37.3753 15.8579V17.0105C36.7156 16.8599 36.0761 16.6372 35.4694 16.3468C34.2939 15.7845 33.3783 14.8685 33.1992 14.6833C33.407 14.814 33.6226 14.933 33.8449 15.0395C35.274 15.7234 36.6814 15.9275 37.3753 15.8579Z" fill="#33F3ED"/>
</g>
</svg>
