<svg width="48" height="48" viewBox="0 0 10 48" fill="none" xmlns="http://www.w3.org/2000/svg">
<path fill-rule="evenodd" clip-rule="evenodd" d="M21.5423 16.7964C21.5558 17.1462 21.5603 17.4958 21.5603 17.8456C21.5603 28.45 14.1007 40.6921 0.459497 40.6921C-3.73083 40.6921 -7.62723 39.3566 -10.9102 37.0831C-10.3298 37.1467 -9.74048 37.1945 -9.14207 37.1945C-5.66772 37.1945 -2.4677 35.9064 0.0706178 33.7442C-3.17463 33.6965 -5.91491 31.3594 -6.85999 28.1797C-6.40629 28.2751 -5.93906 28.3229 -5.46124 28.3229C-4.78747 28.3229 -4.1333 28.2276 -3.50626 28.0369C-6.90223 27.3055 -9.46011 24.0623 -9.46011 20.1671C-9.46011 20.1194 -9.46011 20.1034 -9.46011 20.0716C-8.45926 20.6599 -7.31372 21.0254 -6.09732 21.073C-8.08999 19.6263 -9.39985 17.162 -9.39985 14.3798C-9.39985 12.9171 -9.03509 11.5339 -8.39297 10.3415C-4.73623 15.2064 0.730832 18.4021 6.89423 18.736C6.76762 18.1477 6.70278 17.5279 6.70278 16.9078C6.70278 12.4721 10.0234 8.87891 14.1202 8.87891C16.2531 8.87891 18.1794 9.84886 19.5315 11.4069C21.2242 11.0572 22.8099 10.3895 24.2449 9.46734C23.6887 11.3434 22.5145 12.917 20.98 13.9027C22.4813 13.712 23.9133 13.283 25.2412 12.6471C24.2449 14.2528 22.9908 15.6676 21.5423 16.7964Z" fill="#1EA1F2"/>
</svg>
